<?xml version="1.0" encoding="UTF-8"?><svg xmlns="http://www.w3.org/2000/svg" xmlns:xlink="http://www.w3.org/1999/xlink" fill-opacity="1" color-rendering="auto" color-interpolation="auto" stroke="black" text-rendering="auto" stroke-linecap="square" width="1010" stroke-miterlimit="10" stroke-opacity="1" shape-rendering="auto" fill="black" stroke-dasharray="none" font-weight="normal" stroke-width="1" height="1771" font-family="'Dialog'" font-style="normal" stroke-linejoin="miter" font-size="12" stroke-dashoffset="0" image-rendering="auto">
  <!--Generated by ySVG-->
  <defs id="genericDefs"/>
  <g>
    <defs id="defs1">
      <linearGradient x1="589.0671" gradientUnits="userSpaceOnUse" x2="910.6888" y1="657.4896" y2="697.4896" id="linearGradient1" spreadMethod="pad">
        <stop stop-opacity="1" stop-color="rgb(232,238,247)" offset="0%"/>
        <stop stop-opacity="1" stop-color="rgb(183,201,227)" offset="100%"/>
      </linearGradient>
      <linearGradient x1="589.0671" gradientUnits="userSpaceOnUse" x2="910.6888" y1="727.4896" y2="767.4896" id="linearGradient2" spreadMethod="pad">
        <stop stop-opacity="1" stop-color="rgb(255,204,153)" offset="0%"/>
        <stop stop-opacity="1" stop-color="red" offset="100%"/>
      </linearGradient>
      <linearGradient x1="574.0671" gradientUnits="userSpaceOnUse" x2="741.4582" y1="562.0636" y2="602.0636" id="linearGradient3" spreadMethod="pad">
        <stop stop-opacity="1" stop-color="rgb(232,238,247)" offset="0%"/>
        <stop stop-opacity="1" stop-color="rgb(183,201,227)" offset="100%"/>
      </linearGradient>
      <linearGradient x1="580.0422" gradientUnits="userSpaceOnUse" x2="901.6639" y1="802.4009" y2="842.4009" id="linearGradient4" spreadMethod="pad">
        <stop stop-opacity="1" stop-color="rgb(232,238,247)" offset="0%"/>
        <stop stop-opacity="1" stop-color="rgb(183,201,227)" offset="100%"/>
      </linearGradient>
      <linearGradient x1="574.0671" gradientUnits="userSpaceOnUse" x2="741.4582" y1="450.5635" y2="490.5635" id="linearGradient5" spreadMethod="pad">
        <stop stop-opacity="1" stop-color="rgb(232,238,247)" offset="0%"/>
        <stop stop-opacity="1" stop-color="rgb(183,201,227)" offset="100%"/>
      </linearGradient>
      <linearGradient x1="559.0671" gradientUnits="userSpaceOnUse" x2="726.4582" y1="130.5995" y2="234.5923" id="linearGradient6" spreadMethod="pad">
        <stop stop-opacity="1" stop-color="rgb(232,238,247)" offset="0%"/>
        <stop stop-opacity="1" stop-color="rgb(183,201,227)" offset="100%"/>
      </linearGradient>
      <linearGradient x1="-8.488" gradientUnits="userSpaceOnUse" x2="198.488" y1="66.6067" y2="106.6067" id="linearGradient7" spreadMethod="pad">
        <stop stop-opacity="1" stop-color="rgb(232,238,247)" offset="0%"/>
        <stop stop-opacity="1" stop-color="rgb(183,201,227)" offset="100%"/>
      </linearGradient>
      <linearGradient x1="-8.488" gradientUnits="userSpaceOnUse" x2="198.488" y1="130.5995" y2="170.5995" id="linearGradient8" spreadMethod="pad">
        <stop stop-opacity="1" stop-color="rgb(232,238,247)" offset="0%"/>
        <stop stop-opacity="1" stop-color="rgb(183,201,227)" offset="100%"/>
      </linearGradient>
      <linearGradient x1="-8.488" gradientUnits="userSpaceOnUse" x2="198.488" y1="194.5923" y2="234.5923" id="linearGradient9" spreadMethod="pad">
        <stop stop-opacity="1" stop-color="rgb(232,238,247)" offset="0%"/>
        <stop stop-opacity="1" stop-color="rgb(183,201,227)" offset="100%"/>
      </linearGradient>
      <linearGradient x1="-8.488" gradientUnits="userSpaceOnUse" x2="198.488" y1="875.5929" y2="915.5929" id="linearGradient10" spreadMethod="pad">
        <stop stop-opacity="1" stop-color="rgb(232,238,247)" offset="0%"/>
        <stop stop-opacity="1" stop-color="rgb(183,201,227)" offset="100%"/>
      </linearGradient>
      <linearGradient x1="55" gradientUnits="userSpaceOnUse" x2="135" y1="-7.7907" y2="32.2093" id="linearGradient11" spreadMethod="pad">
        <stop stop-opacity="1" stop-color="rgb(232,238,247)" offset="0%"/>
        <stop stop-opacity="1" stop-color="rgb(183,201,227)" offset="100%"/>
      </linearGradient>
      <linearGradient x1="-8.488" gradientUnits="userSpaceOnUse" x2="198.488" y1="258.5851" y2="298.5851" id="linearGradient12" spreadMethod="pad">
        <stop stop-opacity="1" stop-color="rgb(232,238,247)" offset="0%"/>
        <stop stop-opacity="1" stop-color="rgb(183,201,227)" offset="100%"/>
      </linearGradient>
      <linearGradient x1="-8.488" gradientUnits="userSpaceOnUse" x2="198.488" y1="322.5779" y2="362.5779" id="linearGradient13" spreadMethod="pad">
        <stop stop-opacity="1" stop-color="rgb(232,238,247)" offset="0%"/>
        <stop stop-opacity="1" stop-color="rgb(183,201,227)" offset="100%"/>
      </linearGradient>
      <linearGradient x1="-8.488" gradientUnits="userSpaceOnUse" x2="198.488" y1="450.5635" y2="490.5635" id="linearGradient14" spreadMethod="pad">
        <stop stop-opacity="1" stop-color="rgb(232,238,247)" offset="0%"/>
        <stop stop-opacity="1" stop-color="rgb(183,201,227)" offset="100%"/>
      </linearGradient>
      <linearGradient x1="-8.488" gradientUnits="userSpaceOnUse" x2="198.488" y1="386.5707" y2="426.5707" id="linearGradient15" spreadMethod="pad">
        <stop stop-opacity="1" stop-color="rgb(232,238,247)" offset="0%"/>
        <stop stop-opacity="1" stop-color="rgb(183,201,227)" offset="100%"/>
      </linearGradient>
      <linearGradient x1="-8.488" gradientUnits="userSpaceOnUse" x2="198.488" y1="945.5929" y2="985.5929" id="linearGradient16" spreadMethod="pad">
        <stop stop-opacity="1" stop-color="rgb(232,238,247)" offset="0%"/>
        <stop stop-opacity="1" stop-color="rgb(183,201,227)" offset="100%"/>
      </linearGradient>
      <linearGradient x1="-8.488" gradientUnits="userSpaceOnUse" x2="198.488" y1="1015.5929" y2="1074.9929" id="linearGradient17" spreadMethod="pad">
        <stop stop-opacity="1" stop-color="rgb(232,238,247)" offset="0%"/>
        <stop stop-opacity="1" stop-color="rgb(183,201,227)" offset="100%"/>
      </linearGradient>
      <linearGradient x1="140.937" gradientUnits="userSpaceOnUse" x2="343.1581" y1="1104.9929" y2="1137.2329" id="linearGradient18" spreadMethod="pad">
        <stop stop-opacity="1" stop-color="rgb(255,204,153)" offset="0%"/>
        <stop stop-opacity="1" stop-color="red" offset="100%"/>
      </linearGradient>
      <linearGradient x1="140.937" gradientUnits="userSpaceOnUse" x2="343.1581" y1="1228.1298" y2="1244.8497" id="linearGradient19" spreadMethod="pad">
        <stop stop-opacity="1" stop-color="rgb(232,238,247)" offset="0%"/>
        <stop stop-opacity="1" stop-color="rgb(183,201,227)" offset="100%"/>
      </linearGradient>
      <linearGradient x1="-8.488" gradientUnits="userSpaceOnUse" x2="198.488" y1="1540.7325" y2="1580.7325" id="linearGradient20" spreadMethod="pad">
        <stop stop-opacity="1" stop-color="rgb(232,238,247)" offset="0%"/>
        <stop stop-opacity="1" stop-color="rgb(183,201,227)" offset="100%"/>
      </linearGradient>
      <linearGradient x1="140.937" gradientUnits="userSpaceOnUse" x2="343.1581" y1="1464.3269" y2="1481.0469" id="linearGradient21" spreadMethod="pad">
        <stop stop-opacity="1" stop-color="rgb(232,238,247)" offset="0%"/>
        <stop stop-opacity="1" stop-color="rgb(183,201,227)" offset="100%"/>
      </linearGradient>
      <linearGradient x1="-8.488" gradientUnits="userSpaceOnUse" x2="198.488" y1="1629.5736" y2="1669.5736" id="linearGradient22" spreadMethod="pad">
        <stop stop-opacity="1" stop-color="rgb(232,238,247)" offset="0%"/>
        <stop stop-opacity="1" stop-color="rgb(183,201,227)" offset="100%"/>
      </linearGradient>
      <linearGradient x1="140.937" gradientUnits="userSpaceOnUse" x2="343.1581" y1="1167.2329" y2="1191.7129" id="linearGradient23" spreadMethod="pad">
        <stop stop-opacity="1" stop-color="rgb(232,238,247)" offset="0%"/>
        <stop stop-opacity="1" stop-color="rgb(183,201,227)" offset="100%"/>
      </linearGradient>
      <linearGradient x1="140.937" gradientUnits="userSpaceOnUse" x2="343.1581" y1="1269.3298" y2="1293.8098" id="linearGradient24" spreadMethod="pad">
        <stop stop-opacity="1" stop-color="rgb(232,238,247)" offset="0%"/>
        <stop stop-opacity="1" stop-color="rgb(183,201,227)" offset="100%"/>
      </linearGradient>
      <linearGradient x1="140.937" gradientUnits="userSpaceOnUse" x2="343.1581" y1="1244.8499" y2="1269.3298" id="linearGradient25" spreadMethod="pad">
        <stop stop-opacity="1" stop-color="rgb(232,238,247)" offset="0%"/>
        <stop stop-opacity="1" stop-color="rgb(183,201,227)" offset="100%"/>
      </linearGradient>
      <linearGradient x1="287.4362" gradientUnits="userSpaceOnUse" x2="489.6572" y1="1393.127" y2="1417.6069" id="linearGradient26" spreadMethod="pad">
        <stop stop-opacity="1" stop-color="rgb(255,204,153)" offset="0%"/>
        <stop stop-opacity="1" stop-color="red" offset="100%"/>
      </linearGradient>
      <linearGradient x1="287.4362" gradientUnits="userSpaceOnUse" x2="489.6572" y1="1368.647" y2="1393.127" id="linearGradient27" spreadMethod="pad">
        <stop stop-opacity="1" stop-color="rgb(232,238,247)" offset="0%"/>
        <stop stop-opacity="1" stop-color="rgb(183,201,227)" offset="100%"/>
      </linearGradient>
      <linearGradient x1="287.4362" gradientUnits="userSpaceOnUse" x2="489.6572" y1="1344.1669" y2="1368.6469" id="linearGradient28" spreadMethod="pad">
        <stop stop-opacity="1" stop-color="rgb(232,238,247)" offset="0%"/>
        <stop stop-opacity="1" stop-color="rgb(183,201,227)" offset="100%"/>
      </linearGradient>
      <linearGradient x1="287.4362" gradientUnits="userSpaceOnUse" x2="489.6572" y1="1327.4469" y2="1344.1669" id="linearGradient29" spreadMethod="pad">
        <stop stop-opacity="1" stop-color="rgb(232,238,247)" offset="0%"/>
        <stop stop-opacity="1" stop-color="rgb(183,201,227)" offset="100%"/>
      </linearGradient>
      <linearGradient x1="287.4362" gradientUnits="userSpaceOnUse" x2="489.6572" y1="1417.6069" y2="1434.3269" id="linearGradient30" spreadMethod="pad">
        <stop stop-opacity="1" stop-color="rgb(232,238,247)" offset="0%"/>
        <stop stop-opacity="1" stop-color="rgb(183,201,227)" offset="100%"/>
      </linearGradient>
      <clipPath clipPathUnits="userSpaceOnUse" id="clipPath1">
        <path d="M0 0 L1010 0 L1010 1771 L0 1771 L0 0 Z"/>
      </clipPath>
      <clipPath clipPathUnits="userSpaceOnUse" id="clipPath2">
        <path d="M-54 -71 L956 -71 L956 1700 L-54 1700 L-54 -71 Z"/>
      </clipPath>
    </defs>
    <g fill="white" transform="translate(54,71)" stroke="white">
      <rect x="-54" width="1010" height="1771" y="-71" clip-path="url(#clipPath2)" stroke="none"/>
    </g>
    <g fill="rgb(245,245,245)" transform="matrix(1,0,0,1,54,71)" stroke="rgb(245,245,245)">
      <rect x="527.5766" y="-55.7937" clip-path="url(#clipPath2)" width="413.1122" rx="4" ry="4" height="978.0998" stroke="none"/>
      <rect x="527.5766" y="-55.7937" clip-path="url(#clipPath2)" fill="rgb(235,235,235)" width="413.1122" height="22.3765" stroke="none"/>
    </g>
    <g font-size="15" stroke-miterlimit="1.45" font-family="sans-serif" transform="matrix(1,0,0,1,54,71)" stroke-linecap="butt">
      <text x="852.014" xml:space="preserve" y="-38.7132" clip-path="url(#clipPath2)" stroke="none">CORNFIELD</text>
      <rect x="527.5766" y="-55.7937" clip-path="url(#clipPath2)" fill="none" width="413.1122" stroke-dasharray="6,2" rx="4" ry="4" height="978.0998"/>
    </g>
    <g fill="rgb(225,225,225)" transform="matrix(1,0,0,1,54,71)" stroke="rgb(225,225,225)">
      <rect x="542.5766" y="520.5635" clip-path="url(#clipPath2)" width="383.1122" rx="4" ry="4" height="386.7425" stroke="none"/>
      <rect x="542.5766" y="520.5635" clip-path="url(#clipPath2)" fill="rgb(235,235,235)" width="383.1122" height="22.3765" stroke="none"/>
    </g>
    <g font-size="15" stroke-miterlimit="1.45" font-family="sans-serif" transform="matrix(1,0,0,1,54,71)" stroke-linecap="butt">
      <text x="771.9603" xml:space="preserve" y="537.6441" clip-path="url(#clipPath2)" stroke="none">Remix route in index.js</text>
      <rect x="542.5766" y="520.5635" clip-path="url(#clipPath2)" fill="none" width="383.1122" stroke-dasharray="6,2" rx="4" ry="4" height="386.7425"/>
    </g>
    <g fill="url(#linearGradient1)" stroke-miterlimit="1.45" transform="matrix(1,0,0,1,54,71)" stroke-linecap="butt" stroke="url(#linearGradient1)">
      <path d="M599.2671 657.4896 L910.6888 657.4896 L900.4888 697.4896 L589.0671 697.4896 Z" clip-path="url(#clipPath2)" stroke="none"/>
      <path fill="none" d="M599.2671 657.4896 L910.6888 657.4896 L900.4888 697.4896 L589.0671 697.4896 Z" clip-path="url(#clipPath2)" stroke="black"/>
      <text x="658.0146" y="682.2034" clip-path="url(#clipPath2)" fill="black" font-family="sans-serif" stroke="none" xml:space="preserve">project = stringified JSON from DB</text>
    </g>
    <g fill="url(#linearGradient2)" stroke-miterlimit="1.45" transform="matrix(1,0,0,1,54,71)" stroke-linecap="butt" stroke="url(#linearGradient2)">
      <path d="M599.2671 727.4896 L910.6888 727.4896 L900.4888 767.4896 L589.0671 767.4896 Z" clip-path="url(#clipPath2)" stroke="none"/>
      <path fill="none" d="M599.2671 727.4896 L910.6888 727.4896 L900.4888 767.4896 L589.0671 767.4896 Z" clip-path="url(#clipPath2)" stroke="black"/>
      <text x="612.9941" y="752.2034" clip-path="url(#clipPath2)" fill="black" font-family="sans-serif" stroke="none" xml:space="preserve">projectJSON = sanitizedHTMLinJSON(project.data)</text>
    </g>
    <g fill="url(#linearGradient3)" stroke-miterlimit="1.45" transform="matrix(1,0,0,1,54,71)" stroke-linecap="butt" stroke="url(#linearGradient3)">
      <path d="M574.0671 562.0636 L741.4582 562.0636 L741.4582 602.0636 L574.0671 602.0636 Z" clip-path="url(#clipPath2)" stroke="none"/>
      <path fill="none" d="M574.0671 562.0636 L741.4582 562.0636 L741.4582 602.0636 L574.0671 602.0636 Z" clip-path="url(#clipPath2)" stroke="black"/>
      <text x="621.748" y="579.4269" clip-path="url(#clipPath2)" fill="black" font-family="sans-serif" stroke="none" xml:space="preserve">User.findById</text>
      <text x="586.3954" y="594.1281" clip-path="url(#clipPath2)" fill="black" font-family="sans-serif" stroke="none" xml:space="preserve">(finds a project, not a user)</text>
    </g>
    <g fill="url(#linearGradient4)" stroke-miterlimit="1.45" transform="matrix(1,0,0,1,54,71)" stroke-linecap="butt" stroke="url(#linearGradient4)">
      <path d="M590.2422 802.4009 L901.664 802.4009 L891.464 842.4009 L580.0422 842.4009 Z" clip-path="url(#clipPath2)" stroke="none"/>
      <path fill="none" d="M590.2422 802.4009 L901.664 802.4009 L891.464 842.4009 L580.0422 842.4009 Z" clip-path="url(#clipPath2)" stroke="black"/>
      <text x="643.4791" y="827.1147" clip-path="url(#clipPath2)" fill="black" font-family="sans-serif" stroke="none" xml:space="preserve">(further administrative value parsing)</text>
    </g>
    <g fill="url(#linearGradient5)" stroke-miterlimit="1.45" transform="matrix(1,0,0,1,54,71)" stroke-linecap="butt" stroke="url(#linearGradient5)">
      <path d="M574.0671 450.5635 L741.4582 450.5635 L741.4582 490.5635 L574.0671 490.5635 Z" clip-path="url(#clipPath2)" stroke="none"/>
      <path fill="none" d="M574.0671 450.5635 L741.4582 450.5635 L741.4582 490.5635 L574.0671 490.5635 Z" clip-path="url(#clipPath2)" stroke="black"/>
      <text x="580.1054" y="475.2774" clip-path="url(#clipPath2)" fill="black" font-family="sans-serif" stroke="none" xml:space="preserve">index.js // app.get('api/remix')</text>
    </g>
    <g fill="url(#linearGradient6)" stroke-miterlimit="1.45" transform="matrix(1,0,0,1,54,71)" stroke-linecap="butt" stroke="url(#linearGradient6)">
      <path d="M559.0671 130.5995 L726.4582 130.5995 L726.4582 234.5923 L559.0671 234.5923 Z" clip-path="url(#clipPath2)" stroke="none"/>
      <path fill="none" d="M559.0671 130.5995 L726.4582 130.5995 L726.4582 234.5923 L559.0671 234.5923 Z" clip-path="url(#clipPath2)" stroke="black"/>
      <text x="570.3964" y="187.3098" clip-path="url(#clipPath2)" fill="black" font-family="sans-serif" stroke="none" xml:space="preserve">/templates/basic/index.html</text>
    </g>
    <g stroke-linecap="butt" transform="matrix(1,0,0,1,54,71)" stroke-miterlimit="1.45">
      <path fill="none" d="M589.8234 694.4062 L554.8219 698.1056 L554.8219 747.4896 L586.2045 747.4896" clip-path="url(#clipPath2)"/>
      <path d="M594.2045 747.4896 L582.2045 742.4896 L585.2045 747.4896 L582.2045 752.4896 Z" clip-path="url(#clipPath2)" stroke="none"/>
      <path fill="none" d="M657.7626 602.0534 L657.7626 624.0956 L708.4359 653.468" clip-path="url(#clipPath2)"/>
      <path d="M715.3572 657.4799 L707.4826 647.1362 L707.5707 652.9665 L702.4678 655.7878 Z" clip-path="url(#clipPath2)" stroke="none"/>
      <text x="588.619" xml:space="preserve" y="649.4791" font-family="sans-serif" clip-path="url(#clipPath2)" stroke="none">if find succeeded</text>
      <path fill="none" d="M589.2014 767.0766 L554.5289 771.3033 L554.5289 815.3698 L578.6046 816.2783" clip-path="url(#clipPath2)"/>
      <path d="M586.5989 816.58 L574.796 811.131 L577.6053 816.2406 L574.4188 821.1239 Z" clip-path="url(#clipPath2)" stroke="none"/>
      <path fill="none" d="M657.7626 490.5715 L657.7626 554.0944" clip-path="url(#clipPath2)"/>
      <path d="M657.7626 562.0944 L662.7626 550.0944 L657.7626 553.0944 L652.7626 550.0944 Z" clip-path="url(#clipPath2)" stroke="none"/>
    </g>
    <g fill="rgb(245,245,245)" transform="matrix(1,0,0,1,54,71)" stroke="rgb(245,245,245)">
      <rect x="-38.488" y="-55.7937" clip-path="url(#clipPath2)" width="551.0646" rx="4" ry="4" height="1740.3673" stroke="none"/>
      <rect x="-38.488" y="-55.7937" clip-path="url(#clipPath2)" fill="rgb(235,235,235)" width="551.0646" height="22.3765" stroke="none"/>
    </g>
    <g font-size="15" stroke-miterlimit="1.45" font-family="sans-serif" transform="matrix(1,0,0,1,54,71)" stroke-linecap="butt">
      <text x="468.9018" xml:space="preserve" y="-38.7132" clip-path="url(#clipPath2)" stroke="none">USER</text>
      <rect x="-38.488" y="-55.7937" clip-path="url(#clipPath2)" fill="none" width="551.0646" stroke-dasharray="6,2" rx="4" ry="4" height="1740.3673"/>
    </g>
    <g fill="url(#linearGradient7)" stroke-miterlimit="1.45" transform="matrix(1,0,0,1,54,71)" stroke-linecap="butt" stroke="url(#linearGradient7)">
      <path d="M-8.488 66.6067 L198.488 66.6067 L198.488 106.6067 L-8.488 106.6067 Z" clip-path="url(#clipPath2)" stroke="none"/>
      <path fill="none" d="M-8.488 66.6067 L198.488 66.6067 L198.488 106.6067 L-8.488 106.6067 Z" clip-path="url(#clipPath2)" stroke="black"/>
      <text x="22.6602" y="91.3206" clip-path="url(#clipPath2)" fill="black" font-family="sans-serif" stroke="none" xml:space="preserve">src/embed.js // remixClick()</text>
    </g>
    <g fill="url(#linearGradient8)" stroke-miterlimit="1.45" transform="matrix(1,0,0,1,54,71)" stroke-linecap="butt" stroke="url(#linearGradient8)">
      <path d="M-8.488 130.5995 L198.488 130.5995 L198.488 170.5995 L-8.488 170.5995 Z" clip-path="url(#clipPath2)" stroke="none"/>
      <path fill="none" d="M-8.488 130.5995 L198.488 130.5995 L198.488 170.5995 L-8.488 170.5995 Z" clip-path="url(#clipPath2)" stroke="black"/>
      <text x="20.9756" y="155.3134" clip-path="url(#clipPath2)" fill="black" font-family="sans-serif" stroke="none" xml:space="preserve">window.open( [remix URL] )</text>
    </g>
    <g fill="url(#linearGradient9)" stroke-miterlimit="1.45" transform="matrix(1,0,0,1,54,71)" stroke-linecap="butt" stroke="url(#linearGradient9)">
      <path d="M-8.488 194.5923 L198.488 194.5923 L198.488 234.5923 L-8.488 234.5923 Z" clip-path="url(#clipPath2)" stroke="none"/>
      <path fill="none" d="M-8.488 194.5923 L198.488 194.5923 L198.488 234.5923 L-8.488 234.5923 Z" clip-path="url(#clipPath2)" stroke="black"/>
      <text x="42.6318" y="219.3062" clip-path="url(#clipPath2)" fill="black" font-family="sans-serif" stroke="none" xml:space="preserve">page loads butter.js</text>
    </g>
    <g fill="url(#linearGradient10)" stroke-miterlimit="1.45" transform="matrix(1,0,0,1,54,71)" stroke-linecap="butt" stroke="url(#linearGradient10)">
      <path d="M-8.488 875.5929 L198.488 875.5929 L198.488 915.5929 L-8.488 915.5929 Z" clip-path="url(#clipPath2)" stroke="none"/>
      <path fill="none" d="M-8.488 875.5929 L198.488 875.5929 L198.488 915.5929 L-8.488 915.5929 Z" clip-path="url(#clipPath2)" stroke="black"/>
      <text x="21.3008" y="900.3068" clip-path="url(#clipPath2)" fill="black" font-family="sans-serif" stroke="none" xml:space="preserve">build page from JSON reply</text>
    </g>
    <g fill="url(#linearGradient11)" stroke-miterlimit="1.45" transform="matrix(1,0,0,1,54,71)" stroke-linecap="butt" stroke="url(#linearGradient11)">
      <ellipse rx="40" ry="20" clip-path="url(#clipPath2)" cx="95" cy="12.2093" stroke="none"/>
      <ellipse clip-path="url(#clipPath2)" fill="none" rx="40" cx="95" ry="20" cy="12.2093" stroke="black"/>
      <text x="63.3301" y="16.9231" clip-path="url(#clipPath2)" fill="black" font-family="sans-serif" stroke="none" xml:space="preserve">Press remix</text>
    </g>
    <g fill="url(#linearGradient12)" stroke-miterlimit="1.45" transform="matrix(1,0,0,1,54,71)" stroke-linecap="butt" stroke="url(#linearGradient12)">
      <path d="M-8.488 258.5851 L198.488 258.5851 L198.488 298.5851 L-8.488 298.5851 Z" clip-path="url(#clipPath2)" stroke="none"/>
      <path fill="none" d="M-8.488 258.5851 L198.488 258.5851 L198.488 298.5851 L-8.488 298.5851 Z" clip-path="url(#clipPath2)" stroke="black"/>
      <text x="39.9688" y="283.299" clip-path="url(#clipPath2)" fill="black" font-family="sans-serif" stroke="none" xml:space="preserve">butter loads config.js</text>
    </g>
    <g fill="url(#linearGradient13)" stroke-miterlimit="1.45" transform="matrix(1,0,0,1,54,71)" stroke-linecap="butt" stroke="url(#linearGradient13)">
      <path d="M-8.488 322.5779 L198.488 322.5779 L198.488 362.5779 L-8.488 362.5779 Z" clip-path="url(#clipPath2)" stroke="none"/>
      <path fill="none" d="M-8.488 322.5779 L198.488 322.5779 L198.488 362.5779 L-8.488 362.5779 Z" clip-path="url(#clipPath2)" stroke="black"/>
      <text x="36.3066" y="347.2918" clip-path="url(#clipPath2)" fill="black" font-family="sans-serif" stroke="none" xml:space="preserve">config.js loads main.js</text>
    </g>
    <g fill="url(#linearGradient14)" stroke-miterlimit="1.45" transform="matrix(1,0,0,1,54,71)" stroke-linecap="butt" stroke="url(#linearGradient14)">
      <path d="M-8.488 450.5635 L198.488 450.5635 L198.488 490.5635 L-8.488 490.5635 Z" clip-path="url(#clipPath2)" stroke="none"/>
      <path fill="none" d="M-8.488 450.5635 L198.488 450.5635 L198.488 490.5635 L-8.488 490.5635 Z" clip-path="url(#clipPath2)" stroke="black"/>
      <text x="7.2939" y="475.2774" clip-path="url(#clipPath2)" fill="black" font-family="sans-serif" stroke="none" xml:space="preserve">main.js // loadForSavedDataURL</text>
    </g>
    <g fill="url(#linearGradient15)" stroke-miterlimit="1.45" transform="matrix(1,0,0,1,54,71)" stroke-linecap="butt" stroke="url(#linearGradient15)">
      <path d="M-8.488 386.5707 L198.488 386.5707 L198.488 426.5707 L-8.488 426.5707 Z" clip-path="url(#clipPath2)" stroke="none"/>
      <path fill="none" d="M-8.488 386.5707 L198.488 386.5707 L198.488 426.5707 L-8.488 426.5707 Z" clip-path="url(#clipPath2)" stroke="black"/>
      <text x="23.2959" y="411.2846" clip-path="url(#clipPath2)" fill="black" font-family="sans-serif" stroke="none" xml:space="preserve">main.js // attemptDataLoad</text>
    </g>
    <g fill="url(#linearGradient16)" stroke-miterlimit="1.45" transform="matrix(1,0,0,1,54,71)" stroke-linecap="butt" stroke="url(#linearGradient16)">
      <path d="M-8.488 945.5929 L198.488 945.5929 L198.488 985.5929 L-8.488 985.5929 Z" clip-path="url(#clipPath2)" stroke="none"/>
      <path fill="none" d="M-8.488 945.5929 L198.488 945.5929 L198.488 985.5929 L-8.488 985.5929 Z" clip-path="url(#clipPath2)" stroke="black"/>
      <text x="45.6494" y="970.3068" clip-path="url(#clipPath2)" fill="black" font-family="sans-serif" stroke="none" xml:space="preserve">main.js // doImport</text>
    </g>
    <g fill="url(#linearGradient17)" stroke-miterlimit="1.45" transform="matrix(1,0,0,1,54,71)" stroke-linecap="butt" stroke="url(#linearGradient17)">
      <path d="M-8.488 1015.5929 L198.488 1015.5929 L198.488 1074.9929 L-8.488 1074.9929 Z" clip-path="url(#clipPath2)" stroke="none"/>
      <path fill="none" d="M-8.488 1015.5929 L198.488 1015.5929 L198.488 1074.9929 L-8.488 1074.9929 Z" clip-path="url(#clipPath2)" stroke="black"/>
      <text x="54.6582" y="1035.3057" clip-path="url(#clipPath2)" fill="black" font-family="sans-serif" stroke="none" xml:space="preserve">project.import()</text>
      <text x="87.5" y="1050.0068" clip-path="url(#clipPath2)" fill="black" font-family="sans-serif" stroke="none" xml:space="preserve">--&gt;</text>
      <text x="33.3125" y="1064.708" clip-path="url(#clipPath2)" fill="black" font-family="sans-serif" stroke="none" xml:space="preserve">project.js // _this.import</text>
    </g>
    <g fill="url(#linearGradient18)" stroke-miterlimit="1.45" transform="matrix(1,0,0,1,54,71)" stroke-linecap="butt" stroke="url(#linearGradient18)">
      <path d="M140.937 1104.9929 L343.1581 1104.9929 L343.1581 1137.2329 L140.937 1137.2329 Z" clip-path="url(#clipPath2)" stroke="none"/>
      <path fill="none" d="M140.937 1104.9929 L343.1581 1104.9929 L343.1581 1137.2329 L140.937 1137.2329 Z" clip-path="url(#clipPath2)" stroke="black"/>
      <text x="147.6647" y="1125.8268" clip-path="url(#clipPath2)" fill="black" font-family="sans-serif" stroke="none" xml:space="preserve">reconstitute sanitized project name </text>
    </g>
    <g fill="url(#linearGradient19)" stroke-miterlimit="1.45" transform="matrix(1,0,0,1,54,71)" stroke-linecap="butt" stroke="url(#linearGradient19)">
      <path d="M149.297 1228.1298 L334.7981 1228.1298 L343.1581 1236.4897 L343.1581 1244.8499 L140.937 1244.8499 L140.937 1236.4897 Z" clip-path="url(#clipPath2)" stroke="none"/>
      <path fill="none" d="M149.297 1228.1298 L334.7981 1228.1298 L343.1581 1236.4897 L343.1581 1244.8499 L140.937 1244.8499 L140.937 1236.4897 Z" clip-path="url(#clipPath2)" stroke="black"/>
      <text x="187.6901" y="1241.2036" clip-path="url(#clipPath2)" fill="black" font-family="sans-serif" stroke="none" xml:space="preserve">for each media track</text>
    </g>
    <g fill="url(#linearGradient20)" stroke-miterlimit="1.45" transform="matrix(1,0,0,1,54,71)" stroke-linecap="butt" stroke="url(#linearGradient20)">
      <path d="M-8.488 1540.7325 L198.488 1540.7325 L198.488 1580.7325 L-8.488 1580.7325 Z" clip-path="url(#clipPath2)" stroke="none"/>
      <path fill="none" d="M-8.488 1540.7325 L198.488 1540.7325 L198.488 1580.7325 L-8.488 1580.7325 Z" clip-path="url(#clipPath2)" stroke="black"/>
      <text x="62.6562" y="1565.4464" clip-path="url(#clipPath2)" fill="black" font-family="sans-serif" stroke="none" xml:space="preserve">useProject()</text>
    </g>
    <g fill="url(#linearGradient21)" stroke-miterlimit="1.45" transform="matrix(1,0,0,1,54,71)" stroke-linecap="butt" stroke="url(#linearGradient21)">
      <path d="M140.937 1464.3269 L343.1581 1464.3269 L343.1581 1472.6869 L334.7981 1481.0469 L149.297 1481.0469 L140.937 1472.6869 Z" clip-path="url(#clipPath2)" stroke="none"/>
      <path fill="none" d="M140.937 1464.3269 L343.1581 1464.3269 L343.1581 1472.6869 L334.7981 1481.0469 L149.297 1481.0469 L140.937 1472.6869 Z" clip-path="url(#clipPath2)" stroke="black"/>
    </g>
    <g fill="url(#linearGradient22)" stroke-miterlimit="1.45" transform="matrix(1,0,0,1,54,71)" stroke-linecap="butt" stroke="url(#linearGradient22)">
      <path d="M-8.488 1629.5736 L198.488 1629.5736 L198.488 1669.5736 L-8.488 1669.5736 Z" clip-path="url(#clipPath2)" stroke="none"/>
      <path fill="none" d="M-8.488 1629.5736 L198.488 1629.5736 L198.488 1669.5736 L-8.488 1669.5736 Z" clip-path="url(#clipPath2)" stroke="black"/>
      <text x="14.0381" y="1646.9369" clip-path="url(#clipPath2)" fill="black" font-family="sans-serif" stroke="none" xml:space="preserve">_this.dispatch( "ready", _this );</text>
      <text x="25.6367" y="1661.6381" clip-path="url(#clipPath2)" fill="black" font-family="sans-serif" stroke="none" xml:space="preserve">(_this is a Butter instance)</text>
    </g>
    <g fill="url(#linearGradient23)" stroke-miterlimit="1.45" transform="matrix(1,0,0,1,54,71)" stroke-linecap="butt" stroke="url(#linearGradient23)">
      <path d="M140.937 1167.2329 L343.1581 1167.2329 L343.1581 1191.7129 L140.937 1191.7129 Z" clip-path="url(#clipPath2)" stroke="none"/>
      <path fill="none" d="M140.937 1167.2329 L343.1581 1167.2329 L343.1581 1191.7129 L140.937 1191.7129 Z" clip-path="url(#clipPath2)" stroke="black"/>
      <text x="203.0241" y="1184.1868" clip-path="url(#clipPath2)" fill="black" font-family="sans-serif" stroke="none" xml:space="preserve">target injection</text>
    </g>
    <g fill="url(#linearGradient24)" stroke-miterlimit="1.45" transform="matrix(1,0,0,1,54,71)" stroke-linecap="butt" stroke="url(#linearGradient24)">
      <path d="M140.937 1269.3298 L343.1581 1269.3298 L343.1581 1293.8098 L140.937 1293.8098 Z" clip-path="url(#clipPath2)" stroke="none"/>
      <path fill="none" d="M140.937 1269.3298 L343.1581 1269.3298 L343.1581 1293.8098 L140.937 1293.8098 Z" clip-path="url(#clipPath2)" stroke="black"/>
      <text x="177.1784" y="1286.2837" clip-path="url(#clipPath2)" fill="black" font-family="sans-serif" stroke="none" xml:space="preserve">media.json = mediaData</text>
    </g>
    <g fill="url(#linearGradient25)" stroke-miterlimit="1.45" transform="matrix(1,0,0,1,54,71)" stroke-linecap="butt" stroke="url(#linearGradient25)">
      <path d="M140.937 1244.8499 L343.1581 1244.8499 L343.1581 1269.3298 L140.937 1269.3298 Z" clip-path="url(#clipPath2)" stroke="none"/>
      <path fill="none" d="M140.937 1244.8499 L343.1581 1244.8499 L343.1581 1269.3298 L140.937 1269.3298 Z" clip-path="url(#clipPath2)" stroke="black"/>
      <text x="178.3591" y="1261.8037" clip-path="url(#clipPath2)" fill="black" font-family="sans-serif" stroke="none" xml:space="preserve">project.js // new Media()</text>
    </g>
    <g fill="url(#linearGradient26)" stroke-miterlimit="1.45" transform="matrix(1,0,0,1,54,71)" stroke-linecap="butt" stroke="url(#linearGradient26)">
      <path d="M287.4362 1393.127 L489.6573 1393.127 L489.6573 1417.6069 L287.4362 1417.6069 Z" clip-path="url(#clipPath2)" stroke="none"/>
      <path fill="none" d="M287.4362 1393.127 L489.6573 1393.127 L489.6573 1417.6069 L287.4362 1417.6069 Z" clip-path="url(#clipPath2)" stroke="black"/>
      <text x="305.1854" y="1410.0808" clip-path="url(#clipPath2)" fill="black" font-family="sans-serif" stroke="none" xml:space="preserve">this.sanitizeTrackEventData(...)</text>
    </g>
    <g fill="url(#linearGradient27)" stroke-miterlimit="1.45" transform="matrix(1,0,0,1,54,71)" stroke-linecap="butt" stroke="url(#linearGradient27)">
      <path d="M287.4362 1368.647 L489.6573 1368.647 L489.6573 1393.127 L287.4362 1393.127 Z" clip-path="url(#clipPath2)" stroke="none"/>
      <path fill="none" d="M287.4362 1368.647 L489.6573 1368.647 L489.6573 1393.127 L287.4362 1393.127 Z" clip-path="url(#clipPath2)" stroke="black"/>
      <text x="311.5223" y="1385.6008" clip-path="url(#clipPath2)" fill="black" font-family="sans-serif" stroke="none" xml:space="preserve">newTrack.addTrackEvent(...)</text>
    </g>
    <g fill="url(#linearGradient28)" stroke-miterlimit="1.45" transform="matrix(1,0,0,1,54,71)" stroke-linecap="butt" stroke="url(#linearGradient28)">
      <path d="M287.4362 1344.1669 L489.6573 1344.1669 L489.6573 1368.647 L287.4362 1368.647 Z" clip-path="url(#clipPath2)" stroke="none"/>
      <path fill="none" d="M287.4362 1344.1669 L489.6573 1344.1669 L489.6573 1368.647 L287.4362 1368.647 Z" clip-path="url(#clipPath2)" stroke="black"/>
      <text x="324.0321" y="1361.1208" clip-path="url(#clipPath2)" fill="black" font-family="sans-serif" stroke="none" xml:space="preserve">newTrack = new Track()</text>
    </g>
    <g fill="url(#linearGradient29)" stroke-miterlimit="1.45" transform="matrix(1,0,0,1,54,71)" stroke-linecap="butt" stroke="url(#linearGradient29)">
      <path d="M295.7962 1327.4469 L481.2972 1327.4469 L489.6573 1335.8069 L489.6573 1344.1669 L287.4362 1344.1669 L287.4362 1335.8069 Z" clip-path="url(#clipPath2)" stroke="none"/>
      <path fill="none" d="M295.7962 1327.4469 L481.2972 1327.4469 L489.6573 1335.8069 L489.6573 1344.1669 L287.4362 1344.1669 L287.4362 1335.8069 Z" clip-path="url(#clipPath2)" stroke="black"/>
      <text x="335.8534" y="1340.5208" clip-path="url(#clipPath2)" fill="black" font-family="sans-serif" stroke="none" xml:space="preserve">for each track event</text>
    </g>
    <g fill="url(#linearGradient30)" stroke-miterlimit="1.45" transform="matrix(1,0,0,1,54,71)" stroke-linecap="butt" stroke="url(#linearGradient30)">
      <path d="M287.4362 1417.6069 L489.6573 1417.6069 L489.6573 1425.9669 L481.2972 1434.3269 L295.7962 1434.3269 L287.4362 1425.9669 Z" clip-path="url(#clipPath2)" stroke="none"/>
      <path fill="none" d="M287.4362 1417.6069 L489.6573 1417.6069 L489.6573 1425.9669 L481.2972 1434.3269 L295.7962 1434.3269 L287.4362 1425.9669 Z" clip-path="url(#clipPath2)" stroke="black"/>
    </g>
    <g stroke-linecap="butt" transform="matrix(1,0,0,1,54,71)" stroke-miterlimit="1.45">
      <path fill="none" d="M95 106.6357 L95 122.6355" clip-path="url(#clipPath2)"/>
      <path d="M95 130.6355 L100 118.6355 L95 121.6355 L90 118.6355 Z" clip-path="url(#clipPath2)" stroke="none"/>
      <path fill="none" d="M198.5141 150.5995 L495.5609 150.5995 L551.2457 162.7034" clip-path="url(#clipPath2)"/>
      <path d="M559.0632 164.4026 L548.399 156.9679 L550.2686 162.491 L546.275 166.7397 Z" clip-path="url(#clipPath2)" stroke="none"/>
      <path fill="none" d="M559.0385 200.9767 L497.0193 214.5923 L206.4984 214.5923" clip-path="url(#clipPath2)"/>
      <path d="M198.4984 214.5923 L210.4984 219.5923 L207.4984 214.5923 L210.4984 209.5923 Z" clip-path="url(#clipPath2)" stroke="none"/>
      <path fill="none" d="M686.2646 842.4054 L541.1259 895.5929 L206.4988 895.5929" clip-path="url(#clipPath2)"/>
      <path d="M198.4988 895.5929 L210.4988 900.5929 L207.4988 895.5929 L210.4988 890.5929 Z" clip-path="url(#clipPath2)" stroke="none"/>
      <text x="690.1881" xml:space="preserve" y="918.5237" font-family="sans-serif" clip-path="url(#clipPath2)" stroke="none">JSON object</text>
      <path fill="none" d="M95 32.2254 L95 58.612" clip-path="url(#clipPath2)"/>
      <path d="M95 66.612 L100 54.612 L95 57.612 L90 54.612 Z" clip-path="url(#clipPath2)" stroke="none"/>
      <path fill="none" d="M95 234.6213 L95 250.6211" clip-path="url(#clipPath2)"/>
      <path d="M95 258.6211 L100 246.6211 L95 249.6211 L90 246.6211 Z" clip-path="url(#clipPath2)" stroke="none"/>
      <path fill="none" d="M95 298.6141 L95 314.6139" clip-path="url(#clipPath2)"/>
      <path d="M95 322.6139 L100 310.6139 L95 313.6139 L90 310.6139 Z" clip-path="url(#clipPath2)" stroke="none"/>
      <path fill="none" d="M198.4914 470.5635 L566.088 470.5635" clip-path="url(#clipPath2)"/>
      <path d="M574.088 470.5635 L562.088 465.5635 L565.088 470.5635 L562.088 475.5635 Z" clip-path="url(#clipPath2)" stroke="none"/>
      <text x="205.0445" xml:space="preserve" y="489.252" font-family="sans-serif" clip-path="url(#clipPath2)" stroke="none">XHR(remixURL)</text>
      <path fill="none" stroke-dasharray="6,2" d="M95 490.5646 L95 875.5689" clip-path="url(#clipPath2)"/>
      <path fill="none" d="M95 362.6069 L95 378.6067" clip-path="url(#clipPath2)"/>
      <path d="M95 386.6067 L100 374.6067 L95 377.6067 L90 374.6067 Z" clip-path="url(#clipPath2)" stroke="none"/>
      <path fill="none" d="M95 426.5997 L95 442.5995" clip-path="url(#clipPath2)"/>
      <path d="M95 450.5995 L100 438.5995 L95 441.5995 L90 438.5995 Z" clip-path="url(#clipPath2)" stroke="none"/>
      <path fill="none" d="M95 915.588 L95 937.6202" clip-path="url(#clipPath2)"/>
      <path d="M95 945.6202 L100 933.6202 L95 936.6202 L90 933.6202 Z" clip-path="url(#clipPath2)" stroke="none"/>
      <path fill="none" d="M95 985.5568 L95 1007.5707" clip-path="url(#clipPath2)"/>
      <path d="M95 1015.5707 L100 1003.5707 L95 1006.5707 L90 1003.5707 Z" clip-path="url(#clipPath2)" stroke="none"/>
      <path fill="none" d="M95 1075.0211 L95 1121.1129 L132.9165 1121.1129" clip-path="url(#clipPath2)"/>
      <path d="M140.9165 1121.1129 L128.9165 1116.1129 L131.9165 1121.1129 L128.9165 1126.1129 Z" clip-path="url(#clipPath2)" stroke="none"/>
      <path fill="none" stroke-dasharray="6,2" d="M95 1074.9652 L95 1540.7389" clip-path="url(#clipPath2)"/>
      <path fill="none" d="M242.0476 1481.0132 L242.0476 1510.9203 L95 1510.9203 L95 1532.7395" clip-path="url(#clipPath2)"/>
      <path d="M95 1540.7395 L100 1528.7395 L95 1531.7395 L90 1528.7395 Z" clip-path="url(#clipPath2)" stroke="none"/>
      <path fill="none" d="M95 1580.7305 L95 1621.5728" clip-path="url(#clipPath2)"/>
      <path d="M95 1629.5728 L100 1617.5728 L95 1620.5728 L90 1617.5728 Z" clip-path="url(#clipPath2)" stroke="none"/>
      <path fill="none" d="M242.0476 1137.2133 L242.0476 1159.2159" clip-path="url(#clipPath2)"/>
      <path d="M242.0476 1167.2159 L247.0476 1155.2159 L242.0476 1158.2159 L237.0476 1155.2159 Z" clip-path="url(#clipPath2)" stroke="none"/>
      <path fill="none" d="M242.0476 1191.6948 L242.0476 1220.1345" clip-path="url(#clipPath2)"/>
      <path d="M242.0476 1228.1345 L247.0476 1216.1345 L242.0476 1219.1345 L237.0476 1216.1345 Z" clip-path="url(#clipPath2)" stroke="none"/>
      <path fill="none" stroke-dasharray="6,2" d="M242.0476 1293.8412 L242.0476 1464.3472" clip-path="url(#clipPath2)"/>
      <path fill="none" d="M242.0476 1293.8314 L242.0476 1335.8069 L279.4351 1335.8069" clip-path="url(#clipPath2)"/>
      <path d="M287.4351 1335.8069 L275.4351 1330.8069 L278.4351 1335.8069 L275.4351 1340.8069 Z" clip-path="url(#clipPath2)" stroke="none"/>
      <path fill="none" d="M287.4185 1425.9669 L241.7118 1425.9669 L241.9301 1456.3378" clip-path="url(#clipPath2)"/>
      <path d="M241.9876 1464.3375 L246.9012 1452.3019 L241.9229 1455.3378 L236.9014 1452.3738 Z" clip-path="url(#clipPath2)" stroke="none"/>
    </g>
  </g>
</svg>
