<?xml version="1.0" encoding="UTF-8"?><svg xmlns="http://www.w3.org/2000/svg" xmlns:xlink="http://www.w3.org/1999/xlink" fill-opacity="1" color-rendering="auto" color-interpolation="auto" stroke="black" text-rendering="auto" stroke-linecap="square" width="1204" stroke-miterlimit="10" stroke-opacity="1" shape-rendering="auto" fill="black" stroke-dasharray="none" font-weight="normal" stroke-width="1" height="1352" font-family="'Dialog'" font-style="normal" stroke-linejoin="miter" font-size="12" stroke-dashoffset="0" image-rendering="auto">
  <!--Generated by ySVG-->
  <defs id="genericDefs"/>
  <g>
    <defs id="defs1">
      <linearGradient x1="55" gradientUnits="userSpaceOnUse" x2="135" y1="-3.3933" y2="36.6067" id="linearGradient1" spreadMethod="pad">
        <stop stop-opacity="1" stop-color="rgb(232,238,247)" offset="0%"/>
        <stop stop-opacity="1" stop-color="rgb(183,201,227)" offset="100%"/>
      </linearGradient>
      <linearGradient x1="-8.488" gradientUnits="userSpaceOnUse" x2="198.488" y1="352.9712" y2="392.9712" id="linearGradient2" spreadMethod="pad">
        <stop stop-opacity="1" stop-color="rgb(232,238,247)" offset="0%"/>
        <stop stop-opacity="1" stop-color="rgb(183,201,227)" offset="100%"/>
      </linearGradient>
      <linearGradient x1="-8.488" gradientUnits="userSpaceOnUse" x2="198.488" y1="66.6067" y2="106.6067" id="linearGradient3" spreadMethod="pad">
        <stop stop-opacity="1" stop-color="rgb(232,238,247)" offset="0%"/>
        <stop stop-opacity="1" stop-color="rgb(183,201,227)" offset="100%"/>
      </linearGradient>
      <linearGradient x1="-8.488" gradientUnits="userSpaceOnUse" x2="198.488" y1="130.5995" y2="170.5995" id="linearGradient4" spreadMethod="pad">
        <stop stop-opacity="1" stop-color="rgb(232,238,247)" offset="0%"/>
        <stop stop-opacity="1" stop-color="rgb(183,201,227)" offset="100%"/>
      </linearGradient>
      <linearGradient x1="-8.488" gradientUnits="userSpaceOnUse" x2="198.488" y1="194.5923" y2="234.5923" id="linearGradient5" spreadMethod="pad">
        <stop stop-opacity="1" stop-color="rgb(232,238,247)" offset="0%"/>
        <stop stop-opacity="1" stop-color="rgb(183,201,227)" offset="100%"/>
      </linearGradient>
      <linearGradient x1="-8.488" gradientUnits="userSpaceOnUse" x2="198.488" y1="258.5851" y2="328.9784" id="linearGradient6" spreadMethod="pad">
        <stop stop-opacity="1" stop-color="rgb(232,238,247)" offset="0%"/>
        <stop stop-opacity="1" stop-color="rgb(183,201,227)" offset="100%"/>
      </linearGradient>
      <linearGradient x1="-8.488" gradientUnits="userSpaceOnUse" x2="198.488" y1="565.4689" y2="605.4689" id="linearGradient7" spreadMethod="pad">
        <stop stop-opacity="1" stop-color="rgb(232,238,247)" offset="0%"/>
        <stop stop-opacity="1" stop-color="rgb(183,201,227)" offset="100%"/>
      </linearGradient>
      <linearGradient x1="365.6917" gradientUnits="userSpaceOnUse" x2="657.0808" y1="791.9234" y2="831.9234" id="linearGradient8" spreadMethod="pad">
        <stop stop-opacity="1" stop-color="rgb(232,238,247)" offset="0%"/>
        <stop stop-opacity="1" stop-color="rgb(183,201,227)" offset="100%"/>
      </linearGradient>
      <linearGradient x1="365.6917" gradientUnits="userSpaceOnUse" x2="657.0808" y1="861.9234" y2="901.9234" id="linearGradient9" spreadMethod="pad">
        <stop stop-opacity="1" stop-color="rgb(255,204,153)" offset="0%"/>
        <stop stop-opacity="1" stop-color="red" offset="100%"/>
      </linearGradient>
      <linearGradient x1="365.6917" gradientUnits="userSpaceOnUse" x2="657.0808" y1="931.9234" y2="971.9234" id="linearGradient10" spreadMethod="pad">
        <stop stop-opacity="1" stop-color="rgb(232,238,247)" offset="0%"/>
        <stop stop-opacity="1" stop-color="rgb(183,201,227)" offset="100%"/>
      </linearGradient>
      <linearGradient x1="407.8983" gradientUnits="userSpaceOnUse" x2="614.8743" y1="1001.9234" y2="1041.9233" id="linearGradient11" spreadMethod="pad">
        <stop stop-opacity="1" stop-color="rgb(232,238,247)" offset="0%"/>
        <stop stop-opacity="1" stop-color="rgb(183,201,227)" offset="100%"/>
      </linearGradient>
      <linearGradient x1="407.8983" gradientUnits="userSpaceOnUse" x2="614.8743" y1="1104.9089" y2="1144.9089" id="linearGradient12" spreadMethod="pad">
        <stop stop-opacity="1" stop-color="rgb(232,238,247)" offset="0%"/>
        <stop stop-opacity="1" stop-color="rgb(183,201,227)" offset="100%"/>
      </linearGradient>
      <linearGradient x1="407.8983" gradientUnits="userSpaceOnUse" x2="614.8743" y1="1174.9089" y2="1214.9089" id="linearGradient13" spreadMethod="pad">
        <stop stop-opacity="1" stop-color="rgb(232,238,247)" offset="0%"/>
        <stop stop-opacity="1" stop-color="rgb(183,201,227)" offset="100%"/>
      </linearGradient>
      <linearGradient x1="407.8983" gradientUnits="userSpaceOnUse" x2="614.8743" y1="699.2458" y2="739.2458" id="linearGradient14" spreadMethod="pad">
        <stop stop-opacity="1" stop-color="rgb(232,238,247)" offset="0%"/>
        <stop stop-opacity="1" stop-color="rgb(183,201,227)" offset="100%"/>
      </linearGradient>
      <linearGradient x1="702.7498" gradientUnits="userSpaceOnUse" x2="854.7498" y1="980.4484" y2="1063.3983" id="linearGradient15" spreadMethod="pad">
        <stop stop-opacity="1" stop-color="rgb(255,204,153)" offset="0%"/>
        <stop stop-opacity="1" stop-color="red" offset="100%"/>
      </linearGradient>
      <linearGradient x1="702.7498" gradientUnits="userSpaceOnUse" x2="854.7498" y1="1083.434" y2="1166.3839" id="linearGradient16" spreadMethod="pad">
        <stop stop-opacity="1" stop-color="rgb(255,204,153)" offset="0%"/>
        <stop stop-opacity="1" stop-color="red" offset="100%"/>
      </linearGradient>
      <linearGradient x1="320.2543" gradientUnits="userSpaceOnUse" x2="472.2543" y1="565.4689" y2="605.4689" id="linearGradient17" spreadMethod="pad">
        <stop stop-opacity="1" stop-color="rgb(232,238,247)" offset="0%"/>
        <stop stop-opacity="1" stop-color="rgb(183,201,227)" offset="100%"/>
      </linearGradient>
      <linearGradient x1="320.2543" gradientUnits="userSpaceOnUse" x2="472.2543" y1="352.9712" y2="392.9712" id="linearGradient18" spreadMethod="pad">
        <stop stop-opacity="1" stop-color="rgb(232,238,247)" offset="0%"/>
        <stop stop-opacity="1" stop-color="rgb(183,201,227)" offset="100%"/>
      </linearGradient>
      <linearGradient x1="320.2543" gradientUnits="userSpaceOnUse" x2="472.2543" y1="417.4736" y2="457.4736" id="linearGradient19" spreadMethod="pad">
        <stop stop-opacity="1" stop-color="rgb(232,238,247)" offset="0%"/>
        <stop stop-opacity="1" stop-color="rgb(183,201,227)" offset="100%"/>
      </linearGradient>
      <linearGradient x1="320.2543" gradientUnits="userSpaceOnUse" x2="472.2543" y1="481.976" y2="536.976" id="linearGradient20" spreadMethod="pad">
        <stop stop-opacity="1" stop-color="rgb(232,238,247)" offset="0%"/>
        <stop stop-opacity="1" stop-color="rgb(183,201,227)" offset="100%"/>
      </linearGradient>
      <linearGradient x1="486.8743" gradientUnits="userSpaceOnUse" x2="614.8743" y1="352.9712" y2="535.4689" id="linearGradient21" spreadMethod="pad">
        <stop stop-opacity="1" stop-color="rgb(232,238,247)" offset="0%"/>
        <stop stop-opacity="1" stop-color="rgb(183,201,227)" offset="100%"/>
      </linearGradient>
      <linearGradient x1="942.6252" gradientUnits="userSpaceOnUse" x2="1149.6012" y1="980.4484" y2="1166.3839" id="linearGradient22" spreadMethod="pad">
        <stop stop-opacity="1" stop-color="rgb(232,238,247)" offset="0%"/>
        <stop stop-opacity="1" stop-color="rgb(183,201,227)" offset="100%"/>
      </linearGradient>
      <clipPath clipPathUnits="userSpaceOnUse" id="clipPath1">
        <path d="M0 0 L1204 0 L1204 1352 L0 1352 L0 0 Z"/>
      </clipPath>
      <clipPath clipPathUnits="userSpaceOnUse" id="clipPath2">
        <path d="M-39 -71 L1165 -71 L1165 1281 L-39 1281 L-39 -71 Z"/>
      </clipPath>
    </defs>
    <g fill="white" transform="translate(39,71)" stroke="white">
      <rect x="-39" width="1204" height="1352" y="-71" clip-path="url(#clipPath2)" stroke="none"/>
    </g>
    <g fill="rgb(245,245,245)" transform="matrix(1,0,0,1,39,71)" stroke="rgb(245,245,245)">
      <rect x="-23.488" y="-55.7937" clip-path="url(#clipPath2)" width="236.976" rx="4" ry="4" height="676.2626" stroke="none"/>
      <rect x="-23.488" y="-55.7937" clip-path="url(#clipPath2)" fill="rgb(235,235,235)" width="236.976" height="22.3765" stroke="none"/>
    </g>
    <g font-size="15" stroke-miterlimit="1.45" font-family="sans-serif" transform="matrix(1,0,0,1,39,71)" stroke-linecap="butt">
      <text x="169.8132" xml:space="preserve" y="-38.7132" clip-path="url(#clipPath2)" stroke="none">USER</text>
      <rect x="-23.488" y="-55.7937" clip-path="url(#clipPath2)" fill="none" width="236.976" stroke-dasharray="6,2" rx="4" ry="4" height="676.2626"/>
    </g>
    <g fill="url(#linearGradient1)" stroke-miterlimit="1.45" transform="matrix(1,0,0,1,39,71)" stroke-linecap="butt" stroke="url(#linearGradient1)">
      <ellipse rx="40" ry="20" clip-path="url(#clipPath2)" cx="95" cy="16.6067" stroke="none"/>
      <ellipse clip-path="url(#clipPath2)" fill="none" rx="40" cx="95" ry="20" cy="16.6067" stroke="black"/>
      <text x="61.6484" y="21.3206" clip-path="url(#clipPath2)" fill="black" font-family="sans-serif" stroke="none" xml:space="preserve">Save project</text>
    </g>
    <g fill="url(#linearGradient2)" stroke-miterlimit="1.45" transform="matrix(1,0,0,1,39,71)" stroke-linecap="butt" stroke="url(#linearGradient2)">
      <path d="M-8.488 352.9712 L198.488 352.9712 L198.488 392.9712 L-8.488 392.9712 Z" clip-path="url(#clipPath2)" stroke="none"/>
      <path fill="none" d="M-8.488 352.9712 L198.488 352.9712 L198.488 392.9712 L-8.488 392.9712 Z" clip-path="url(#clipPath2)" stroke="black"/>
      <text x="-2.0488" y="377.6851" clip-path="url(#clipPath2)" fill="black" font-family="sans-serif" stroke="none" xml:space="preserve">butter.cornfield.save(stringified data)</text>
    </g>
    <g fill="url(#linearGradient3)" stroke-miterlimit="1.45" transform="matrix(1,0,0,1,39,71)" stroke-linecap="butt" stroke="url(#linearGradient3)">
      <path d="M-8.488 66.6067 L198.488 66.6067 L198.488 106.6067 L-8.488 106.6067 Z" clip-path="url(#clipPath2)" stroke="none"/>
      <path fill="none" d="M-8.488 66.6067 L198.488 66.6067 L198.488 106.6067 L-8.488 106.6067 Z" clip-path="url(#clipPath2)" stroke="black"/>
      <text x="12.3037" y="91.3206" clip-path="url(#clipPath2)" fill="black" font-family="sans-serif" stroke="none" xml:space="preserve">src/ui/header.js // saveProject()</text>
    </g>
    <g fill="url(#linearGradient4)" stroke-miterlimit="1.45" transform="matrix(1,0,0,1,39,71)" stroke-linecap="butt" stroke="url(#linearGradient4)">
      <path d="M-8.488 130.5995 L198.488 130.5995 L198.488 170.5995 L-8.488 170.5995 Z" clip-path="url(#clipPath2)" stroke="none"/>
      <path fill="none" d="M-8.488 130.5995 L198.488 130.5995 L198.488 170.5995 L-8.488 170.5995 Z" clip-path="url(#clipPath2)" stroke="black"/>
      <text x="22.9707" y="147.9628" clip-path="url(#clipPath2)" fill="black" font-family="sans-serif" stroke="none" xml:space="preserve">src/ui/header.js // prepare()</text>
      <text x="-5.0576" y="162.664" clip-path="url(#clipPath2)" fill="black" font-family="sans-serif" stroke="none" xml:space="preserve">VIA UserData.authenticationRequired</text>
    </g>
    <g fill="url(#linearGradient5)" stroke-miterlimit="1.45" transform="matrix(1,0,0,1,39,71)" stroke-linecap="butt" stroke="url(#linearGradient5)">
      <path d="M-8.488 194.5923 L198.488 194.5923 L198.488 234.5923 L-8.488 234.5923 Z" clip-path="url(#clipPath2)" stroke="none"/>
      <path fill="none" d="M-8.488 194.5923 L198.488 194.5923 L198.488 234.5923 L-8.488 234.5923 Z" clip-path="url(#clipPath2)" stroke="black"/>
      <text x="26.3105" y="219.3062" clip-path="url(#clipPath2)" fill="black" font-family="sans-serif" stroke="none" xml:space="preserve">src/ui/userdata.js // save()</text>
    </g>
    <g fill="url(#linearGradient6)" stroke-miterlimit="1.45" transform="matrix(1,0,0,1,39,71)" stroke-linecap="butt" stroke="url(#linearGradient6)">
      <path d="M-8.488 258.5851 L198.488 258.5851 L198.488 328.9784 L-8.488 328.9784 Z" clip-path="url(#clipPath2)" stroke="none"/>
      <path fill="none" d="M-8.488 258.5851 L198.488 258.5851 L198.488 328.9784 L-8.488 328.9784 Z" clip-path="url(#clipPath2)" stroke="black"/>
      <text x="41.6445" y="276.4439" clip-path="url(#clipPath2)" fill="black" font-family="sans-serif" stroke="none" xml:space="preserve">butter.project.save()</text>
      <text x="77.9902" y="291.1451" clip-path="url(#clipPath2)" fill="black" font-family="sans-serif" stroke="none" xml:space="preserve">calling</text>
      <text x="42.9863" y="305.8462" clip-path="url(#clipPath2)" fill="black" font-family="sans-serif" stroke="none" xml:space="preserve">src/core/project.js //</text>
      <text x="37.9707" y="320.5474" clip-path="url(#clipPath2)" fill="black" font-family="sans-serif" stroke="none" xml:space="preserve">_this.save(_this.data)</text>
    </g>
    <g fill="url(#linearGradient7)" stroke-miterlimit="1.45" transform="matrix(1,0,0,1,39,71)" stroke-linecap="butt" stroke="url(#linearGradient7)">
      <path d="M-8.488 565.4689 L198.488 565.4689 L198.488 605.4689 L-8.488 605.4689 Z" clip-path="url(#clipPath2)" stroke="none"/>
      <path fill="none" d="M-8.488 565.4689 L198.488 565.4689 L198.488 605.4689 L-8.488 605.4689 Z" clip-path="url(#clipPath2)" stroke="black"/>
      <text x="6.2891" y="590.1827" clip-path="url(#clipPath2)" fill="black" font-family="sans-serif" stroke="none" xml:space="preserve">butter.cornfield.publish(project id)</text>
    </g>
    <g stroke-linecap="butt" transform="matrix(1,0,0,1,39,71)" stroke-miterlimit="1.45">
      <path fill="none" d="M95 36.6018 L95 58.6341" clip-path="url(#clipPath2)"/>
      <path d="M95 66.6341 L100 54.6341 L95 57.6341 L90 54.6341 Z" clip-path="url(#clipPath2)" stroke="none"/>
      <path fill="none" d="M95 106.6357 L95 122.6355" clip-path="url(#clipPath2)"/>
      <path d="M95 130.6355 L100 118.6355 L95 121.6355 L90 118.6355 Z" clip-path="url(#clipPath2)" stroke="none"/>
      <path fill="none" d="M95 170.6285 L95 186.6283" clip-path="url(#clipPath2)"/>
      <path d="M95 194.6283 L100 182.6283 L95 185.6283 L90 182.6283 Z" clip-path="url(#clipPath2)" stroke="none"/>
      <path fill="none" d="M95 234.583 L95 250.6036" clip-path="url(#clipPath2)"/>
      <path d="M95 258.6036 L100 246.6036 L95 249.6036 L90 246.6036 Z" clip-path="url(#clipPath2)" stroke="none"/>
      <path fill="none" d="M95 329.0071 L95 345.007" clip-path="url(#clipPath2)"/>
      <path d="M95 353.007 L100 341.007 L95 344.007 L90 341.007 Z" clip-path="url(#clipPath2)" stroke="none"/>
      <path fill="none" d="M95 392.9707 L95 557.4953" clip-path="url(#clipPath2)"/>
      <path d="M95 565.4953 L100 553.4953 L95 556.4953 L90 553.4953 Z" clip-path="url(#clipPath2)" stroke="none"/>
      <text x="16.9707" xml:space="preserve" y="483.9339" font-family="sans-serif" clip-path="url(#clipPath2)" stroke="none">if save succeeded</text>
    </g>
    <g fill="rgb(245,245,245)" transform="matrix(1,0,0,1,39,71)" stroke="rgb(245,245,245)">
      <rect x="305.2543" y="315.5947" clip-path="url(#clipPath2)" width="579.4955" rx="4" ry="4" height="950.0356" stroke="none"/>
      <rect x="305.2543" y="315.5947" clip-path="url(#clipPath2)" fill="rgb(235,235,235)" width="579.4955" height="22.3765" stroke="none"/>
    </g>
    <g font-size="15" stroke-miterlimit="1.45" font-family="sans-serif" transform="matrix(1,0,0,1,39,71)" stroke-linecap="butt">
      <text x="796.075" xml:space="preserve" y="332.6753" clip-path="url(#clipPath2)" stroke="none">CORNFIELD</text>
      <rect x="305.2543" y="315.5947" clip-path="url(#clipPath2)" fill="none" width="579.4955" stroke-dasharray="6,2" rx="4" ry="4" height="950.0356"/>
    </g>
    <g fill="rgb(225,225,225)" transform="matrix(1,0,0,1,39,71)" stroke="rgb(225,225,225)">
      <rect x="350.6917" y="654.9973" clip-path="url(#clipPath2)" width="519.0581" rx="4" ry="4" height="595.633" stroke="none"/>
      <rect x="350.6917" y="654.9973" clip-path="url(#clipPath2)" fill="rgb(235,235,235)" width="519.0581" height="22.3765" stroke="none"/>
    </g>
    <g font-size="15" stroke-miterlimit="1.45" font-family="sans-serif" transform="matrix(1,0,0,1,39,71)" stroke-linecap="butt">
      <text x="695.9749" xml:space="preserve" y="672.0779" clip-path="url(#clipPath2)" stroke="none">Publication route in app.js</text>
      <rect x="350.6917" y="654.9973" clip-path="url(#clipPath2)" fill="none" width="519.0581" stroke-dasharray="6,2" rx="4" ry="4" height="595.633"/>
    </g>
    <g fill="url(#linearGradient8)" stroke-miterlimit="1.45" transform="matrix(1,0,0,1,39,71)" stroke-linecap="butt" stroke="url(#linearGradient8)">
      <path d="M375.8917 791.9234 L657.0809 791.9234 L646.8809 831.9234 L365.6917 831.9234 Z" clip-path="url(#clipPath2)" stroke="none"/>
      <path fill="none" d="M375.8917 791.9234 L657.0809 791.9234 L646.8809 831.9234 L365.6917 831.9234 Z" clip-path="url(#clipPath2)" stroke="black"/>
      <text x="419.523" y="816.6373" clip-path="url(#clipPath2)" fill="black" font-family="sans-serif" stroke="none" xml:space="preserve">project = stringified JSON from DB</text>
    </g>
    <g fill="url(#linearGradient9)" stroke-miterlimit="1.45" transform="matrix(1,0,0,1,39,71)" stroke-linecap="butt" stroke="url(#linearGradient9)">
      <path d="M375.8917 861.9234 L657.0809 861.9234 L646.8809 901.9234 L365.6917 901.9234 Z" clip-path="url(#clipPath2)" stroke="none"/>
      <path fill="none" d="M375.8917 861.9234 L657.0809 861.9234 L646.8809 901.9234 L365.6917 901.9234 Z" clip-path="url(#clipPath2)" stroke="black"/>
      <text x="377.8306" y="886.6373" clip-path="url(#clipPath2)" fill="black" font-family="sans-serif" stroke="none" xml:space="preserve">projectData = sanitizedHTMLinJSON(project.data)</text>
    </g>
    <g fill="url(#linearGradient10)" stroke-miterlimit="1.45" transform="matrix(1,0,0,1,39,71)" stroke-linecap="butt" stroke="url(#linearGradient10)">
      <path d="M375.8917 931.9234 L657.0809 931.9234 L646.8809 971.9234 L365.6917 971.9234 Z" clip-path="url(#clipPath2)" stroke="none"/>
      <path fill="none" d="M375.8917 931.9234 L657.0809 931.9234 L646.8809 971.9234 L365.6917 971.9234 Z" clip-path="url(#clipPath2)" stroke="black"/>
      <text x="406.8345" y="956.6373" clip-path="url(#clipPath2)" fill="black" font-family="sans-serif" stroke="none" xml:space="preserve">popcornString = flat HTML source code</text>
    </g>
    <g fill="url(#linearGradient11)" stroke-miterlimit="1.45" transform="matrix(1,0,0,1,39,71)" stroke-linecap="butt" stroke="url(#linearGradient11)">
      <path d="M407.8983 1001.9234 L614.8743 1001.9234 L614.8743 1041.9233 L407.8983 1041.9233 Z" clip-path="url(#clipPath2)" stroke="none"/>
      <path fill="none" d="M407.8983 1001.9234 L614.8743 1001.9234 L614.8743 1041.9233 L407.8983 1041.9233 Z" clip-path="url(#clipPath2)" stroke="black"/>
      <text x="416.0103" y="1026.6372" clip-path="url(#clipPath2)" fill="black" font-family="sans-serif" stroke="none" xml:space="preserve">writeEmbed( { ... popcornString ...} )</text>
    </g>
    <g fill="url(#linearGradient12)" stroke-miterlimit="1.45" transform="matrix(1,0,0,1,39,71)" stroke-linecap="butt" stroke="url(#linearGradient12)">
      <path d="M407.8983 1104.9089 L614.8743 1104.9089 L614.8743 1144.9089 L407.8983 1144.9089 Z" clip-path="url(#clipPath2)" stroke="none"/>
      <path fill="none" d="M407.8983 1104.9089 L614.8743 1104.9089 L614.8743 1144.9089 L407.8983 1144.9089 Z" clip-path="url(#clipPath2)" stroke="black"/>
      <text x="457.3687" y="1129.6228" clip-path="url(#clipPath2)" fill="black" font-family="sans-serif" stroke="none" xml:space="preserve">writeEmbedShell(...)</text>
    </g>
    <g fill="url(#linearGradient13)" stroke-miterlimit="1.45" transform="matrix(1,0,0,1,39,71)" stroke-linecap="butt" stroke="url(#linearGradient13)">
      <path d="M407.8983 1174.9089 L614.8743 1174.9089 L614.8743 1214.9089 L407.8983 1214.9089 Z" clip-path="url(#clipPath2)" stroke="none"/>
      <path fill="none" d="M407.8983 1174.9089 L614.8743 1174.9089 L614.8743 1214.9089 L407.8983 1214.9089 Z" clip-path="url(#clipPath2)" stroke="black"/>
      <text x="486.7095" y="1199.6228" clip-path="url(#clipPath2)" fill="black" font-family="sans-serif" stroke="none" xml:space="preserve">finished()</text>
    </g>
    <g fill="url(#linearGradient14)" stroke-miterlimit="1.45" transform="matrix(1,0,0,1,39,71)" stroke-linecap="butt" stroke="url(#linearGradient14)">
      <path d="M407.8983 699.2458 L614.8743 699.2458 L614.8743 739.2458 L407.8983 739.2458 Z" clip-path="url(#clipPath2)" stroke="none"/>
      <path fill="none" d="M407.8983 699.2458 L614.8743 699.2458 L614.8743 739.2458 L407.8983 739.2458 Z" clip-path="url(#clipPath2)" stroke="black"/>
      <text x="468.7036" y="723.9597" clip-path="url(#clipPath2)" fill="black" font-family="sans-serif" stroke="none" xml:space="preserve">User.findProject</text>
    </g>
    <g fill="url(#linearGradient15)" stroke-miterlimit="1.45" transform="matrix(1,0,0,1,39,71)" stroke-linecap="butt" stroke="url(#linearGradient15)">
      <path d="M702.7498 980.4484 L854.7498 980.4484 L854.7498 1063.3984 L702.7498 1063.3984 Z" clip-path="url(#clipPath2)" stroke="none"/>
      <path fill="none" d="M702.7498 980.4484 L854.7498 980.4484 L854.7498 1063.3984 L702.7498 1063.3984 Z" clip-path="url(#clipPath2)" stroke="black"/>
      <text x="730.7292" y="1011.9361" clip-path="url(#clipPath2)" fill="black" font-family="sans-serif" stroke="none" xml:space="preserve">[JADE templating]</text>
      <text x="734.072" y="1026.6372" clip-path="url(#clipPath2)" fill="black" font-family="sans-serif" stroke="none" xml:space="preserve">Performs its own</text>
      <text x="712.3923" y="1041.3384" clip-path="url(#clipPath2)" fill="black" font-family="sans-serif" stroke="none" xml:space="preserve">HTML Entity sanitization.</text>
    </g>
    <g fill="url(#linearGradient16)" stroke-miterlimit="1.45" transform="matrix(1,0,0,1,39,71)" stroke-linecap="butt" stroke="url(#linearGradient16)">
      <path d="M702.7498 1083.434 L854.7498 1083.434 L854.7498 1166.384 L702.7498 1166.384 Z" clip-path="url(#clipPath2)" stroke="none"/>
      <path fill="none" d="M702.7498 1083.434 L854.7498 1083.434 L854.7498 1166.384 L702.7498 1166.384 Z" clip-path="url(#clipPath2)" stroke="black"/>
      <text x="730.7292" y="1114.9216" clip-path="url(#clipPath2)" fill="black" font-family="sans-serif" stroke="none" xml:space="preserve">[JADE templating]</text>
      <text x="734.072" y="1129.6228" clip-path="url(#clipPath2)" fill="black" font-family="sans-serif" stroke="none" xml:space="preserve">Performs its own</text>
      <text x="712.3923" y="1144.324" clip-path="url(#clipPath2)" fill="black" font-family="sans-serif" stroke="none" xml:space="preserve">HTML Entity sanitization.</text>
    </g>
    <g fill="url(#linearGradient17)" stroke-miterlimit="1.45" transform="matrix(1,0,0,1,39,71)" stroke-linecap="butt" stroke="url(#linearGradient17)">
      <path d="M320.2543 565.4689 L472.2543 565.4689 L472.2543 605.4689 L320.2543 605.4689 Z" clip-path="url(#clipPath2)" stroke="none"/>
      <path fill="none" d="M320.2543 565.4689 L472.2543 565.4689 L472.2543 605.4689 L320.2543 605.4689 Z" clip-path="url(#clipPath2)" stroke="black"/>
      <text x="370.9095" y="582.8322" clip-path="url(#clipPath2)" fill="black" font-family="sans-serif" stroke="none" xml:space="preserve">index.js //</text>
      <text x="326.9203" y="597.5333" clip-path="url(#clipPath2)" fill="black" font-family="sans-serif" stroke="none" xml:space="preserve">app.post('api/publish/:id?')</text>
    </g>
    <g fill="url(#linearGradient18)" stroke-miterlimit="1.45" transform="matrix(1,0,0,1,39,71)" stroke-linecap="butt" stroke="url(#linearGradient18)">
      <path d="M320.2543 352.9712 L472.2543 352.9712 L472.2543 392.9712 L320.2543 392.9712 Z" clip-path="url(#clipPath2)" stroke="none"/>
      <path fill="none" d="M320.2543 352.9712 L472.2543 352.9712 L472.2543 392.9712 L320.2543 392.9712 Z" clip-path="url(#clipPath2)" stroke="black"/>
      <text x="370.9095" y="370.3345" clip-path="url(#clipPath2)" fill="black" font-family="sans-serif" stroke="none" xml:space="preserve">index.js //</text>
      <text x="327.9252" y="385.0356" clip-path="url(#clipPath2)" fill="black" font-family="sans-serif" stroke="none" xml:space="preserve">app.post('api/project/:id?')</text>
    </g>
    <g fill="url(#linearGradient19)" stroke-miterlimit="1.45" transform="matrix(1,0,0,1,39,71)" stroke-linecap="butt" stroke="url(#linearGradient19)">
      <path d="M320.2543 417.4736 L472.2543 417.4736 L472.2543 457.4736 L320.2543 457.4736 Z" clip-path="url(#clipPath2)" stroke="none"/>
      <path fill="none" d="M320.2543 417.4736 L472.2543 417.4736 L472.2543 457.4736 L320.2543 457.4736 Z" clip-path="url(#clipPath2)" stroke="black"/>
      <text x="346.5697" y="434.8369" clip-path="url(#clipPath2)" fill="black" font-family="sans-serif" stroke="none" xml:space="preserve">User.createProject</text>
      <text x="344.8939" y="449.5381" clip-path="url(#clipPath2)" fill="black" font-family="sans-serif" stroke="none" xml:space="preserve">User.updateProject</text>
    </g>
    <g fill="url(#linearGradient20)" stroke-miterlimit="1.45" transform="matrix(1,0,0,1,39,71)" stroke-linecap="butt" stroke="url(#linearGradient20)">
      <path d="M320.2543 481.976 L472.2543 481.976 L472.2543 536.976 L320.2543 536.976 Z" clip-path="url(#clipPath2)" stroke="none"/>
      <path fill="none" d="M320.2543 481.976 L472.2543 481.976 L472.2543 536.976 L320.2543 536.976 Z" clip-path="url(#clipPath2)" stroke="black"/>
      <text x="378.5824" y="499.4887" clip-path="url(#clipPath2)" fill="black" font-family="sans-serif" stroke="none" xml:space="preserve">user.js</text>
      <text x="359.9027" y="514.1899" clip-path="url(#clipPath2)" fill="black" font-family="sans-serif" stroke="none" xml:space="preserve">Project object</text>
      <text x="333.8871" y="528.8911" clip-path="url(#clipPath2)" fill="black" font-family="sans-serif" stroke="none" xml:space="preserve">save project data to DB</text>
    </g>
    <g fill="url(#linearGradient21)" stroke-miterlimit="1.45" transform="matrix(1,0,0,1,39,71)" stroke-linecap="butt" stroke="url(#linearGradient21)">
      <rect x="486.8743" width="128" height="182.4977" y="352.9712" clip-path="url(#clipPath2)" stroke="none"/>
    </g>
    <g stroke-width="2" transform="matrix(1,0,0,1,39,71)">
      <path fill="none" d="M502.8743 352.9712 L486.8743 352.9712 L486.8743 535.4689 L502.8743 535.4689" clip-path="url(#clipPath2)"/>
    </g>
    <g stroke-miterlimit="1.45" font-family="sans-serif" transform="matrix(1,0,0,1,39,71)" stroke-linecap="butt">
      <text x="499.5168" xml:space="preserve" y="434.2327" clip-path="url(#clipPath2)" stroke="none">This only saves the</text>
      <text x="508.8508" xml:space="preserve" y="448.9339" clip-path="url(#clipPath2)" stroke="none">timeline data as</text>
      <text x="507.5266" xml:space="preserve" y="463.6351" clip-path="url(#clipPath2)" stroke="none">stringified JSON</text>
    </g>
    <g fill="url(#linearGradient22)" stroke-miterlimit="1.45" transform="matrix(1,0,0,1,39,71)" stroke-linecap="butt" stroke="url(#linearGradient22)">
      <path d="M968.4972 1078.9943 C942.6252 1026.9323 968.4972 980.4484 1010.9273 1013.9168 C1010.9273 980.4484 1081.2991 980.4484 1081.2991 1013.9168 C1123.7292 980.4484 1149.6012 1026.9323 1123.7292 1067.8381 C1149.6012 1119.9001 1123.7292 1166.384 1091.6479 1132.9155 C1081.2991 1166.384 1010.9273 1166.384 1021.2761 1132.9155 C968.4972 1166.384 942.6252 1119.9001 968.4972 1078.9943 Z" clip-path="url(#clipPath2)" stroke="none"/>
      <path fill="none" d="M968.4972 1078.9943 C942.6252 1026.9323 968.4972 980.4484 1010.9273 1013.9168 C1010.9273 980.4484 1081.2991 980.4484 1081.2991 1013.9168 C1123.7292 980.4484 1149.6012 1026.9323 1123.7292 1067.8381 C1149.6012 1119.9001 1123.7292 1166.384 1091.6479 1132.9155 C1081.2991 1166.384 1010.9273 1166.384 1021.2761 1132.9155 C968.4972 1166.384 942.6252 1119.9001 968.4972 1078.9943 Z" clip-path="url(#clipPath2)" stroke="black"/>
      <text x="1015.0966" y="1078.13" clip-path="url(#clipPath2)" fill="black" font-family="sans-serif" stroke="none" xml:space="preserve">Amazon S3</text>
    </g>
    <g stroke-linecap="butt" transform="matrix(1,0,0,1,39,71)" stroke-miterlimit="1.45">
      <path fill="none" d="M366.5471 828.5179 L331.4465 832.5394 L331.4465 881.9234 L362.7644 881.9234" clip-path="url(#clipPath2)"/>
      <path d="M370.7644 881.9234 L358.7644 876.9234 L361.7644 881.9234 L358.7644 886.9234 Z" clip-path="url(#clipPath2)" stroke="none"/>
      <path fill="none" d="M367.2499 895.8187 L331.4465 899.2702 L331.4465 951.9234 L362.7644 951.9234" clip-path="url(#clipPath2)"/>
      <path d="M370.7644 951.9234 L358.7644 946.9234 L361.7644 951.9234 L358.7644 956.9234 Z" clip-path="url(#clipPath2)" stroke="none"/>
      <path fill="none" d="M511.3863 971.9185 L511.3863 993.9507" clip-path="url(#clipPath2)"/>
      <path d="M511.3863 1001.9507 L516.3862 989.9507 L511.3863 992.9507 L506.3863 989.9507 Z" clip-path="url(#clipPath2)" stroke="none"/>
      <path fill="none" d="M511.3863 1041.912 L511.3863 1096.9297" clip-path="url(#clipPath2)"/>
      <path d="M511.3863 1104.9297 L516.3862 1092.9297 L511.3863 1095.9297 L506.3863 1092.9297 Z" clip-path="url(#clipPath2)" stroke="none"/>
      <text x="433.3628" xml:space="preserve" y="1078.13" font-family="sans-serif" clip-path="url(#clipPath2)" stroke="none">if write succeeded</text>
      <path fill="none" d="M511.3863 1144.9041 L511.3863 1166.9363" clip-path="url(#clipPath2)"/>
      <path d="M511.3863 1174.9363 L516.3862 1162.9363 L511.3863 1165.9363 L506.3863 1162.9363 Z" clip-path="url(#clipPath2)" stroke="none"/>
      <path fill="none" d="M511.3863 739.2023 L511.3863 783.9322" clip-path="url(#clipPath2)"/>
      <path d="M511.3863 791.9322 L516.3862 779.9322 L511.3863 782.9322 L506.3863 779.9322 Z" clip-path="url(#clipPath2)" stroke="none"/>
      <text x="436.357" xml:space="preserve" y="770.2985" font-family="sans-serif" clip-path="url(#clipPath2)" stroke="none">if find succeeded</text>
      <path fill="none" d="M614.8787 1021.9234 L694.7753 1021.9234" clip-path="url(#clipPath2)"/>
      <path d="M702.7753 1021.9234 L690.7753 1016.9234 L693.7753 1021.9234 L690.7753 1026.9233 Z" clip-path="url(#clipPath2)" stroke="none"/>
      <path fill="none" d="M614.8787 1124.9089 L694.7753 1124.9089" clip-path="url(#clipPath2)"/>
      <path d="M702.7753 1124.9089 L690.7753 1119.9089 L693.7753 1124.9089 L690.7753 1129.9089 Z" clip-path="url(#clipPath2)" stroke="none"/>
      <path fill="none" d="M407.8734 1194.9089 L325.9954 1194.9089 L325.9954 641.0733 L364.6976 610.4435" clip-path="url(#clipPath2)"/>
      <path d="M370.9707 605.4789 L358.4581 609.0052 L363.9135 611.0641 L364.6639 616.8466 Z" clip-path="url(#clipPath2)" stroke="none"/>
      <text x="326.4229" xml:space="preserve" y="1192.2722" font-family="sans-serif" clip-path="url(#clipPath2)" stroke="none">response</text>
      <text x="332.4317" xml:space="preserve" y="1206.9734" font-family="sans-serif" clip-path="url(#clipPath2)" stroke="none">formed</text>
      <path fill="none" d="M198.5194 585.4689 L312.2209 585.4689" clip-path="url(#clipPath2)"/>
      <path d="M320.2209 585.4689 L308.2209 580.4689 L311.2209 585.4689 L308.2209 590.4689 Z" clip-path="url(#clipPath2)" stroke="none"/>
      <path fill="none" d="M413.4847 605.4897 L488.9346 693.1582" clip-path="url(#clipPath2)"/>
      <path d="M494.1531 699.2218 L490.1151 686.8649 L488.2823 692.4003 L482.5356 693.388 Z" clip-path="url(#clipPath2)" stroke="none"/>
      <path fill="none" d="M198.5194 372.9712 L312.2209 372.9712" clip-path="url(#clipPath2)"/>
      <path d="M320.2209 372.9712 L308.2209 367.9712 L311.2209 372.9712 L308.2209 377.9712 Z" clip-path="url(#clipPath2)" stroke="none"/>
      <path fill="none" d="M396.2543 392.9707 L396.2543 409.4386" clip-path="url(#clipPath2)"/>
      <path d="M396.2543 417.4386 L401.2543 405.4386 L396.2543 408.4386 L391.2543 405.4386 Z" clip-path="url(#clipPath2)" stroke="none"/>
      <path fill="none" d="M396.2543 457.4782 L396.2543 473.9791" clip-path="url(#clipPath2)"/>
      <path d="M396.2543 481.9791 L401.2543 469.9791 L396.2543 472.9791 L391.2543 469.9791 Z" clip-path="url(#clipPath2)" stroke="none"/>
      <path fill="none" d="M854.7617 1036.5629 L952.5325 1055.3931" clip-path="url(#clipPath2)"/>
      <path d="M960.3881 1056.906 L949.5503 1049.7268 L951.5505 1055.204 L947.6591 1059.5464 Z" clip-path="url(#clipPath2)" stroke="none"/>
      <path fill="none" d="M854.7617 1110.2695 L955.1486 1090.9355" clip-path="url(#clipPath2)"/>
      <path d="M963.0042 1089.4225 L950.2751 1086.7823 L954.1666 1091.1246 L952.1664 1096.6018 Z" clip-path="url(#clipPath2)" stroke="none"/>
    </g>
  </g>
</svg>
