<?xml version="1.0" encoding="UTF-8"?><svg xmlns="http://www.w3.org/2000/svg" xmlns:xlink="http://www.w3.org/1999/xlink" fill-opacity="1" color-rendering="auto" color-interpolation="auto" stroke="black" text-rendering="auto" stroke-linecap="square" width="591" stroke-miterlimit="10" stroke-opacity="1" shape-rendering="auto" fill="black" stroke-dasharray="none" font-weight="normal" stroke-width="1" height="618" font-family="'Dialog'" font-style="normal" stroke-linejoin="miter" font-size="12" stroke-dashoffset="0" image-rendering="auto">
  <!--Generated by ySVG-->
  <defs id="genericDefs"/>
  <g>
    <defs id="defs1">
      <linearGradient x1="284.6243" gradientUnits="userSpaceOnUse" x2="506.9603" y1="233.2423" y2="273.2423" id="linearGradient1" spreadMethod="pad">
        <stop stop-opacity="1" stop-color="rgb(255,204,153)" offset="0%"/>
        <stop stop-opacity="1" stop-color="red" offset="100%"/>
      </linearGradient>
      <linearGradient x1="292.3043" gradientUnits="userSpaceOnUse" x2="499.2803" y1="127.5607" y2="167.5607" id="linearGradient2" spreadMethod="pad">
        <stop stop-opacity="1" stop-color="rgb(232,238,247)" offset="0%"/>
        <stop stop-opacity="1" stop-color="rgb(183,201,227)" offset="100%"/>
      </linearGradient>
      <linearGradient x1="319.7923" gradientUnits="userSpaceOnUse" x2="471.7923" y1="392.4423" y2="475.3923" id="linearGradient3" spreadMethod="pad">
        <stop stop-opacity="1" stop-color="rgb(255,204,153)" offset="0%"/>
        <stop stop-opacity="1" stop-color="red" offset="100%"/>
      </linearGradient>
      <linearGradient x1="317.3091" gradientUnits="userSpaceOnUse" x2="474.2755" y1="212.4423" y2="233.2423" id="linearGradient4" spreadMethod="pad">
        <stop stop-opacity="1" stop-color="rgb(232,238,247)" offset="0%"/>
        <stop stop-opacity="1" stop-color="rgb(183,201,227)" offset="100%"/>
      </linearGradient>
      <linearGradient x1="317.3091" gradientUnits="userSpaceOnUse" x2="474.2755" y1="273.2423" y2="294.0423" id="linearGradient5" spreadMethod="pad">
        <stop stop-opacity="1" stop-color="rgb(232,238,247)" offset="0%"/>
        <stop stop-opacity="1" stop-color="rgb(183,201,227)" offset="100%"/>
      </linearGradient>
      <linearGradient x1="292.3043" gradientUnits="userSpaceOnUse" x2="499.2803" y1="322.4423" y2="362.4423" id="linearGradient6" spreadMethod="pad">
        <stop stop-opacity="1" stop-color="rgb(232,238,247)" offset="0%"/>
        <stop stop-opacity="1" stop-color="rgb(183,201,227)" offset="100%"/>
      </linearGradient>
      <linearGradient x1="292.3043" gradientUnits="userSpaceOnUse" x2="499.2803" y1="20.3151" y2="60.3151" id="linearGradient7" spreadMethod="pad">
        <stop stop-opacity="1" stop-color="rgb(232,238,247)" offset="0%"/>
        <stop stop-opacity="1" stop-color="rgb(183,201,227)" offset="100%"/>
      </linearGradient>
      <linearGradient x1="-8.488" gradientUnits="userSpaceOnUse" x2="198.488" y1="20.3151" y2="60.3151" id="linearGradient8" spreadMethod="pad">
        <stop stop-opacity="1" stop-color="rgb(232,238,247)" offset="0%"/>
        <stop stop-opacity="1" stop-color="rgb(183,201,227)" offset="100%"/>
      </linearGradient>
      <linearGradient x1="45.9927" gradientUnits="userSpaceOnUse" x2="144.0073" y1="-44.1873" y2="-4.1873" id="linearGradient9" spreadMethod="pad">
        <stop stop-opacity="1" stop-color="rgb(232,238,247)" offset="0%"/>
        <stop stop-opacity="1" stop-color="rgb(183,201,227)" offset="100%"/>
      </linearGradient>
      <linearGradient x1="-8.488" gradientUnits="userSpaceOnUse" x2="198.488" y1="413.9173" y2="453.9173" id="linearGradient10" spreadMethod="pad">
        <stop stop-opacity="1" stop-color="rgb(232,238,247)" offset="0%"/>
        <stop stop-opacity="1" stop-color="rgb(183,201,227)" offset="100%"/>
      </linearGradient>
      <clipPath clipPathUnits="userSpaceOnUse" id="clipPath1">
        <path d="M0 0 L591 0 L591 618 L0 618 L0 0 Z"/>
      </clipPath>
      <clipPath clipPathUnits="userSpaceOnUse" id="clipPath2">
        <path d="M-39 -97 L552 -97 L552 521 L-39 521 L-39 -97 Z"/>
      </clipPath>
    </defs>
    <g fill="white" transform="translate(39,97)" stroke="white">
      <rect x="-39" width="591" height="618" y="-97" clip-path="url(#clipPath2)" stroke="none"/>
    </g>
    <g fill="rgb(245,245,245)" transform="matrix(1,0,0,1,39,97)" stroke="rgb(245,245,245)">
      <rect x="254.6243" y="-81.5637" clip-path="url(#clipPath2)" width="282.336" rx="4" ry="4" height="586.956" stroke="none"/>
      <rect x="254.6243" y="-81.5637" clip-path="url(#clipPath2)" fill="rgb(235,235,235)" width="282.336" height="22.3765" stroke="none"/>
    </g>
    <g font-size="15" stroke-miterlimit="1.45" font-family="sans-serif" transform="matrix(1,0,0,1,39,97)" stroke-linecap="butt">
      <text x="448.2855" xml:space="preserve" y="-64.4832" clip-path="url(#clipPath2)" stroke="none">CORNFIELD</text>
      <rect x="254.6243" y="-81.5637" clip-path="url(#clipPath2)" fill="none" width="282.336" stroke-dasharray="6,2" rx="4" ry="4" height="586.956"/>
    </g>
    <g fill="rgb(225,225,225)" transform="matrix(1,0,0,1,39,97)" stroke="rgb(225,225,225)">
      <rect x="269.6243" y="83.3122" clip-path="url(#clipPath2)" width="252.336" rx="4" ry="4" height="407.0801" stroke="none"/>
      <rect x="269.6243" y="83.3122" clip-path="url(#clipPath2)" fill="rgb(235,235,235)" width="252.336" height="22.3765" stroke="none"/>
    </g>
    <g font-size="15" stroke-miterlimit="1.45" font-family="sans-serif" transform="matrix(1,0,0,1,39,97)" stroke-linecap="butt">
      <text x="348.1854" xml:space="preserve" y="100.3928" clip-path="url(#clipPath2)" stroke="none">Dashboard route in app.js</text>
      <rect x="269.6243" y="83.3122" clip-path="url(#clipPath2)" fill="none" width="252.336" stroke-dasharray="6,2" rx="4" ry="4" height="407.0801"/>
    </g>
    <g fill="url(#linearGradient1)" stroke-miterlimit="1.45" transform="matrix(1,0,0,1,39,97)" stroke-linecap="butt" stroke="url(#linearGradient1)">
      <path d="M294.8243 233.2423 L506.9603 233.2423 L496.7603 273.2423 L284.6243 273.2423 Z" clip-path="url(#clipPath2)" stroke="none"/>
      <path fill="none" d="M294.8243 233.2423 L506.9603 233.2423 L496.7603 273.2423 L284.6243 273.2423 Z" clip-path="url(#clipPath2)" stroke="black"/>
      <text x="301.0872" y="257.9561" clip-path="url(#clipPath2)" fill="black" font-family="sans-serif" stroke="none" xml:space="preserve">userProjects.push(sanitized(name))</text>
    </g>
    <g fill="url(#linearGradient2)" stroke-miterlimit="1.45" transform="matrix(1,0,0,1,39,97)" stroke-linecap="butt" stroke="url(#linearGradient2)">
      <path d="M292.3043 127.5607 L499.2803 127.5607 L499.2803 167.5607 L292.3043 167.5607 Z" clip-path="url(#clipPath2)" stroke="none"/>
      <path fill="none" d="M292.3043 127.5607 L499.2803 127.5607 L499.2803 167.5607 L292.3043 167.5607 Z" clip-path="url(#clipPath2)" stroke="black"/>
      <text x="343.4417" y="152.2746" clip-path="url(#clipPath2)" fill="black" font-family="sans-serif" stroke="none" xml:space="preserve">User.findAllProjects</text>
    </g>
    <g fill="url(#linearGradient3)" stroke-miterlimit="1.45" transform="matrix(1,0,0,1,39,97)" stroke-linecap="butt" stroke="url(#linearGradient3)">
      <path d="M319.7923 392.4423 L471.7923 392.4423 L471.7923 475.3923 L319.7923 475.3923 Z" clip-path="url(#clipPath2)" stroke="none"/>
      <path fill="none" d="M319.7923 392.4423 L471.7923 392.4423 L471.7923 475.3923 L319.7923 475.3923 Z" clip-path="url(#clipPath2)" stroke="black"/>
      <text x="347.7718" y="423.93" clip-path="url(#clipPath2)" fill="black" font-family="sans-serif" stroke="none" xml:space="preserve">[JADE templating]</text>
      <text x="351.1145" y="438.6312" clip-path="url(#clipPath2)" fill="black" font-family="sans-serif" stroke="none" xml:space="preserve">Performs its own</text>
      <text x="329.4348" y="453.3323" clip-path="url(#clipPath2)" fill="black" font-family="sans-serif" stroke="none" xml:space="preserve">HTML Entity sanitization.</text>
    </g>
    <g fill="url(#linearGradient4)" stroke-miterlimit="1.45" transform="matrix(1,0,0,1,39,97)" stroke-linecap="butt" stroke="url(#linearGradient4)">
      <path d="M327.3091 212.4423 L464.2755 212.4423 L474.2755 222.4423 L474.2755 233.2423 L317.3091 233.2423 L317.3091 222.4423 Z" clip-path="url(#clipPath2)" stroke="none"/>
      <path fill="none" d="M327.3091 212.4423 L464.2755 212.4423 L474.2755 222.4423 L474.2755 233.2423 L317.3091 233.2423 L317.3091 222.4423 Z" clip-path="url(#clipPath2)" stroke="black"/>
      <text x="333.5745" y="227.5562" clip-path="url(#clipPath2)" fill="black" font-family="sans-serif" stroke="none" xml:space="preserve">for each "doc" in "docs"</text>
    </g>
    <g fill="url(#linearGradient5)" stroke-miterlimit="1.45" transform="matrix(1,0,0,1,39,97)" stroke-linecap="butt" stroke="url(#linearGradient5)">
      <path d="M317.3091 273.2423 L474.2755 273.2423 L474.2755 284.0423 L464.2755 294.0423 L327.3091 294.0423 L317.3091 284.0423 Z" clip-path="url(#clipPath2)" stroke="none"/>
      <path fill="none" d="M317.3091 273.2423 L474.2755 273.2423 L474.2755 284.0423 L464.2755 294.0423 L327.3091 294.0423 L317.3091 284.0423 Z" clip-path="url(#clipPath2)" stroke="black"/>
    </g>
    <g fill="url(#linearGradient6)" stroke-miterlimit="1.45" transform="matrix(1,0,0,1,39,97)" stroke-linecap="butt" stroke="url(#linearGradient6)">
      <path d="M292.3043 322.4423 L499.2803 322.4423 L499.2803 362.4423 L292.3043 362.4423 Z" clip-path="url(#clipPath2)" stroke="none"/>
      <path fill="none" d="M292.3043 322.4423 L499.2803 322.4423 L499.2803 362.4423 L292.3043 362.4423 Z" clip-path="url(#clipPath2)" stroke="black"/>
      <text x="331.1048" y="347.1562" clip-path="url(#clipPath2)" fill="black" font-family="sans-serif" stroke="none" xml:space="preserve">res.render(userProjects)</text>
    </g>
    <g fill="url(#linearGradient7)" stroke-miterlimit="1.45" transform="matrix(1,0,0,1,39,97)" stroke-linecap="butt" stroke="url(#linearGradient7)">
      <path d="M292.3043 20.3151 L499.2803 20.3151 L499.2803 60.3151 L292.3043 60.3151 Z" clip-path="url(#clipPath2)" stroke="none"/>
      <path fill="none" d="M292.3043 20.3151 L499.2803 20.3151 L499.2803 60.3151 L292.3043 60.3151 Z" clip-path="url(#clipPath2)" stroke="black"/>
      <text x="328.4622" y="45.029" clip-path="url(#clipPath2)" fill="black" font-family="sans-serif" stroke="none" xml:space="preserve">app.js // get('/dashboard')</text>
    </g>
    <g stroke-linecap="butt" transform="matrix(1,0,0,1,39,97)" stroke-miterlimit="1.45">
      <path fill="none" d="M395.7923 167.5941 L395.7923 204.4563" clip-path="url(#clipPath2)"/>
      <path d="M395.7923 212.4563 L400.7923 200.4563 L395.7923 203.4563 L390.7923 200.4563 Z" clip-path="url(#clipPath2)" stroke="none"/>
      <text x="304.263" xml:space="preserve" y="194.7154" font-family="sans-serif" clip-path="url(#clipPath2)" stroke="none">docs = all user projects</text>
      <path fill="none" d="M395.7923 294.0644 L395.7923 314.458" clip-path="url(#clipPath2)"/>
      <path d="M395.7923 322.458 L400.7923 310.458 L395.7923 313.458 L390.7923 310.458 Z" clip-path="url(#clipPath2)" stroke="none"/>
      <path fill="none" d="M395.7923 362.4078 L395.7923 384.4711" clip-path="url(#clipPath2)"/>
      <path d="M395.7923 392.4711 L400.7923 380.4711 L395.7923 383.4711 L390.7923 380.4711 Z" clip-path="url(#clipPath2)" stroke="none"/>
      <path fill="none" d="M346.9962 60.3029 L317.7795 72.2705 L317.7795 113.5025 L342.6357 124.354" clip-path="url(#clipPath2)"/>
      <path d="M349.9674 127.5548 L340.9703 118.1712 L341.7192 123.9539 L336.9692 127.3359 Z" clip-path="url(#clipPath2)" stroke="none"/>
    </g>
    <g fill="rgb(245,245,245)" transform="matrix(1,0,0,1,39,97)" stroke="rgb(245,245,245)">
      <rect x="-23.488" y="-81.5637" clip-path="url(#clipPath2)" width="236.976" rx="4" ry="4" height="586.956" stroke="none"/>
      <rect x="-23.488" y="-81.5637" clip-path="url(#clipPath2)" fill="rgb(235,235,235)" width="236.976" height="22.3765" stroke="none"/>
    </g>
    <g font-size="15" stroke-miterlimit="1.45" font-family="sans-serif" transform="matrix(1,0,0,1,39,97)" stroke-linecap="butt">
      <text x="169.8132" xml:space="preserve" y="-64.4832" clip-path="url(#clipPath2)" stroke="none">USER</text>
      <rect x="-23.488" y="-81.5637" clip-path="url(#clipPath2)" fill="none" width="236.976" stroke-dasharray="6,2" rx="4" ry="4" height="586.956"/>
    </g>
    <g fill="url(#linearGradient8)" stroke-miterlimit="1.45" transform="matrix(1,0,0,1,39,97)" stroke-linecap="butt" stroke="url(#linearGradient8)">
      <path d="M-8.488 20.3151 L198.488 20.3151 L198.488 60.3151 L-8.488 60.3151 Z" clip-path="url(#clipPath2)" stroke="none"/>
      <path fill="none" d="M-8.488 20.3151 L198.488 20.3151 L198.488 60.3151 L-8.488 60.3151 Z" clip-path="url(#clipPath2)" stroke="black"/>
      <text x="42.9658" y="45.029" clip-path="url(#clipPath2)" fill="black" font-family="sans-serif" stroke="none" xml:space="preserve">get dashboard URL</text>
    </g>
    <g fill="url(#linearGradient9)" stroke-miterlimit="1.45" transform="matrix(1,0,0,1,39,97)" stroke-linecap="butt" stroke="url(#linearGradient9)">
      <ellipse rx="49.0073" ry="20" clip-path="url(#clipPath2)" cx="95" cy="-24.1873" stroke="none"/>
      <ellipse clip-path="url(#clipPath2)" fill="none" rx="49.0073" cx="95" ry="20" cy="-24.1873" stroke="black"/>
      <text x="51.9717" y="-19.4734" clip-path="url(#clipPath2)" fill="black" font-family="sans-serif" stroke="none" xml:space="preserve">View dashboard</text>
    </g>
    <g fill="url(#linearGradient10)" stroke-miterlimit="1.45" transform="matrix(1,0,0,1,39,97)" stroke-linecap="butt" stroke="url(#linearGradient10)">
      <rect x="-8.488" y="413.9173" clip-path="url(#clipPath2)" width="206.976" rx="20" ry="20" height="40" stroke="none"/>
      <rect x="-8.488" y="413.9173" clip-path="url(#clipPath2)" fill="none" width="206.976" rx="20" ry="20" height="40" stroke="black"/>
      <text x="50.6328" y="438.6312" clip-path="url(#clipPath2)" fill="black" font-family="sans-serif" stroke="none" xml:space="preserve">Dashboard page</text>
    </g>
    <g stroke-linecap="butt" transform="matrix(1,0,0,1,39,97)" stroke-miterlimit="1.45">
      <path fill="none" d="M198.5075 40.3151 L284.2852 40.3151" clip-path="url(#clipPath2)"/>
      <path d="M292.2852 40.3151 L280.2852 35.3151 L283.2852 40.3151 L280.2852 45.3151 Z" clip-path="url(#clipPath2)" stroke="none"/>
      <path fill="none" d="M95 -4.1878 L95 12.2801" clip-path="url(#clipPath2)"/>
      <path d="M95 20.2801 L100 8.2801 L95 11.2801 L90 8.2801 Z" clip-path="url(#clipPath2)" stroke="none"/>
      <path fill="none" d="M319.8231 433.9173 L206.4922 433.9173" clip-path="url(#clipPath2)"/>
      <path d="M198.4922 433.9173 L210.4922 438.9173 L207.4922 433.9173 L210.4922 428.9173 Z" clip-path="url(#clipPath2)" stroke="none"/>
    </g>
  </g>
</svg>
