<?xml version="1.0" standalone="no"?>
<!DOCTYPE svg PUBLIC "-//W3C//DTD SVG 1.1//EN" "http://www.w3.org/Graphics/SVG/1.1/DTD/svg11.dtd" >
<svg xmlns="http://www.w3.org/2000/svg">
<metadata>
This is a custom SVG webfont generated by Font Squirrel.
Copyright   : c by Markus Schrppel 1997 2004 2008 2009 2010 
</metadata>
<defs>
<font id="LLRubberGrotesqueRegular" horiz-adv-x="440" >
<font-face units-per-em="1000" ascent="800" descent="-200" />
<missing-glyph horiz-adv-x="264" />
<glyph unicode=" "  horiz-adv-x="264" />
<glyph unicode="&#x09;" horiz-adv-x="264" />
<glyph unicode="&#xa0;" horiz-adv-x="264" />
<glyph unicode="!" horiz-adv-x="268" d="M195 686q0 -16 -4 -50.5t-4 -50.5q0 -8 3.5 -24.5t3.5 -24.5q0 -16 -2 -48.5t-2 -48.5v-82q0 -70 -12 -80v-9q-2 -13 -3 -39l-8 -5l1 -10q0 -10 -15 -44h1l-5 -1h-42q-11 0 -22 7l3 5l-6 3q0 11 -1 23.5t-8 16.5l4 31q0 11 -6 27q-8 23 -9 27q-1 6 2 54q4 54 4 61 q0 6 -4 36q-4 25 -2 32l-5 13q6 24 6 36q0 81 -3 125l-6 7l3 24l-6 6q0 7 3.5 19.5t3.5 19.5q0 6 -5 16.5t-5 16.5q0 18 53 18h52q19 0 42 -13q-11 -44 -2 -60l-6 -6l8 -5v-23zM189 4q-17 -11 -59 -11q-68 0 -68 35q0 39 3 117q7 4 16 4q6 0 19 -2l13 6q5 -7 11 -6q5 5 21 4 h-1q2 -1 40 -6q5 -38 5 -82v-59zM121 658l1 6l-3 2l-3 -3zM139 630v2l-5 4h-1zM116 630l-1 4l-5 2v-6h6zM139 571q-6 6 -14 6v-4zM141 520v2l-5 3zM113 407l7 2l-7 4v-6zM119 201v4l-3 2l-2 -3z" />
<glyph unicode="&#x22;" horiz-adv-x="412" d="M369 775q0 -11 -4 -33.5t-4 -34.5q0 -7 2 -20t2 -20q0 -19 -25 -36v-9q-38 -24 -65 -62h-6v-12l-12 -9q-9 17 -26 26v49q0 19 49 35l-1 2l-13 3l-17 -5l-12 8l1 65q0 39 -4 71l6 2l127 -2q2 -17 2 -18zM189 775q0 -11 -4 -33.5t-4 -34.5q0 -7 2 -20t2 -20q0 -19 -25 -36 v-9q-38 -24 -65 -62h-6v-12l-12 -9q-9 17 -26 26v49q0 19 49 35l-1 2l-13 3l-17 -5l-12 8l1 65q0 39 -4 71l6 2l127 -2q2 -17 2 -18z" />
<glyph unicode="#" horiz-adv-x="940" d="M835 442l-5 -121l-9 -11q-21 3 -74 1q-47 -2 -73 4l-9 9q-21 0 -64 -5t-64 -5l-14 10q-31 3 -80 0q-67 -4 -81 -4l-13 9q-2 1 -20 -6l-5 1l-9 10l-10 -14q-33 6 -74 6q-25 0 -74.5 -3t-73.5 -3q0 22 -2.5 68.5t-2.5 68.5l28 5q14 0 40.5 -5t40.5 -5h141q14 0 17 94 q2 67 5 73q10 22 67 22q84 0 84 -29q0 -27 -19.5 -75.5t-19.5 -74.5l16 -20l18 15l48 -2q9 9 13 72t15 77l128 -19l-20 -133l4 -4q23 0 71 4.5t71 4.5zM825 102q-38 0 -114.5 5t-114.5 5q-18 -36 -22 -114.5t-22 -114.5q-22 0 -62 17t-62 17l40 201l-92 -4q-9 -17 -12 -98 q-2 -76 -12 -84q-22 0 -64.5 9.5t-64.5 9.5l26 126l-1 8v29q-111 0 -165 -7q-3 3 -9 4q0 22 2 68t2 70l24 5q34 0 105.5 -7.5t107.5 -7.5l28 10v-10l49 -4q16 11 101 11l333 -1q4 -43 4 -84q0 -38 -5 -59zM661 334h7q-1 7 -13 9zM452 363l9 7l-9 7v-14zM329 343l-5 9v25h-6 h-4q-5 0 -13 1l-5 -11l17 -9h-12l1 -10l13 -9zM267 390l-4 10h-19l4 -14zM258 352l-10 15l3 -1l5 8l-6 8l-10 -7l4 -13h-23v-10l9 6q14 -7 22 -7zM414 211q-6 6 -19 16l-4 -11q-25 3 -57 10v-15l16 -10h-12v-9l9 -1l7 1l3 15zM292 211q9 1 24 5q-14 1 -24 3v-8zM316 197h-20 l9 -15l5 2q6 8 6 13zM258 216l-2 7l-8 3l-4 -3z" />
<glyph unicode="%" horiz-adv-x="556" d="M422 724l-2 -13q-3 1 -6.5 -3t-1.5 -7l-8 -8q-1 -15 -14 -56q-12 -36 -10 -49l-5 -2l-35 -130l-5 -4q-2 -18 -20 -75q-16 -53 -15 -63l-5 -2q-9 -34 -23 -103l-4 -2v-11q-22 -38 -28 -92l-5 -4q0 -9 -5.5 -27.5t-5.5 -28.5l-4 -2l-8 -22l3 -11q0 -39 -36 -58l-27 13 l-12 -2l-3 7h-14l-8 6l22 77l6 4q0 11 96.5 350.5t100.5 344.5q48 -21 75 -20zM205 701h3l-2 -3zM217 491h-3q0 -9 1 -28t1 -28q0 -39 -10 -60l-5 -2l-3 -11q-12 -10 -39 -26q4 -8 5 -19h-8l1 5l-1 1l3 5l-5 -5h-8l3 2v8l-12 -3l-4 3h-6q-2 0 -6 -1t-7 -1l-2 -3l-3 5 q-12 2 -34 8l-3 5q-18 -4 -26 29l-5 3q0 18 -5 54t-5 55q0 20 4 38l-10 2l8 3l2 3q0 145 27 157v5l5 6h5l3 5q3 0 14.5 4t14.5 4l1 3q22 1 24 1q21 0 37 -8q1 0 32 -20v-5l5 -3v-5q14 -19 14 -79l-3 -2l3 -13l-3 -3q0 -5 2 -14t2 -14q0 -3 -2.5 -25.5t-1.5 -24.5 q3 -10 3 -11zM115 328q-1 -1 -1 -3zM196 504h3q-5 5 -16 8l10 -3zM183 496l-3 5v-8l8 2zM193 485q-1 3 -5 3q2 -2 5 -3zM175 533l-1 8l1 8q-7 3 -19 7l-2 3v84q0 22 -30 22l-18 -6q1 -16 1 -19q0 5 -3 -21q-1 -2 -3 -3q1 -3 3 -5l-3 -2v-53l3 -2l-5 -3v-142l2 -10l6 -3v-5 l21 -7l10 2q9 11 11 65l2 53l3 3l-3 7q2 9 3 34v6h7l6 -8l-3 -3v-5l-5 -8h8v5zM495 361h3l-2 -3zM507 151h-3q0 -9 1 -28t1 -28q0 -39 -10 -60l-5 -2l-3 -11q-12 -10 -39 -26q4 -8 5 -19h-8l1 5l-1 1l3 5l-5 -5h-8l3 2v8l-12 -3l-4 3h-6q-2 0 -6 -1t-7 -1l-2 -3l-3 5 q-12 2 -34 8l-3 5q-18 -4 -26 29l-5 3q0 18 -5 54t-5 55q0 20 4 38l-10 2l8 3l2 3q0 145 27 157v5l5 6h5l3 5q3 0 14.5 4t14.5 4l1 3q22 1 24 1q21 0 37 -8q1 0 32 -20v-5l5 -3v-5q14 -19 14 -79l-3 -2l3 -13l-3 -3q0 -5 2 -14t2 -14q0 -3 -2.5 -25.5t-1.5 -24.5 q3 -10 3 -11zM405 -12q-1 -1 -1 -3zM486 164h3q-5 5 -16 8l10 -3zM473 156l-3 5v-8l8 2zM483 145q-1 3 -5 3q2 -2 5 -3zM465 193l-1 8l1 8q-7 3 -19 7l-2 3v84q0 22 -30 22l-18 -6q1 -16 1 -19q0 5 -3 -21q-1 -2 -3 -3q1 -3 3 -5l-3 -2v-53l3 -2l-5 -3v-142l2 -10l6 -3v-5 l21 -7l10 2q9 11 11 65l2 53l3 3l-3 7q2 9 3 34v6h7l6 -8l-3 -3v-5l-5 -8h8v5z" />
<glyph unicode="&#x26;" horiz-adv-x="662" d="M560 -9l-11 -8q-42 4 -127 11l-12 42h-11q-32 -30 -89 -42l-6 -6q-9 0 -31 2t-34 1l-9 6l-8 -3q-52 21 -88 53l-2 9l-14 11l-3 12l-9 5q-2 16 -15 41t-13 48q0 87 18 144q22 70 78 122h8q11 25 32 28l-9 31h-6l-2 17l-9 5l-2 20l-12 15v11l-5 2v23l-9 14l-1 34 q-2 37 12 45v13q-1 25 38 52q36 25 64 28l5 6v-4q12 2 45 0q29 -2 43 4q18 -6 53 -28h6l5 -12q22 -8 35 -42q10 -28 10 -56l-2 -18l2 -4q-20 -94 -121 -173l6 -28q15 -14 20 -37l6 -2v-15q11 -10 21 -30.5t9 -34.5l9 -2q5 12 13 68q6 51 12 56l84 2l12 -23q-8 -28 -3 -27 q-14 -69 -11 -98l-14 -29l1 -8q0 -8 -7 -11l3 -9l-5 -3q-12 -25 -24 -76l15 -22h5zM314 691q-9 0 -30 -12q1 -12 -14 -26l5 -11l-5 -9l5 -2q0 -11 3 -29l6 -3l20 -50h8q50 43 50 90q0 37 -11 40q-4 1 -11 2q-3 1 -11 5.5t-15 4.5zM340 422l-14 3l6 -9l7 2zM216 388 q-4 7 -17 15l6 -6l-3 -9h-15l10 -9zM357 146l-6 28l-5 3q-37 82 -36 96l-15 22v12l-11 16l1 7l-15 33h-8l-26 -28l-2 -15q-8 -5 -18 -17l1 -4l-1 -4l-6 -3q-11 -33 -11 -56q0 -33 3 -57h6l6 -22l5 -2l11 -26q7 -3 17 -11l3 -9h12q11 -8 24 -8q19 0 39 15q2 2 32 30zM177 194 l2 1l-5 4zM256 81l1 8q-2 1 -5 1h-2l-3 -9h9z" />
<glyph unicode="'" horiz-adv-x="256" d="M189 775q0 -11 -4 -33.5t-4 -34.5q0 -7 2 -20t2 -20q0 -19 -25 -36v-9q-38 -24 -65 -62h-6v-12l-12 -9q-9 17 -26 26v49q0 19 49 35l-1 2l-13 3l-17 -5l-12 8l1 65q0 39 -4 71l6 2l127 -2q2 -17 2 -18z" />
<glyph unicode="(" horiz-adv-x="284" d="M30 775l-8 3l3 9h-1l-3 5l15 9l1 -5l-10 -9zM227 1q-80 0 -118 64q-29 49 -35 140q-1 12 -1 141h3q-6 19 -8 65q-2 33 -1 86q1 77 1 71q0 11 2.5 34t2.5 35q5 2 7 20l2 23q7 28 28 59l10 5l5 12l9 2l3 8q15 6 43 24h10l14 9h3l13 -5q-2 -16 -2 -83l-14 -19l-10 2 q-20 -28 -20 -229q0 -50 1.5 -135t1.5 -110q0 -101 45 -131l-2 -29q10 -8 8 -37zM127 637l3 5l-3 2l-3 -4zM127 502l-2 4l-5 -9zM156 439l7 8l-7 7l-2 -9zM158 420q0 3 -2 5zM134 406l1 4l-1 -1v-3zM144 385h-5l3 -12l5 3zM156 358l2 6l-3 2l-4 -4zM168 318v5l-2 2l-3 -3z M151 339l-12 -2l-7 9l-2 -16q5 2 9 2h3h2v-5zM154 310v5l-3 3zM120 342l-5 4h-2l-3 -7l8 5zM151 296v4l-2 1zM143 315h-9l-2 -5l-7 3l-3 -7l17 -5l-1 6zM106 313l4 1q-1 3 -4 4v-5zM151 251v7l-12 3v-7h10v-5h4zM137 237l-5 7l-7 -2l2 -5l10 -1v1zM139 196l-2 10l-3 -8z M108 232l-3 -6l1 -6l7 6v3l-3 3h-2zM108 201v9l-5 8l-2 -6v-9z" />
<glyph unicode=")" horiz-adv-x="291" d="M198 92v-7l-12 -17l3 -7h-10l-9 -23l-8 -2v-8h-9l-3 -7h-9l-14 -14q-13 -1 -27 -13l-26 3l-2 12q0 14 2.5 41t2.5 40l14 5q-2 4 2 6t8 1q15 39 15 46q0 51 -4 154.5t-4 155.5q0 125 -10 218l-9 7q-2 12 -26 25q0 51 -5 81l5 5q67 0 110 -56q39 -52 39 -120t5 -206t5 -207 q0 -86 -24 -113zM260 38h-10l2 6l6 3zM269 2q-27 0 -52 -5l2 7l17 -2l10 7l12 -2l-1 13l9 16q3 -21 3 -22v-12zM210 -5l-8 -1h-7l-4 2l16 4zM186 462l3 8l-3 2v-10zM148 166q-1 5 -7 5l1 -3zM134 118l1 6l-4 1l-1 -4zM150 100q0 3 -4 4l-1 -2zM130 95l-1 4l-2 1zM113 85l4 1 l-4 4v-5z" />
<glyph unicode="*" horiz-adv-x="448" d="M368 595q-13 -16 -37 -51v-8l-13 -9q-21 17 -51 39q-2 -8 -2 -20q0 -14 5 -49l-19 -15l-9 4v8l-4 1q1 1 2 0l-4 -1q-22 -4 -30 0l-6 -3l-25 6l3 67q-31 -19 -51 -39h-12q-8 0 -44 75q10 10 37 23.5t36 24.5l-70 37q4 20 33 75h12l2 -5q10 -2 28 -16q24 -20 26 -21l-8 82 l4 2h88l5 -5q0 -43 -5 -73h4q18 15 57 42l26 -25l-3 -15q25 -25 25 -39v-5l-73 -36v-6q27 -15 73 -34v-11z" />
<glyph unicode="+" horiz-adv-x="496" d="M443 332l2 -17q0 -9 -2 -26t-2 -26q-69 9 -124 9q-32 0 -48 -4q0 -139 9 -150q-1 -12 -5 -16l-65 3l-2 15q0 14 2.5 42t2.5 40.5t4 22.5l-4 23l4 6v9l23 -2v7h-16l-2 8h-3q-18 0 -57.5 -4t-60.5 -3l-51 1q-4 24 -2 56l-3 2l18 8q12 0 35.5 -1t35.5 -1q8 0 27 -1.5 t29 -0.5l3 -4h24l5 24q-14 6 -14 78v68q9 0 28 2t28 2l11 -4l-2 -166l101 -2q12 0 33.5 4t30.5 5zM233 420l-5 2q0 -2 -1 -6v-3zM231 399q-1 3 -5 5v-5h5zM324 297l7 2l-7 2v-4zM238 379l4 3l-4 6v-9zM327 290l-3 4zM309 314h-11v-2l9 -2zM311 299l1 2q-4 1 -21 7l2 -9 l-11 2v-7h16l2 7zM251 364l1 2l-6 6q-8 -1 -15 -24h4l-4 -9l2 -2h11l-6 4v7l-2 1l4 8l9 -2v6l-9 -2v7zM251 344l-2 -12l12 6zM282 306v13h-4l2 -7h-11v5l-3 -3l1 -4zM262 312l-9 12l-6 -12h2v-6h-3q4 6 16 6zM235 326q-4 4 -9 4l1 -2zM235 312v5l-2 2l-11 2l6 -11zM264 292 h-15l6 -11l2 -1l1 6zM243 297h-15l-2 -3q11 1 11 -3q-1 -2 -2 -3q6 3 8 9zM253 268l-2 4zM208 308l-2 6h-18l7 -8zM173 324l-3 4zM231 243l1 9l-4 2v-4h-3l-3 -3l5 -5zM240 230l2 1l-2 3v-4zM173 281l4 1q-1 3 -4 4v-5zM240 216v4l-2 1zM142 317l-10 4v-7zM195 288l-7 6h-8 l2 7l-12 7l3 9q-11 3 -19 3l-6 -1v-11l-8 -1l-2 -2q9 -2 37 -4v-4h-13q-37 0 -58 6l9 -9l19 3l5 -11l11 -3l2 9h3v-6l4 -3v7h23l2 -7h9zM128 306l-4 6h-18v-6h22zM119 279l8 5l-8 4v-9zM77 312l7 2l-7 3v-5zM112 290h-11l-2 -11h7v7zM77 299l7 2l-7 2v-4zM63 281l2 5l-3 2 h-1zM164 314l4 -2l-6 -4zM144 288l-4 1v2l4 3v-6z" />
<glyph unicode="," horiz-adv-x="340" d="M321 144h-9l-3 9l3 3l12 -3zM249 -5q-47 -24 -53 -57l-69 -66q-4 0 -12.5 1t-12.5 1q-22 0 -58 -6l-4 10l1 4l6 3q17 28 50 132h57q55 -1 91 9q7 -3 10 -14zM309 -250v-5l-3 -2q1 4 3 7zM314 -269l-8 -10l3 -5l-12 3l6 2l1 7l8 5v-3z" />
<glyph unicode="." horiz-adv-x="256" d="M193 -2l-6 -6h-22l-11 6v-6h-33v6h-50l-1 4l-5 1v72h6v6h-6v44h6v5h66l3 6l9 -3v-3h16v-5l6 -6l22 11q0 -9 -1.5 -27.5t-1.5 -27.5q0 -16 3 -28h-6q3 -16 6 -49z" />
<glyph unicode="/" horiz-adv-x="422" d="M353 774l-2 -13q-3 1 -6.5 -3t-1.5 -7l-8 -8q-1 -15 -14 -56q-12 -36 -10 -49l-5 -2l-35 -130l-5 -4q-2 -18 -20 -75q-16 -53 -15 -63l-5 -2q-9 -34 -23 -103l-4 -2v-11q-22 -38 -28 -92l-5 -4q0 -9 -5.5 -27.5t-5.5 -28.5l-4 -2l-8 -22l3 -11q0 -39 -36 -58l-27 13 l-12 -2l-3 7h-14l-8 6l22 77l6 4q0 11 96.5 350.5t100.5 344.5q48 -21 75 -20z" />
<glyph unicode="0" horiz-adv-x="516" d="M420 750h-2l-4 4l4 7h1l6 -2l-5 -3v-6zM414 735h-4l2 15zM441 351v-9l-5 -1q0 -19 1.5 -58t1.5 -58q0 -23 -3 -47h-6v-32h-4l1 -12q1 -10 -4 -10q-2 1 -3 2v-16l-10 -5l-6 -21l-10 -6v-5l-27 -21v-5h-10v-5l-31 -11q8 -16 10 -37h-16l4 9q0 2 2 6.5t0 5.5l-11 -2v-8h-16 q-2 2 1 4.5t5 0.5v16l-23 -6l-9 6v-5l-10 1l-1 4l-10 -3v-2h-16l-5 -6l-5 11l-42 5v6h-16v5h-10l-6 10h-10v6l-16 4l-16 22h-5l1 9q0 12 -6 6v11l-11 5l1 13q1 10 -4 10q-1 0 -2 -2q0 10 -3 29t-3 29h-4q-8 46 -8 100q0 66 12 116l-20 4v6h16l4 5v126h6q-1 17 -1 52l1 27h5 v32h5l-1 15l1 11h6l5 21h5l5 21l16 10v10h5l6 11h10l6 11l6 -1q8 0 4 6l21 5v5q11 -2 29.5 3t26.5 5l54 -2v-6h27v-5h16v-5h10v-5l9 1q12 0 6 -7q8 -8 27 -20v-6h10v-10l10 -6v-10h6v-11h6v-15h4q6 -38 6 -48h5l2 -28l-2 -56q-2 2 -3 2q-3 0 0.5 -16t2.5 -17q0 -1 -3.5 -1 t-3.5 -2q0 -6 7 -3l2 -49l-2 -24h-5v-73h5l-6 -16zM31 535l-7 2l-1 4l8 -3v-3zM31 330l-7 2l-1 4l8 -3v-3zM26 289h-11q8 9 8 21l3 -9v-12zM26 267l-11 -5v13l3 8h8v-16zM26 205l-5 -6l-11 6v15h5l3 26q8 -26 8 -41zM74 -6h-37v6h-5q-3 0 -27 -6v6l-5 3l5 2v3q0 11 5 13v5 q0 1 -3 7.5t-3 7.5l1 11h5v42h-5v9l5 2v63h5l-2 6l-3 -1v5l8 5l3 -10h5l-4 -10v2l1 -2v-5l3 -22h-5l5 -5v-3l-5 -2v-11l5 -5v-9l-5 -2l5 -5v-9l-5 -1l5 -11l-5 -11l10 -4v-6h-10v-10l10 -3l-5 -13h-5l5 -11h16v-5q17 -1 32 -5v-11zM68 26l-10 3l2 2l7 -2zM37 21l-9 3l1 2 q6 0 8 -5zM399 367h5l-10 11v5l-7 1l-14 -1v-5h21zM373 351l-6 11v-16l19 4zM394 330l-11 6l-3 -2zM357 425l-3 16l3 16l-11 5v5h-10v5l-9 -1l-12 7v168h-5v10h-5l1 10l-1 6h-6l-5 10q-14 8 -29 7l-23 -1v-6l-23 -10v1l1 -5l1 -17h-6v-53l-5 -5h5q0 -16 -5 -15v-106l5 -5 l-10 -5v-16l4 -3l1 -8h-5v-136h-6v-4l6 -1v-116h5v-20l11 -6v-10l15 -6v-5q12 -2 31 -2l16 2l11 15h5v12h6q-1 15 -1 45l1 23h5v20h-5v16h5v105h5q1 4 -2 10t-3 7q0 8 5 4v32h5v8l-5 2l-1 11l1 26h15l12 -16q-2 -3 -6 -5v-11h-6v-10l-4 -5h16v10l5 1z" />
<glyph unicode="1" horiz-adv-x="352" d="M264 61q0 -31 -6 -60q-12 -1 -33 1q-24 3 -33 3q-8 0 -57 -9q-17 9 -17 41q0 41 2.5 123.5t2.5 123.5q0 28 5 84t5 84q0 53 -3 188q-12 0 -36.5 4t-36.5 4v19q-5 1 -5 11q0 47 28 71l68 47q16 0 110 -8q8 -27 8 -37q0 -32 -5 -96.5t-5 -96.5q0 -83 4 -249t4 -248z" />
<glyph unicode="2" horiz-adv-x="518" d="M378 435h-5q-20 -17 -65 -87l-16 -5q-11 -24 -35 -57q-35 -47 -40 -55l1 -7q0 -10 -7 -5v-10q-19 -19 -27 -81q34 0 103 3t102 3l26 -16q0 9 0 -48q0 -78 -35 -78q-19 0 -57.5 6.5t-57.5 6.5h-97q-19 0 -56.5 -5.5t-56.5 -5.5l-4 11h4q-2 14 -2 39q0 102 24 122 q1 21 16.5 61.5t15.5 62.5l17 10q7 17 34 51q24 31 30 52q43 27 77.5 87t34.5 110q0 80 -49 80q-51 0 -64 -60q-1 -4 -5 -100q-40 -4 -75 -4q-30 0 -48 4v43q0 74 18 116q10 24 36 51q23 23 27 43q41 19 116 19q74 0 121.5 -43t47.5 -116q0 -18 -6 -64l2 -4q-5 -62 -45 -130 zM389 241h-8l-8 3l8 8l9 -10z" />
<glyph unicode="3" horiz-adv-x="495" d="M37 814l4 -3l-6 -8zM450 152l-6 -2q0 -73 -50 -111q-45 -34 -120 -34q-109 0 -151 52q-38 46 -38 158q0 53 9 77q35 -13 114 -13v-65q-1 -38 4 -70l8 -1q-1 -23 7 -31.5t30 -8.5q50 0 65 37q8 21 8 80q0 99 -15 119q-20 28 -114 32v97q10 0 30 -1.5t30 -1.5q63 0 63 160 q0 26 -10 39l-16 5l-10 16l-15 2q-43 0 -55 -40q-4 -16 -4 -75l-2 -21q-17 0 -51 -1.5t-50 -1.5l-21 3q0 231 171 231q49 0 88 -13l4 -10q17 -11 42 -7l-1 -7q0 -11 13 -21t15 -15l6 -40q14 -9 14 -45q0 -80 -8 -113q-15 -65 -62 -89q58 -32 73 -100q8 -33 8 -130 q0 -30 -3 -40zM40 439l-10 15l7 6l4 -6v-7zM45 403l-14 5l4 27zM480 -22h-15v6l6 7l9 -5v-8zM35 376l-3 9l3 12l5 -8zM40 355l-7 8l2 8l9 -12zM374 707l-18 4l7 -7zM330 728l3 16l-1 6h-2l-6 -1v-18h-10zM364 695h-15l-8 12l-9 -8l17 -5h13z" />
<glyph unicode="4" horiz-adv-x="560" d="M479 481l-11 7l3 4l7 -1zM479 427h-10v43l2 6h8v-49zM474 358l-11 5q1 5 1 11v8q-1 6 -1 9l8 20l7 -13q0 -7 -2 -20t-2 -20zM441 176q-25 3 -74 6v-27q0 -25 2.5 -75t2.5 -75q11 -3 27 6q1 -30 -23 -30q-36 0 -41 30q-69 2 -97 -6q0 25 5.5 75t5.5 75q0 20 -5 37 q-22 -6 -47 -6q-4 0 -54 3q-33 2 -54 -2l-11 5l-21 -5q-3 17 -3 45q0 44 24 116q33 100 37 117l11 11v18q0 10 6 23q10 22 10 23q13 37 24 121q11 80 27 120h136l1 -9q0 -45 -54 -189l-11 -5q-2 -30 -20 -76q-25 -64 -28 -75q-13 -12 -27 -32l1 -14q2 -29 -44 -87 q17 0 53.5 -2.5t53.5 -2.5q4 68 -7 118v5q18 18 23 32q6 18 11 37q17 6 34 58l20 71q21 0 37 5q7 -33 7 -87q0 -134 1 -119q-2 -81 -13 -115q21 -6 74 -5v-113z" />
<glyph unicode="5" horiz-adv-x="520" d="M429 425l-5 -12q10 -11 10 -146q0 -262 -171 -262q-7 0 -19 6t-19 6q-102 0 -140 55q-30 44 -30 151q0 37 6 52q10 25 42 25q13 0 39.5 -2t39.5 -2q4 -14 4 -34q0 -72 -14 -101q5 -4 28 -35q15 -20 39 -20q38 0 52 35q9 22 9.5 75.5t5.5 68.5q-6 1 -6 6l6 5q0 51 -10 93 q-15 65 -48 65q-24 0 -42 -23q-3 -5 -24 -44l-21 -2q-68 0 -79.5 10t-11.5 77q0 13 5 38t5 38v85l-10 6q0 14 -2 44t-2 43q0 79 66 79q3 0 13 -4l11 -6q5 -1 67 2q72 3 77 3q58 0 102 -11v-102q-22 -5 -50 -5q-26 0 -41 5l-5 6v-4l-6 -13q-40 15 -81 15l-31 -4 q-3 -32 -6 -96l-2 1l-4 -8q0 -55 1 -47l16 -3q32 23 68 23q135 0 168 -132zM161 736l10 8l-10 2v-10zM220 521q12 3 18 8q-8 3 -23 3zM91 397l25 6l-25 6v-12z" />
<glyph unicode="6" horiz-adv-x="504" d="M437 295q3 -25 3 -54q0 -243 -172 -243q-114 0 -159 60q-38 51 -38 169q0 33 3 142l2 3l-2 14q7 7 7 36q0 13 -3 58t-3 73q0 216 170 216q183 0 183 -157q0 -16 -4 -31l-6 -2q-6 0 -108 10v12q0 65 -53 77v-5l-36 -5v-11q-30 -27 -28 -94l2 -68l56 26q4 -1 6 -5 q18 5 41 5q60 0 91 -36q24 -28 35 -85l16 -99zM32 -31q-6 0 -9 4t-3 10l6 7l9 -14zM142 432l10 8l-10 2v-10zM179 385l3 12l-3 3l-3 -10zM142 421l-5 -10q9 5 12 10l-3 1zM251 428q-61 0 -61 -150q0 -96 4 -116q13 -72 69 -72q47 0 58 77q4 22 4 114q0 147 -74 147z" />
<glyph unicode="7" horiz-adv-x="443" d="M369 558q1 -3 1 -7q0 -9 -7.5 -27t-7.5 -28t-4 -10q-1 0 -2 2l-6 -33h-5l-35 -129q-20 -81 -20 -129q0 -15 -7 -41t-7 -39q0 -12 4 -23q-6 -17 -5 -74l5 -1l-5 -5l5 -10l-11 -22q-60 17 -102 17q-25 0 -43 -6l-18 27q0 12 7 40q7 25 5 40l11 16l-1 25q-1 16 24 109 q31 117 31 119h5q14 30 11 48l11 11l10 40q5 19 17 36v27l11 5l-1 13l1 9l11 11l5 37l11 6l5 37q-22 0 -75.5 5.5t-79.5 5.5q-33 0 -55 -6q2 7 -4 19.5t-6 17.5l5 1v103q6 0 19.5 2.5t20.5 2.5q40 0 120 -6t122 -6q38 0 73 -10q0 -13 2 -41.5t2 -42.5q0 -24 -16 -72t-32 -64 zM322 51q-7 2 -11 4l4 2zM316 4h-5v-17l-16 6q3 19 5 26q5 14 14 21zM327 -99h-21q-3 11 -10 11h-7l6 -11h-22v11q6 3 16 11v10q12 0 30 6l9 -10l-12 -6l11 -6v-16zM268 -99h-16l8 16h8v-16z" />
<glyph unicode="8" horiz-adv-x="496" d="M35 812l-2 -5v5h2zM430 255q0 -22 -4.5 -67t-4.5 -67h-5q3 -29 -37 -69h-11l-16 -21l-15 1l-11 -1v-5q-18 -6 -37 -6v-5q-5 3 -15 6q-21 -8 -38 -8q-23 0 -42 13h-21l-10 10l-27 6q-54 51 -67 102q-6 27 -6 126q0 29 4 67h6l5 32h5v16l16 10q0 21 42 32v16l-31 21v11 l-11 4l1 10q0 9 -5.5 23.5t-6.5 19.5h-5l-2 35q-1 24 3 64q4 47 4 65h6q37 101 140 101q58 0 87 -11q17 -6 38.5 -26.5t45.5 -31.5l-1 -10l17 -27l-5 -11q10 -7 10 -87q0 -48 -17 -90.5t-17 -43.5l8 -11q-11 -6 -26 -21q14 -5 31 -16l-1 -10l1 -6l11 -5v-21l11 -16v1l-1 -1 v-9q0 -16 2 -44q2 -32 2 -45zM289 501q12 23 12 76v48q0 77 -54 77v-6q-44 -11 -44 -87q0 -58 4 -78q11 -46 51 -46q2 0 31 16zM310 236v47q0 98 -66 98q-45 0 -45 -49h-5l5 -21l-10 -32q-1 -3 5 -21l-5 -5q3 -83 4 -86q11 -49 58 -49q13 0 17 3q10 9 31 26q11 9 11 89z M273 158l-9 3l2 2z" />
<glyph unicode="9" horiz-adv-x="476" d="M18 782h-14l2 4h12v-4zM416 527v-219h-5l7 -24l-2 -36q-1 1 -3 2q-1 0 0 -9t-1 -11l4 -29h-5l5 -20h-5v-20l-5 1l1 -8v-29l-1 -10h-5v-16h-5l-5 -24l5 -6l-16 -5l-10 -15h-5v-10l-10 -5v-6h-11v-5h-15v-5h-20v-5h-15v-5l-39 2l-12 -2l-5 -10h-4l-2 5h-9v5h-26v5h-20v5 l-26 5v5l-20 6v5h-11l-5 15h-9l-5 15l-10 6l-5 24h-6v11h-5q2 33 0 36h-5v46l27 7q15 0 49 -3v-4h46l5 -5q0 -60 20 -72v-5l10 10v-5h16v-5h20l5 10h11l4 26h6l-1 34l1 12h5v50h5l-6 16l6 5v5l-9 1l-7 -1l-10 -16l-30 -4v-6h-11v-5h-19v5h-10v6h-26v4l-31 5v6h-10l-5 10h-11 l-8 16l-11 4v10l-10 5l-5 26h-6v10h-5q-2 6 -5 40q-5 -6 -5 6l1 11q0 2 -1 4v193q2 0 2 7q-1 6 0 6t3 -2v35h5v21h5v15h6v10h5v11h4v9l20 15q-2 2 0.5 4.5t4.5 0.5l6 11h10v4h10v6h10v5l14 2l10 13q15 -6 36 -7q13 -1 38.5 0.5t34.5 1.5v-5q25 0 35 -5v-5h10v-6h10l6 -10h9 v-5l17 -9v-5l9 -6v-9l11 -6v-10h5v-16h5v-20h5v-16h5l-5 -11q0 -6 5 -3v-46q1 1 2 1q2 0 2 -4q0 -3 -2.5 -19t-1.5 -19q3 -2 5 -5h-5zM286 242l2 -2l-5 -3v4zM438 75l2 -3l-5 -3v3zM393 64l-2 -4v2zM388 60l4 -3l-7 -8zM452 -33l-6 -4v-11q-20 2 -30 15q14 12 18 20h7 q3 -8 11 -20zM307 -63l2 -1l-5 -4v4zM50 -22l-6 -5q-18 -2 -31 -2l-14 7v14l11 7l4 -1v-6l10 -5h26v-9zM213 695l-6 6v-6h6zM299 456v21h-5v15h5v21h-5v50h-15v5h15q0 9 -5 71h-6v15h-4l-6 11l-26 4l-4 6v-6h-30v-4h-10v-11h-6v-10h-5v-30h-4v-72h-6v-4l6 -1q-4 -22 0 -40 l-6 -5l5 -6l-5 -5v-4h6l-1 -36l1 -16h4q0 -17 5 -45l-5 -5l15 -11v-10q26 -6 42 -6l9 1v5q7 1 21 5l4 10h6v11h5q-1 -12 -1 50q0 3 1 26h5zM344 364q-4 5 -10 5l1 -3zM136 344l7 7l-7 8v-15zM106 380l-1 3l-4 1v-4h5zM271 573l2 -2l-5 -3z" />
<glyph unicode=":" horiz-adv-x="256" d="M166 -2q-10 0 -31 -2.5t-31 -2.5q-18 0 -31 5l2 52h2q-2 10 -2 44q-3 8 -6 17l1 5l12 10h8q8 0 22 -3t21 -3h-1h2l5 1l25 1l10 -6q-4 -35 -4 -57q0 -8 3 -24t3 -24q0 -5 -10 -13zM166 358q-10 0 -31 -2.5t-31 -2.5q-18 0 -31 5l2 52h2q-2 10 -2 44q-3 8 -6 17l1 5l12 10 h8q8 0 22 -3t21 -3h-1h2l5 1l25 1l10 -6q-4 -35 -4 -57q0 -8 3 -24t3 -24q0 -5 -10 -13z" />
<glyph unicode=";" horiz-adv-x="284" d="M215 70q-3 9 -3 24l-13 -1l-2 9h13q0 18 -3 71l-2 -9h-11l3 -6l-10 -6v-5h7l2 -4l-2 -3q-16 3 -26 -5l-7 3l-3 -6q24 -4 28 -20q0 -19 1 -38l7 -4v-11l-10 -3l3 -3l-23 9h17v5l-7 -6l-4 6h-2l-7 -5h-3l-14 5l4 7l-5 3l-3 -1l-11 -14h-8l-4 5l-8 -15l-11 15l-8 -5l5 -9 l-5 -1l-4 1l2 9v3h-14l6 -21l-10 -14q1 -1 1 -4l-1 -4l-8 -1l2 6l-5 3q-3 9 -3 24q0 120 6 134l8 5q24 0 72.5 -3t72.5 -3v-117zM205 -163q-11 -5 -32 -26l-10 -2q-1 -14 -23 -34l-32 -29l-23 -3l-11 11v37q0 14 3 23q14 12 34 23v5h-34q0 14 -1.5 42.5t-1.5 42.5 q0 3 1.5 11.5t1.5 12.5t-3 12.5t-3 12.5l1 7l5 6q10 0 31 -1.5t32 -1.5q5 0 15 3t15 3l29 -6q4 -12 4 -38q0 -47 -5 -54l1 -5l3 -2l-3 -21l8 -20zM155 149v4q-6 2 -8 8h-7l-5 -9zM168 76l-10 3l-3 12l-18 -3l-2 5l-14 1l-3 -3h6l5 -12l16 3q8 -4 20 -11zM103 83l1 5l-6 5 l-3 -10h8zM88 71v8l-5 -6l4 -2h1z" />
<glyph unicode="&#x3c;" horiz-adv-x="488" d="M238 523l-8 -6v8l3 3zM399 509q0 -11 -5 -30q-10 -5 -27 -19v-12l-18 -7l-11 -18h-9q-4 -19 -6.5 -24t-17.5 -19h-14q-4 -6 -10 -38l-19 2l-9 -2l9 -12l-1 -22q-1 -17 19 -30q26 -18 30 -24l-1 -15q-1 -9 14.5 -19t18.5 -14v-23q9 1 24 -19q19 -25 24 -29l-1 -10l1 -18 q-10 0 -28.5 -7.5t-28.5 -7.5l-14 10l-5 -10l-82 -1q-16 0 -26 26q-5 4 -24 13q-10 19 -33 57l-14 4q-2 12 -10 30q-40 27 -65 81l-4 -1l-11 4l10 10v23l14 4q-1 4 -5 7v8l19 4l-6 15l2 4h23v24h19q2 11 5 22.5t14 11.5l3 -2l6 20l19 -4v27h14q10 22 29 44q34 -13 46 -13 q3 0 15.5 1.5t27.5 1.5q13 0 49 -3q31 -2 50 -1zM324 441h5l8 3l-13 8v-11zM220 441l8 7l-8 8v-15zM243 423q-3 2 -23 6l20 -3zM262 380l-65 5v-9h-1q2 0 43 -4l-5 -15l24 -8v4l-5 4l-4 15l6 -2l5 3zM220 361q-17 -13 -17 -30l2 -2q16 5 16 20v6zM201 361q-7 6 -19 24 l-4 -13l-20 -8l39 -15zM230 342q-8 -20 -15 -56q13 18 15 20q9 13 9 23zM281 240l-19 4l10 18q-10 6 -24 6h-12q-19 0 -22 -9l-8 -19h24v-15l-15 -4l-9 14l-4 -3l-1 -7h-4l9 -19l28 7l9 -3q-2 7 -4 22l7 8q11 0 31 -11zM249 244l-18 3l3 1l5 11h2q3 -1 7 -2z" />
<glyph unicode="=" horiz-adv-x="940" d="M836 491v-27q0 -23 -5 -95l-9 -10q-21 3 -74 1q-47 -1 -73 4l-9 9q-13 0 -128 -9q-16 11 -62 11q-23 0 -63 -3t-50 -3l-14 9q-2 1 -19 -6l-5 1l-9 10l-10 -14q-33 6 -74 6q-25 0 -74.5 -3t-73.5 -3q0 22 -2.5 68.5t-2.5 68.5l28 5q14 0 40.5 -5t40.5 -5q51 0 154 2.5 t154 2.5q32 0 94.5 -4.5t94.5 -4.5q24 0 71 4.5t70 4.5zM826 151q-52 0 -158 7.5t-159 7.5q-37 0 -111 -3t-111 -3v6l-203 -10q-3 3 -9 4q0 20 2 69q2 44 2 69l24 5q29 0 102.5 -7.5t110.5 -7.5l28 10v-10l48 -4q18 11 63 11l371 -2q5 -53 5 -89q0 -33 -5 -53zM662 383h7 q-1 7 -13 9zM453 411l8 7l-8 8v-15zM330 392l-5 9v25h-23l-5 -10l17 -9h-12v-10l14 -9zM268 439l-4 10h-19l4 -14zM259 401l-10 15l3 -1l5 8l-6 8l-10 -7l4 -13h-23v-10l9 6q14 -7 22 -7zM415 260q-6 5 -19 15l-4 -10q-25 3 -57 10v-15l16 -10h-12v-9l8 -1l7 1l4 15z M293 260q9 1 24 5l-24 4v-9zM317 246h-20l9 -15l5 2q6 8 6 13zM259 265l-2 7l-8 3l-4 -4z" />
<glyph unicode="&#x3e;" horiz-adv-x="468" d="M192 490l-5 -7v8l3 1zM411 299q-5 -4 -13 -31q-28 -18 -57 -73q-31 -59 -53 -76v-5q-16 -5 -39 -3l-40 3q-14 0 -40.5 -4t-40.5 -4q-31 0 -31 15q0 14 28 50h13l5 14l22 13q12 33 22.5 45t43.5 34l-1 16l1 10q-145 132 -145 167t29 35l37 -13v-9h22l4 -8h3q9 0 23 8v5h2 q2 -14 16 -13v8l53 5l4 -9q8 -6 42 -56q37 -54 50 -67v-5q11 -5 21 -20l19 -28v-4z" />
<glyph unicode="?" horiz-adv-x="547" d="M142 801l-4 -6l-29 -2l2 8h31zM43 771l-7 3l2 2l5 -4v-1zM393 459l2 -5q-5 -4 -8 -13q-3 -12 -5 -15q-16 -21 -47 -65q-12 -5 -35 -45q-19 -34 -27 -54l-6 -2q-9 -26 -8 -88l-98 -2q0 7 -2 21.5t-2 21.5q0 12 6 25l-2 11l5 5v10q0 14 3 23l5 3l3 27l8 3q0 25 17 35v14 q15 18 19 33q11 8 26 28q18 27 23 32v8l16 20v8l9 13q0 12 7.5 33.5t7.5 33.5q0 40 -18 64v5q0 11 -25 19q-19 5 -35 5h2h-3l-8 -1q-39 -27 -39 -73q0 1 4 -53l-41 1l-19 -1l-6 -6l-25 -2h-16q0 22 -1.5 65.5t-1.5 65.5q0 30 28 56l46 39q11 0 29.5 10t29.5 10h62 q17 0 52 -14l8 3q7 -13 33 -14l13 -16q23 -8 40 -76q13 -54 13 -92q0 -55 -39 -114zM278 8q-14 -7 -18 -7q-85 0 -114 10q6 24 5 67q-1 49 1 67q17 0 51 4t51 4q7 -2 16 -5q0 -81 8 -140z" />
<glyph unicode="@" horiz-adv-x="423" d="M292 134q-4 -3 -11 -3h-4v7h-6l-2 -4q-14 2 -19 -3l-23 3l-3 4v10h-5l-7 -3v-7h-6l-4 -7q-14 -2 -40 -3l-2 -3q-12 0 -33 21v6l-7 5q-4 25 -9 60h-4l4 1v26h-4v6l-3 1h7v33l4 3v11l4 1v9l6 5l4 19l10 3l6 10h7l4 7h6l4 7l17 2l3 7h6v7h7l13 13v10l7 -3q0 9 -3 27h6l4 3 l-4 3l-6 -3l-4 17l-13 3l-3 -3h-17q-5 -10 -4 -14l4 -6h-4v-20l4 -7h-4v-13l-3 -4h-16l-2 -7l-9 2l-1 7h-35l-3 3q0 7 -1 20.5t-1 20.5q0 6 4 18.5t4 18.5l5 6l-2 5l5 1v5l10 10h5l2 8q7 -1 18.5 3.5t15.5 5.5l1 4l15 -4v4h45v-4q15 3 27 -6l5 -9h9l3 -12l7 -5v-8l3 -2v-23 h6q-3 -23 -3 -32q0 -3 2 -60l4 -1l-1 -12l-3 -2l1 -5l2 -2q3 -13 3 -38q0 -40 -6 -61l3 -7h1q2 0 3 -16q0 -19 3 -49l-2 1zM229 445q-2 1 -3 3zM249 419q0 3 -3 3zM239 415q-1 4 -4 4v-4h4zM226 311l-24 7l5 -5l-6 -15l-11 -3l-3 3v-23l-3 -3l4 -15q-5 -14 -4 -19v-3l6 -3 l-3 -4q0 -16 7 -30l7 -3v7h10l6 16h4v14l-4 3l3 1l1 5l-4 3v7h3l1 7h-4v24l-3 2l7 4v7l-4 3l2 10z" />
<glyph unicode="A" horiz-adv-x="552" d="M534 779l2 -4l-5 -4q1 3 3 8zM498 15l-2 -30q-94 15 -135 11q-9 25 -4 49l-5 3v58l-6 3l1 23q1 12 -6 18v25l-5 2l-3 36l-8 -3l-14 12q-8 1 -21 0q-16 -2 -21 -2l-11 2l-8 8q-1 0 -2.5 -2.5t-2.5 -2.5l-6 -2l-19 7l-3 -8l3 -11l-6 -3l3 -16l-8 -6v-24l-3 -40l-9 -2l3 -9 q-4 -2 -2 -7t5 -3q-3 -31 -8 -48q2 1 2 -2q1 -3 -2 -3q0 -14 -6 -50h-30l-2 9h-2q-7 -6 -16 -6l-30 8q1 -8 -8 -8h-5v14q0 5 -6 5q-6 -1 -5 -5l-14 1l-9 -1l5 16l-7 9l11 27l-3 11l9 11q-2 7 8 25l-6 8l6 15l8 2l-6 17q12 39 11 52l8 -3q-11 16 0 44h-2v6l5 6l-3 13l15 11 l-6 15l8 7l-8 11q2 14 11 34l-5 13l10 6l-2 27q3 0 5 4q1 4 0 7q13 13 13 31q0 7 -3 22.5t-3 23.5l1 11l9 6l-3 14l9 28l-4 5v14l8 5l-5 19l14 17q-3 20 -3 42q0 25 3 41l11 5l-11 9q7 12 6.5 28.5t1.5 21.5h6l-3 21h28l4 6q37 -6 51 -2l17 -6l2 8q35 -8 42 3q37 -6 41 -5 l8 8q0 -63 23 -160q-4 -13 2 -48l-6 -5q15 -12 16 -31q2 -26 7 -35l-3 -30l5 -3l11 -56l-3 -16q-8 1 -8 -9v-5l6 9h5l6 -25q-7 -14 -25 -19v-9l27 3q4 -12 8 -37q-16 -10 -16 -21l3 -6l19 -2l-2 -11q0 -8 6 -24.5t5 -27.5l5 -6q-1 -13 3 -44l-6 -6l-23 1l-10 -1v-8l8 -8 q2 -1 9 5h25q0 -9 5.5 -30.5t5.5 -28.5q0 -4 -1 -7q14 -18 9 -42l6 -5l-3 -20zM344 -2q-13 0 -40 3.5t-40 3.5q-10 0 -30.5 -3.5t-30.5 -3.5l3 6h11v5l14 6l2 8h12l11 9l10 -6q12 6 20 6h3l11 -11q5 2 12 3l7 -1q5 -14 25 -19v-6zM341 752q-1 3 -5 5v-5h5zM283 713v8h-8v-5z M222 746l3 12l-3 5l-2 -1l-3 -5h-3v-11h8zM197 707q0 2 -2 9h-9v-9l10 -4q1 2 1 4zM214 697h-3v-9l-5 -3l3 -5l6 11q-2 4 -1 6zM237 636l1 6l-4 2l-3 -3zM197 542l3 1l-5 4zM313 321q1 42 1 44q0 6 -1 12h-5l-8 80l-6 2q-4 13 0 35q-13 19 -8 51l-5 5q0 8 1 25t1 25 q-3 6 -6 13h-5v-10l-6 -6v-5l6 -8q2 -8 -6 -17q0 -19 -5 -58t-5 -58l-6 -9v-33l-9 -13l1 -24q0 -1 -3 -18l-6 -2q5 -28 8 -29.5t31 -1.5l9 -8zM361 352l4 2l-8 6zM424 197v3l-3 2l-3 -2zM441 172l2 3l-2 2l2 8l-2 4q-8 -3 -25 -17h25zM424 183q-1 2 -1 3l-5 3v-6h6zM206 412 q-5 -6 -17 -14l3 -5q5 4 14 19zM214 341q-1 3 -3 5zM311 227v3l-3 3zM272 230l6 1l-9 5zM140 247l10 3l-16 11zM170 192v5h-9zM134 164h2l1 2q0 5 -6 6zM157 125l-1 4l-5 2v-6h6zM104 169q-2 3 -3 6zM112 78l3 -5l7 1zM170 9v4l-4 4h-1v-4zM153 12v6l-3 3h-2l-3 -4v-5h8z M109 34q0 4 -3 6z" />
<glyph unicode="B" horiz-adv-x="500" d="M525 861l-2 -7l-5 2l5 9zM513 860l-5 -11h-7l9 8l-3 4l1 4zM474 873l-2 -5l-1 3l2 2h1zM526 793l-4 1q1 3 4 3v-4zM460 775l-6 -5l-5 10l4 6l-3 4h-5l4 11l-11 8v4q-17 -4 -29 7q36 9 49 9q-2 -16 -2 -29q0 -17 4 -25zM432 163l-6 -7v-14q0 -13 -4 -46l-4 -2v-12l-36 -55 h-9l-9 -12q-17 -5 -39 -19l-6 8q-16 1 -39 -2q-26 -4 -37 -4q-14 0 -27 3l-2 -5q-16 3 -38 2q-37 -2 -38 -2q-13 0 -45 2q-28 1 -45 1l-2 8l4 2v98l7 3v12l-2 134q0 3 -3 55q-2 48 -2 76q0 43 5 51l-7 2q0 110 7 123q-1 14 -7 42l7 22l-7 9q1 23 0 62q-2 47 -2 61l9 31 q36 5 95 5h-2h5h15l68 -4q43 -2 67 4l6 -8h1l9 6l31 -9l5 -14l29 -11l2 -17h6l-3 -12l16 -13l2 -25l8 -5q-1 -19 3 -65l-6 -8l10 -23q-6 -11 -4 -34q-6 -3 -6 -5q0 -1 3 -4t3 -7q0 -62 -36 -106l-15 -3l-17 -20q52 -19 65 -47l-3 -6q16 -9 16 -82v-32q-1 -22 -1 -32 q0 -37 5 -50zM490 -32h-25v8l3 2l11 -2l2 15l6 -3zM51 121l-8 -5l5 7zM335 726l-4 2l-3 -5zM333 712v3l-4 2l-3 -1q4 -2 7 -4zM392 645v8l-6 -9h-10v-5l1 -1l12 1zM369 653l-7 3l-3 -6zM363 637q-3 4 -8 5v-6zM381 610l-7 4h-1l3 -9zM382 597l-9 6l3 -6h6zM295 684v1l-6 2 h-1l-2 -9zM207 760l-5 4l3 -5zM367 575v5q-8 3 -30 6v7l8 4l3 11l14 3h-14l5 16l-8 3l1 15l-1 8l-17 5l5 -16l-5 -9l10 -3l-7 -3v-5l7 -2v-1l-10 -11l14 -3v-6h-9l-11 -13l-5 3v-6l2 -12l7 -1l14 10l5 -5h22zM195 762l-10 2l3 -13zM311 631l-5 5l3 -6zM362 565v4 q-2 -5 -3 -9zM353 559l-8 4h-3l3 -8h4zM142 752l-4 1l-3 -2l6 -5zM127 760q-8 4 -9 4l9 -5v1zM333 565l-2 4h-34l6 -9l8 -1q10 0 22 6zM329 550l-10 5l3 -6zM361 516l-6 3l-2 -6zM121 746l-5 5h-1v-9h1zM101 749l-2 2l2 -5v3zM148 715l-3 2l-7 -2v-7l3 -14l7 15v6zM361 491 l-8 3v-6zM174 748l-5 6l-34 -20l-2 -9l-6 3l2 11l-36 -3l-9 6l-2 -12l11 4l-2 -9h-9v-13h11v-10q-10 2 -17 -4l8 -6l17 6v17l-5 6l11 13l8 -11l8 3l4 -1v-8l-14 -5l5 -3v-3l11 2v13h6q2 3 16 4v9l10 -3l-1 -3h1l4 7l-5 11zM350 490v12l-5 2l-12 -8h7v3h2zM319 712v16 q-17 3 -18 3l-18 -1l3 -9l-13 -4l2 -5l-2 -18q-11 4 -34 8l-3 -4q13 -4 17 -12l-7 -4l-41 12v6h6v8q14 4 34 4l7 22h2l7 5l-20 3l-11 -6l-12 10l7 2l-3 5l-17 4l-3 -9l12 3l2 -12l-12 4l-2 -1l-2 -6l-11 -4l-7 -30l-10 6l-9 -2v-6l19 -2v-11q0 -2 -4 -10.5t-4 -10.5 q0 -5 2 -14t2 -14v-8l-9 -8h9l-4 -8q-17 3 -18 3t-18 -3l1 -4l5 -2q0 -6 -3 -9l10 -6l-2 -7l-5 -3l2 -6h2q9 0 21 -6v6l-11 3v4l2 2l9 -6v6q-7 5 -9 13h-4q1 6 -1 8l5 1l3 -9l11 6l6 -12l-2 -27l-6 -3q0 1 3 -51q1 -30 -3 -50q6 -6 18 -6q16 0 71 10v6l6 -1l6 1q1 20 9 57 t9 54l12 -3l8 6l-2 13l-21 4q-5 19 -2 39l-11 6v13l-16 11l1 9l-1 6l5 -9l13 -2l4 16h7v10l18 -2l5 12h8zM367 468l-5 4v8h-7l4 -8l-6 -6zM336 493l-5 1l2 -6zM336 467l-5 1l2 -6zM296 489l-5 5v-6zM107 671l-6 7q-1 -4 -2 -13v-6zM328 454l-22 3v-17l3 -5zM146 627l-13 -2 l-4 5l7 7l-1 2h-7q-16 0 -16 -11l1 -7l2 -1l14 2q11 -6 12 -6zM362 383l-9 4l2 -5l4 -1l3 1v1zM291 453l-4 4h-1v-8h1zM317 418l-1 3l-5 2v-5h6zM136 599l-3 12l-15 3l2 -14l14 -3zM343 384l-2 6l-4 3l-4 -11zM88 638l-6 1l-3 -6l5 -3zM305 413l-5 10l-12 3l9 -8v-9z M349 375l-16 1l7 -9l8 4zM325 385l-6 4v-4h6zM138 575l-3 14h-8l-12 -12l7 -6zM289 413l-12 8v11h9l2 11h-13l-6 -11q5 -11 6 -20l11 -3zM94 613l-3 3l-7 -5l-1 -3l10 -3zM314 385l-3 4h-16v-4h19zM368 322h-6v-3l5 -2zM134 564l-5 2l-10 -14l3 -5q5 6 12 17zM116 599h-12 q1 0 -20 -2l-2 -14l-8 -8l5 -5l5 1v9l15 3l-3 8zM280 405l-5 2l-3 -4l5 -4zM322 356l-11 7v-10zM158 538l-2 15h-27l7 -8l-9 -7q-7 4 -9 3v-8l9 -3l11 8l7 -9l-12 -5v-7l-9 -7h9zM252 412l-5 6l1 11v9l-3 8q-9 0 -23 6l-4 -9l-9 -3l5 -5l25 5v-10l-14 -4l-4 -11q1 -3 26 -6 l-1 2zM281 379l-8 14h-4v-2l-3 -4l9 -2v-7zM343 318l-3 4q-7 -1 -10 -1h-4q-3 0 -7 1l3 -5l9 3l6 -9l3 6zM291 356v4l-8 3l3 -10zM166 466v14l-17 5l2 9h-7l2 10l14 -5l2 3l-4 2l3 14l-6 1h-4q-4 -7 -16 -16l3 -10l-2 -6l-3 -1l-3 4l11 -2v-12l15 -2l-7 -8h17zM252 393v6 l-30 5v-7l3 -8h3v4l13 -3q2 1 11 3zM354 297q-5 1 -14 1h-12l-3 -5l8 -3v-6l20 9zM194 436q-2 4 -6 4l4 -5zM386 228l-10 11l-3 -11h13zM246 373l-2 6l-16 -10l4 -2l4 6h10zM359 268l-31 2l5 -8l14 -1l10 2zM208 416l-3 7h-9l4 -5l-6 -6l-2 6l-2 1l-10 -1v-11h6l20 1z M134 476l-16 4l-3 -6zM174 449v5h-39v14l-6 -2l-11 2l4 -4l-7 -18q3 0 10.5 1.5t11.5 1.5q5 0 13.5 -3t12.5 -3zM99 518l-10 3h-5l-2 -8h-13l4 -3l-2 -11l8 -1q1 0 5 1v11l15 -2v10zM310 279l-4 5v-7zM107 490q-4 2 -19 6v-2l8 -4v-5h3zM362 222l-3 12h-11v-12h14zM378 201 l-5 4v-5zM156 426l-10 14h-8l6 -8l-3 -11zM95 475l-4 1l2 -4zM78 479l-10 15l3 -14zM133 426l-4 12l-11 5l3 -7l-3 -15l9 -4zM110 435l-1 4l-4 1v-5h5zM331 228h-17q-1 0 -5 -1l19 -5zM156 409q-7 -2 -15 4l-3 -1l6 -11q-11 -5 -15 -16h12l-3 8h8q3 6 10 16zM353 190l-5 2 l-3 -6l5 -3zM328 205l-3 12l-3 -9zM338 202l-5 1h-2l2 -6zM388 147q-2 3 -6 5l2 -5h4zM97 450l-3 2l-12 -17h9zM110 407l-1 6l-3 3h-1v-9h5zM331 167v6l-6 1v-7h6zM110 393v6h-14l-3 -6l14 -4zM110 378q-1 3 -3 7zM333 144v5h-5l2 7l-2 7l-17 -11v-5h6l5 -7zM359 102v14 l-11 7l5 -19zM311 169l-2 8l-8 8l2 15l-4 1l-2 7l3 11l-3 3q0 7 2.5 19.5t2.5 19.5q0 11 -5 26q-9 24 -9 26l4 11l-1 3l-10 2l-6 13h-9q-22 22 -74 21v4l10 4l-8 5l-9 -3l-5 12l15 -4q13 8 21 6l-2 12q-19 -3 -36 2v-8l-9 -8l9 -7l-4 -13h-5l3 8q-7 5 -24 11l-2 -2 q2 -6 -5 -15h10l7 -8q-16 3 -17 3t-19 -3l2 -8l-3 -2l1 -9h7v-6q-6 -5 -12 -16l7 -20h11v6l5 3l4 -1l2 -8h10l2 10l-16 3l2 4l12 2l2 2l-3 1q-5 1 -26 0v2q4 6 8.5 12t14.5 6h20l6 -42l-6 -8h6v-31l-6 -3l6 -8q0 -9 -2 -26.5t-2 -26.5h4l-3 -13q4 -4 4 -13l-1 -6l-9 -4v-6 l3 -4v-11l-6 -5l-15 3l-5 -6l3 -5q25 2 28 2l1 -4l-7 -2q1 -5 9.5 -13t13.5 -8l70 4v9h9l2 5l3 1l8 -3v7l-3 4l12 6l-4 7q4 12 9 32zM88 378l-11 4v-6l7 -3zM106 353l-10 18h-5l-4 -16l9 -4l5 1v1h5zM324 128q0 5 -7 8l2 -9zM328 116q-2 7 -6 7v-7h6zM95 336l-7 4v-13z M311 116v3l-2 -1v5h-14v-21l10 6l-8 5zM133 277q-6 9 -4 16l-5 2l-3 -8l3 -3l-2 -12zM105 302v4l-4 11h-13l8 -6v-11zM166 229v10h-10l4 9l-11 5q4 4 4 10q0 2 -2 12h9l3 9q-9 1 -22 6l3 -13h-3l5 -7v-3q-1 1 -2 1h-9v-6l7 -4l-4 -13q8 1 11 -4v-10l8 1l-11 -4v-9l17 3z M82 322l-9 7l4 -9l-7 -4l5 -5h2zM92 304l-8 2l-2 -6l8 2zM129 252l-5 4l-2 -8zM331 77v14l-14 3l-11 -5l-3 -9l-12 -3l-5 12q-1 -8 -5 -25l22 -19l1 3l5 1l-12 9l14 6l-2 16l8 7l11 2l-3 -7zM107 275l-11 2q-9 0 -25 -2q3 -5 2 -16h6l5 7v4h21zM135 222v1l-6 3l-5 -8l5 -1z M167 208q-9 6 -21 6l-2 -6h-5q-9 0 -15 3v-8h22l5 -8h9q8 7 7 13zM113 250l-25 3l11 -14h11l-1 3zM275 66v11l-11 3l1 -4l8 -3l-3 -4zM300 35v4l-3 2l-2 -3zM134 196q-1 0 -3 1h-2l-1 -5l2 -3h1l2 1zM79 241q0 7 -6 7zM96 219q-1 3 -3 7q1 -4 3 -7zM172 181v4h-23l-3 -8 q-15 4 -20 4h-15l16 -18h29l9 7l-9 2v9h16zM163 153l-12 6l-10 -7l-19 4q1 -3 2 -7l-2 -11h34zM230 60q-6 6 -14 6zM105 192l-4 13l-22 3l-2 -5h-9v-6l14 -7v10l9 3l2 -11h12zM96 174q-1 3 -3 7q1 -4 3 -7zM139 129l-4 4q-9 -2 -11 -6l14 -2zM93 163v2l-2 7l-6 -4zM115 144 l-3 3l-5 -2l6 -7zM218 91q-39 0 -44 5l-11 11l-19 -3v9h14l5 -3l3 6l-19 -1q-16 0 -23 8l-2 -7l-7 -3q13 0 20 -3v-8l-11 2l-11 -8v-11l16 -3l4 7l-4 -1l-3 1l12 7v-9h8l3 -5v-33h17l-10 15l7 -4l9 4l10 -9l18 9l-4 7q11 11 22 20zM75 175q-4 6 -10 8l3 -9zM222 35l-22 2 l5 -10l13 -3zM107 156l-8 3q-8 -13 -22 -15l-1 -4l3 -4l22 2zM133 60q-1 2 -1 3l-4 3h-1v-6h6zM84 107l-5 3l5 -6v3zM141 43v10h-17l11 -8v-4zM105 77h-12q-8 12 -14 12l4 7l-1 6l-5 -11l-9 -1l11 -8l3 -9l19 -2zM105 43l-6 6h-3l1 -4l8 -4v2zM311 719l-14 -4v1l6 9h2 q0 -2 6 -6zM291 720l-3 -3l3 6v-3zM247 730l-19 -2v-7l-14 4l-3 -2l-3 11q5 0 15.5 1t15.5 1l8 -2v-4zM269 681l-5 3l5 5v-8zM213 720l-5 -3v6h3zM202 717l-2 -15l-6 9v1zM200 692q-7 2 -11 3l3 3zM148 544l-3 -3l-4 3l3 3zM241 421l-5 -3v4l3 1zM176 349l-4 -5h-4l-17 5 l9 10l12 -3q1 -5 4 -7zM144 344l-15 -2h-2v2l11 9l4 -2zM295 72l-7 -4l3 5zM135 172l-6 -3v4q1 0 3 1h1zM168 100l-8 -9l-2 7l5 4zM169 71l-6 -3l-2 3l2 2z" />
<glyph unicode="C" horiz-adv-x="496" d="M453 816h-11v9h-9l-5 8q-14 -2 -20 -2q-3 0 -28 2v6q8 0 22.5 4t22.5 4h20l8 -14v-17zM472 416l-8 -2l-4 30l7 3l5 -9v-22zM58 822l-4 2l4 7v-9zM472 400l-11 3l3 2zM41 831v-6h-4l-4 -6l-27 -3l-5 10l5 7q24 -2 35 -2zM394 369l-14 8l2 9l5 3h-9l-5 8l-9 -3l-3 11l-13 3 l-7 8h-16v8q10 2 30 0l6 14l8 -2l11 6v8l-7 -3l-4 11l18 11h4q4 -11 4 -24v-22zM421 197q1 -62 -27 -119h-5l-7 -16q-10 -4 -52 -35q-28 -20 -81 -20q-109 0 -118 32l-12 -3q-10 0 -33.5 33t-23.5 44q-9 9 -11 46l-1 28q-8 3 -7 23q1 21 1 44q0 33 -3.5 100t-3.5 99 q0 80 16 235v14l9 3q-3 15 18 34q-2 3 1 7t5 1l11 17l22 5q5 10 47 21q38 10 56 10q42 0 84 -12q50 -15 72 -41l2 -12l9 -5q6 -22 16 -36l-2 -8q11 -29 8 -78l-3 -2q8 -40 3 -67q-38 5 -114 5l-5 6l2 20l-6 10q3 20 3 36q0 75 -70 75q-56 0 -56 -140q0 7 5 -104q5 5 5 -5 q0 -12 -4.5 -36.5t-4.5 -36.5q0 -206 34 -244h8l6 -8l18 -3q35 0 56.5 20.5t17.5 56.5q-7 7 -6 30l2 71q21 -4 54 -2q49 3 54 3t9 -7zM477 -16v8l5 -4zM320 672v-6l6 -2q-2 7 -6 8zM261 705l6 2l-7 4h-2zM330 649h-19l2 -13h12zM221 741v2l-4 1l-7 -6v-2l4 -1zM225 723 q-1 3 -3 4zM156 656v4l-3 1zM373 416q-3 6 -7 6v-6h7zM117 599l5 3l-5 6v-9zM131 528l-6 4v-4h6zM364 253l2 1l-5 4zM341 242v3l-7 11l-4 -12zM117 450v11l-11 2l5 -5v-5h-3l5 -3h4zM141 405l5 4l-7 2zM84 469l-6 6l-6 -3l4 -11zM114 403l6 3l-9 5zM72 444l3 1q-1 4 -6 5z M150 366v2l-8 5h-1zM316 189l1 2l-4 6zM92 391l-1 4l-5 2v-6h6zM348 122l7 11l-7 3v-14zM127 359l-3 -5l1 -4l4 5zM320 150l9 1q-4 4 -9 5v-6zM339 131v3l-3 2l-5 -3zM325 144h-12v-4l7 -4l5 3v5zM131 325l-8 9l3 7l-1 6q-10 -1 -14 -20zM348 103l7 1q-3 4 -7 5v-6zM92 364 l-1 3l-5 2v-5h6zM156 281q0 5 -6 5zM158 260v2l-8 7q0 -2 -1 -5v-2q0 -1 1 -4h6l-3 1zM311 117l-11 5l-16 -10l4 -3l12 4l2 -8l-26 -4q6 -4 19 -6l-7 -4l9 -8v12l12 -3l5 17zM153 228l9 10l-9 4v-14zM139 191l1 5l-4 1zM258 100h-11l-1 -3l2 -7l-4 -4l-16 3l-3 -6l16 -3 q10 0 17 20zM86 233l2 5l-4 1l-3 -3zM141 183l-8 6l-2 -11l4 -3zM235 95v5h-7l-3 9h-8q-3 -12 -12 -20l2 -5l7 -1l5 17zM164 139l10 4l-13 13zM114 180l-3 17h-5l2 -17h6zM147 148h3l-4 4h-1zM192 92q3 4 6 17l-6 -4v-13zM178 117l-12 5l-10 -5l14 -25h5v13l-3 6l5 3z M233 56v6h-25q0 -10 3 -20h8l6 11zM153 113l-6 7l6 11l-14 3l-6 -3l8 -11l-2 -9zM175 75l5 7l-5 1l-3 -4zM114 131l2 1l-5 4z" />
<glyph unicode="D" horiz-adv-x="488" d="M459 782l-6 -2l2 -9h-4v11l-12 11l4 11l-28 2l-2 8q3 1 8 4q13 5 30 5l9 -14v-14zM426 426q-6 -18 -6 -41q-1 -15 1 -41q2 -30 2 -42q0 -197 -16 -208l3 -5l-6 -4l-5 -21l-9 -5l-5 -17h-8q-8 -42 -121 -42q-53 0 -79 9v-6q-20 -2 -60 3q-5 -6 -36 -6q1 0 -35 3 q-4 23 -3 57l3 58q0 32 -1.5 97.5t-1.5 99.5l-5 3q-1 70 0 212q6 5 6 15q0 140 -6 172l5 13l-5 17l3 8l-6 22l8 5q7 -1 124 0q87 1 111 -14v-8l25 1q11 0 11 -6q55 7 79 -58l6 -3v-10l8 -8l-3 -11q0 -10 5 -21.5t5 -20.5q0 -6 -2 -13q11 -9 6 -40l5 -4v-54q-5 -3 -5 -22 q0 -39 8 -64zM278 706l-2 8l-5 -2zM298 674l4 10l-4 6v-8l-5 -7zM308 653l-2 8l-8 4v-14zM283 674q-3 2 -5 4v-4h5zM369 602l-6 15q-8 3 -19 4l3 8l19 3v11q-5 -2 -11 -2q-5 0 -14 2l2 -7l-2 -6q-6 -2 -12 -2q-5 0 -26 4v-6l28 -2v-6h-12l3 -10l9 5h13l5 -8l-6 -11 q0 -14 14 -14l-5 8l12 3v5l-9 -3l-3 9h17zM303 645l-3 -11l11 6zM286 651l-5 14l-3 -8l3 -12l5 3v3zM220 719h-10l6 -5zM333 596l-2 -8l7 4v1zM377 558l-8 5l-5 -10l10 -6zM324 588l4 9l-6 8q-7 -6 -14 -17l8 3zM200 719h-6l-2 -13l11 -1zM372 525v5h-3v5l-3 2l-6 -12h12z M316 572l9 3l-9 3v-6zM328 542v5l4 6h-16l-2 8h-8v-14h-3l3 -5h22zM144 714v4q-2 1 -5 1l-3 -1q4 -3 8 -4zM114 725l-2 -11l11 5zM134 697l6 1l-9 4zM328 506l-14 8l-6 -10l-8 2l-2 -9l11 -2h5l2 9zM360 457h-5v-14h9zM344 462l2 5l-5 4h-2zM93 717l-5 -6l10 4zM339 451v6 l-3 2l-3 -3zM71 727h-8q1 -4 1 -7q0 -10 -4 -18l8 -5v12l8 6zM316 459l-2 7zM374 391l10 6l-10 3v-9zM104 690l-8 4l3 6l-6 2v-10l-14 -2l2 -12h-10v-4h8v-13h18l6 9l-7 4v-7h-12v15q7 -2 14 -6zM324 446l-17 -6l12 -18l3 11l10 10zM387 381l-10 4l-13 -6l10 -4l-5 -2v-6 l3 -2l5 4v9zM347 408l-12 -4l-4 2l2 10h-11v-16q-2 1 -4 1q-1 0 -4 -1v-7q13 5 30 5zM360 381h-5l2 8q-22 4 -21 4h-10q1 0 -15 -2v-8h11l11 -13q11 -1 16 5l3 -8l8 3v11zM385 315l-5 8q1 3 2 8v3h-10l-8 -5l10 -6v-11zM90 596v6l-11 3l3 8l-1 5h-8l-2 16l4 5l-4 4 q-7 -2 -7 -17q0 -5 1 -10l-5 -6l11 -2v-6l-11 -6v-5h19l2 5h9zM366 287q8 1 23 6q-8 3 -23 3v-9zM152 528l-10 6v8l10 3v10h-26l-5 6l-4 -6h-11v-10h-5l-3 -2l-5 2l3 -11l8 8l8 -8l2 5l10 3l4 -1l3 12l8 -23zM76 583q-4 5 -11 5v-1zM150 495v14l-8 -3q0 -2 -1 -5q0 -1 1 -4z M76 575l-3 -14l10 8zM93 550l1 5l-1 -1v-4zM128 506l2 10q-2 1 -5 1h-2v-11h5zM377 302l3 3l-11 2q-11 -4 -25 -8l-5 5l5 8h11l2 6l-24 -3l1 4l5 1l-6 22h-5q-1 -18 -1 -21q0 -7 9 -19l-8 -10l5 -15h-14l-3 -8l17 -3l-2 -5q5 -6 5 -23l19 -5v8l-13 2l5 6l-3 8l5 6l-13 3 l5 13l-2 6l21 2l-5 12zM382 271l-13 6v-6l-14 -8v-6zM374 246l9 6l-9 5v-11zM68 558v17l-5 3l-6 -8l6 -15zM152 482l-10 2v-16h8l-1 4zM112 489l2 6l-2 2l-5 -6zM134 479l-8 3l2 -14l2 -2zM311 282h4v2q0 4 -7 6zM374 214l5 8l-3 6h-2v-14zM131 454l5 3l-5 5v-8zM71 501l4 6 l-4 2l-3 -6zM121 462h-12l3 9h-14l-2 -12l-8 3l-1 7q1 7 17 13l5 -3v8l-13 -5l-8 2v13l13 -8v7l-3 10l-8 3l-9 -3v-11l-8 -3v-10l-4 -2l2 -4l10 3l3 -11l-8 -6l3 -5h-14v-6q16 3 52 3zM291 236l-5 13l6 23q0 21 -3 66t-3 68l5 2q0 5 -8 104h6l-6 8v-1l1 3v10v45q0 64 -19 72 l-3 8l-22 17h-22l-2 8q-8 -4 -24 -6v6h-9l-2 4h2l2 8l-21 -2l3 -8h3l-1 -2h-13l3 10l-15 -2l-8 5l-2 -1v-12l-17 -4l-3 8h17l-3 8h-14l-5 -4l5 -8l-1 -7l13 -1v-21h-12l-5 8l-3 -8h-13l3 -10l-6 -5l-9 3l3 -7h14l3 -2l-5 -6l-12 6v-8h9l5 -11h6q2 0 0 5l-3 3l8 5l8 -13 q-5 -3 -5 -5l-8 2l-8 -11l2 -3v-10q9 -6 20 -12t19 -5l15 1v13h1h-1l-5 -1l-24 -2v8h13v8l-5 9l-10 3l1 7l-1 6l16 -3l19 8l-4 6l-7 -1l-19 1l21 6v13l9 -2l-7 5l-7 -3l-6 8l3 8h-5l2 15l16 -6l4 -11h8q5 -3 -3 -8l6 -23l-8 -8l10 -10l-8 -11l3 -16l-3 -9l6 -10 q-1 -11 0 -27q2 -20 2 -26q0 -2 -4 -14q-2 -9 2 -19l-3 -5q6 -10 4 -44q-3 -37 1 -50l-5 -15q3 0 2 -4q0 -3 -2 -4q3 -27 3 -108l-6 -5l8 -51q-7 -8 -4 -38t-1 -36l-18 2q-2 0 -13 -3q-8 -2 -16 1l-5 -22l8 2l1 1l2 -6h-9v-8l9 -2l3 -12h12l12 5v9l-8 8l2 8h-8l1 6l-1 5 l23 1l13 -17q14 0 47 3q39 4 42 9.5t17 15.5v12l11 15q-4 47 -4 48l2 20h2zM355 208l3 6l-6 2l-3 -5zM387 173l4 4l-6 4zM144 431l-8 4l-2 14l-6 -6h-27l-3 -10q-2 0 -4 -1q-1 0 -4 1l-2 2l2 -4l14 2l13 -7q0 9 11 15v-6l11 -5zM319 233l-1 8l-7 3l-3 -8zM341 225l-2 -6 l-11 3v-8l-14 5l2 -11l8 -2v5h15l6 12zM366 190v10l-19 -5v5l-11 3v-11l15 -4zM377 148v6l-3 3zM150 378l-6 13h-8l-1 -17l7 -4zM104 414l-11 4l-3 -1zM322 195l-6 3l-2 -8l5 -4zM352 138l1 15q-4 6 -9 18h-8v-8l13 -9l1 -3l-11 -5zM360 122l3 3l-6 9l-5 -8zM128 342v8l-2 3 l-5 -3v-8h7zM104 362l4 18l-4 3l-3 -5h-11v-8l2 -4zM147 315l2 6l-2 2l-2 -5zM79 389l-6 2l-2 -6l11 -1zM324 134v12h-8l-2 -12h-8v-11l3 -5h2v8zM333 115l-2 9h-12v-9h14zM90 337l-2 8h-7l-2 -5l9 -8zM117 312l-3 8l-24 -5l-6 12l4 -15h29zM328 110q-4 0 -10 -3t-10 -3 q-6 0 -13 6q-15 -2 -15 -10q0 -16 21 -16l7 1l6 14l18 -2q2 0 8 2zM93 304l-3 -5h11zM79 307l-1 3l-5 2v-5h6zM114 290l-13 4v-7l-20 3l-5 -5l36 -3zM104 269h2l5 4l-6 4h-1v-8zM90 271l7 2l-7 4v-6zM136 225l4 5l-4 3v-8zM270 91q0 5 -2 8zM289 50l-3 -8l14 3zM93 244l2 3 l-5 2l-4 -3zM123 225h-9l-5 5l-9 -10q12 0 21 -4zM139 200h-8l3 8l-8 3l-5 -16zM265 56v8l-3 13l-6 3q-7 -3 -14 -12q8 -5 23 -12zM152 148l-2 9h-8v-11zM112 195v5l-31 8l-2 -13h33zM117 167v6l-11 2l-2 -8h13zM126 159l-3 -11l7 5zM210 75l-14 2l8 -10l8 5zM169 77l5 4 l-6 4h-1zM112 140l-3 10l-8 -4l-8 2l4 18l-26 9v-8h17l5 -8l-12 -2q-4 -7 -3 -9q19 -5 23 -10zM98 113l5 7q0 6 -4.5 8t-10.5 2v-12h-2l-10 4l-7 -5l-1 -4h30zM68 102l7 2l-7 3v-5zM101 85v5l-9 4q-13 0 -16 -14h-16v-8l5 3l8 -3l14 3l1 5l-4 2l4 7zM121 50l-12 -3l-5 6 l2 -17l11 6zM84 67l-13 2l-4 -13l1 -4h3q1 0 5 1q0 2 -1 5v2q0 1 1 4zM63 64q-1 3 -3 5zM84 42q-3 5 -8 5l-1 -2zM344 378h-13l-2 5l4 2zM121 545l-5 3l1 5h1l4 -4zM339 290l-3 4l3 2l5 -3l-3 -3h-2zM101 370l-3 3l3 2l3 -3zM131 102l-3 -8q0 1 -1 3v1zM140 87l-9 -7l-2 7 l4 4z" />
<glyph unicode="E" horiz-adv-x="473" d="M442 802l-9 -17l-9 4l1 8q0 1 -1 5l-12 12l8 6l18 -6zM359 565l-8 1q2 5 8 6v-7zM446 475v-20q0 -4 -1 -12.5t-1 -12.5l-11 2v6l5 37h8zM393 465h-7l-2 10l2 3l6 -3zM444 422l1 -13l-5 -6l-6 6l4 15zM444 327h-8q2 17 2 20v5l-5 2v22l5 5h6q0 -5 -1 -16v-17v-6 q0 -7 1 -15zM388 336l-2 -6q0 2 2 6zM404 717q-11 -5 -5 -59l-17 -13h-2q-31 0 -98.5 6.5t-100.5 6.5q-1 -7 1 -19.5t2 -17.5q0 -17 -5 -55.5t-5 -58.5l1 -61l9 -2l-3 -9h16l-3 -11l8 3l3 11l8 -8l3 5l-27 6l-2 7h-9l9 9q28 0 85 3t84 3l5 -1l7 -8q-6 -78 0 -109l-7 -7 q-18 7 -77 7q-36 0 -95 9l2 9h7l10 3v8l12 2l-15 5l-21 -15q0 -1 1.5 -6.5t1.5 -7.5q0 1 -8 1l-6 -1l2 -49h-5q8 -12 8 -23l-3 -4q3 -12 0 -39l-22 3q3 -8 10 -16l12 7v-51l3 -5v-20q0 -21 3 -34q38 1 98 0q79 -2 98 -2l3 5l10 -3l5 5q6 -28 6 -95q0 -28 -21 -28 q-15 0 -57 5l-5 -3q-34 7 -82 7q-23 0 -67 -2t-64 -2h-53q0 46 3 195q3 122 1 196l-2 2l6 21q-8 16 -3 46q-5 7 -5 90l4 7q-4 11 -4 199l11 7q38 -4 84 -5q31 0 84 1q62 1 84 1l6 -4q27 10 65 2l15 -16q-6 -23 3 -33zM194 684l-7 6v-11h7v5zM170 706h-13v-5h10zM157 679 l-13 2l4 -7h2q1 0 4 1zM133 681l-3 9h-8v-13l10 2zM113 647v5l-13 4l-3 -6zM95 639v8l-3 3h-2v-11h5zM138 580l-8 2l3 -19zM148 543v1l-2 4v-1zM82 625h-9l-3 -11l9 -10zM157 524l8 2q-1 3 -8 5v-7zM157 508h4v3l-4 5v-8zM144 540l-20 3q5 -12 16 -14zM140 516l7 2l-7 4v-6z M124 451h2l3 3l-7 5zM170 401l4 13l-7 3l-2 -14zM205 397v6l-8 2l-3 12h-10l-4 -13l11 -9l-4 -5q-3 -1 -7 -1q-2 0 -20 3v-5l10 -13l4 -1l26 14v5h-3l-3 5h11zM133 432l-3 -10l15 4zM140 408l8 3l-8 3v-6zM175 360v3l-5 3l-3 -2zM119 410l-6 -7l-8 2v9h-5q3 -14 7 -21z M140 282l-2 -8h2l5 4zM144 255l5 1q-3 3 -9 4zM113 282v10l-4 1l-6 -9zM305 89l-14 5l-9 -4l-4 -14l10 -4l2 14zM251 99l1 5l-5 1zM82 267l3 1l-9 3l3 -11zM113 231l1 6l-3 3l-1 -5zM259 83l1 2l-4 4zM97 231h3l4 1q-5 2 -9 5zM232 103l-6 7h-2v-5zM229 92l-3 -9v-5l12 8z M103 220v6l-9 -2v-1l-6 3l2 7l-14 4q1 -9 6 -27v8zM160 159l-9 2l2 -13l9 -1v3zM144 156l-1 4l-5 1l-4 -2q3 -2 10 -3zM90 193l6 2l-6 4v-6zM200 85l-6 7h-10l-3 -7h19zM191 99l-7 11l-9 2v-5l-5 -2v5h2l-5 2l-7 -2l-7 -11l4 -5l24 3l3 6zM208 56h1l4 1q-2 4 -8 5zM87 185 q-13 0 -13 -12l9 -7q16 0 16 14zM144 124l-10 13h-1l2 -11l-13 3v4l-5 1l5 -15zM146 94l-2 16l-14 2l5 -5v-8zM92 146v10l-8 3l-2 -10l5 -5zM197 46l-10 5l-3 -5h-14l3 -8l-3 -1v-5h24zM173 54q-5 5 -11 5q3 -4 11 -5zM82 137l-3 -13l12 5zM124 94l-2 9l-9 -4v8l-8 3l-10 -7 l2 -11zM79 92q5 1 11 4l-11 3v-7zM84 78l4 4l-4 3l-3 -5zM79 64l4 3l-10 5z" />
<glyph unicode="F" horiz-adv-x="429" d="M417 797l6 -4l-9 -17v5h-13v8zM355 548v-30h-10l-1 11q0 4 6 21v27q4 7 13 16q2 -10 2 -22q0 -10 -10 -23zM385 709l-6 -5l5 -20l-2 -31q-33 0 -105 4t-107 4l-16 -8l19 -6q-5 -41 -5 -119t0 -71l5 -6l27 -1v1h153l2 -73l-2 -42l-11 -3q-18 0 -55.5 5.5t-57.5 5.5l-11 8 h-10q-16 -2 -48 -3l8 -8q0 -14 -1 -29.5t-7 -26.5q6 -3 3 -48q-4 -66 -4 -55v-82l9 -19l-6 -3q-1 -8 1 -26q3 -22 3 -30q0 -17 -6 -24h-79l-21 6l-8 -3l-21 8q9 76 8 233q-2 3 0 6q-1 2 3 76q4 71 5 85l-6 13l3 3q5 22 5 72q1 52 -5 70l8 5q1 8 -5 11l-1 11q0 26 2 79t2 79 q0 18 38 18l270 1l24 -11v1l-2 -6q-6 -25 5 -46zM237 733l1 3l-5 2h-1v-3zM165 704l-5 5l-9 -5h14zM154 690q-1 4 -5 6v-6h5zM138 706h-13l10 -5l-2 -8l3 -1l2 3v11zM119 706v5l-2 1l-3 -3zM165 663l-3 14l-27 8l-2 -6h13l3 -8l-3 -5l5 -3h14zM127 696l-10 2v-3q0 -1 2 -8h2 l4 3zM138 666l-2 5l-6 3l-8 -3v-5h16zM93 693l4 1q-1 3 -4 4v-5zM105 669q0 3 -2 5zM151 615v4l-2 2l-3 -3zM138 629l-3 4h-8l-2 -4h13zM81 671l12 3l-12 3v-6zM151 593v14l-2 -8h-11l-5 8h-14q16 -14 32 -14zM81 641l3 7l-5 2l-2 -5zM151 583h-5v-8l1 -8l2 -1q2 11 2 10v7z M133 580l-1 3l-5 2v-5h6zM122 591v8l-19 2l6 -10h13zM293 409l1 2l-3 6zM132 557l-13 7q0 -7 -3 -20zM125 526l4 2l-4 4v-6zM160 508l-11 -3l-6 5l3 -13q11 3 14 11zM97 545l7 2l-7 3v-5zM93 545q-1 2 -4 5zM85 561l-4 5l-4 -2l-4 -13l3 -4zM157 465q-7 11 -16 11l-10 -5 l10 -6l5 5zM221 393l-5 8l-8 2l2 -8zM87 534l-14 3v-8h4l2 -5l8 3v7zM111 513l-6 11h-8l-8 -8v5h-4l2 -11l8 -5q0 -2 -1 -4q0 -1 1 -4l15 4l-9 1l-4 8zM221 381l-4 6l-4 -2zM184 405l4 1q-1 7 -7 7zM168 422l1 9l-4 2q1 -6 3 -11zM117 462l4 1l-4 5v-6zM149 446l-22 3v-8 q12 0 21 2zM105 476l-18 2v11h-6v-11l-9 -3l15 -5l16 3v-3zM186 371l2 4l-4 2zM101 451l-4 -5l15 2zM168 385l-6 4v-4h6zM154 438l-11 -3v-8l-3 -1l-5 7l-8 2l-8 -5v8h-22l-2 -16l6 11h10v-6h-3l14 -5v-6l-3 -3v-10l8 -2l8 15l16 -5zM143 381l4 1q-1 7 -6 7zM160 357l2 10 q0 2 -2 10l-8 -9zM69 413l4 3l-4 6v-9zM127 393l-8 -4l-10 12l-4 -12l4 -1l2 -7l-10 -4v-9h-6l-2 11h-2l-10 -2v-14l13 -1h8l9 3l3 8l11 4l-3 10zM162 331l-11 5v5l-8 -3l-8 9l8 18l-10 6l-32 -16v-11l-10 -2l-1 -2l24 -7l-6 9l5 7h6l6 -8l-3 -5l16 -3l3 -8l-16 -5l-3 -8 l1 -1l7 1v-14l9 -3h8l7 1l-8 6l8 2v5l-19 3v7l14 -2v8l8 -3zM93 349l1 3l-3 3h-2zM111 320v6l-6 2l-2 -6zM119 298l5 3l-5 5v-8zM111 306l-2 8h-12l8 -10zM87 309l1 3l-3 5zM119 256v4l-2 1zM103 272v1l-5 4h-1zM77 288l7 2l-7 3v-5zM135 234l-8 8l8 7l-4 5q-6 0 -9 -20 l11 -5zM97 256l2 3l-4 2zM105 245l1 2l-5 3zM141 210l-12 8h9l-5 5v3h-3l-5 -5h-11l8 -6v-6l3 -4h8zM95 240l-16 5l-2 -5l8 -3h2zM130 199h-19l11 -16h6l-1 3zM103 221l-43 8v-6l9 -2v-8h12v-6q14 0 22 5v9zM127 165v6l-5 2l-3 -6zM114 181l-11 5l-3 -1q6 -1 14 -4zM122 161 l-3 -4q7 1 10 2zM114 167l-14 8h-5l-6 -6l8 -10h14l-8 6v4zM133 127v5l5 1l-11 8l-3 -10l4 -5zM122 119l-1 6l-3 2h-1l-3 -8h8zM101 151l-12 -2l4 -8l-7 -8l3 -1v5h12v8l6 3zM111 89h8q-4 6 -10 8zM71 116l6 7v2l-4 4h-2v-13zM119 76h-16l8 -8l4 1zM77 86v6l-4 8h-4l-4 -11z M93 60l7 1q-3 3 -7 4v-5zM81 73v3l-4 2v-5h4zM135 352l-7 3l2 2l4 -1zM143 301l-6 3l1 2q2 -3 5 -5z" />
<glyph unicode="G" horiz-adv-x="480" d="M447 804l-6 -45l-16 13v2l3 6q-13 13 -26 19q0 2 5 5l10 1h16zM34 775v-2l-13 -1l1 6l4 2zM417 35l-2 -21l-43 -1q-23 5 -68 3l-10 14q1 3 7 14t6 17l-6 6l-26 -40q-10 -2 -32 -12t-39 -10q-10 0 -31.5 5.5t-32.5 5.5l-3 6q-26 2 -51 48q-21 38 -24 69l1 -3l1 7v38 q1 62 -10 113l-2 2q0 49 -2 137q-2 96 -2 138q0 31 9 70q10 46 25 58v8q24 31 50 39q19 25 96 25q68 0 105 -22v-6l39 -28q0 -10 14 -23.5t10 -51.5q11 -11 11 -45q0 -16 -3 -32q1 -2 0 -42l-5 1l-27 -14l-12 13h-22l-10 8l-32 -8q-6 15 -9 62q-4 44 -13 62q-15 28 -52 28 q-9 0 -34 -19h-11v-11h-5q3 -12 3 -36q0 2 -9 -62q10 -10 9 -89l-1 -99l-5 -2q-4 -21 -3 -37l5 -2l1 -6l-6 -16l8 -6l-5 -10l6 -23l-3 -6l8 -32l-6 -16q10 -10 8 -61l10 -2l6 -11h6q4 -17 33 -16h19q18 12 37 29q-5 25 8 41l-5 20q7 14 3 117q-21 3 -77 -3l-3 18v2l1 8l2 36 l10 2l-18 10v4l10 26q32 0 94 4t92 4l-3 -24l3 -14l5 -2v-40l-5 -2v-11q7 -4 5 -56l-3 -2q5 -30 5 -82q-3 2 -4 -3q0 -5 4 -5l3 -16v-2l-1 -9l-4 -34l5 -3v-18l-8 -3q12 -45 12 -55q0 -11 -7 -13zM330 664v6l-5 2v-8h5zM296 659l6 2l-9 3zM364 577l2 3l-4 2zM208 699l2 3 l-4 1zM325 579l1 4l-3 4h-1l-3 -5zM180 709v4l-3 2l-3 -3zM327 569l-4 2l-10 -6l8 -2zM200 685v6l-4 2l-4 -5zM185 685l-4 6l-4 -2zM185 664v9l-3 2l-2 -11h5zM143 677l-4 -6l1 -4l6 8zM135 582l-14 3l-12 -13l7 -6q3 13 11 13l5 -2zM156 555l-11 6l-13 -22h13v-4l-4 -4 l2 -4l2 5h6l-8 21zM124 561q-1 -3 -3 -8l5 6zM291 383v14l-5 -11zM124 524l-5 8l-6 -8h11zM256 381l4 2l-4 4v-6zM87 559h-11v-3l6 -3zM259 368l6 1q-2 6 -6 6v-7zM291 339q0 5 -8 5zM344 283l-14 3v-6zM261 355v3l-4 2h-1v-3zM269 342l-2 5h-13l5 -8zM113 484l4 1l-6 10 l-1 -5zM148 455l-5 11l-13 -11l5 -3l2 6zM312 278l7 2l-7 3v-5zM243 349v3l-5 3v-6h5zM328 251l7 2l-7 4v-6zM143 444l-14 3l3 -10v-2q-1 -2 -1 -3l1 -3l8 2l-3 8zM320 241q-1 2 -1 3l-4 3v-6h5zM151 397v8l-11 5l5 -13h6zM79 474v-6l-12 -4l9 -9v8l10 10zM119 415v6l-6 13 h-5l5 -19h6zM97 439v5h-2zM79 447h8l2 2q-6 4 -10 6v-8zM135 389h2q-1 5 -5 6zM143 381q-2 6 -6 6v-6h6zM92 426l2 5l-4 4l-3 -1l-3 -8h8zM121 383q-2 8 -2 27h-6v-31zM71 437v5l-5 2v-7h5zM116 365v3l-3 3zM143 342h-8l5 -8l5 3zM87 371l2 7l-4 3h-1zM309 143l-2 -5l7 3z M95 352h1l4 1l-8 4zM100 339l1 6l-4 2q1 -4 3 -8zM148 302l-3 5q-17 0 -29 5v-8zM116 318h3q-1 4 -6 5zM121 288h1l4 4l-4 4h-1v-8zM135 283l-19 3l-3 -14l14 -10l2 18l2 -1zM158 243q-23 0 -39 4l16 -4v6l13 -2v10l8 -3zM296 87l-3 6h-8l-2 -6h13zM124 251v8h-8v-8h8z M137 225v2l-4 4h-1zM92 275l-12 -6l9 -2l7 5zM145 215v4l-10 4l-8 -8l16 -3zM119 235l-3 -8l8 6zM164 191l-7 16l-17 2v-8l5 -5l-8 3v-8h27zM158 170l-2 10l-13 3l-6 -3l7 -15zM124 188l-1 4l-4 1l-3 -1q2 -2 8 -4zM135 180l-16 3l6 -19h2zM156 146q-10 -2 -20 -2t-20 2 l-3 -6h31l21 5l-20 14l-5 -8h16v-5zM127 148q-2 4 -3 8zM105 164l3 6l-5 2l-3 -1v-4zM188 93l-6 5h-10l-6 -8q7 0 22 3zM174 117l-10 12q-8 1 -21 1v-6h-5l-19 8v-13h-3v-5h22q16 0 36 3zM92 167q0 3 -2 5zM143 109l-3 -8h1h1l9 4l-5 4h-3zM200 69l-4 -2l-32 4l-3 -8l35 -2z M87 143h5v3l-5 5v-8zM153 90l-13 3v-6l8 -2l6 1zM174 59l-2 -6l6 4zM148 77l7 1q-3 4 -7 5v-6zM111 117l-3 5l-13 -3l2 8l-5 5l-5 -2v-11l13 -2l5 -6zM129 85v2l-5 3zM151 63v6l-11 2l-3 -8h14z" />
<glyph unicode="H" horiz-adv-x="521" d="M452 20l-3 -17l-72 -2q-35 -1 -64 7q0 16 1.5 48t1.5 48q0 42 -3.5 125.5t-3.5 124.5q-12 8 -93 8l-31 -4l-2 -11h-11l13 -9v-31q-1 -47 8.5 -138t9.5 -136l-7 -28q-14 0 -44 -2t-45 -2q-24 0 -41 4q-2 15 6 39l-6 4l-6 41l6 3v33q0 13 -2 52q-2 33 -1 53l-5 3l5 8 q0 26 -5.5 77.5t-5.5 75.5v394q38 12 69 12q4 0 62 -6q4 -24 4 -62q0 -24 -1.5 -69.5t-1.5 -61.5l-1 -10l-6 -8q0 -15 3.5 -45t3.5 -45q0 -19 -4 -35q3 1 6.5 -1t4.5 -2v6q20 0 60 4t60 4l-20 17l11 8l1 12v146q0 13 -1.5 41t-1.5 43l-7 5q0 6 2 25q2 16 1 28q27 4 75 4 q35 0 59 -4q6 -33 6 -122l-3 -5q3 -6 1 -31q-2 -36 -2 -34q0 -75 7 -259q7 -165 5 -259l5 -3q3 -59 3 -61zM524 -95v-3l-3 -2zM383 606l2 4l-2 4l-10 -3l-1 -2zM344 614v6l-3 5l-3 -1l-2 -7l2 -6v5zM374 575q-12 -2 -12 -17l4 -3q10 0 14 15zM363 580v14h-14l6 -11l-6 -5 l-22 5l-1 -2l10 -3l2 -8l9 -4l5 12zM369 544v3l-3 3zM341 530l1 3l-4 6zM352 522l-8 -8l5 -3l13 9l-8 2h-2zM388 483l-5 11h-9v-11l6 -5zM397 469v4l-4 2l-2 -3zM144 680h7q-7 5 -12 6zM383 433l-5 6h-1l-3 -2zM400 408l1 11l-4 3l-9 -14h12zM347 455l7 2l-7 4v-6zM405 394 l2 6l-2 2l-5 -6zM377 419v4l-4 2l-4 -1q3 -3 8 -5zM319 466l-1 4l-5 2v-6h6zM124 658v14h-8l-9 -14h17zM327 447l-6 -3l-16 6v-11h19zM119 644q-6 6 -14 6v-6h14zM99 644l3 1q-2 6 -6 7zM325 416l-14 11l-3 8q0 -11 3 -13zM291 447l-11 3l-3 -6h-5l-3 11l-22 3v-14l8 -5l5 1 v7q12 -5 28 -5zM285 414l3 5h-5zM357 330l7 12l-7 3l-7 -7zM275 433h-15q3 -12 7 -18q2 3 8 18zM149 536v8l-10 6l3 11l-3 6l-4 -1l-5 -8l-8 3q3 -13 7.5 -17t19.5 -8zM232 453v-11h8q-2 6 -8 11zM275 391v6l-3 9h-12l6 -15h9zM203 450l7 1q-3 3 -7 4v-5zM402 255q-1 6 -5 9 v-6zM149 511q-8 17 -16 17l-6 -1v-11l3 9l11 -6v-8h8zM113 527h2l4 4l-8 8zM249 406h-8v3l-2 10l-7 -2l4 -20l8 -3zM357 289h-5l3 -11l7 2zM227 435l-14 7l-10 -3v-9h-12v5h-11v-5h11v-5l10 -1h17l6 1zM166 433l-8 6l5 -9h3v3zM132 447l3 -1l3 4l-8 8zM227 411l-1 3l-5 3 l-16 -3l-2 -12q-20 0 -59 -3l-5 12l-9 -3v-14h17l5 -8l14 8q11 -3 19 -3q1 0 14.5 5t24.5 3l-8 12h11zM124 447v4l-2 2l-3 -3zM397 125l-1 4q-2 1 -5 1l-3 -1q2 -3 9 -4zM122 389h2l3 3l-7 5h-1zM155 342l-1 3l-5 2v-5h6zM124 336l10 2l1 2l-11 5v-9zM94 375l-3 -9l9 5l-4 4 h-2zM144 253l7 1q-3 3 -7 4v-5zM141 128h2l3 4l-4 4h-3zM149 105v6q-2 1 -5 3h-3l-9 -6l6 -3l1 -3zM122 111h-11l5 -9h3v3l3 3v3z" />
<glyph unicode="I" horiz-adv-x="256" d="M256 817q-8 -2 -9 -5l-3 23l-2 1h-1h2l-13 -5l-3 9l-55 -2l3 5q14 2 28 2t27 -2q7 4 23 9l3 -19v-16zM167 835h-49l-6 5l17 3h35zM87 843l-9 -5l-10 3l2 2h17zM61 840h-12l7 9zM6 843l-19 -3v-9h-8l-7 7v3l2 8h24zM189 571l-5 -2q3 -112 3 -223l-6 -9l3 -58h4 q0 -23 -3 -70.5t-3 -71.5q0 -38 5 -69q-1 -30 -3 -69l-26 -3l-6 6q-8 0 -35 -2q-21 -1 -34 0q-18 2 -34 9q3 13 7 38l-7 4l-1 23l1 14l7 2q-1 10 0 26q2 20 2 26v-1v2l-1 9q2 83 -6 250l7 15l-7 6l7 5l1 10q0 20 -8 82l7 9q0 20 -8 80.5t-8 89.5q0 44 14 64l-9 37l16 6h96 l28 -2l2 -19l-5 -7q-1 -105 3 -138l-3 -5q0 -39 5 -64zM138 681q-5 5 -12 5q11 -5 12 -5zM78 657l10 6l-10 14v-20zM101 638l-1 3l-5 2v-5h6zM83 638v3l-5 2v-5h5zM109 609l-9 5l-4 -1q4 -2 13 -4zM133 588h-12l-9 12l14 -17zM95 592l5 1l-5 4v-5zM116 569l1 5h-5zM107 518 q-2 2 -3 4zM92 454l3 5l-5 1zM133 385l-5 9h-2l-14 -9h21zM107 385q-2 7 -6 7v-7h6zM118 356l10 4l-12 3zM143 294v4l-2 2l-3 -2zM118 288l8 5l1 2l-11 1zM90 274q-2 4 -3 8zM112 240v8l-3 3h-2v-11h5zM83 151l1 3l-3 5z" />
<glyph unicode="J" horiz-adv-x="485" d="M475 919l3 -2l-5 -5zM438 854l-6 -29h-6l-3 10l-12 6l-16 -3l2 12q19 2 35 8zM383 838h-13q3 5 2 8h3l6 -3q0 -2 2 -5zM358 843h2q-5 -2 -8 -5zM262 838l4 -2q-1 -6 -8 -7v6zM251 829l-7 3q1 4 7 6v-9zM232 831l-16 4l12 3h5zM207 829h-21l-6 -15l-4 4q-1 0 -10 -12h-7 q0 11 5 29l5 3h38v-9zM159 791l-3 4l3 7l3 -4zM397 276l-6 -7q0 -18 2 -54.5t2 -54.5q0 -67 -16 -99q-20 -41 -77 -60l-2 -7q-11 0 -34 -1.5t-36 -1.5l-58 1l-3 6q-18 -4 -44 11q3 2 -1 5t-7 1q-64 44 -64 147v121q20 0 60.5 2.5t60.5 2.5l-2 -84q-1 -39 17 -93 q15 -11 35 -11l22 11v5l10 7q0 7 4 25q2 15 2 25q0 6 -4 10q4 41 4 133v44q-4 3 -7 192q-3 196 -13 227h-6v27q22 0 66.5 2.5t66.5 2.5l17 -2l-1 -24q0 -8 5 -21t5 -20q-9 -7 -9 -43q0 -52 3 -187q3 -118 2 -187l4 -2l-4 -18l4 -5l-4 -12zM444 -43l-4 -6l-29 3v9l9 2 q8 0 24 -8zM155 208l1 6l-13 3v-9h12zM134 189h-14v-3l11 -3zM186 87l-6 -5l19 -3zM145 144h-16l12 -10l-7 -9h4l7 5v14zM143 114l-14 2l2 -5l3 -1zM143 96l12 3l2 2l-16 1zM99 146l-12 2l4 -4h10z" />
<glyph unicode="K" horiz-adv-x="536" d="M416 388q0 -43 -4 -69l-8 2q0 14 -4.5 44.5t-4.5 46.5q0 69 9 99l-3 18q0 3 5 42l6 3q3 -32 3 -42v-13l-9 -9q4 -17 4 -64q0 -10 3 -29t3 -29zM196 523l-3 -8h-17v6l3 2h17zM478 -3l-11 -1h-112q-18 0 -48 68q-27 64 -25 85l-8 9v19l-9 11v17h-6q-6 10 -13.5 36.5 t-5.5 35.5l-11 6v16q17 -8 21 -8l-1 3l-11 5v5l-10 2l-9 9q0 25 24 36q-57 0 -57 -29l1 -7l17 -16v-5l-2 -11l-12 -6q-3 -3 3 -11l-11 -8v-11q-12 -12 -6 -45l-27 -3v-8l8 5l8 -5l9 3q0 -28 5.5 -87t5.5 -88l-3 -20l-33 -2l-6 5h-89v341q0 10 -3 44.5t-3 53.5q0 35 9 50 l-8 5q1 52 -4 145q-5 104 -5 144q23 8 58 7l72 -2q13 -100 -2 -199l6 -4l-4 -32l4 -9l-9 -3l-3 -11h-11l-9 20l-2 -20l-26 4l-7 -1l6 -12l-9 -4l20 -6l14 10h11l-9 -16l14 -8v16h11q1 -6 -3 -11l3 -13h5l6 -12h9l-3 17l16 14q1 48 14 56v10l6 3v14l5 3q2 17 17 31v9 q0 9 24.5 57.5t25.5 65.5q4 1 16 31q22 0 67 2.5t67 2.5l13 -7q-7 -13 -22 -37v-11l-5 -2q-4 -15 -18 -40.5t-18 -38.5l-6 -2q-5 -18 -33 -75l-5 -3q-1 -13 -17 -45.5t-25 -40.5v-8q-14 -13 -14 -25q0 -21 28 -50v-11l8 -3l-3 -11q10 -20 23 -61l5 -3q0 -6 17 -46t22 -45 q1 -8 8.5 -28.5t7.5 -32.5q9 -9 15 -29.5t13 -26.5q1 -19 23 -57.5t21 -58.5zM218 335l-8 5l5 3l6 -1zM218 330l-8 -20h-8l-4 9h-5v5h3l6 6l8 -3zM276 612h7v2l-7 4v-6zM243 585v-3h-3l-6 9zM298 523q0 4 -3 6zM270 551l-19 -2l8 -6v-5h-4l2 -3l10 -2q11 0 11 12zM272 519 l-2 4h-13l5 -8q9 5 10 4zM251 529v2l-4 4h-1q2 -3 5 -6zM138 632l-6 3l-3 -17h5zM249 519l-9 8l-14 -9l17 -3l1 3zM243 504l3 1q-1 4 -6 5zM132 591l6 7v2l-4 4h-2v-13zM229 504l-3 -8l11 5zM146 566l3 9l-5 1h-1l-3 -8zM134 576l1 5l-6 6l-3 -8zM221 491q0 5 -6 5zM113 604 l-11 -2l-4 5h-30l3 -25h16l4 2l-4 15l9 -6l11 3zM121 551l2 7l-5 5l-7 -5zM204 451v6h-14v-6h14zM218 427l2 6l-3 2h-2q1 -3 3 -8zM154 487v5l-5 1l-5 -2q3 -2 10 -4zM85 546q-2 2 -3 5zM93 532l7 1q-2 3 -7 5v-6zM179 446v11q-14 4 -22 3l-6 8l-6 -11l12 -14zM232 407 l-3 12l-14 5v-14h-5l-3 9h-20v-5l3 -1l-3 -9l7 1l8 -1v-5l-13 -9l15 3l3 6l19 -3zM193 427v5l-19 3l-6 -6l8 -2l-6 -6l6 -6l6 9zM318 288h-12l-5 3l3 5h-9l-2 -13h22zM123 455l5 1q-1 4 -5 7v-8zM207 366v6l-3 2l-3 -4zM170 404l2 -1l-4 -1v-9l12 1zM113 463l-9 5l-6 -1 q6 -1 15 -4zM298 260l3 10l-3 2l-4 -4zM190 385l-11 -14l-11 3l6 -6l5 1v2l16 -1zM270 283l5 1l-5 4v-5zM238 315l-1 6l-5 3l-3 -5zM160 391v4l-3 1zM140 419l-19 5l-3 8v-13l16 -9zM334 211l5 1l-5 4v-5zM160 379l4 4l-4 5v-9zM306 232l3 5l-5 1zM202 355v8h-9l-14 -16 l-5 2v-8l5 -3l11 5zM98 455l1 2l-3 3l-25 -5l-1 -3l7 -3l5 6h16zM257 274l5 1l-5 10l-1 -7q0 -1 1 -4zM321 205l2 4l-2 4l-4 -5zM176 351l-1 4l-5 2v-6h6zM359 171h-11l-3 -1l9 -4zM110 399h3l5 3l-8 8v-11zM179 330v4l-3 1zM279 230v5h-3q1 -3 3 -5zM102 410q-11 2 -34 9 l17 -12zM115 385l-2 -11l8 9l-2 3zM359 130v11h-4l2 2h-9l6 -13h5zM274 213v8l-3 -6zM182 279l-17 4l3 5h2v3l-3 2l-10 -2l-6 5v-17q8 -2 19 -11h9zM149 252l-3 -5l15 -2zM132 238v3l-3 2zM104 252h-25l23 -9l2 3v6zM113 221v4l-3 2l-3 -3zM110 205l4 1v4l-4 6v-11zM85 196 h-6v-17l11 12zM138 58l1 9l-4 2h-1l4 -6l-5 -4z" />
<glyph unicode="L" horiz-adv-x="464" d="M224 633q0 -4 -3 -9q1 4 3 9zM422 26l-20 -9l3 -17l-5 -5q-13 0 -43 1t-46 1h1h-2l-8 1q-47 3 -65 3l-184 -3l-5 8q7 48 2 54q7 43 7 53q0 117 -6 333q-6 231 -7 334v-2l1 11q15 0 45.5 3t45.5 3q18 0 51 -9q-11 -79 -13 -197q1 67 1 -199q0 -32 4 -94.5t4 -93.5 q0 -42 -5 -77l11 -9q16 -2 51 1q34 3 52 -1q9 4 46 4l59 -1l8 -8q-5 -21 -4 -44l1 -21l16 -4zM138 162l1 3l-5 2h-1q2 -3 5 -5z" />
<glyph unicode="M" horiz-adv-x="660" d="M603 4l-4 -17q-25 6 -65 6h-65q6 37 6 58l-2 20q-2 12 2 19q-5 15 -6 72q-2 58 3 64q-8 0 -8 24v103l-5 2l5 6l-5 100q3 -1 4 3q2 3 0 5l6 9l-8 5q-5 29 -2 69l-15 -2l1 -32l-1 -13l-8 -8v-19l-5 -6h-12v-6l12 3l2 -17l-16 -166l-9 -5q-2 -12 -2 -49q0 -32 -14 -57l3 -27 q0 -9 -4 -30.5t-2 -33.5l-6 -2q-6 -19 -5 -81l-23 -2l-74 1l-11 1q-1 19 -11 72q-8 45 -7 73v-1l-4 9l5 5l-5 3q-11 33 -11 91q0 9 -6 31q-5 19 -3 35l-5 3l-3 20h14v5h-11l-6 6l-3 29l1 4l11 5q5 -3 11 0v11l-17 -2l-3 -9l-8 6l3 30l-11 15l2 9l-5 12h3l2 3q-5 23 -11 69 l-5 3v48l-8 11l-1 -1q-9 -11 -2 -52q-6 -4 -6 -14q0 1 6 -28q-9 -10 -3 -58h-6v-17h6v-69l-3 -1l4 -127q2 -97 -7 -116l6 -19l-6 -11l9 -8q-3 -17 0 -35q5 -22 5 -31l-2 -15l-12 1l-30 -1q-10 10 -26 11q16 -1 -29 -1q-19 0 -34 7q1 33 2 97q1 36 7 47q-12 20 -6 94l-3 3 q9 224 9 207q0 57 -6 103l6 3q0 15 -2 68q-1 42 0 68h2q0 11 -2.5 30t-2.5 25q0 30 44 30q84 0 163 -5q21 -72 16 -136l9 -13q0 -38 8 -64l-3 -11q0 -21 15 -77t13 -80l-2 -31l-9 -6l-11 2v-8l28 3l10 58l6 -2l3 -11h11q2 -6 4 -6l2 6q0 5 -3 13l-25 6l3 2l2 9l-10 4 q10 -2 11 33q-1 -23 -1 43l9 34h6l-6 16q2 3 6 5q0 21 10 72v-1l-1 13l1 19l6 3q2 13 5 80l3 2v18q12 0 36 2.5t36 2.5q110 0 139 -8q-8 -66 -8 -72q0 -474 16 -512l-3 -9q0 -73 3 -141l5 -6zM461 627q1 4 0 11v-11zM464 610l-11 6v-17h8zM461 586l-6 2l-5 -27l9 -6 q0 15 2 31zM500 478h8q-1 5 -11 8zM508 466l-7 -6l4 -2l11 7q-2 1 -4 1h-4zM511 422l-3 14h-8l3 -14h8zM478 444l3 -1l2 1v2l-8 9zM514 414h-17l-2 -3l5 -11l11 2zM527 372l-6 9h-2l-3 -9h11zM154 713q-1 3 -3 5zM505 330l9 2l-9 4v-6zM516 319l8 3l-8 3v-6zM237 599h5v1 l-5 5v-6zM372 466q-2 3 -8 6zM176 646v3l-3 3zM397 422l3 5h-5zM203 607l5 1q-2 3 -7 5zM212 574v6l-5 2v-8h5zM539 239l9 5l-9 6v-11zM181 605l-5 36q-21 0 -28 2l-3 -8h26l-2 -6l-7 -2v-5l11 -4v-16zM140 641l-9 8v-14q6 1 9 6zM381 397v11h-11l-3 -14zM154 610l-1 4l-5 2 v-6h6zM140 627l-9 3l-5 -14l11 -6zM198 558l-3 -8h2l5 4v1zM375 375q-2 3 -8 6zM281 474h-8l6 -8zM345 402l-3 -5l7 3zM137 586v9l-4 4h-2v-8l-6 -2zM284 430l2 7v2l-4 3h-1l-2 -9h3zM226 502h-11l-6 -11h14zM270 461l-8 2l2 -10l-11 -6l11 -3zM137 571v9h-14l-5 -6 q13 -1 19 -3zM151 544l2 4l-5 7q0 -4 3 -11zM135 561l-1 5l-5 3l-3 -6zM253 438l6 -8h2q1 0 5 1zM359 336q-1 2 -1 3l-5 3v-6h6zM151 533h12l-12 5v-5zM273 422l-14 3l7 -16zM101 594h-14l3 -17l10 3l-1 2zM131 546l3 6l-3 3l-4 -7zM151 516h1l6 4l-7 5v-9zM383 289v2l-5 3z M234 433v1l-5 4h-1zM248 414v8l-4 3l-10 -11h14zM331 330v9l-11 6l-5 -6q3 -12 15 -12l6 1zM162 483h-6q-3 12 -2 27l-6 4q-2 -15 -2 -24l5 -12l-6 -9l11 -3v12zM539 123v7l-3 1q-9 -4 -9 -17l-11 -5l3 -11l8 16zM135 508l-4 17h-11l-2 -11l5 -6h12zM220 414l4 1l-4 7v-8z M516 118l3 8l-3 3q0 -2 -1 -4zM550 101l-6 6q-7 0 -12 -12l7 -2l3 8h8zM295 339l4 1q-2 3 -7 5zM289 361l-8 3q-5 0 -8 -3l-6 11h-8v-11h-8l2 -6q24 0 31 -2zM131 497q-4 5 -11 5v-2zM123 480h8l2 2q-3 4 -10 7v-9zM102 518l-3 4l-8 -11l5 -3l6 5v5zM151 458l-6 -5l3 -6 l13 6zM262 342l-3 -14l18 12l-21 7l1 -4zM334 273l-7 5l-4 -1q4 -2 11 -4zM550 37l-3 -6l7 3zM93 483h2l6 4l-7 4h-1v-8zM131 433v24l-8 17l-4 -4l7 -9l-13 -13l10 -6v-9h8zM298 281v5l-23 6v-6l4 -11h3l5 3v3l-6 2zM159 414q-4 5 -11 5v-2zM151 391l1 3l-4 6zM95 444l2 1 l-4 8zM331 217l-11 3v-6l8 -3l3 2v4zM298 228v9q-3 -4 -5 -8zM151 378l-11 3v-11l13 2zM264 256v6l-13 2l-3 -6l5 -5zM284 226q-1 5 -9 5l2 -3zM129 370l5 5l-11 8v-5l2 -7zM145 342l4 11l-4 2l-3 -8zM256 228l12 1q-4 3 -15 5zM279 201l2 1q-3 3 -6 4zM320 162v5h-3l-2 -3z M275 198l-2 -8h2l7 5zM126 342v10l-3 4l-3 -1l-2 -8v-8zM353 109l6 2l-8 3zM279 178h8q-4 6 -12 8zM267 192l-11 6l3 -8h7zM339 106l4 3l-7 5zM262 178l1 5l-4 1zM315 129l-1 3l-5 2v-5h6zM120 298v3l-4 2h-1v-3zM289 129v4l-5 4h-3l-8 -8h16zM306 103l-8 3v12l-3 -6l-8 -3 l-3 9l-11 2v-14q20 0 33 -3zM93 300l2 8l-8 6v-14h6zM118 264l-5 6l-5 -1zM148 222v9l-8 3l-7 -7zM306 54v2l-5 3h-1v-3zM143 209l3 6l-4 2h-2zM123 242l-11 5l-3 -19l6 -2l8 11v5zM281 54l3 1l-5 4zM135 148l-4 -6h2l11 1zM162 114l-6 9l-8 -5l-5 8l-3 -12l5 -5h9l5 -3z M154 84h4q-3 3 -7 6zM145 73v5l-2 -1l-3 3v7l5 3l-14 17h-8l-8 -1l-3 -5l7 -1l-10 -5v-5h14v8h8v-16l-5 -6q12 -1 19 -3zM87 118q13 -2 17 -2q5 0 8 1q-13 3 -21 3h-7l3 -3v1zM95 90l1 3l-5 2h-1v-3zM120 67l2 9l-4 2l-3 -8h-11l-3 -11l6 -2l5 10h8zM101 67v9l5 3l-7 5 l-8 -14l6 -4zM84 78l-8 6l-2 -1q5 -4 10 -5zM76 54v2l-5 3zM95 42q-6 2 -24 6l-6 -2l3 -6zM82 31l1 5l-4 1z" />
<glyph unicode="N" horiz-adv-x="501" d="M154 713q-1 3 -3 5zM234 608h5v1l-5 5v-6zM369 475q-2 3 -8 6zM176 646v3l-3 3zM394 431l3 5h-5zM203 607l5 1q-2 3 -7 5zM209 583v6l-5 2v-8h5zM181 605l-5 36q-21 0 -28 2l-3 -8h26l-2 -6l-7 -2v-5l11 -4v-16zM140 641l-9 8v-14q6 1 9 6zM378 406v11h-11l-3 -14z M154 610l-1 4l-5 2v-6h6zM140 627l-9 3l-5 -14l11 -6zM198 558l-3 -8h2l5 4v1zM372 384q-2 3 -8 6zM278 483h-8l6 -8zM342 411l-3 -5l7 3zM137 586v9l-4 4h-2v-8l-6 -2zM281 439l2 7v2l-4 3h-1l-2 -9h3zM223 511h-11l-6 -11h14zM267 470l-8 2l2 -10l-11 -6l11 -3zM137 571v9 h-14l-5 -6q13 -1 19 -3zM151 544l2 4l-5 7q0 -4 3 -11zM135 561l-1 5l-5 3l-3 -6zM250 447l6 -8h2q1 0 5 1zM356 345q-1 2 -1 3l-5 3v-6h6zM151 533h12l-12 5v-5zM270 431l-14 3l7 -16zM101 594h-14l3 -17l10 3l-1 2zM131 546l3 6l-3 3l-4 -7zM151 516h1l6 4l-7 5v-9z M380 298v2l-5 3zM231 442v1l-5 4h-1zM245 423v8l-4 3l-10 -11h14zM328 339v9l-11 6l-5 -6q3 -12 15 -12l6 1zM162 483h-6q-3 12 -2 27l-6 4q-2 -15 -2 -24l5 -12l-6 -9l11 -3v12zM135 508l-4 17h-11l-2 -11l5 -6h12zM217 423l4 1l-4 7v-8zM292 348l4 1q-2 3 -7 5zM286 370 l-8 3q-5 0 -8 -3l-6 11h-8v-11h-8l2 -6q24 0 31 -2zM131 497q-4 5 -11 5v-2zM123 480h8l2 2q-3 4 -10 7v-9zM102 518l-3 4l-8 -11l5 -3l6 5v5zM151 458l-6 -5l3 -6l13 6zM259 351l-3 -14l18 12l-21 7l1 -4zM331 282l-7 5l-4 -1q4 -2 11 -4zM93 483h2l6 4l-7 4h-1v-8z M131 433v24l-8 17l-4 -4l7 -9l-13 -13l10 -6v-9h8zM295 290v5l-23 6v-6l4 -11h3l5 3v3l-6 2zM159 414q-4 5 -11 5v-2zM151 391l1 3l-4 6zM95 444l2 1l-4 8zM328 226l-11 3v-6l8 -3l3 2v4zM295 237v9q-3 -4 -5 -8zM151 378l-11 3v-11l13 2zM261 265v6l-13 2l-3 -6l5 -5z M281 235q-1 5 -9 5l2 -3zM129 370l5 5l-11 8v-5l2 -7zM145 342l4 11l-4 2l-3 -8zM253 237l12 1q-4 3 -15 5zM276 210l2 1q-3 3 -6 4zM317 171v5h-3l-2 -3zM272 207l-2 -8h2l7 5zM126 342v10l-3 4l-3 -1l-2 -8v-8zM350 118l6 2l-8 3zM276 187h8q-4 6 -12 8zM264 201l-11 6 l3 -8h7zM336 115l4 3l-7 5zM259 187l1 5l-4 1zM312 138l-1 3l-5 2v-5h6zM120 298v3l-4 2h-1v-3zM286 138v4l-5 4h-3l-8 -8h16zM303 112l-8 3v12l-3 -6l-8 -3l-3 9l-11 2v-14q20 0 33 -3zM93 300l2 8l-8 6v-14h6zM118 264l-5 6l-5 -1zM148 222v9l-8 3l-7 -7zM303 63v2l-5 3 h-1v-3zM143 209l3 6l-4 2h-2zM123 242l-11 5l-3 -19l6 -2l8 11v5zM278 63l3 1l-5 4zM135 148l-4 -6h2l11 1zM162 114l-6 9l-8 -5l-5 8l-3 -12l5 -5h9l5 -3zM154 84h4q-3 3 -7 6zM145 73v5l-2 -1l-3 3v7l5 3l-14 17h-8l-8 -1l-3 -5l7 -1l-10 -5v-5h14v8h8v-16l-5 -6 q12 -1 19 -3zM87 118q13 -2 17 -2q5 0 8 1q-13 3 -21 3h-7l3 -3v1zM95 90l1 3l-5 2h-1v-3zM120 67l2 9l-4 2l-3 -8h-11l-3 -11l6 -2l5 10h8zM101 67v9l5 3l-7 5l-8 -14l6 -4zM84 78l-8 6l-2 -1q5 -4 10 -5zM76 54v2l-5 3zM95 42q-6 2 -24 6l-6 -2l3 -6zM82 31l1 5l-4 1z M450 788l-111 -2l-3 -33q0 -10 4 -31.5t3 -35.5l-6 -3q0 -18 4 -52t4 -51q0 -5 -2 -17t-1 -19l-3 9q-4 -8 -4 -18q-1 -6 0 -16q1 -13 1 -18q0 -26 -8 -39q4 -5 3 -10t-8 -2l10 -5l-2 -9h-5l2 -2l25 -6q3 -8 3 -13l-4 -6h1l-3 6h-11v6l-10 7l-9 -58l-28 -3v8l11 -2l9 6l2 31 q2 24 -12 77t-14 77q0 8 1 16q-7 12 -7 31q0 28 -1 31l-9 13l1 11q0 60 -17 125h-11q-10 0 -27.5 -6t-27.5 -6q-16 0 -47.5 4t-47.5 4q-43 0 -43 -33q0 -7 2.5 -25t2.5 -27l-3 -3q0 -12 2 -51q2 -31 2 -50l-1 -32q-6 0 -6 -11q0 -8 3 -23.5t3 -17.5q0 -50 -4 -131 q-4 -100 -5 -130l3 -3q-5 -75 6 -94l-6 -6q-3 -21 -1.5 -67.5t-1.5 -70.5q11 -6 53 -6l25 -2l11 -9h6h36l2 15q0 9 -4 32q-3 19 -1 34l-9 8v3l6 8q1 1 -6 19q5 17 6 117q2 100 -2 119q-2 7 2 8v69h-6v17h6q-8 49 3 58l-5 36l5 6q-1 40 3 53l8 -11v-48q5 0 5 -11t11 -61 l-5 -3l5 -10l-2 -11l8 -6l-3 -30l8 -6l3 9l17 2v-11q-4 -2 -8 2l-3 4v-6l-11 -5l-1 -4l3 -29l6 -6h11v-5h-14v-12q0 -10 8 -11q-3 -6 -3 -18q0 -18 10 -61t10 -54l3 -24q3 2 4 -3q0 -5 -4 -5q9 -51 22 -153q37 -4 75 -4l93 1q0 13 -7 39t-7 39q0 9 7 8q-3 11 -3 36 q0 86 13 158l-6 14l16 155l-3 26q-10 2 -26 1q-25 -2 -27 -2v6h42l20 19l-7 14q1 3 8 27t7 26z" />
<glyph unicode="O" horiz-adv-x="471" d="M441 826q-3 -11 -3 -33l-16 25l-13 -1h-17q-1 0 -6 2l12 3l5 -4v4l10 -2l25 8zM405 111q0 -29 -19 -44l-3 -16l-11 -6q-2 -6 -15.5 -16.5t-13.5 -18.5q-11 -2 -37 -16q-14 1 -36 -2.5t-32 -3.5l-19 3l-2 4q-4 0 -7 -1q-18 -3 -43 3.5t-37 17.5h-8q-20 12 -27 30h-9 l-11 12v13l-7 2v2q-9 13 -15 35q-10 35 -11 37l6 14l-6 16l4 12l-4 5q7 9 1.5 59.5t2.5 65.5l-6 8q-6 31 6 43q-8 72 -8 168q0 36 8 114l5 3l-1 11q0 10 6 13l5 33l7 2q-1 14 21.5 34.5t37.5 20.5l3 6q20 0 66 7q43 7 68 6h10l3 -5q13 -6 44 -6l5 -8q23 -12 40 -32l34 -39 l3 -19q10 -2 8 -49q7 -11 7 -40q0 -13 -1.5 -41t-1.5 -41q0 -26 5 -39l-4 -2q0 -37 4 -112t4 -113q0 -97 -19 -130zM482 -37q-12 0 -35.5 -2.5t-35.5 -2.5v9q17 3 52 7l2 33l5 6h7q0 -31 5 -50zM56 -48q-22 -2 -65 -2q3 7 7 22l6 -12q26 3 34 -4l8 2l10 -3v-3zM346 689l-9 6 l-2 -1q5 -3 11 -5zM313 713l4 1q0 7 -6 7zM299 706l5 -1h2l-10 6zM318 691q-5 6 -12 6zM343 656v-5h15zM383 597l10 2q-6 4 -10 6v-8zM332 654v2l-4 4l-2 -3zM383 588l-13 9l-5 -3l5 -14h8v8h5zM361 597v4l-2 1zM344 605l-2 -1q-8 2 -14 12v-9l-4 -5zM346 585q-1 3 -3 5z M210 711l4 4q-4 5 -17 15l-3 -14zM188 727v5l-4 3zM184 713h5v1l-5 5v-6zM356 536l4 4l-4 5v-9zM168 727v4l-2 2l-8 -1l-1 -2zM190 699v3v1l-6 3q3 -4 6 -7zM372 509l2 5h-4zM340 542l-2 2l-6 1l2 24l-19 3l-6 -14l12 -3v-13l5 -2v-12q6 12 14 14zM135 733l-2 -6l7 4z M168 691l-2 -9q8 4 8 10h-2q-1 0 -4 -1zM332 509l8 -3h2q-9 9 -16 14zM359 481v15h-16v-15h16zM372 457v1l-2 5l-2 -3zM135 689l3 6l-3 2l-9 -7v-1h9zM152 669l-3 -5h3l11 2zM359 457v11l-16 2l-6 -10l3 -6q6 2 19 3zM138 664l15 44l-20 -39v-5h5zM356 441l-1 3l-5 2v-5h6z M119 662h7l-15 5zM359 419l-1 4l-4 1l-3 -1q2 -2 8 -4zM97 669h-19l8 -5zM140 610l-8 6l6 2l-3 6h-5v-17zM100 654l7 2l-6 4q-11 0 -15 -18l9 3l2 -3zM348 391l4 2l-6 4zM144 594v5l-11 3l-6 -3l3 -5h14zM111 607h4q-3 3 -7 5zM95 610v19l-9 -8h-5v-9zM130 563l5 4l-7 5h-1z M103 590l2 7l-3 2h-2zM311 384l-1 4l-4 1zM328 345l-2 17q-7 -5 -8 -17h10zM86 572v5l-3 3l-2 -4zM152 518h-12v13l-7 2l11 25h-14v-11l-8 -2v13l-6 5l-8 -5l-3 -18l-5 5h-19l-3 8l22 2v6l-14 -3l-3 5l-13 4l-11 -9l2 -16l9 3l3 -5h13l6 5l3 -12l-10 1l-17 -1l-1 -5l4 -4 l2 1l2 8l8 -2v-11l14 -6l-2 -5h-12l-2 -6h11l3 -7h13l-3 5l-2 -3h-6v8l16 -3l3 11l14 1l8 -1l-8 -5l-5 -13h-14v-6l-6 -2l3 -7l8 7h11l3 -18l10 -2l-5 6l3 11l-7 4l7 3v14zM291 345q5 14 5 40q0 4 -2.5 42t-2.5 59q0 30 5 34l-3 3v10q2 3 2 14q0 15 -5 53.5t-5 44.5 q0 10 -38 44l2 10h-4l-9 -8q-21 -3 -36 -11q-27 -15 -30 -16q2 -19 -8 -26l4 -20q0 -25 -2 -74.5t-2 -73.5h4v-7l-4 -15q-5 1 -5 -3q0 -3 2 -7.5t3 -6.5q-1 -3 -7 -31q10 -8 9 -19l-7 -19l5 -3q2 -9 2 -58q-1 -51 -4 -56l6 -6q-1 -13 -4 -38q6 -11 6 -55q0 -17 11 -24 q15 -32 48 -32q42 0 58 29q11 20 11 66q0 145 -5 160zM92 481l3 1q-1 5 -6 6zM73 498l-3 7q-1 4 -6 4l-3 -11h12zM359 242h-19l3 -6l-9 -1l-2 -2l-5 2l7 7l-2 3h-8v-6q-4 -2 -5 -8l9 -3l4 -13l2 13l18 3h-6v5l8 -3q4 2 5 9zM75 481v3l-5 4q2 -4 5 -7zM144 422l-9 4l-10 -10 l15 -3zM73 470q-2 4 -3 9zM95 460l-4 6l-16 -20h8v11zM356 184v2l-4 4h-2zM343 171l1 5h-4zM127 400q-18 6 -35 5l-3 9l-8 5l2 12h9v-7h8l5 -8v10l-10 5v4l7 6l-7 3q-5 -4 -14 -13h-11l6 -8l-17 -7l22 -3v-4h-11l2 -6l-2 -9l-8 -2l8 -3l13 5l-2 6h11v-6l-5 -3l4 -3l4 1v8 l16 3v-9l-8 3l7 -5q7 4 17 11zM125 362l4 7l-2 6l-2 1v-14zM350 149h-13v-13h11q-1 8 2 13zM315 162l5 2l-5 4v-6zM130 345q-1 5 -5 7v-7h5zM321 151l-8 -7v-4l17 7zM147 318l-7 6l-5 -9zM127 332q-1 3 -5 5v-5h5zM113 373l-2 8h-52v-5q8 1 13 1h5q5 0 12 -1v-11h8l3 8h13z M324 114l-11 4v-7h12zM127 324l-19 2l-5 -14l8 -4l2 10h9l3 -8l4 1l-4 4zM59 356l-3 -4l12 -4h4l10 5zM326 89v5l-2 2zM147 269v4l-3 2l-3 -3zM348 61l-4 6l-4 -1q3 -3 8 -5zM81 321l6 1q-4 3 -12 4zM135 286h-10l-7 6l15 5q-17 1 -33 5l-6 -2l17 -3v-9l-8 -2l1 -4 q23 -2 29 -2zM89 308l-3 7l-11 -13l3 -3zM324 59v12l-3 5l-3 -13l3 -4h3zM130 272q-25 5 -52 5l5 -13l-5 -6l7 -1q1 0 14 2l-10 1v9h16l-2 -9l5 -5h14v12zM138 228l6 1q-5 3 -11 4zM296 70q-2 3 -3 6q2 -3 3 -6zM111 247h-6l5 -12zM140 206l-10 3v-6h10v3zM135 190l8 2l-8 3 v-5zM100 245v5l-17 -3l-8 6l-2 -6l10 -2l-8 -9l6 -3q6 5 19 12zM122 193q1 2 1 5q0 8 -4 22h-8l-3 -8l-3 -2v-4h6l2 -16h11l7 1zM155 176v5l-11 -2l-9 5l-18 -4q7 -7 23 -7zM61 245l5 2l-10 3zM239 67l1 4l-8 5l4 -11l4 -1zM149 166l-9 5q-11 0 -15 -20h10l-2 5l-3 2l3 4h14 zM64 233v5l-5 1v-6h5zM83 212l-9 -5l7 -4l8 5zM190 79l2 4h-2l-3 -5zM201 70v2l-4 4l-2 -3zM75 193l1 3l-5 2h-1q2 -3 5 -5zM116 149l1 3l-5 2h-1q2 -3 5 -5zM166 96l4 6l-4 3l-10 -6zM78 166h3l14 1l-17 4v-5zM195 54l2 2l-5 5zM95 151l-3 7l-19 2l2 -9h20zM177 74l-11 5 l-10 -4l10 -8zM127 109l2 3l-4 2zM130 105h-19l-3 -5l17 -4zM92 131v9h-19l5 -16l5 9l10 -3zM170 39v5l-4 1v-6h4zM81 109v1l-5 4h-1zM81 100l-1 3l-5 2v-5h6zM130 525l-3 -5l-16 3l-1 3l3 2l6 -3l6 6zM100 523v8h2l5 -4l-5 -4h-2zM108 520l4 -2l-7 -9l-4 2v2z" />
<glyph unicode="P" horiz-adv-x="447" d="M439 396l-5 -2h-1l-2 3l2 2zM437 352l-1 -38h-10l-7 -8l-5 11q14 10 14 34l-11 -5v9l9 -2q0 10 2 30l-2 4l4 4h6l1 -12v-27zM439 304l-3 -12h-8l-7 11l5 3h11zM409 300l-5 -2l-2 9l4 2zM370 322l-3 2l3 4v-6zM388 477q-12 -33 -13 -48q-10 -9 -20 -28q-5 -12 -36 -26 l-4 -6q-18 -6 -40 -6q-24 0 -93 12l2 10l-8 6l-2 11l-9 -3l1 -7l-1 -4l-13 1l-7 -1l4 -5l13 -3v-23l-10 -29h10v-28l3 -32q-4 -2 2 -11q2 -3 2 -22q0 -22 3 -97q3 -60 1 -97l-2 -33h-28l-11 8q1 0 -21 -6q-28 1 -77 0q0 2 3 4.5t3 4.5l-6 5q8 62 2 91l6 18v-2l-2 8l-4 25 l6 10q-6 63 -6 72l12 5v6l-9 2v44q0 51 -3 145l-2 3q3 31 3 66q0 47 -7 139t-7 137q0 9 7 9l4 -3q3 0 66 2q50 1 60 -5q6 6 133 6q5 0 7 -4q1 -3 -3 -5q18 -8 40 -6v-10q9 0 52 -63v-28q14 -23 8 -66q2 -2 3 -7q-1 -3 -3 -6l3 -11l-5 -10l9 -12v-5q0 -4 -2.5 -10t-2.5 -29 t-11 -53zM221 258l-1 -9l-9 -9v-7l-8 2q3 11 17 39zM253 9v1q0 -1 -1 -10q-10 1 -21 4l8 1l10 8h1zM-10 -19l-12 5l7 3l5 -1v-7zM300 719q-2 2 -3 5v-5h3zM312 702l-8 5v-7zM335 685l-6 1l-3 -11q9 5 9 10zM308 646v4l-4 1l-2 -3zM341 583l-9 5l2 -11l4 -3zM131 770l-8 5 l-2 -9h2zM116 738l-3 6h-8l-3 -6h14zM130 727l-9 9l-2 -5h-11l3 -7v-8h-9l6 -9q3 5 5 5l3 12zM140 691l-10 6l-9 -5l-5 5l3 -7h21v1zM341 481q-3 6 -7 6v-6h7zM121 703l-16 2v-5zM266 607q5 22 5 30l-5 3l-8 35h-6l-7 17h-16q-7 0 -21.5 4t-21.5 4l-11 -4q-8 -3 -18 1 q0 -10 -3 -40l6 -8v-9q0 -1 -6 -25q9 -24 9 -59q0 -12 -1.5 -37.5t-1.5 -37.5l11 -5q8 2 45 3h9l36 22v10l8 5l-6 17l8 5q1 23 -5 69zM335 458l-1 7l-5 5q-2 -8 -10 -22l16 5v5zM287 497l-9 6l5 -9h1zM302 479l-9 10l4 -13zM286 484l-7 5h-1v-8zM311 452l-3 10l-2 -9 q0 -2 2 -7zM266 492q0 6 -3 9zM317 432l-2 6l-5 -14l2 -3zM296 452l-1 2q-2 1 -4 1q-1 0 -5 -1v-2q1 -2 2 -6zM266 475l-5 4l2 -7zM304 440h-11l7 -9zM67 668h-11l4 -9h1l4 2zM250 455v5l-1 10l-8 2l-2 -7l4 -4l-2 -15h-13l-3 -6h4q21 0 21 15zM233 463l-3 5h-2l-3 -14z M90 578l-4 5v-6zM247 418v7l-2 6l-6 -2v-11h8zM135 525l-3 13h-9l-2 -7l9 -4v-1zM217 431v12h-6zM97 557h-8l-7 12h-5v-5q11 -7 18 -10zM250 407h-5v-13zM182 454q-1 3 -6 6zM124 494l-4 3h-1l4 -5zM190 418v4l-3 2h-1l-2 -3zM190 407q-2 7 -6 7v-7h6zM161 439l-7 9l-2 -8 l5 -9zM130 457l-2 15h-9l2 -12zM131 448h-3l-3 -3l5 -2zM152 418q0 6 -7 6zM119 443l-6 5l1 8l-3 4l-6 2v-19h14zM135 429l-3 5l-11 4l7 -9h7zM94 454l-5 8l-9 -2l2 -6h12zM132 421l-2 4l-19 1v-5h10v-5zM105 418l-8 13l8 6l-8 6v5h-8l2 -14h-11v4l-13 2v-11h-9l-2 -8l11 3 l2 7l11 3v-10zM140 375l-12 19l4 3v4l-9 4l-2 -17h-24l5 -11h-25v-5h12l8 -13l8 2l-3 5l9 3q9 -5 10 -10l6 3l-11 21h14l5 -8l-3 -14l6 -2zM104 322l-18 3l16 6l-3 15l-8 5l-12 -9l7 -3l-6 -5v-9q-4 -1 -9 -1q-4 0 -13 1l14 -8l8 3q4 -1 9 -1q8 0 15 3zM128 240l-31 3l-3 -6 h14l11 -8l8 5zM130 196l-5 9h-2l-4 -6zM106 219l-4 6l-3 -12zM78 238q-1 4 -6 5l3 -6zM85 229q-3 4 -10 6v-8h8zM105 189h-11l5 -6zM119 148v4l-3 6zM110 175l-14 3h-4l-14 -9l11 -3q15 0 21 9zM112 141l-4 1l-3 -3l6 -3zM89 149v9h-9v-10l6 -9v9zM97 134q-1 4 -6 5l3 -6z M113 123l-16 3zM128 101l-1 6l-8 4l2 -10l-7 -3l9 -3zM111 95l-3 9l-26 -3v10h-7v-16h36zM128 68l-2 8l-4 3h-3l-3 -6h-8l3 -5h17zM104 80q-4 5 -24 7v-8q12 -1 13 -1h4z" />
<glyph unicode="Q" horiz-adv-x="450" d="M394 91q-7 -5 -16.5 -21t-9.5 -24q-18 -17 -105 -51l4 -9l-1 -4l-8 13h-6v-8l-9 -5l96 -6l3 -136l-22 6l-5 8l-36 4l-10 -1l-8 -6q-59 13 -78.5 32t-19.5 58q0 16 4 62q-54 19 -58 23q-7 9 -26 20l-3 9q-28 13 -39 90q2 2 3 6h11l6 -9l-3 -11q6 1 7 -1q1 -1 0 -5 q-2 -4 -1 -6l18 -3l-10 9l5 6l12 -3q1 2 -1 8q-1 5 0 5q1 -1 3 -2l3 14l-15 6l-12 -4l-3 -7q-4 0 -8 3.5t-1 6.5l-11 -3l-3 -4q-8 25 -8 37q0 -2 3 59q3 45 -1 58h15v11h11q3 -3 0 -5q-3 -4 -3 -6l9 -2l7 16h6q9 -16 43 -19l-70 -6q-1 -1 2 -3t3 -3q0 -9 -11 -2l3 -15h-6 l-3 -11l31 -14q-10 -6 -28 -31l11 3l-5 -11l14 3l3 -15l-12 -3q1 -1 -3.5 -3.5t-4.5 -4.5l3 -6h22l-5 14l5 3l5 -14l9 6v8q0 2 -5.5 6t-3.5 6l-19 14l3 8l16 -9q2 0 14 12h-17l-2 5l14 3l-9 6l3 5h11l-2 -14l17 3q1 -8 11 -8q17 0 17 9q0 4 -5 7h17l-3 15q1 -1 2 -1 q2 0 3.5 4.5t2.5 4.5q9 -54 9 -82l-6 -31q9 -4 3 -7l-20 2l3 14l-8 -1l-11 9l19 -3l6 6l-9 9l6 3v14l-32 17l6 -14q-3 2 -5 -3q-2 -4 2 -6l23 3l-6 -14l-2 3l-18 2v-5l11 -3q-5 -9 -11 0l3 -23l17 -3l-2 -5l-26 2l-3 -7h9v-6l17 -8l8 2l3 -17q-21 -6 -26 3h-25l3 -6l31 -5 v-6l11 3l6 -9h6l-6 6l3 20h6q2 0 1.5 -5.5t6.5 -5.5l-1 3l-2 5l8 12h6l14 -23l11 -6l3 -9q8 3 20 2l20 -2q6 0 18.5 3.5t20.5 2.5q1 3 1 5t-5.5 4.5t-4.5 7.5h15l-9 6l9 33l-6 9l11 3q-3 5 -5 5v17l5 6l-5 3l11 6l-6 8l-2 53h14l3 12l4 -4q2 0 6.5 3t6.5 3q3 0 5 -5l8 11 h-33l-3 -14h-9q-6 11 -5 17l5 31l12 2v6q0 5 -6 9t-11 3l8 8l-8 26l8 3v14l-8 7l10 10q-2 -4 -6 0t-1 8h14v-15h17v6h-12l6 11h-28v12l11 6h-11v19h31l-1 -10l1 -4h33l-3 -8l-33 3l9 -9l15 -1l18 1l-3 14l7 2q-6 4 -20 4l-21 3l11 11q-1 2 -1 5q1 7 -1 9h-14l-11 -5v-9l-6 3 l-11 -3v33l11 3l-14 3l-2 8l2 1q7 13 6 20l-6 33h3l-3 6q-2 30 -12 90h26l-3 6l-17 -3l-14 3q-8 21 -47 21l-32 -7q0 -4 -3.5 -8t-7.5 -4q1 -19 -11 -27q-1 -2 1 -5t2 -4l-6 -3q-4 -23 -3 -77t6 -77q-9 -16 -9 -27q0 -6 4.5 -19.5t4.5 -25.5l-3 -24l-14 -3l1 -10 q0 -10 8 -10q2 0 2.5 6t2.5 5v-31h-5v11l-17 6l6 17l-6 6q10 6 14 22q-20 3 -37 11v-6l-11 -6l-6 -10l8 -3l3 -11l9 8h8v-1l-6 -4v-12l-24 -16l-26 5l1 -6q0 -8 -9 -8l1 11l-7 3q-2 0 -4.5 -6t-5.5 -6q-2 0 -4 1v22l8 3l12 -8q8 -1 8 5t-6 9l34 3q-2 -3 -5 1t-1 7l-9 6l3 10 l-20 4l-13 -4l-3 -10l10 -13l-10 -1l-11 8l-3 48q6 11 6 38l-6 24l8 11q-10 9 -10 59q0 117 28 159l14 7q27 60 143 60q53 0 88 -21l73 -52q0 -16 11 -23q-2 -7 3 -24q6 -20 6 -26q0 -61 5 -181q5 -130 6 -183l4 -8q-2 -6 -2 -60.5t-10 -120.5zM137 322l-6 3l3 2h5zM74 379 h-10l5 11h1v-2l4 -1v-8zM151 294l-10 -2q-11 0 -12 13q-6 3 -32 3l-3 6l6 5l14 -3l3 6l-3 2l3 6h6l-3 -11q17 -5 26 -5v13l4 -3l-2 -5l4 -6zM154 283l-7 3l1 2q2 -3 6 -5zM126 342q-7 0 -40 -6l-11 6q0 -1 -1 -3v-9q15 -7 26 -8l3 14q19 0 23 6zM134 268l-6 3l3 3l5 -2z M61 324l-3 4l3 2l8 -3q-3 -1 -5 -3h-3zM103 280l-5 3l7 5l2 -3zM44 324l-10 5l7 4l4 -5zM427 -55l3 -2l-6 -7v6zM83 283l-8 3l2 2q5 -1 6 -5zM427 -70l3 -1l-6 -4v4zM83 266l-6 9l2 2q9 -3 9 -8zM35 311v8h2l3 -4zM77 263l2 -3l-7 -3zM55 263l1 -2l-6 -4q2 2 5 6zM435 -160 h-11l-6 9q4 21 9 64q2 -4 6 -13v-13q0 -30 2 -47zM154 142l-3 4l3 2l7 -5zM146 131l-5 1v5l5 8v-14zM129 142l-3 5l3 1v-6zM114 151l6 -5q-2 0 -5 -1h-4zM74 134l-8 5l4 3l7 -3zM354 671l4 9l-3 3h-1l-3 -9zM286 720l-8 5l-3 -5l6 -3v2zM258 733l1 5l-4 1zM255 717l9 2 l-12 8zM281 685h2l4 2l-9 4zM230 739l-3 -9l10 8q-2 1 -5 1h-2zM286 674l-17 3zM170 764v3l-5 3v-6h5zM233 705l-14 3l8 -11l6 3v5zM292 624l-9 3q1 2 1 4q0 1 -1 4l8 -4zM213 700l-8 11l-3 -8zM320 564l7 2l-7 4v-6zM185 697l4 3l-7 5zM140 736l1 5l-4 1zM165 703l-3 11 l-5 -8l3 -3h5zM137 725l6 1l-9 4zM337 533v6l-25 6l6 11h-18l-2 -17h4l4 3q6 -6 31 -9zM140 711v1q0 5 -6 5zM157 688h3q-2 5 -6 6zM354 494l-6 8h-3v-6zM143 697l2 3l-5 5zM325 528l-30 3l-1 -10l9 -13l9 3v11h10zM109 714h5q-2 6 -8 9zM134 683v4l-3 1zM143 674l4 4l-7 2z M129 691l-3 6l-9 3v-6zM91 711l3 5l-5 17l-9 -10q5 -10 11 -12zM334 469v3l-3 5l-3 -4zM339 457l11 3l-11 3v-6zM106 683q-2 4 -3 8l4 -7zM74 688h1l7 4l-7 5h-1v-9zM143 663l-23 8l-9 -11v12l3 -1v8l-5 1v-6l-9 -14l23 -9l-3 -7l-6 4h-31l4 -10l7 1v-4q17 -2 26 -2 q14 0 20 5v16l3 1v8zM354 415v5h-12l-3 -5h15zM64 688l3 1q-2 5 -9 8zM357 403l-6 6l-17 -3l-6 6l-3 -6l9 -6zM334 420l-16 3l7 -8h2q1 0 4 1zM371 356h-17l-3 -6q7 0 20 2v4zM131 572v2l-4 4h-1q2 -3 5 -6zM123 601h-12l-14 8l-11 -8q15 0 23 -3v-6h-15v-3l3 -5l-11 -9 l3 -5l14 8l6 -6q0 16 14 29zM371 322v5l-12 3l-2 -8h14zM345 339l-3 14h-5l2 -9h-2v-8l6 1zM322 353l-13 6l9 7l-9 4l-6 -14h-5l13 -10l11 3v4zM342 322l1 4l-3 4h-1l-1 -4zM74 578l8 2l-8 4v-6zM345 305l4 -1l3 4l-10 6zM70 601l-15 -9l3 -8l-6 3l-3 -1v-4l8 -8l7 18h2 l6 -5h5v3h6q-11 3 -13 11zM331 322l-3 8h-13l-6 -6q15 0 22 -2zM348 294l2 5l-4 4l-21 -3v-6h23zM320 297l-2 8l-3 -4zM58 567l-11 3l-3 -6l-2 1l-1 -4l4 -4l-1 -6h14l3 2zM137 508v6l-9 5h1v14l-4 1q-14 -7 -20 -7l-16 12h-17v12h-5v-9q-10 0 -32 -3v-11q5 -5 16 -3l1 -2 l-14 -7v-17l9 -3l14 18l9 -3v-9q-1 -1 -3 -6l10 -3l6 6q0 11 -11 17l14 9v3l3 5v-8l14 -6v-11l8 -6l9 3v-6h-9v-5l15 -6v20h11zM143 469h-14l5 -6h2l6 3zM309 300l-14 3l8 -12l7 7zM126 463v6h-9zM339 266l-2 5q-6 3 -37 3v-8l12 2l6 -8l-23 3l-3 -9h39l-3 9l-8 -3v6h19z M320 240l14 3l-14 3v-6zM140 420v6l-14 3l5 -14zM123 452v5l-12 3v9h-8q0 8 -14 16v-13l-12 5l-13 -5v-15l19 3l8 -5l-2 -12l11 -3v-8h-11l2 -12l12 6l8 -3l-5 9l3 11l-9 6zM67 479l-5 10l-4 -1l-5 -9h14zM322 204v2v1l-6 3h-1q3 -3 7 -6zM300 218l5 1l-5 5v-6zM70 443l7 2 l-7 4v-6zM55 452v23l-14 7l-6 -5q3 -5 12 -14l-5 -1l11 -7l-2 -2zM322 178l2 8l-5 1h-1l-3 -9h7zM365 145h-11v-11h8v5h3v6zM342 148h2l4 3l-9 4zM325 161l-3 -10l10 1l2 2zM50 426l2 6l-2 6l-6 -10zM309 167v5l-4 1l2 10l-5 4l-10 -5q3 -7 17 -15zM89 359l-2 5l-15 6v-8z M289 145l8 6q-3 1 -8 2h-3zM325 134l-3 5l-7 -3l3 9l10 -1q0 1 -19 7l-17 -15l3 -11h-12l-2 -6h2l12 -3l-3 -11h11v15l-3 2v9q7 0 25 3zM318 63h4q-3 3 -7 6zM286 91v6l-3 2h-10l-1 -2zM322 49v4l-4 2v-6h4zM261 91v8l-2 -5zM275 79l-3 6h-17l6 -6h14zM286 66v5 q-20 -2 -32 -2q-13 0 -24 8v-11q10 0 45 -3l3 6zM103 215l5 3l-5 6v-9zM283 52l-31 8l-6 -2l3 -6h34zM236 82v4l-9 2l3 -9l5 1zM89 210l10 5l-13 6zM269 35l-3 -6l17 -2l-1 2zM216 79v2l-4 4h-2zM106 184v3l-6 8l-3 -5zM263 21h-8l3 11l-9 8v-37l12 3zM236 40l-6 12q1 0 6 2 v2l-9 7q-14 0 -14 -14l-3 -3h3l3 -3l7 6h1zM199 69l-7 5h-2zM199 85l-6 3l-8 -3l2 13l-14 4l6 -6l-3 -8l-30 -3v-11l19 -3l-3 -8h-6q-2 0 -8 3l-2 -6l19 -2v-9l8 -1q11 11 19 13l-10 -1l-12 3v6h12l5 5l-2 5q11 2 14 6zM205 46v2l-6 7l-11 -4zM219 29l-9 9l-3 -6zM237 15 l-2 3h-8l1 -6l-1 -6h-11v-5l-6 -2l9 -3q18 0 18 19zM137 85l-6 4l-14 2l3 -14l6 5l8 -5zM261 -33h-12v-28l-3 -3q9 1 28 6l-22 3zM227 -18v5h-8zM140 49l7 3l-7 3v-6zM236 -30h-9v-11l-6 1l-14 -4v-11h8l1 2l16 7zM77 102l3 6l-6 3h-5q-1 0 -5 -1l-1 -2zM233 -61v1q0 5 -6 5 zM306 516l-6 3l3 3l5 -2zM117 511l-3 6l3 2l6 -4l-4 -4h-2zM64 536l1 -2l-7 -3q4 3 6 5zM64 525l-3 -9l-2 5l4 4h1zM100 460q-9 2 -13 3l2 3zM72 469l2 -2l-4 -4zM167 77l-7 4v1l4 3h1z" />
<glyph unicode="R" horiz-adv-x="453" d="M418 816l-9 -4l-11 23l-19 -3l-6 6l7 6q13 2 22 2h6h10v-30zM413 801l-3 6l3 3l8 -7l-2 -2h-6zM413 16q-15 28 -15 72q0 12 1.5 37t1.5 37q0 24 -4 72t-4 72q0 25 3 46l-9 15v16l-62 45l6 8q-2 -1 15 -1l5 1l17 23h8q21 22 26 76l2 84l-6 5q0 79 -28 121v11 q-10 17 -37.5 30t-48.5 13h-188q-1 0 -71 -6q3 -11 1.5 -41t2.5 -38l-4 -8q5 -23 8 -166q3 -144 -2 -149l5 -5l2 -39q1 -26 1 -55q0 -47 -5 -140q-5 -96 -5 -139h24l4 -6q30 8 106 4q0 29 -2 97q-1 64 -1 98l-3 4l6 25l-9 11l6 14h-3q0 64 -3 75l6 9l-6 3l3 11h-16l-4 5 l12 4l3 4l-17 4v5h14l-1 11l1 9h-12l4 11l19 -3l-3 -8l6 -5l3 -26l33 3q34 0 62 -31v-14l6 -3v-67l6 -8q-5 -25 -5 -56q0 -19 2.5 -57t2.5 -56l-6 -2q3 -20 6 -60l-9 -2v-11q24 -2 37 0l2 6h20q12 0 33.5 -7.5t33.5 -7.5zM157 380l-4 2l4 4v-6zM297 714v6h-8zM264 742l2 3 l-8 3zM281 714l3 5l-6 1zM253 742v1q0 5 -6 5zM267 700v5l-3 3l-3 -5zM295 663l-3 17l-14 4l3 -12zM334 624l-4 6l-4 -1q3 -4 8 -5zM197 754q-6 -3 -9 -14l-10 1l-7 -1l1 -5l-3 -7l2 -8h12l-6 9v5h14l8 12zM334 616l-5 6l-15 -15l-13 -2v-11l16 -6l6 8h-11l2 9h9v8zM174 751 q-5 5 -17 11l-5 -9l8 -5l8 1l1 2h5zM143 762l3 5l-5 1zM351 566l-11 6v-3l2 -15zM191 714l-1 4l-5 2v-6h6zM146 754h-9l6 -21l4 9zM124 773l-6 3l-5 -5v-3l5 -7l-17 -2v-5l21 2zM146 723q-1 3 -5 5v-5h5zM334 544v13h-17l3 -8l-8 -5l-11 2v-6q8 -5 24 -13l-5 2v11l18 -1z M124 728l-4 12l2 -1l2 1v2l-11 3l-12 -8v-9h23zM90 740l3 14l-8 2l2 -8l-12 -5zM314 501q-7 9 -5 15h-6v-12zM312 487l-6 8h-11v-13zM275 619q-2 -7 -2 -50q0 -73 -19 -86q-9 -7 -88 -16v-11l-6 -3l3 14l-11 3l2 12h-4q-3 -1 -7 -3v5l9 9q-1 9 3 28.5t4 28.5q0 1 -2 18l-5 6 q6 8 6 38q0 11 -3.5 33.5t-3.5 33.5q0 9 6 21q46 -6 64 -2h-2q34 0 56 -79zM340 442l1 5l-4 1zM115 652l5 2l-5 4v-6zM295 473l5 1l-5 5v-6zM281 462l3 8l-3 3h-3q-6 -5 -6 -10zM284 453l-15 3v-5l12 -3l3 2v3zM317 380l3 9l-4 2h-2zM286 408v15h-8l-11 -6l-3 -10l9 2v2z M236 453l2 4l-1 6l-4 4v-8h-8l-6 6q-9 -8 -11 -26h11l-2 7l2 7h17zM48 622l2 3l-5 5zM314 355l-2 -5h1l7 1l2 2zM101 563l2 1l-5 4zM303 361l1 5l-3 1zM250 411l-9 -11v-5q9 3 18 10zM306 335v6h-11l-6 14h-5l2 -17zM267 367v4l-3 1zM64 566l7 1l-9 5zM191 439v9h-11l-3 -9 h14zM314 327l-28 3l6 -17h8l1 2l-9 7l20 -3zM57 566l-6 6l-3 -2zM211 414l-9 3l6 -9h1l4 2zM312 299l8 3l-8 3v-6zM340 268v5l-3 1l-3 -3zM132 482l-4 21l-19 7v-6l-5 -4l9 -5l5 4l2 -9l-13 -2l-3 -15l22 -3l-2 9h-9l9 8zM191 434l-14 -3v-6l4 -14l12 12zM312 285v1 q0 5 -6 5zM233 395l-11 13l-3 -5l-8 3l-9 -15h-6l-13 4v1l11 7h-20q0 -8 -3 -25h9l-3 8q15 -2 24 -2l10 2v11q5 0 22 -2zM340 257q-6 6 -15 6zM59 538q-5 6 -11 6l1 -3zM273 311h1l5 2l1 4l-7 5v-11zM365 240l-28 3v-8l8 3l6 -11h11l-1 4zM87 499v5l-19 -3l-4 15h-7l4 -6 l-4 -6l2 -5h28zM129 442l4 1q-4 5 -7 8l-2 -4zM289 285v2l-4 4h-1q2 -3 5 -6zM320 263q-21 0 -23 3l-8 11l-5 -6l7 -2v-3l-7 -6l25 -5l3 5l7 1zM113 453l-4 -5l8 2zM331 232v3l-6 11h-8zM62 487q6 0 14 2l-14 4v-6zM87 484h2l-8 9l4 -14q-11 -3 -21 -3l21 -3zM96 459l-7 6 l-4 -1q5 -3 11 -5zM163 414l2 6l-2 3v5l-15 4q-1 0 -5 -1l-2 -8h-6v8l-9 5v-11h-11l5 -17h-5v-5l9 -6h-9l3 -11l-4 -1l1 -7h11l-2 8h5l3 22l-4 1l-2 5l20 3l6 11v-11zM303 246l-11 3l-8 -11v-6h8zM90 434v3l-3 -1v5l-2 1l3 8l-3 3l-6 -5l2 -12l-13 -2l-4 -11l12 -4l-3 12z M306 207l3 11l-4 4l-2 -1l-2 -11l-17 -3l11 -1h4zM96 417l-4 8h-11l-2 -6zM109 406l-2 17h-6v-12q-23 3 -30 3l-3 -3l11 -5v-6l-3 -3l5 -6v12q22 4 28 3zM323 193l-37 2l3 -8h28l3 -11h7q-3 2 -4 17zM141 352l-6 -8l18 4zM109 380l-5 6l3 14h-6q-6 -11 -9 -19q2 0 4 -1h13z M146 335l5 2l-5 4v-6zM129 363l-5 6h-9l3 -17l6 -2v-1l-4 -8l-11 3v-5l11 -4q6 13 9 28zM286 176v2l-4 4h-1zM331 139l-8 14l-7 -26l1 -4q5 3 14 16zM68 391l-4 -8l9 6zM345 111v2l-4 4h-1q2 -3 5 -6zM107 369l-5 4l-4 -1l-19 3q-2 -1 -11 -3v-9q14 2 21 2l15 -7zM334 114 q-1 3 -5 5v-5h5zM303 117l4 15l-4 4l-8 -17zM107 355h-9l3 -11q-13 -9 -20 -9h-2l-3 9h-12v-11l9 6v-9q20 -5 24 -5q10 0 10 30zM68 355q-1 4 -4 6zM135 271l3 5l-6 1zM143 255l-6 -9h13q0 4 -7 9zM306 80l-5 11h1l3 5l-8 4l-5 -17zM76 305l7 1q-2 3 -7 5v-6zM109 279l-13 4 l2 -9l11 3v2zM113 288l-4 6h-45l-2 -15l25 -2v6l-2 5h28zM98 249l-2 8l3 -6zM138 199l4 4v2l-6 2h-1l-2 -4l3 -4h2zM101 270l-5 1l-10 -6l-12 4l-4 -1v-5l3 -6l-7 -6l7 -5v-6h-3l9 -2l-3 11l9 2v9l2 3l14 -1v8zM51 277l2 9q0 2 -2 8l-9 -12zM120 215l-11 6l-2 -14l2 -12 l9 -2l-3 17zM51 260l1 6l-4 2l-3 -2zM90 204l7 2l-7 4v-6zM85 210l1 2l-5 6zM141 153h-17v-11h8l-6 -11l11 -2l9 8zM101 173h-5v9h-11l2 -12l15 -1zM101 156h7q-1 4 -10 6zM141 119h-9l5 -11h1l4 2zM98 134l14 4l-14 1h-2zM70 170q-1 2 -1 3l-5 3v-6h6zM73 136l3 12l-3 3 l-6 -13l4 -3zM115 737l1 -3l-7 -3z" />
<glyph unicode="S" horiz-adv-x="456" d="M444 684l-2 6l2 4l5 -5zM303 811l8 -2l-10 -3v5h2zM436 673l-3 5l3 1l3 -3v-1l-2 -2h-1zM344 668l1 -5l-4 -11l-8 -2v-4l3 -4h-8l-3 10l-7 3l15 -3q3 7 11 16zM344 647l4 -4l-7 -4l-1 4zM297 671l-5 3l1 2h1l4 -3zM307 634l-7 6l3 2l6 -3zM299 626l-3 4l3 2v-6zM14 808 l-9 5v1l6 3zM-5 814q-1 -4 -3 -6v5zM135 589l3 -2l-7 -7zM100 575l5 -1v-2l-7 -4v2zM402 177l-7 -6l4 -27l-7 -5q3 -27 -13.5 -55.5t-42.5 -35.5q1 -4 -4 -6q-4 -2 -7 0l-13 -17l-10 1l-20 -6l-1 -5l-19 2l-13 -6l-22 4l-4 -6q-20 0 -50 9q-34 10 -48 12l-4 8l-12 4v6 l-11 -2l-25 27h-7v10l-13 8q4 23 -17 43q0 14 -2 42t-2 42l3 2l1 35l-1 22l-3 -1l4 11h64l6 -8l13 6l18 -3q1 -28 6 -58l-3 -4l6 -10v-5l-6 -14q8 -21 17.5 -40.5t32.5 -30.5v-13q-2 -1 -5.5 1t-5.5 2l-2 -3h-13q-2 2 1 4.5t5 0.5l-14 11v-11l-15 8l9 5v12l-10 2l1 -5l-1 -3 l-9 -6l4 -10q-1 3 -2 3q-2 0 -2 -5q-1 -5 0 -6l-12 3q-2 4 -6 5l-2 -11l-8 3v-7q50 0 61 1l8 -5l5 8l19 -3v9l12 -3v-6q8 0 6 6l3 5h16q4 -15 2 -18q-17 2 -23 -5l8 -11h-14l-2 11h-8l-3 -11l-37 -3q-1 -1 1.5 -3.5t2.5 -3.5l-1 -5h-38l6 7h13l-3 11h6l5 -12l5 1l-3 11l9 -3 v11l-32 -6q2 -7 -1 -7t-8.5 3.5t-6.5 3.5l-2 -8l1 -3l9 -2l-3 -22l16 -1l18 5l14 -4l13 4v-4q23 0 47 4l-10 21l12 1l17 -1l-2 -6h-17v-4l13 -2l-7 -4l3 -5q3 0 6.5 5t5.5 6l4 -11q4 -3 13 -1q12 3 13 3l13 -2v-8h11q5 23 37 23v6l-17 4l6 8l13 -4l-5 10q8 4 3 10l8 9h-13 l-3 8h10v10l13 -3l12 6l-11 8l-19 -2v4l8 15q11 -2 6 -9h10l2 2l-4 1l7 9l1 12h-14l-19 11h1h-4l-12 -1l10 -8v-2q0 -2 -4 -5.5t-2 -5.5h-10q-19 0 -19 -10q0 -5 3 -16l-11 -6l3 -8h-10v-8l-13 6l-8 -11h-16l3 8h10l5 13l19 11l6 34h12v8h-8q-2 22 3 34l-13 5q0 32 -19 53 l4 9h15l-5 -13q4 -1 5 -3h22q3 -5 6 -5v8l15 4l1 -7q4 -1 11.5 2t6.5 7l-15 -2q3 5 3 14h-7v14q2 -1 3 -1t7 9q0 1 16 -6l8 6l1 3l-28 4l6 6l16 -3v13l-25 -3l-4 9l-15 -10l4 -6h11l1 -3l-4 -3h-14l-4 20l-9 2l5 23l10 5l-2 5q-20 -15 -26 -33l-19 2l-2 -6l-11 4l2 -14h9 q-2 2 -2 4q0 4 10 4v-8q0 -9 -2 -13l-15 -10v-6q10 -2 40 0v-8q-24 6 -29 -2l-11 2q-6 15 -22 35h-9v7l10 -1l7 3l-8 9l-17 -6l-10 9v7l-13 6v5q-21 21 -35 26v9l-21 10v8l-14 5l-15 19l2 13l-8 -3q-7 15 -20 30l-18 49q-10 29 -10 51q0 6 1 34q1 22 0 35l8 8v29l8 5v14 l16 18v13l11 6q1 5 6 10l6 11l25 5l2 5q16 0 47.5 9.5t48.5 9.5q15 0 44.5 -9.5t44.5 -9.5q16 -24 43 -29l2 -11l17 -16l4 -21l6 -4v-8l1 -24q4 -99 4 -109l-5 -18q-42 7 -69 7l-6 5h-31l-3 16l3 9l19 2l-4 8l-18 -3q8 20 28 24l-10 6q-3 -10 -12 -6l-7 12l2 5l9 7 q-4 -4 -4 -13l13 -3h7h11v11l18 14l25 -6v29l8 8l-16 13l-11 -3l-3 -10l-14 -2v12l-3 1l-9 -3l-4 8q5 5 19 3v5l-4 5l-11 2v-7h3l-3 -5h-22l-1 -8l25 -8l-6 -9q-4 2 -4 4l-21 -4l9 -15l-15 -8q0 33 -18 34v11l-37 5l-1 1l-15 1l-14 -2l-1 -8l-33 -19q7 -18 7 -44l-1 -11 l-6 -6h-26l-16 -16l-19 -2l2 -13h19v10h5h22l8 16l11 3l8 -26l-3 -3l8 -6l3 -18h5l-3 -13q6 -2 13 3l3 -11l9 -2l2 -12l10 -2q0 -3 10 -10q24 -18 46 -51l8 -2v-12h13l16 -21l12 -4l3 -11q2 3 5 -1t1 -7l10 -3v-7q11 -17 27 -29l22 -69q11 -38 11 -70q0 -14 -2 -29zM303 285 l-4 10l3 3l8 -10l-5 -3h-2zM282 316l-4 -3l-15 7l11 5l9 -4zM312 273l-9 -1l6 10zM285 272l-3 4h6zM355 166l4 -4l-7 -4zM343 162l-10 -2l-2 8l5 3q4 -1 7 -9zM325 162l3 -1l-6 -3zM315 131l-3 8l3 5l4 -5v-3zM331 100l-16 -4l-3 19h-2l-9 -5l-5 15q0 4 1.5 11.5t1.5 10.5 l-3 3l3 2l4 -2q-3 -9 6 -22h9v-3l-3 -7l7 -3v-8l9 -3v-4zM319 83l-6 4l6 7v-11zM282 118l4 -1l-5 -5v1zM307 94h-26l-5 4l2 6h29v-10zM293 91l-2 -6v6h2zM301 67l-4 3l8 8l3 -3zM278 83l-4 4v1l3 3l8 -6zM285 78l2 -2l-5 -3v4zM267 96l-13 4l2 -15l-7 -4v13l-8 2v4l19 1l4 6 l5 -4zM262 67l-6 11q7 -2 10 -10zM260 59l-6 -2l-2 7l3 3h1zM233 81l-8 4l5 4q3 -3 3 -8zM212 54h-14l-5 10l-10 3l4 6l11 2l5 -3l-1 -9zM180 64l-13 1v8h2l10 -6zM333 689l-2 -5h8l2 1zM315 708h-16q0 8 9 15l-11 4q-1 -13 -9 -38l13 3l2 5h-4l2 8l11 -2zM241 729l-8 -10 v-3l2 -1q8 9 11 14h-5zM217 742v2l-4 3h-1q2 -3 5 -5zM204 727l-1 4l-5 3v-7h6zM202 700l-4 11l-2 -1l-6 -10h12zM293 584l2 5h-2l-2 -5h2zM156 700l-5 13l-16 -3v9l8 5l-8 3l-4 -12l-6 -4l6 -6l4 -18l15 2zM127 668v24l-16 16v7l8 4v6l-6 2q-14 0 -14 -10q3 -8 7 -17 l-12 -6l4 -7h11l4 -14zM150 655v6h-2v5h-8l-3 -11l-10 -3v14h-6v-11l-9 -1l-2 -2l9 -5l-2 -8l2 -5h6l5 11q15 -7 16 -6l-3 13zM98 645q0 5 -8 5zM127 620h-14v6l-4 3l-3 -9h-12v-5h19l6 -5l-3 -5l-10 -3l-1 -10l6 -1q6 4 16 29zM153 568q-3 1 -5 2h-13l2 -8h11zM309 398h-12 v10h-15l-1 -10l7 6l6 -3l-1 -3l6 -5h3zM241 443h9l6 1q-9 3 -15 4v-5zM187 506v6l-1 8l-11 -5v18l-16 14v7l-16 3l-6 -5h-10l3 -19q6 -2 18 -8l-5 -3v-10h10l-3 10l6 6h11v-8l5 -8l-13 -2v-6zM312 375l2 4l-4 4l-3 -1zM187 489l3 5l-7 2zM319 350v11l-4 3l-10 -11zM175 491 v5l-3 3v-5l-4 -2l5 -1h2zM116 538v19q-1 -11 -7 -14zM293 348l7 1q-3 3 -7 4v-5zM275 366l4 7l-4 2l-3 -6zM98 538q-2 9 -4 14l-4 -7v-3l7 -4h1zM264 380q2 8 4 23l-6 8v8l4 7l-10 15l-7 -8h-1l-5 5h-20l-12 14l1 9h8l4 -20l6 9v23l-7 -3v-6h-6v3l-11 8l-4 -2l6 -14h-4l2 -2 v-6l-8 -3v11l-7 -1l-4 1v5l7 3l-7 6v7h9v5q-11 -3 -21 -2v-22h-3q-6 0 -19 -4l-3 7l11 6l3 15h-3l-2 -12l-13 -3l-3 8l5 2l-2 3v6h4v5l-7 2v8h-6l-8 -7l11 -3v-11l-5 -3l2 -13h6l3 -8l-16 -5l1 -13l4 7l5 -3q-1 -4 3 -12h-13l1 -9h9l3 -7h2q6 0 24 6l-12 -2l-9 1q1 5 -1 7h3 v12l6 2l50 -2l-8 -8l-2 -17q-8 -5 -19 -8v-7l10 -9v6h19l2 -13l-11 -7q-7 0 -22 7v-14h12l-4 -1l13 -2l12 3l4 -10l-7 -6l7 3q2 9 2 22l4 1l12 -6l5 10l-2 21h-10l-3 -10h-8l-4 12l-12 3l-2 2l14 4v-6l6 1l-2 2l15 3v12q4 2 9 3l15 -3q-5 -11 -9 -12l12 2v-11h-13l-1 -7 l1 -8h10v-8l-10 2v-5l4 -5l-4 -8l15 2v9h8zM357 269l-2 4l-2 -1zM186 438l-12 -11l3 -8l11 11zM262 350q-13 1 -19 3v-7h19v4zM167 429l1 5l-4 1zM341 263h-10l5 -8l3 2zM111 483l-2 -8l14 5zM227 353h5q0 7 -8 8zM116 443h1l4 5l-5 6v-11zM150 401l3 2l-7 3zM352 192l-4 5 l-4 -1q2 -2 8 -4zM347 218v11l-8 -1l-3 -4h-11l-3 18q-6 -6 -10 -18h-5l-8 5l2 -22l6 -2v5h5l3 -2l-3 -13l7 -8l12 2l2 10l-5 19h19zM309 178l-8 3l2 -10h-10v-9l14 4zM355 83l-7 6h-1l-6 -6h14zM131 218l-4 11l-6 -5l-1 -4zM103 253l-9 8l-10 -4v-6l15 -5l4 5v2zM281 38h2 l1 2q0 5 -6 6zM264 38l1 4l-4 4h-1zM131 181h-6l-4 -13h7l3 1v12zM119 192l-6 11l3 5l-10 -5l-8 7l2 14h-8v-4l-15 -10l-4 4l-5 -3l1 -3l-3 -5h11v-8l-19 -3v-8l3 -3l27 11l-4 -11h-7l2 -4h11v10q10 1 29 5zM130 150l2 7l-4 3h-1q1 -5 3 -10zM58 226l-7 10l-6 -10l10 -2v-6z M175 94l-3 -11l13 8zM233 42h8q-17 2 -31 2l-6 -3q7 -5 26 -5zM130 120l-3 8l-14 -3l-3 6h-1l-3 -6h-3v-5h27zM116 144l1 4l-4 4l-2 8q-10 -3 -17 -13l-4 9l4 4h-22l7 -4q-2 -9 -13 -12v-7l-3 -5l9 7l10 -2l-3 7l10 -1l1 -9h3l-1 3q17 9 24 7zM94 112v5l-4 1v-6h4zM82 112 v10l-4 3h-1l-4 -7zM82 96q-1 3 -3 5q1 -3 3 -5zM109 54q0 5 -5 5h-1q3 -3 6 -5zM106 692l-2 3l2 2l5 -3zM156 552l-3 -5v3zM156 538l-3 -5v5h3zM150 552l-2 -19l-4 3l2 2l-6 11zM135 538l2 -1l-6 -4zM227 427l-3 -4l-13 3l3 15h6l-3 -8zM186 461l-7 3l1 3q4 -3 6 -6z M193 448l-5 3l2 3l4 -1zM175 448h-2l-8 4l7 5zM230 385l-8 3l2 2h4zM318 214l-7 3l1 3h2l4 -4v-2z" />
<glyph unicode="T" horiz-adv-x="498" d="M523 848h-8l-8 17h-9v6l-3 4v4q1 0 3 1q2 0 6 -2q12 -6 19 -30zM507 820q-4 -11 -4 -37l-3 -3l-5 25l-12 7l12 8h12zM467 794l-9 -11l7 -17l-4 -37q2 -22 4 -65q-46 12 -101 12q-17 0 -21 -3l-9 8h-2l-6 -8q-3 5 -13 5q-10 1 -10 -5q6 -9 0 -26q3 -4 2 -6q-3 -4 -3 -5 q-3 -13 2 -38q6 -30 6 -38l-4 -1q0 -192 3 -199q-3 -2 -5.5 -6.5t-1.5 -4.5l1 -4l3 -17q-2 -3 -3 -102q-2 -101 0 -107l3 -2l1 -33q1 -17 -3 -50q-4 -38 -10 -47q-47 7 -127 7q12 104 13 268q-1 134 -1 269l2 125h3l14 -9l15 9l-28 3l-6 5l2 12q-36 0 -61 -3l-3 3l-87 2v84 l2 26q66 0 201.5 4.5t201.5 4.5zM405 737l4 2l-4 4v-6zM413 709v6h-20v5l7 3l-15 6l-5 -5l-5 2h-5l6 -8l2 1l4 -4l-7 -3l-1 -5l8 -4l6 6h25zM396 695l5 5v1q-2 1 -5 2l-5 -6zM374 731l3 5l-3 1v14h-2q-7 0 -26 -14h-23l-3 -8q6 0 17.5 2.5t17.5 2.5q8 0 19 -3zM363 709v5 l-3 1l-3 -3zM311 758l3 6l-5 2l-3 -5zM306 743v5h-3l-3 -2zM306 726l8 5l-11 4l-3 -6zM351 707v6l-11 -4h-12v9l8 3l-10 3l-11 -7l8 -2v-6q-5 -1 -21 -6q8 -2 32 -2l-6 -8l15 -4l-3 14zM252 778l-3 -7l8 4v1zM275 758v5h-19l-4 -5h23zM275 729l7 3l-6 5h-1v-8zM241 755l2 10 l-4 6l-3 -11zM256 726l4 3l-8 6v-2zM278 724h-22l-7 -4l3 -5l14 3l6 -1v-2l4 3zM204 768h3l4 2l-9 5zM283 678h-14l3 17h6v-14zM171 766l4 1q0 5 -8 8zM258 695l-2 12h-10v11h-5v-11h-12l7 22h8l-3 6l-28 -6l-9 6l-6 -6l-2 12h-9l4 -15l12 -3l4 -14h9v-3l-9 -5v-18l12 -2v8 l-5 2l2 7q12 1 36 5l4 -5q-7 -3 -12 -22h8l-1 6zM167 761l-3 -6q11 1 16 3zM233 686l-4 7l-2 -3zM278 633v4l-3 2l-3 -3zM229 676v4q-2 1 -4 1q-1 0 -4 -1q4 -3 8 -4zM191 715l-6 11h-9l3 -13l8 -4zM128 766h4q-3 5 -7 9zM167 743h-28l-2 -6l8 2l6 -4zM193 681l6 2l-8 10z M171 713q-5 9 -20 18l-7 -5l-16 3l-3 -9l3 -7l21 -4q2 0 10.5 2t11.5 2zM114 766l1 5l-3 4q-12 0 -12 -12v-5l-9 3l-2 10l-4 -4q2 -14 12 -14l9 2v11h8zM125 735l3 1q-1 4 -6 5zM156 698h10q-5 2 -10 5v-5zM117 735l1 5l-4 1l-2 -3zM298 599l-1 2l-5 1l-6 -3q-4 15 -13 15 l-4 -1l3 -8q-7 -4 -9 -3l-5 6l-2 -6h-10v9l-17 -3v-9h-13l5 12h-5v5q8 5 17 3l-3 4l3 10l8 -3v-8l4 -1l4 3l29 -2l-6 6l-11 -4l-3 6h1l3 5l-1 6l-25 -2v5l27 3v7l3 5v-9l9 -3l5 7q0 8 -8 10q-4 2 -14 2l-2 -5l-15 -2v-9h-2l-12 9q-8 -18 -23 -23q3 -8 6 -18q0 -23 -6 -23 l-2 1l-4 12l-4 -3l2 -17h11l2 -14q13 6 24 8l-4 12l10 8l6 -2l-1 -6l14 -3l-6 -12l4 -5q-7 -3 -32 0l-3 -15l-12 10l-2 -17h-5l-2 9l2 1l-6 7l-3 -15l-5 -3l-1 -3l11 -2l-2 -4l-5 -2v-11h-6q10 -11 8 -29l5 1l4 -1l5 -8l9 2l7 20l-4 9l17 6v-12h8l-8 17h-7q3 7 9 9l-2 3 l-17 -4v6l14 4l-6 5v5l9 7h3l22 -7l8 3l-6 14h15l3 9l-17 4q5 2 15 4q3 0 15 -2zM196 616l2 4l-2 4l-5 -7zM272 542l-8 5l3 7l-6 3l-14 -3l-3 -14h14v-9h8l3 6h3v5zM117 713v16h-28q-5 9 -22 26v-12q-4 -2 -9 -2q-2 0 -15 2v-8q17 0 34 6l6 -6l-3 -5l-3 -1l3 -27l-3 -1v-6 l9 -12l-3 15h6l-3 15h4l1 5l-2 1l8 7l4 -13l8 -4zM72 718l-3 11h-12v-16h10zM196 576l4 3l-7 7zM249 526l3 5h-6zM47 726h-7l6 -13zM239 498q-3 4 -6 6v-6h6zM249 472l12 6l-15 4zM263 447v5l-10 3h-4l3 -8h-8v5l2 5h-5l-8 -2q5 -14 16 -14zM292 407v17l-6 3l-8 -8h-12l6 11 l-6 5l-5 -8h-9v-5q-14 8 -25 11v11h-6l1 6l7 5v12l-27 5l-4 -3l4 -5l14 -3l-7 -9l-16 3v-5h9l2 -6l-6 -6v-3l18 4l1 -5l2 -1l-28 -26l2 -8l14 -2l-3 -10l12 5l3 -10l-15 -9v-7l3 -4l6 11l31 4v5h-20v5h15l7 10l6 -7h6q4 0 31 2l-3 12zM272 385l-6 2l-5 -2l2 -8l9 3v5z M289 315v7l-6 4l3 5h-28l3 8h25l-3 6l-8 -2l-3 7h11l3 7h-14v8l17 3q-2 11 0 19h-6l-2 -14l-9 1q-11 0 -26 -12l17 3v-8h-11l-3 4q21 6 44 6l7 -1q-18 -17 -91 -16l-2 -13h17l-3 -11l6 -4l6 4l3 -6h-15l2 -8q22 -1 24 -1q7 0 21 2t21 2zM239 365l-3 5h-9l-3 -5h15zM256 345 l-4 9l-7 -5l9 -4h2zM278 292l-12 3l6 2l3 8h-48l-6 -13l-12 3v-12l30 2v10l17 2v-5l-7 -4l2 3l-5 1v-7l23 3v-5h6zM275 250l-5 5l-4 -1q2 -3 9 -4zM278 208v9l-9 7h-3l6 -11l-8 -1l-2 -2zM249 230l1 5l-17 6l-6 -9l17 3zM278 196l1 5h-4l-3 -3zM239 246l-15 6l-5 -6l-11 -4 l-4 -10l3 -6l12 17zM202 243l2 10q0 2 -2 8l-4 -11l-7 -3zM252 210l-11 3l1 7q-5 5 -15 6l-6 -8l-2 3q-2 1 -5 1q-1 0 -5 -1v-11l-11 -6l46 4l5 -10l-13 -2v-6l9 -1l-18 -8l-3 -5h22q2 18 14 21zM281 150l-12 9l-6 -5l1 -3zM204 215v6h-2l-3 -3zM229 196h-16l3 -8h11z M269 117l7 -1l8 7q0 10 -15 10l-17 -3v-5l17 -2v-6zM258 150q-1 5 -2 11l2 12h-2l-10 -12l-14 6h-3l7 -8l-27 -3l4 -6h7q13 0 13 -8q-20 0 -35 3v-6l15 -3l-11 -16v-7l5 10l17 2v11l7 2l13 -5l12 3v6l-17 3l2 5h17zM275 86l4 8h-7l2 6l-2 6h-10l-13 -20h26zM237 100l-10 3 l2 -12l5 1zM283 66v2l-11 1v5l5 1l-8 4l-11 -5l-15 6q-18 0 -18 -8l14 -12v-6l-10 -2q0 -6 4 -9l-5 -6l8 -5l3 5l-6 6l13 6v2q0 2 -5 23h8l2 -5l-2 -3l3 -9l6 6l14 -3zM261 46q-3 3 -9 6zM266 41l-3 -6l10 3zM263 21v5l-5 11h-9l-3 -5l10 -11h7zM204 60l2 5l-4 1l-3 -3z M233 18l2 1q-4 3 -6 4zM219 35l-5 6h-1l-3 -2zM391 720l-3 -7zM227 726l-6 -6l2 5zM216 724l2 -3l-5 -3v4zM162 718l-7 2l1 4q4 -2 6 -6zM227 647l2 -3l-5 -3v3zM134 718l-3 2l3 4v-6zM219 624l-3 6l5 -2zM216 540l-7 -11l-7 3l7 8h7zM207 520l-3 4l3 2v-6zM216 504l-14 2 l2 5l5 3v1l6 -4zM271 397l-4 4v1l5 2l5 -2v-2l-4 -3h-2zM261 413l2 -9l-3 -2h-2v8h-6l-6 -3v4l3 2h12zM233 419l-8 5l4 3l4 -5v-3zM216 422l-3 -7q1 3 3 7zM207 404l-8 3l3 3l3 -1zM252 326l1 -3l-7 -3zM233 337h-9v5l5 6v-5zM233 297l-4 -9l-3 2q2 7 7 7z" />
<glyph unicode="U" horiz-adv-x="477" d="M361 34l-2 -9l-28 -11l-3 -6q-45 -15 -82 -15q-63 0 -95.5 14t-75.5 60v9q-26 27 -33 85q-2 23 -1 95l-4 4q6 16 5 42q-2 21 -3 42l2 2l-4 408q8 10 2 42q96 -3 120 0l9 -6l-2 -252q0 -19 13 -411l12 -4l2 -8l26 -14l5 6l6 -8q48 10 59 36q5 12 5 70h3q-9 41 -9 95 q0 33 4.5 98.5t4.5 96.5q0 9 -4.5 25.5t-4.5 25.5v247q35 0 130 -3l3 -590q3 -2 3 -9q0 -105 -63 -157zM480 -28l-9 8l6 3l4 -3zM466 -28l-13 1l5 7l11 -4zM58 -43q-29 0 -65 -11q0 18 0 17v13q0 21 6 46l-6 9l6 3l6 -17l8 -3q1 -11 6 -31l11 -3v-6q16 -7 26 -8zM373 744 l-3 12h-9q5 -3 12 -12zM370 725l5 6l-4 8h-1v-14zM333 750l7 2l-8 4h-1zM356 714q0 4 -3 6zM376 660l-6 6v17h-14l11 -23h9zM378 649l5 2l-5 4v-6zM333 688v1l-7 5h-1zM339 680q-1 2 -1 3l-5 3v-6h6zM367 641l-6 8v-11l23 -6h6q-1 2 -23 9zM337 641l-4 14l-5 3l-3 -6l6 -5 h-6v-6h12zM361 610l3 6l-3 3l-13 -2h-9l-11 2l3 13h-9l-6 -5l12 -12l-3 -5l3 -3l5 8zM356 591l3 -6l9 7q-2 1 -5 1q-2 0 -7 -2zM390 562v7l-6 1v-5q-4 2 -8 3l-6 -6l6 -3zM365 537v9l-4 8l2 15l-2 10q-7 -7 -8 -19q-1 -16 -3 -20l-13 -3l2 -6l-2 -16l8 -9l-12 -11h17v-6 q0 -1 -2 -5l2 -6l-5 -5l11 -4l3 15l-3 8l3 1v10h-9l12 12l-20 -1v9l6 2l-4 3l1 6l16 -3zM376 456l6 1v2l-9 5l3 11l-6 3l-3 -14v-6zM95 742l-3 14h-8l-6 -6v-11zM328 518h-17v-21l5 3v3h6zM114 700l-2 11q1 2 2 5h-8v-16h8zM382 441v6h-17l2 -6h15zM92 722q-1 3 -6 6z M322 489l4 6l-4 6v-9l-11 3l-2 -6h13zM390 416v3l-3 3zM333 464l6 8l-5 3h-3zM322 473h4q-2 3 -6 5zM390 399v9l-12 -3l1 10q0 18 -14 18l5 -6l-5 -5l3 -19zM92 688l-6 4l-2 5h3l-8 15l5 4v4l-9 2q3 -12 3 -20l-5 -8v-6h19zM322 458q0 2 -2 6zM140 630v1l-5 4h-1zM365 391 l20 -2l-1 2l-19 5v-5zM333 433v3l-5 3zM359 450h-14l-10 -4l10 -7l-3 -6l8 -3v-6l-18 -3l10 -5l-3 -8h-9l20 -6v-6q-13 -1 -20 -4q9 0 20 -4l6 20l-8 8l8 3v28h6zM95 677l-20 6l6 -8h5q-1 0 9 2zM101 664l-4 5h-22zM387 357l9 3l-12 5zM325 436v3l-3 2h-2l-9 -2l3 -20h6 l-4 11zM376 376h-15l9 -8l4 2zM86 649v6l-17 3l4 -11l-6 -6l3 1l5 -4l3 11h8zM322 410h-13l-3 -1l14 -4zM390 326l-6 11h-2l-4 -8h-4zM350 365v6l3 5q-4 5 -25 6v-17h9l-1 -8l1 -6h5v12zM361 337h7v2l-7 4v-6zM384 312v6h-19l2 -6h17zM320 379l-9 3l5 -15zM331 340l-1 4 l-5 2v-6h6zM384 284v1l-2 5l-3 -3zM314 351v3l-3 3h-2q2 -3 5 -6zM367 293l-8 10l-3 -13l4 -4zM382 267l2 5l-4 3h-2l-2 -6zM382 253l2 1q-1 6 -6 8zM348 295q-3 7 -9 8l6 -11h-12v-8l11 2zM142 484l8 2l-8 3v-5zM370 273l-14 2l-3 -11l3 -6l9 4l-4 7zM322 295l10 3l-10 3 v-6zM146 469v3l-4 6zM344 269l1 4l-6 5l-2 -5l5 -4h2zM148 467l-11 -7l-3 1l3 14l-25 6l-3 -8h17l5 -6l-4 -2l4 -7l5 -1zM345 264l-23 3v-9l22 4zM75 512h2l1 2q-2 5 -5 6zM146 433v4l-4 2zM345 241v9h-23v-9h23zM109 461l4 1l-4 7v-8zM81 492h-17l-3 -11l14 5l-2 -8l10 1 q-3 5 -2 13zM356 200h2q-3 2 -5 5zM112 447l-1 4l-5 1v-5h6zM348 219v11l-6 3l-9 -3l1 3h-3l-3 -11h-3l-5 -5q12 -3 17 -6v8h11zM106 439l-11 2l-3 -8l17 3zM376 166h-6l3 -11h4zM109 422v4l-3 1zM78 436l1 3l-5 2h-1v-3zM353 151l3 5l-5 1h-1zM142 354l8 7l-10 7zM328 183 h-12l6 -6zM361 129l-2 15v-9h-9v5l4 3l-1 6h-5l1 -4l-4 -10l5 -8zM129 371l-15 -5l9 -6l6 6v5zM339 144l-3 5l3 8l-6 3l-5 12v-12l-6 -3l-2 11l-3 -4l-1 -9h9v-6h-3v-5l4 -1l5 3zM84 396h-15l10 -6zM361 101l-5 9l-8 -6zM86 382l-3 3l-22 3l20 -9zM342 121l-12 5l-2 9h-6 l6 -15l11 -5zM148 301l5 1l-5 4v-5zM129 329l-6 17l-9 -3v-8h-8l-3 11l-3 -14l11 -8q12 3 18 5zM118 306l2 8h-11l3 -13h11zM103 298l3 6l-5 2zM118 284h2q-2 5 -6 6zM81 303l2 3l-5 3zM292 99l-8 5h-1q4 -3 9 -5zM146 230h2l3 3l-5 8v-11zM114 253l6 3l-6 6v-9zM101 269 l-4 -11l9 10l-4 1h-1zM286 67l5 5l-8 4zM112 236l10 6l-9 5h-2l-8 -4zM258 82l-3 -11h10zM118 202l-4 6v14h-5l-12 -3v-11zM142 168l5 2l-5 4v-6zM120 180l5 1l-5 4v-5zM118 155l3 14l-3 3l-4 -9v-5zM221 78l-28 4l3 -9l11 3l2 -5l-2 -4l3 -8l12 9l-9 -1v9l4 -1zM154 121 h-12v11l-16 3v-6h11l3 -6l-3 -2l3 -11l11 2zM202 65l-3 6h-12l7 17l-7 5l-5 -11l4 -8l-2 -2q-7 3 -21 10q11 -15 39 -17zM163 90v3l-3 2l-5 -2zM131 118v5h-2l-15 -2v-9l-5 -3l4 -3l5 1l2 11h11zM140 82l9 1q-2 3 -9 4v-5zM176 37l5 5l-4 1l-3 -1l-1 -3zM345 368l-3 2l3 4 v-6zM337 374l1 -2l-5 -4v5zM339 222l-5 2l5 4v-6z" />
<glyph unicode="V" horiz-adv-x="450" d="M419 803q0 -51 -23 -178v1l1 -31q1 -22 -54 -383l1 -32q1 -24 -7 -63q-8 -42 -8 -63q0 -16 3 -31l-9 -6l-2 -11l-9 -2q-29 0 -79 3q-58 3 -79 4l-6 6q-1 119 -37 314q-44 236 -52 313l-6 8q-4 63 -22 146h136q0 -108 40 -360l5 -6l3 -21l-1 -6l-2 -26l6 -3l5 -30l-5 -8 l5 -23l-5 -11l3 -6l2 1q10 -24 -3 -43l8 -9l-3 -9l1 -3l9 -4v11q-2 47 2 79l11 2q2 3 -1.5 6t-6.5 3v27l6 4q-1 9 -1 26q0 62 21 226l24 183q45 5 129 5zM335 672l-1 4l-5 2v-6h6zM327 652l-4 -13h2l6 5zM327 599l1 8l-4 7h-1zM321 505l2 6l-3 2h-2q1 -3 3 -8zM323 471 q-3 12 -8 12l-3 -12h11zM257 363l-9 5l6 -9h2zM184 359l3 6l-6 9h-11l9 -9v-3zM271 229l-12 6l12 -12v6zM243 220h4q-1 6 -7 9zM251 207l3 -1l3 5l-9 7zM184 279v11h-11l-3 -11l5 3l4 -3h5zM226 220h5l6 1l-11 5v-6zM179 259v12l-5 -9l4 -3h1zM243 198l-12 11v-17zM209 207 l-2 8l-3 -4zM203 195l3 1l-5 5zM201 128v7l-3 4zM198 111l4 3l-7 6z" />
<glyph unicode="W" horiz-adv-x="678" d="M317 517l-7 5l5 4l2 -2v-7zM292 534l-5 1l5 4v-5zM312 489h-3l-5 6l8 5l1 -7q0 -1 -1 -4zM292 485l3 2l12 -1l2 -2l-8 -3zM345 432l-10 3l2 2l7 -2zM343 395l-5 1q1 4 5 5v-6zM640 805l-2 -48l-6 -2l3 -17q0 -66 -20 -209q-19 -134 -36 -206l3 -9q-5 -11 -4 -50 q0 -35 -8 -42q0 -36 -8 -108t-8 -107q-22 8 -65 8q-57 0 -96 -10q0 20 -5.5 61t-5.5 61l-6 9l1 27q1 16 -15 81q-15 60 -11 68l-6 2l3 14l-5 3q-6 24 -6 58l8 3q7 0 5 -5q-3 -9 -3 -6l4 -6q9 0 7 5q-2 8 -2 9l9 9l-9 11l-11 -3v17l22 -6l3 6h12v16l-20 6l-3 9l3 5l25 -3h8 l-6 9q-14 -9 -57 2l-4 -8l12 -1l2 -2l-19 -2v16q36 0 59 -3l-6 9l-25 6l1 6l-1 5l-18 -4q4 2 8.5 -2.5t1.5 -8.5l-31 4l14 2l-14 25l16 3l-2 8l2 6h-11l-2 8l12 6l1 14q-4 1 -7 -3.5t-1 -7.5l-14 2l6 9h-16q1 -7 -3 -9q-4 -3 -9 3l-3 -18q1 -5 3 -6q2 0 5 1l3 1q1 0 1 -3 q0 -2 -1 -3h-8l17 -5l2 -11q-12 -7 -36 -9v-11l3 -6h19l1 -6l-1 -5q-15 -2 -33 0q2 6 -2 6l-7 -3l4 -3q1 -6 5 -13l17 5l8 -3l8 9l12 -3v14h8l-3 -25l6 -8l11 2l5 -6v-30q-5 -2 -4 -8.5t-2 -6.5q-2 0 -5 1l3 20l-5 5l-8 -3q-1 -1 3 -5.5t4 -5.5l-3 -1l-13 12v-11l-9 -2h17 q3 -3 1 -6l-4 -6l21 -22l-1 -14h-11l3 11q-10 2 -14 -3l-26 3l-2 -14q10 -2 47 -6v-4q0 -57 -14 -168t-14 -170l-5 -5q-3 0 -10 5l-35 -3v5q-52 2 -80 -7l-15 7l-5 -3q-14 1 -20 31l3 3q-2 34 -5 67q-3 43 -12 65l-5 2q0 49 -21 156q-20 103 -18 156l-6 3q-5 26 -7.5 77.5 t-6.5 75.5l-6 3q-3 18 -2 55l-5 6q2 31 -11 97h18l9 9h4l23 -5h73q4 -30 15 -76q-4 -3 -4 -11q0 -12 5 -36.5t5 -37.5q0 -8 -1 -16q-1 -3 6 -10v-17l5 -3l-3 -11q6 -17 12.5 -60t5.5 -62q-1 -11 -9 -6v-11h11l6 -39l-12 3l-3 25h-11v-9h-11v9l-11 2v12l-8 3l-17 -6v-9l14 6 v-6h11l-2 -11l-17 -13l-9 2v-8l14 -11v-3h-14v-8l9 -23q-4 -2 -6 -6h14q-5 6 -3 12h14l-8 -6l2 -8l11 -3l-2 -17q-1 -3 9 -3l5 1l-3 11h8l3 -14h6v25h11v11h8l9 -92l7 -2v66q9 1 9 6q0 1 -5.5 11.5t-3.5 18.5l6 6q-1 6 -1 18q0 36 7 87q8 55 16 70l-2 14l6 6q-1 14 2 38 q3 28 3 38q0 7 6 13q-3 13 -3 29q0 19 7 56.5t7 56.5h105l4 -52l5 -4q-4 -26 6 -38l-4 -9q0 -12 4.5 -34.5t4.5 -34.5l6 -6l-3 -17q0 -14 6 -46q7 -39 8 -46l8 -14l-3 -11l6 -6q-2 -5 -2 -13q0 -23 13 -44l-9 -9l9 -8q5 -26 2 -76l4 -11h8q1 -20 -3 -50l11 -5l3 52h3l-3 26 h6q-8 34 -3 58l5 3q-2 27 0 39l12 -3l3 6l-15 2q0 40 17.5 146t30.5 141l-13 26l4 38q27 6 38 6q61 0 93 -8zM296 360l-9 -7l-2 8l3 3zM181 404l3 -3l-6 -3v4zM173 404l-3 3l3 2v-5zM173 387l-3 -14q-8 16 -8 20q0 2 2 8q12 -1 16 -13zM92 -37l-8 9l4 2l5 -3zM570 696l5 1 l-5 4v-5zM326 782l-14 8l-3 -19h14zM563 543l-5 2h-1v-13zM535 534l7 2l-7 3v-5zM543 509l-3 6l-3 -3l-5 3l-2 -2zM513 523q-2 3 -6 5v-5h6zM362 640v9l-3 2l-1 -5v-1zM348 651v4l-3 2l-2 -3zM326 654l-7 9h-2l-2 -12h5zM520 454l-2 -6l12 -1zM339 637v6h-2v6l-3 2 q-8 -12 -14 -16l12 -9l2 11h5zM298 654h3q-1 4 -6 5zM529 420v3l-3 3zM370 573l-8 6l5 -9h2l1 2v1zM384 562q-12 3 -17 6l11 -14l8 5zM303 643h-5l-9 -3l3 -5h9zM315 613l10 1l1 2l-14 2zM526 415h-13v-3l11 -3zM393 534v1l-4 4h-2q3 -3 6 -5zM332 593v16l-9 -2v-9l-8 -2v13 h-14l-3 6l5 5h-16v-13l11 2l11 -22zM384 520h5v1l-5 5v-6zM359 562l-8 3l3 -6l-3 -5h-4h-3q-1 0 -6 -1l16 -5l2 -9l5 3l-5 3q0 2 -1 5zM343 559v6l-13 5l13 6l-4 6l-11 -3l-22 3l-11 -14l20 -6l-6 9l5 7l6 -2v-8l-3 -2v-4l9 -3h17zM557 328l-7 12l7 2v5h-6l-10 -9zM273 609 v10l-6 1zM485 392l-6 6v-6h6zM401 470l-6 6l3 8l-9 3v-2v-3q0 -2 -2 -15zM513 353l-4 -6l8 4zM337 520l-3 -5h12zM487 364l-5 14h-9v-11zM351 498v6l-3 2l-2 -5zM365 484l-1 4q-2 1 -5 1l-3 -1q4 -3 9 -4zM509 334v4l-2 1zM103 743h-9l6 -8l5 3zM417 420q-3 6 -3 12q0 2 1 5 q-5 4 -11 22h-6l3 -8l-7 1q-1 0 -5 -1v-6h9v-6h-11v-7h17l-9 -17l3 -2q8 1 19 7zM339 495l1 6l-3 3l-3 -4zM557 286l-14 3v-5zM139 718l-18 11l-13 -3l-8 6l-3 -4l3 -13h-6v-14l4 -4l2 1v9l14 6l3 8zM264 556l8 5v2q-2 1 -5 2h-3l-2 -4zM370 454l-3 -9h2l8 4zM153 663v4 l-2 1zM479 336l-1 6l-5 3l-3 -6zM393 409q0 6 -4 11l3 -1l2 4l-7 5v-16zM513 281l7 2l-7 3v-5zM120 683l-15 7l-2 -5l11 -9h2zM86 735h-9l-5 14q1 2 1 4q0 1 -1 4h-8l6 -25l-7 -13q0 -4 7 -12l-9 -6v-25l9 14l-6 6l6 2l9 16l-13 12h15l5 3v6zM136 659l-14 9v-14h12zM153 629 l3 1l-5 5zM156 615l1 5h-4zM426 339l10 3l-10 3v-6zM513 256l5 6l-5 2l-6 -6zM92 674l3 7l-5 1h-2zM100 657l16 1l-16 7l-6 -6zM389 375v12l-5 2l-2 -11h-6v9l-3 2l-11 -8q13 -8 20 -8zM406 347v5l-2 1l-3 -2zM301 448l3 6l-4 2h-2zM86 663l-3 -15l10 9zM439 312v7l-16 4 l-10 -8l13 -7l2 6zM315 423l1 5h-4zM145 585l-3 5l-22 6v11h14l-9 19l9 6v11q-6 2 -26 8v-14l-9 -2q7 -1 21 -6l5 -11l-5 -5h-9l-3 5v2l2 4q1 4 1 5h-17l1 -15q13 -3 16 -13l-17 -3l-2 -8l2 -5h11v8l23 -6v-8h14zM64 668l-9 2l3 -7l10 1zM301 428l-12 4l3 -9zM456 262l5 1 q-2 5 -7 6zM513 200l2 4l-11 10v-9zM170 551v5l-14 -2l-5 14l-12 2l3 -8l-3 -8zM406 314v5l-13 6v-17q2 -1 5 -2h6l-4 4zM426 286l-1 4l-5 2v-6h6zM518 225q-3 14 -14 14v-8h-11v5h-3l-3 -11h2l1 -8l-17 -12v-5l15 -4l-12 -2l3 -6l17 4l-3 15l1 7q8 7 13 14zM509 192l-5 -6 h14zM128 565l5 6l-5 2l-5 -6zM253 439l2 7l-2 2h-1l-4 -2zM384 308l-1 4l-5 2v-6h6zM470 231l-6 -15l4 -2l8 2v2zM145 537l7 1q-3 4 -7 5v-6zM173 515l1 6q0 1 -1 5l-9 2h-11q6 -5 20 -13zM275 406l5 2l-5 4v-6zM292 389l6 2l-9 4zM114 570q-2 9 -9 9v-6zM128 554v4l-3 1z M428 253v3l-5 2v-5h5zM125 543l7 1q-3 4 -7 4v-5zM136 526l12 2q-9 3 -14 4zM426 239l2 6l-2 2l-2 -5zM264 420l-25 3v-6h8l6 -8l3 6l4 -1l4 3v3zM175 487v13l-18 4h-4l-8 -4l11 -11l2 9l9 -3v-8h8zM142 517l-4 -4l1 -4l6 6zM258 381l5 2l-5 4v-6zM181 456v6l-6 8h-11v-8 l11 -6h6zM420 208v3l-3 3zM401 220l10 1q-4 3 -10 4v-5zM448 177v8l42 28q-21 -13 -47 -27v-9h5zM384 251l-6 2l-5 -8l9 -6zM476 147v8l-4 3h-2l-2 -8zM387 220l5 1l-5 4v-5zM156 473h-14l-6 -8l3 -6l14 3zM443 172h-23v9l8 2l-5 22l-3 -8h-14v-9l-8 -2v-5h11l6 5v-9l-3 -2 h5q4 -9 22 -14v7zM281 325v17l-17 2l-2 14h-9l5 -7l-2 -12h-5l-4 6l-16 2l3 -8l5 1v2l4 -5l-4 -6l6 -3l8 6l3 -9h25zM270 306l10 7l-16 6zM448 136v2l-4 4h-1zM462 108l8 3l-8 3v-6zM262 319q-11 5 -23 6l-3 -8l15 -10zM439 111l8 8l-8 8v-16zM502 69q-3 9 -6 9l-3 -1v-5 h-11l3 -11h8zM462 97v2l-5 4h-1zM278 292h-11l1 -15q5 5 10 15zM258 289v3l-5 3v-6h5zM111 437l-6 6l-3 -2zM273 258l-1 11h-5l-3 -13zM462 69l-1 6q-2 1 -5 2l-5 -5zM267 242l5 1l-5 4v-5zM245 269l-1 4l-5 2v-6h6zM434 72l7 1q-3 3 -7 4v-5zM287 214q-1 3 -6 6zM253 245v1 l-2 5l-5 -3zM275 214v2l-4 4h-1zM201 297l-9 15v-11h-14v-12q8 2 14 -3v11h9zM162 308v9l-4 6l1 -3l-3 -8zM107 356l-7 11l-4 -18l2 -3zM178 262l11 7q-6 12 -19 15l-8 -6l-11 3l13 -19v13h11l3 -6l-6 -4zM239 192v2l-5 3zM186 231l-2 -6l9 6l-12 11zM158 251l-2 5h-14l3 -5 h13zM195 200l-6 14h-5l2 -11l-19 2l-5 -2l8 -6h7q1 0 18 3zM151 242q12 -9 25 -22q-21 5 -30 16q2 1 5 1q1 0 5 -1l2 -8h-13l4 -9q-2 -12 -4 -19l8 -6l3 3v6l-8 2l14 6v6l-4 5q8 1 21 6q-9 10 -28 14zM275 97q2 0 7 2l-24 6v-5zM192 142v3l-3 -1l-5 6l-7 -7l4 -10zM234 83 l-3 -6l8 3zM167 86l-4 -5l1 -4l5 7zM267 331l-8 4v1l5 3l3 -2v-6z" />
<glyph unicode="X" horiz-adv-x="504" d="M459 6q-35 5 -134 0q-1 3 -24 68q-16 45 -16 68l-9 24l-5 2l3 9l-9 11v14l-9 12v25l-5 6v34l-6 6l-11 -3l9 -26l-3 -14q-3 -1 -5 -1q1 -5 2 -9q0 -6 -6 -7l1 -12q1 -10 -7 -14q-1 -3 -14 -54q-10 -34 -8 -51q-9 -10 -29 -88q-47 5 -71 3l-6 -6l-23 -1l-34 1q10 53 26 77 v14q9 5 40 106q35 112 42 127l-2 9q10 11 15 41t16 41v6q0 50 -23 68l3 6l-5 3q-2 19 -13 50q-13 35 -16 49l-6 3q-4 38 -28 99l-40 97l6 3h133q4 -7 6 -5l3 -35l6 -3q8 -34 20 -102l5 -3l8 -48l7 -3l-3 -11q4 -1 2 -13l1 -5l8 4q5 38 27 110t27 109l31 2l105 -2l-27 -88 q-21 -69 -32 -75l1 -8q0 -8 -13 -26l4 -10q-16 -49 -55 -146q4 -4 3 -6l-6 -8q3 -30 22 -80q21 -58 26 -80l9 -8q0 -25 15 -64q19 -53 22 -64h6zM72 410l-9 6l2 4l4 1zM325 598l-3 4l3 4l-3 6h-9v-14h12zM152 759l12 2l-12 5v-7zM154 746l8 2l-8 3v-5zM217 654l-1 4l-5 2v-6 h6zM265 549q-1 2 -1 3l-4 3v-6h5zM251 552l-3 6h-8l-4 -6h15zM152 629l-4 -6l11 3zM251 521v1l-5 4h-1zM208 501h1l4 4l-4 5h-1v-9zM291 362l8 2l-8 3v-5zM274 347v3l-3 3zM271 313l11 3l-14 11zM248 290v15h-8q1 -3 1 -6v-2q0 -3 -1 -7h8zM260 274q0 5 -6 5zM223 302v8h-18 v-5zM197 287h3l4 5v4l-4 3h-3l-5 -3z" />
<glyph unicode="Y" horiz-adv-x="438" d="M402 766l-30 -91q-21 -68 -21 -87l-33 -101q-1 -3 -5 -38q-3 -27 -12 -35l2 -9l-8 -6l-5 -27l-6 -2l3 -14l-5 -3q-5 -28 -3 -71l3 -72q0 -51 -3 -210q-45 13 -123 2v25l-11 6l2 277q0 27 -20 101q-20 79 -34 92q-2 24 -3 31q-3 19 -11 27q0 38 -28.5 116t-28.5 116l2 6 q40 -7 123 -3q7 -32 13 -64q9 -38 20 -62l-2 -11l8 -13l-3 -11q12 -7 14 -33l-6 -11l8 -5q4 -21 9 -36h6q0 18 4 49h17v6h-11l-2 17l10 27l19 2l1 2l-7 6l-13 -5q6 10 22 93h6q-2 6 -3 16q4 16 13 36l33 1h71l25 -1q-2 -7 1 -18.5t2 -14.5zM156 674l-6 4v-4h6zM189 534v5 q-14 0 -25 3v-6h14l2 -10l5 -1l10 6zM227 476q-4 6 -9 6v-3zM166 553l-8 5l-2 -5q-11 -5 -17 -10l8 -15q1 5 1 10q0 4 -1 12zM180 512v3l-5 3v-6h5zM158 518v8l7 5l-2 4l-7 -1v-14h-11l2 -6zM222 430v4l-4 1l-2 -3zM205 416l7 1q-2 3 -7 5v-6z" />
<glyph unicode="Z" horiz-adv-x="462" d="M419 816l-15 -2l-9 3q4 11 18 11zM38 831l-17 3h8l4 3zM15 828h-5l2 -3h-12v8l3 4l14 -3zM413 127v-49q0 -56 -3 -89h-9l-5 9q-12 4 -29 3l-29 -3q-26 0 -152 3q-95 3 -154 0q0 14 -2 44t-2 45q0 20 9 50q13 42 15 50q9 8 11 29l9 8q1 5 16 39q11 27 10 35l9 9 q3 38 19 49v14q9 14 21 43l6 3q9 18 41 101q34 87 33 93l14 17v12l17 26q2 -2 4 -2q4 0 4 10v4q-5 3 -11 3q-5 0 -15.5 -3.5t-15.5 -3.5h-172l-6 27q0 1 3 94l18 2l340 -2l7 -11q0 -8 -5 -23.5t-5 -23.5l3 -19l6 -4v-53l-9 -6q0 -8 -15 -40.5t-20 -37.5q0 -18 -16.5 -44 t-17.5 -42h-6q1 -7 -9 -32q-13 -30 -14 -36l-8 -6q-4 -26 -28 -63l1 -10q0 -10 -7 -10l-9 -26l-6 -3q0 -11 -8.5 -26t-8.5 -25l-5 -3v-11l-12 -18v-11q-32 -46 -28 -77l-21 -3v-14q6 2 12 -4q35 17 165 14zM453 130h-9q0 13 -7 37t-7 37v1h23v-75zM453 -13l-8 3l2 3z M238 748l4 11l-7 3l-3 -11zM241 705h3q-1 5 -6 6zM235 711h-17l3 -14l6 2zM206 433v-6l12 1zM229 385v6l-5 2v-8h5zM204 324v12l9 5l-12 4l-20 -4l8 -5l6 -12h9zM198 307l-3 9h-20v-6zM130 224l-4 -5l8 2zM147 133l-5 5l-13 -2l14 -3h4zM172 96l-2 14l-4 -14h6zM235 27l4 1 q-1 4 -7 7zM155 107v11l-12 3l-2 -14h14zM198 52l-3 6l-7 -3zM130 110l2 1q-2 3 -6 4zM98 136l-1 3l-13 3v-6h14zM143 90v12h-11l-10 -12l-15 3v-6h11l2 -6l12 6v6q6 0 9 -4zM84 104l2 -6l14 11zM120 62l-8 8l-3 -6l6 -6l5 -1v5zM89 58h5q-2 4 -8 6zM52 73h3q-2 5 -6 6z" />
<glyph unicode="[" horiz-adv-x="302" d="M286 671l-113 -6q7 -37 7 -119h-6v-11l3 1l3 -12h-5l-1 -11q3 3 6 -6h-6q1 -17 -2 -46t-3 -42l5 -11h6l-2 -14l-4 1q0 -34 2 -104t2 -104h-6l8 -18l-4 -22q53 -12 94 -8l-5 -15q5 -3 5 -8t-3 -5q-2 0 -3 1v-49h6v-9q-6 -11 -6 -14l8 -10l-6 -1v-27q-72 -5 -191 -5v6h-11 l-6 11h-5l-3 22l8 3l-1 11l-7 5v3h6v110h6v17l-12 6l12 16v5q0 6 -4 31q-4 20 -2 36q-7 -1 -7 3t7 2v55h3l3 12l-9 5l9 5l-3 10q3 1 2 5t-3 4l-2 -2l-4 15l6 7q-1 4 -5 8v19h5q2 29 -5 72l6 10q2 9 -1 12q8 30 -5 45h5v44q5 -1 6 3q0 4 -3 4q-2 -1 -3 -2q6 14 6 33h-6v11 l6 6l-8 8l8 6q-8 26 -7 35q1 11 5 6v66l5 5q25 0 76.5 4t78.5 4q26 0 44 -4l6 -12h6v-16h4q0 -13 -2 -38.5t-2 -38.5l8 -3l-8 -6z" />
<glyph unicode="\" horiz-adv-x="422" d="M349 14l-7 -7q-23 -1 -75 -20q-17 25 -30 78q-15 64 -23 82q-4 25 -14.5 72t-70.5 235q-52 167 -59 215l1 7q0 8 -7 10q-9 27 -22 77l8 6h14l3 7l12 -2l27 13l23 -16q12 -35 12 -43q0 -6 -2 -10l8 -22l4 -2q-2 -9 4.5 -28t6.5 -28l5 -4q1 -11 16 -55q13 -40 12 -48l4 -2 q8 -34 23 -103l5 -2q0 -28 14 -70q18 -54 21 -68l5 -4q9 -44 35 -130l5 -2q0 -21 9 -53q13 -44 15 -52l8 -8q-2 -3 1.5 -7t6.5 -3z" />
<glyph unicode="]" horiz-adv-x="274" d="M244 671q-12 -43 -6 -125h-6v-11l2 1l4 -12h-5l-1 -11q3 3 6 -6h-6q1 -17 -2 -46t-3 -42l5 -11h6l-2 -14l-4 1q0 -34 2 -104t2 -104h-6l6 -16h-6v-28h6l-5 -15q5 -3 5 -8t-3 -5q-2 0 -3 1v-49h6v-9q-6 -11 -6 -14l8 -10l-6 -1v-27l-5 -6q-16 0 -47.5 -1.5t-46.5 -1.5v6 l-96 1l-3 22l8 3l-1 11l-7 5v3h6q0 49 13 57q5 3 60 8l6 19l-1 8l-4 28h6v17l-12 6l12 16v5q0 6 -4 31q-4 21 -2 36q-7 -1 -7 3t7 2v55h3l3 12l-9 5l9 5l-3 10q3 1 2 5t-3 4l-2 -2l-4 15l6 7q-1 4 -5 8v19h5q2 30 -5 72l6 9q1 2 -2.5 5.5t-3.5 5.5l5 2q8 30 -5 45h5v44 q5 -1 6 3q0 4 -3 4q-2 -1 -3 -2q6 15 6 41l-92 5l6 6l-8 8l8 6q-8 26 -7 35q1 11 5 6v66l5 5q28 0 83.5 2t83.5 2l18 -2l6 -12h6v-16h4q0 -12 -2 -38.5t-2 -38.5l8 -3l-8 -6z" />
<glyph unicode="^" d="M331 653q-26 -2 -42 -2q-13 0 -39.5 1t-38.5 1l-11 29l-5 3v8l-12 6l-23 -48h-85q8 30 23 39q5 11 23 40v9l14 17q0 18 20 37h96q29 -53 80 -131v-9zM231 710l-3 6h-8l3 -8h5v-9l3 9v2zM211 730h-11l9 -5l2 4v1z" />
<glyph unicode="_" horiz-adv-x="400" d="M421 -72l-12 -4l-1 -5q0 -7 4 -17q4 -14 5 -17l-12 -9q-30 0 -41 -3q-14 -4 -35 -20q-67 8 -140 8q-7 3 -32 9q-5 -7 -60 -9l-10 5q-10 -4 -22 -11q-9 4 -22 4l-6 -4l8 -2l-12 -5l-6 7h-5l-1 4l-16 -2l-4 4l8 37l-8 2l-1 10q0 17 13 35l24 29q105 2 94 2h87q5 0 13 -3.5 t12 -3.5q12 0 34.5 3t34.5 3q16 0 47 -2t46 -2l4 -30h12v-13z" />
<glyph unicode="`" d="M260 667l-3 -6l-59 -1q-16 -1 -26 4q-18 20 -42 63q-17 9 -20 24q-19 10 -36 40l8 12q62 -9 132 -9z" />
<glyph unicode="a" horiz-adv-x="423" d="M366 45l-9 -3l-5 -26h-8l-10 -6h-7v12h-11l-3 -6h-11q-5 -3 -3 0h-8v-6h-9v6q-22 -2 -39 0l-5 6v16h-8v-5h-12v-11h-10l-7 -12l-5 1q-6 0 -26.5 -3t-34.5 -2l-3 -6v6h-19q-13 9 -36 30v9l-12 8v17h-5q-11 39 -11 83h-6l6 2l1 30l-1 13h-6v10l-5 3h11v55l8 4v19l6 2v15 l10 8q3 27 11 32q15 8 23 21h11l6 11h11l6 12l28 4l5 12h11v11h11l22 22v17l12 -6q-1 15 -6 45h11l6 5l-6 6l-6 -6h-5l-6 28l-22 6l-5 -6v6l-6 -6h-22l-6 -22l6 -8v-3h-6q-4 -2 0 -22q3 -19 6 -23h-6v-22l-5 -6h-28l-3 -11l-14 3l-2 12q-9 2 -24 0q-19 -2 -24 -2l-16 7 q0 12 -1.5 36t-1.5 36l3 25h5v17h5q5 17 9 25l-3 8l8 3v8l17 17h8l3 12h17v5l22 5v6h17l3 6l25 -6v6h75v-6h22v-6l23 -5l5 -12l17 -2l5 -20l12 -8v-14l5 -3v-38h11q-6 -25 -6 -40h6q-3 -11 -6 -33h6l-3 -81l8 -2v-8l-2 -12l-6 -3q12 -24 6 -64h-6q9 -17 8 -30l-2 -47l-5 -2 l5 -15h-6v-19h6v-12h6q3 -11 3 -25q0 -8 -3 -34q-2 -22 0 -35h5v-19zM246 534q-1 3 -5 5v-5h5zM280 490l-1 3l-5 2v-5h6zM263 483q-2 7 -6 7v-7h6zM241 311l-3 6h-14v5q-10 1 -11 1l-12 -1l9 -11l-5 -11h-6v-11l-17 -6l-5 6v-39h-6v-5h6v-34h-6v-17h4l2 -5h-6v-6l11 -5 l-5 -6q0 -28 11 -50h5l5 -5h1v11h17l5 16h6v11h6v23l-6 5l5 3l1 8q-3 8 -6 17l5 3l1 8h-6v40l-6 4l12 6v11l-7 9l4 14zM213 262l2 -3l-5 -3v4z" />
<glyph unicode="b" horiz-adv-x="457" d="M390 92l-9 -2v-30l-22 -34h-11l-11 -16l-9 1l-7 -7h-22v-5h-25v5h-28v6h-11v6h-11v5l-17 16h-13l5 -27q-17 -6 -42 -5l-43 2l-3 -6q-39 -1 -39 37q0 42 1.5 125.5t1.5 124.5l-5 8q0 38 4 130q3 83 3 130q0 78 -7 138l-6 2v72l-6 4l6 4v9l-3 1l3 7h39l3 6l2 -6q28 6 83 6 l1 -34l-1 -10h-5l-3 -25l8 -9l-3 -10h-5l4 -13l-4 -15h5v-116q25 1 25 16q0 5 -2 12h10v5l30 6v5l15 2l19 -7l8 5v-5h17l2 -9h12q18 -18 30 -21v-12l11 -5l-1 -7l7 -4l5 -39h5v-61l6 -2h-6v-9h6q0 -21 -1.5 -63t-1.5 -63q2 -1 4 -3q-2 -6 -3 -1q-1 -15 -1 -74h6 q-4 -6 -4 -22q0 -11 2.5 -34t2.5 -30zM315 501q-1 3 -5 5v-5h5zM348 452h2l8 1q-3 2 -10 3v-4zM287 506l-8 6h-3l1 -3zM238 551l-1 3l-5 2v-5h6zM354 437l-17 3v-5l11 -6l6 3v5zM287 484l4 10l-4 2l-3 -8zM293 452l6 -12l6 1l1 2zM321 418l4 2l-4 4v-6zM310 429l-1 4l-5 2 v-6h6zM331 380l5 1l-5 4v-5zM321 374l4 2l-4 4v-6zM291 324v5l-4 1l-2 -3zM312 241q-1 4 -5 6v-6h5zM274 120l-6 6v33h6v4l-6 1q0 17 6 50l-6 22h4l-4 16l3 -1l3 13h-6v55h-5v13l5 14q-3 8 -3 15l1 13h5v4l-5 2v72h-6v38l-11 6l1 5l-1 5h-11v-5h-17v-5h-1l-4 5l-17 -5v-12 h-5v-32h-6l-1 -22l1 -12h6v-17h-6q-3 -36 -2 -48v-17h5q5 -37 0 -144h5v1l-1 -2v-7v-26q-1 -6 1 -16h6q1 -9 5 -22h12l16 -22l6 6h16l11 16h6zM296 186v8l-3 3h-2v-11h5zM291 71l4 1q-1 3 -4 4v-5zM175 98l-5 -1l-1 -5q12 1 21 3l-15 9v-6z" />
<glyph unicode="c" horiz-adv-x="484" d="M396 124h-6q0 -29 -6 -40h-6v-11h-4l1 -11l-1 -6l-18 -5v-7l-11 -5v-5h-11l-5 -12l-18 -6v-4l-17 4v-4l-44 -6v-6l-6 6h-39v6l-17 -6v6q-26 0 -56 10v6h-11v11l-17 5l-6 23h-6v12l-10 5l-6 28h-6l6 23h-6v56l-3 -1q-4 0 -3 4t6 2q-9 25 -10 40l9 1l1 4h-6v67l6 6h-6 q0 11 -1.5 34t-1.5 34q0 23 9 39h-6l-2 57l2 27h6v28h6v17h6l-1 6l1 5l10 6v11l12 6v11l17 11v6h11v5l22 7v4h17v6q19 3 56 0l3 6l8 -6h23v-6l45 -4v-7h11l12 -16h10v-6l17 -11l6 -23l12 -5l-1 -6l5 -9q-2 -3 -2 -14q0 -59 14 -100l-12 -11q-9 2 -27 3h-3l-10 -1l-44 -2v5 h-22v6l-11 19l5 9l-5 5l17 17l-23 11v-1l1 4v15l-6 5v11l-17 11l1 3q0 7 -12 -3v6h-17l-6 -11h-5v-12h-6v-44h-6q3 -12 6 -40h-6q6 -7 6 -33q0 2 -2 2q-1 0 2 -8v-12h-6l6 -5v-62h-6q6 -23 6 -106h6q2 -19 0 -56l-6 -6l11 -6v-11l17 -11v-6h11l6 -16h5l6 16h11l6 23l11 5 l-6 12l6 28h-2l-4 5h12l-12 79q9 9 39 9q-49 -1 39 -1q27 0 52 -8q0 -57 -6 -62h6v-34l-3 1q-4 0 -3 -5q2 -4 6 -1v-39zM329 123q-6 1 -11 3l2 2l7 -2zM413 532l-1 4l-5 2v-6h6zM385 555l-1 3l-5 2v-5h6zM374 560l-1 4l-5 2v-6h6zM379 544q-1 3 -5 5v-5h5zM407 521h-10 l5 -11h2l3 3v8zM390 527l-11 5v-11l11 3v3zM351 544q-6 7 -17 16v-5l-5 -3v-8l6 3l-1 2h12v-5h5zM413 465l-1 4l-5 2v-6h6zM385 482q-1 2 -1 3l-5 3v-6h6zM385 460l-1 3l-5 2v-5h6zM222 392q-1 3 -5 5v-5h5zM413 201l-1 4l-5 2v-6h6zM424 179q-1 3 -5 5v-5h5zM397 196 q-3 3 -7 5v-5h7zM234 347l-1 3l-6 2v-5h7zM385 156l-1 4l-5 2v-6h6zM397 140l-1 8l-6 3v-11h7zM402 117q-1 2 -1 3l-4 3v-6h5zM385 106q-1 2 -1 3l-5 3v-6h6zM227 151v3l-5 2v-5h5zM217 134q-1 2 -1 3l-5 3v-6h6zM205 140v3l-5 2v-5h5z" />
<glyph unicode="d" horiz-adv-x="457" d="M384 420l-8 -3v1v-2l1 -9q3 -75 -1 -91l6 -5l-6 -3q0 -27 4.5 -88.5t4.5 -92.5q0 -51 -9 -85l-27 -19l-3 -14h-5l-3 8h-16v-5q-22 6 -60 0v5l-11 6v10l5 6h-16q-17 -33 -77 -33l-32 3v6h-11v5h-10l-6 11l-11 5v6h-11v10h-5v12l-6 2v19l-5 3q0 7 1.5 20.5t1.5 19.5l-8 4 l2 29h-5l-1 20l1 11l5 -4l-5 28h5q0 42 -5 60l8 5l-8 3l3 89l-6 3l5 10l-5 10l6 2q-2 43 2 128h6v27h5v11l11 5v11h5v11h12q14 28 66 28q38 0 38 -16l-7 -3l8 -6l6 8h13l8 -14h6l-8 -5v-3l2 -5l20 2l-6 23h11l3 10h-6q0 17 -5 49.5t-5 48.5h5q0 71 -3 92h71l3 6q6 -4 35 0 v-6h13l8 -8q-5 -14 0 -38h-3q1 -6 3 -14h-5l1 -206h4q1 -8 -1.5 -22t-2.5 -19h4v-65zM387 6h-15l-17 2l23 12l9 -5v-9zM335 594v1l-2 5l-3 -3zM330 540l-1 3l-5 2v-5h6zM302 556v3l-5 2v-5h5zM254 545l3 9l-3 2l-4 -9zM308 474v6l10 4l-10 1l-6 -11h6zM297 491q-1 3 -5 5v-5 h5zM218 556l2 1l-5 4zM242 534v4l-4 2v-6h4zM319 452l4 2l-4 4v-6zM314 441l4 2l-4 4v-6zM297 452q-1 4 -5 6v-6h5zM322 420v7l-3 4zM210 532v9l-3 4h-2l-6 -9zM283 425l-2 6zM302 414l-6 -14l4 -2q6 9 9 16h-7zM283 409v4l-2 1zM297 387l-19 5v-10h5l15 1zM281 196v12 l-11 -6v-6h-11v-4h-11l1 4h5v17h5l-4 17l4 5l1 8l-1 19h-5l-1 10l1 23h5l-5 8l2 19l6 6h11v4h-17l6 44l-4 1l-2 5l7 8l-7 8v16h17l5 11q-12 -3 -18 -6l-4 1q-9 19 -2 48l-6 6h-16l6 22l-17 5l-6 11h-4l-1 -5l-7 -1l-15 6v-21l-10 -3l5 -6q-6 -37 0 -54l-17 -5l12 -14 q-5 -8 -5 -20l1 -21h6v-7l-6 -12l6 -3v-16l-6 -6q8 -11 8 -45q0 -15 -2 -23l-8 -5l1 -3h5v-38h5v-8h-5v-24h5l-4 -10l4 -1v-11l-6 -3l6 -2q2 -18 5 -33q7 -2 36 -6v14l3 1l3 -1l4 -6q12 14 14 39h11l-5 5v16l11 6l5 10h11zM286 229q-1 4 -5 6v-6h5zM324 186v10h-10v-10h10z M112 379h6q0 5 -8 11zM308 175l-6 11h-16v-11h11v5l5 -1v-4h6zM319 126l4 2l-4 4v-6zM150 221v8l-3 3h-2v-11h5zM240 99q0 4 -2 11zM104 124l2 6v1l-3 3h-1zM213 482l3 -2l-6 -6z" />
<glyph unicode="e" horiz-adv-x="480" d="M419 399l-2 -6zM384 349h-6v-56l-5 -5h-23v11l-7 1q-15 -12 -22 -13q-2 0 -27 1v5l-10 1l-22 -1v-11h-6l-6 -11l-9 1l-7 -1l16 22q-6 0 -18.5 1.5t-18.5 1.5l-18 -3l-5 -5q3 -20 0 -51q-4 -41 -4 -51q0 -18 4 -31h5v-12h6l5 -27h28v5l11 6q1 4 5 50l-5 5h5v45h123l5 -6 v-22h-5l-1 -21q1 -19 1 -57h-6v-22h-5l1 -13l-1 -9h-6v-11l-11 -6l1 -6l-7 -5l-5 -11h-11l-6 -11l-23 -6v-5l-9 1l-7 -7q-11 0 -32 -3.5t-32 -3.5l-19 2v5h-17v6l-16 -1l-12 1v5l-22 6v6h-10l-17 22h-6l-5 22l-17 5v11h-6v28h-5v44l6 5l-6 2q0 -1 2 64q2 38 -2 63h-6v22h6 v28l-3 -2q-3 0 3 14l-5 8l5 2v94h5v23h6v22h-6q0 11 17 44l-6 6l12 5v12l16 11l6 16h6l10 17h11v5h17v7h11v4h34l2 6l15 -6v6q10 0 30 -3t30 -3v-4l10 1l6 -8h12v-5h11l6 -11h11l11 -17l11 -5v-11h6v-12h5v-11h6v-11h5v-38h6l-5 -16l5 -1v-56h-6l6 -17h-6v-13l6 -9l-6 -5 q-4 -28 6 -39zM256 405l-6 16h6q0 10 1.5 31t1.5 32q0 12 -3 26h-6q-1 9 -5 23h-11v4h-23v-4q-1 -1 -10 -17h-6v-45l-5 -6h5l-5 -5v-33h5v-3l-5 -9l5 -16q17 -1 50 -6zM150 199v3l-5 3v-6h5zM245 399l-12 4l7 2l2 5l3 -5v-6z" />
<glyph unicode="f" horiz-adv-x="252" d="M59 707h6v44h5l-1 10l1 6l22 16v5h16v6h22v5l103 -4v-108h-27l-6 -12l-21 4l-2 -12l2 -63l10 -4l22 4q-4 -20 -4 -54q1 -41 0 -54l-22 5l-6 -5v-503l-8 -5q-36 6 -112 5v302h6l-6 22h6q-10 24 -4 24q1 -1 4 -3v27h-6l6 27h-6l1 9l2 2l-3 27l7 8l-7 8l5 15l-5 2v54l3 -2 q4 0 3 7q-2 6 -6 1v184z" />
<glyph unicode="g" horiz-adv-x="468" d="M390 -71l-17 -5l9 -17l-4 -12l-11 -6v-11l-17 -12v-5h-12l-5 -12l-29 -5v-7h-18v-5h-46v-6q-15 7 -63 6v5h-23v7h-23v5l-29 17l-5 12h-7l-5 11h-6q-5 8 -11 40h-6v52q15 6 57 6v-6l23 7l18 -1v-6h34l6 -45h11v-7h12l-1 -2h14l10 2v12l12 6l3 29q0 19 -3 63l-12 -6v-11 l-23 -6v-6q-7 -1 -22 0q-19 2 -25 2q-18 0 -27 -8l-7 1l-5 11q-14 1 -35 6v6q-12 7 -28 23v11h-6v11h-6v29h-6v351h6v3l-1 9q-1 30 1 52h6v28h6v18h5l-1 11l1 6l30 29l22 5v7h17l3 5h15l-1 -3q0 -7 26 3h-2v-5h17v-7h17v-5q21 -8 35 -24h5v29l98 -2l17 2l6 12h6q7 -29 7 -67 l-1 -59h-6l7 -30l-7 -17h6q0 -74 -6 -122l6 -10l-6 -12h6v-45q-2 3 -4 3q-3 0 -1 -9l5 -29l-6 -2q2 -2 3.5 -4.5t1.5 -3.5q-1 -2 -5 -2v-120h6l1 -12l-1 -28q-6 -3 -8 -32q-1 -21 0 -56q2 -43 2 -40zM275 229h-6v12h-6q-3 11 -2 28l2 29v144h-5v29l-12 6v11h-6l-6 12h-11v5 l-12 6v-6h-11v-5q-11 -7 -11 -29h-6q-5 -28 -5 -63q0 1 5 -104h-6l2 -5l4 -1v-161h6v-17h5v-6l6 -6h23v6h11v6q11 6 12 17h6q6 17 6 46h5v34h6zM108 131q-1 2 -1 3l-5 3v-6h6z" />
<glyph unicode="h" horiz-adv-x="452" d="M385 556l-5 2l5 4v-6zM401 507l-22 10l-3 -205l5 -1l-5 -5v-90h5l-11 -5l6 -6v-72l5 -5l-11 -6q6 -19 5 -40l-2 -78q-32 -8 -68 -8l-24 3l-5 11l-10 -1l-13 7v78l6 6l-6 11l6 5v17q-4 -3 -5 14q0 13 -1 25l7 6l-7 16h6v17h-2l-9 -6v17l11 6q7 32 7 87q0 92 -4 147h-5 l-6 34h-11l-6 21l-5 -10h-12v-6h-11l-5 -17l-12 3l-10 -45q-5 -26 -3 -45l2 -2q-6 -17 -6 -227q0 -46 9 -77h-6q-9 -31 4 -71l-6 -12q-34 -8 -52 -8l-29 9l-11 -7l-8 6l-9 -6v6l-11 5v17h5q-6 32 -3 38q1 3 3 0v140l-5 6h5l3 61l-8 11q6 14 8 34h-11l-1 18l1 10l11 5v203 q11 3 0 20q12 18 12 68q0 25 -4.5 75t-4.5 75l9 2h113l3 -26q0 -14 -2.5 -41.5t-2.5 -40.5q-13 -3 0 -23l-6 -2l6 -11q-6 -13 -6 -40q5 1 6 -4q1 -4 -0.5 -9.5t-2.5 -8.5l-3 -1l6 -13l-9 -9l-2 -18v-4l16 6v17l5 2l12 -8l6 11h5v11l23 6l11 17h14l-3 5l13 1l26 -1v-5 q14 2 22 -6h11v-5h11l6 -12h6v-11l11 -5v-12l11 -5q-8 -11 -6 -17l12 -6q7 -14 16 -21z" />
<glyph unicode="i" horiz-adv-x="252" d="M185 654l-6 -6h-22q-5 3 -11 6v-6h-33v6h-50l-1 4l-5 1v72h6v6h-6v44h6v5h66l3 6l9 -3v-3h16v-5l6 -6l22 11q0 -9 -1.5 -27.5t-1.5 -27.5q0 -16 3 -28h-6q3 -16 6 -49zM179 559h-6q2 -24 0 -45h-4l-1 -17l1 -11h4q0 -6 1 -18t1 -18l-2 -19h-4v-33h4l2 -21l-2 -12l-5 -5 l5 -18h-4v-111h-6v-27h6l-6 -22l4 -3q0 -11 -4 -25l6 -6l-4 -3l4 -24l-6 -6h6l-1 -23l-16 -10v5l-12 -8l1 -3h16l6 -6v-11l6 -5q-5 3 -5 -18q0 -28 -18 -38v-5l-11 -1l-11 1v5l-22 2q-28 0 -50 -7q-3 46 -11 139h5q5 24 3 61l-3 61l11 5v5l-5 1v17h-6l-2 22q0 5 1 14t1 13h6 q0 8 1 24.5t1 24.5l-2 23h-6v17h6v28h-3q-4 0 -2 5q1 5 5 1v32l5 6h-5q4 18 -6 28h6v72h44v-6l13 7l9 -7v6h28l3 6l3 -6h27l-6 -6l6 -5v-22zM129 331v5l-5 1v-6h5zM118 170v9l-5 3v-12h5zM129 93h-16q1 -9 5 -24l6 1zM101 70v6h-16v-6l20 -3zM90 48q-2 6 -8 6h-2v-3z" />
<glyph unicode="j" horiz-adv-x="252" d="M196 666h-5v-5h-11v-6q-6 9 -25 9q-15 0 -39 -1q-31 -2 -39 -2q-3 11 -3 34q0 12 5 102h41v-6q15 -2 33 -2q17 0 43 2v-125zM191 -11h-6v-44h-5l1 -10l-1 -6l-22 -16v-5h-16v-6h-22v-5h-87v54h5q2 7 -2 7q-1 0 -3 -2v49h27l6 12h5q6 25 6 133q0 72 -4 214t-4 213 q0 20 2 30l8 5q30 -5 112 -5v-206h-6l6 -22h-6q7 -16 7 -26q0 -2 -1 -2q-2 1 -6 7v-27h6l-6 -27h6l-1 -9l-2 -2l3 -27l-7 -8l7 -8l-5 -15l5 -2v-54l-4 1q-2 0 -2 -5q1 -4 3 -4t3 2q0 -19 1 -58t1 -59q0 -22 -2 -67z" />
<glyph unicode="k" horiz-adv-x="480" d="M405 2h-11v-5l-38 -2l-76 2v5q-12 7 -17 32h-5v11h-5l-6 22l6 11h-6v11l-17 11l3 18l-7 31h-12v27l16 5l-3 11l9 21h11v12h11l11 16h-22v-5l-21 -6l-6 11l-16 5v22h-11v27l-6 -6h-27v-10h11l-2 -26l-3 -1l-6 -16l2 1l4 -12h-16l-4 -14l14 2v-4h6q8 0 7 -24l-2 -36l-5 -6 l11 -6q-8 -19 -8 -52l2 -18h6l2 -37l-2 -17l-11 -6v-5l-22 -3q-12 0 -43 3v5l-33 -5v5h-11l-1 34l1 15h5q2 27 0 38l-6 6l6 16h-5v27h3l2 11h-5l-1 201q0 13 6 65h-5l5 5q5 25 -5 44h5q-4 25 -4 35q1 7 4 3v190l6 7q-6 11 -3 11q1 0 3 -2v33h-6l-1 11l7 32h22l2 6l3 -6 q6 0 30 1q17 1 28 0q15 -1 29 -6v-11h5v-32h-5q-4 -18 -4 -41q0 -14 3 -49q2 -31 2 -48l-1 -14h-5v-39h5v-16q-5 3 -6 -11q-1 -10 0 -29q1 -23 1 -20l5 -5l-11 -4l6 -1l-11 -33l11 -6l1 -9l-7 -7l-5 -21l13 -3l14 3v10h5v17h11l-5 5l5 5v22h11l6 6v27h4v17l17 10v11l-5 5h11 l-6 17h6l5 21h5q3 14 5 19q4 10 12 14v6l21 2l44 -2q-3 -6 11 -7q10 -2 29 -1l20 2l-6 -27l-11 -6v-11h-5l-5 -16l-12 -5v-11h-5l1 -10q-9 -5 -12 -28h-5v-11l-11 -5v-27l-16 -12v-10h-6v-11h-5v-11h-5v-11h-6v-11h-6v-10h-5v-17l-5 -3l5 -8v-16h5v-11h6l-1 -10l7 -7v-10h5 l-1 -13l1 -9h5v-11h6v-16h5v-17h6v-16h5l5 -27h6v-16l11 -5v-16h5l5 -33h6l-1 -10l7 -7l5 -32h5l11 -33h6v-16zM201 149l2 -3l-5 -3v4z" />
<glyph unicode="l" horiz-adv-x="232" d="M186 671q-12 -43 -6 -125h-6v-11l3 1l3 -12h-5l-1 -11l6 -6h-6q1 -16 -2 -44q-3 -31 -3 -44l5 -11h6l-2 -14l-4 1q0 -34 2 -104t2 -104h-6l6 -16h-6v-28h6l-5 -15l-1 -12v-49h6q2 -9 -6 -23l8 -10l-6 -1v-27l-5 -6q-16 0 -47.5 -1.5t-46.5 -1.5v6h-11l-6 11h-5l-3 22l8 3 l-1 11l-7 5v3h6v110h6v17l-12 6l12 16v5q0 9 -4 33q-4 21 -2 34l-7 3l7 2v55h3l3 12l-9 5l9 5q-4 10 -10 32l6 7l-5 8v19h5q2 29 -5 72l6 9l-6 11q7 0 7 12q0 8 -7 35h5q0 14 3 41.5t3 40.5h-6v11l6 6l-8 8l8 6q-8 25 -7 35l5 6v66l5 5q13 0 40 3t41 3l18 -2l6 -12h6v-16h4 q0 -12 -2 -38.5t-2 -38.5l8 -3l-8 -6z" />
<glyph unicode="m" horiz-adv-x="648" d="M593 488h-6q2 -18 -4 -31l4 2v-9l-6 -9q6 -18 6 -48v-49h-6v-188l6 -6l-12 -5l6 -6l1 -28l-7 -23h6v-92h-23v5q-30 -2 -91 0l-5 12h-12v30l5 10l-5 12h5v56q1 1 2.5 3.5t1.5 3.5q-1 1 -4 -1v46l7 12l-7 5v40h7l-7 18h7v85q2 -3 3 -3q3 0 0 8q-3 10 -3 12v11l5 6l-5 29h-7 l7 17l-7 5h7q-6 25 0 52l-7 6v22l-11 6v12h-23l-6 -12l-16 -6v-10l-12 -7q-3 -10 0 -45h-5q5 -20 5 -126h-12q7 -18 7 -51h-7l8 -17l-8 -17h12l-5 -29l5 -6h-5l5 -5v-12h-5v-12l-7 -11h7v-91h5l-5 -18h5v-33q-21 -7 -68 -7v7h-24l-5 -7v7q-29 -4 -35 5v28h6l-6 12h6v40l-6 6 h6v69h-6q10 17 6 68l6 5l-6 6l6 17h-6l-6 12l4 3l-4 8l18 6v6h-6v22h-6v23h6l-6 6q4 12 4 35.5t2 32.5l-6 6l6 23h-6v18l6 5h-6q0 34 -11 46h-17v5l-11 -11h-12l-11 -17h-6l6 -12q-11 -21 -11 -30q0 -6 5 -4l-6 -23l6 -8l-6 -3v-52h6v-17h-6q2 -27 0 -39h-6l-6 -18h12v-17h6 l-6 -6v-108l-3 2q-4 0 -3 -7q2 -6 6 -1l2 -109l-2 -16h-6l-6 -12h-16l-6 6l-6 -11h-23v-7l-5 7h-1l-5 -7q-17 3 -51 7v62h5v18h-5l-2 19l2 20h5v394h6q6 20 -6 35h6v22h-6v47l6 5h11v6q9 -8 51 -8q50 -1 58 -3v-35l11 6v11h6l12 18h11v5q14 0 43 3t43 3v-6h16l6 -11h12 l6 -12h11v-17h5l7 -17h5l6 23h6l11 17h11v6h12v6l34 5v6h17v-6h29v-5h29v-12l28 -17v-12h5v-11h6v-17h6l-6 -6v-17l6 -6v-34zM513 527l7 9l-7 9v-18zM530 488l-1 3l-5 2v-5h6zM542 465l-1 3l-6 2v-5h7zM478 493v8l-3 3h-2v-11h5zM530 447l-6 12q-5 1 -19 1l-10 -1v-6h12v-6 q6 3 17 6v-6h6zM535 413v8l-3 3h-2v-11h5zM513 436v5h-18l6 -11zM501 413l-1 3l-5 2v-5h6zM570 339l-1 3l-5 2v-5h6zM530 373l5 -12l6 1l2 3zM484 413l-1 3l-5 2v-5h6zM542 339l3 10l-3 1l-5 -10zM507 373l-12 6l-3 -2zM507 350l-1 4l-5 2v-6h6zM478 373v4l-5 2v-6h5z M501 339l-1 3l-5 2v-5h6zM490 350l-12 6v-12l11 3zM535 225l-8 5h-3v-2zM542 201l-1 4l-6 2v-6h7zM513 225q-6 5 -12 5q4 -3 12 -5zM542 179l-1 3l-6 3v-6h7zM495 225v3l-5 2v-5h5zM501 207q-1 2 -1 3l-5 3v-6h6zM513 196l-1 3l-5 2v-5h6zM524 179q-1 2 -1 3l-4 3v-6h5z M530 116l-9 5l-6 -1q6 -1 15 -4zM519 93q-1 2 -1 3l-5 3v-6h6zM542 70l-1 4l-6 2v-6h7zM519 70l-1 4l-5 2v-6h6zM335 150v5l-5 1v-6h5zM335 99v8l-3 3h-2v-11h5zM359 53l-1 4l-5 2v-6h6z" />
<glyph unicode="n" horiz-adv-x="496" d="M158 639l-5 2l5 4v-6zM402 100q0 -62 -3 -95l-20 9l-2 -6h-14l-3 6h-26l-8 5v-2q0 -5 -33 -3v-6h-19l-7 6l1 6l-1 5l7 6l27 -6v11h-11v11h-16v68l-7 5h7l2 102l7 3l-7 2l-6 73h12v5l-12 6v14l8 20h-4q1 22 -7 28v6h7v28h4v22h-4q0 13 -2 39t-2 39h-11v12l-21 4l-32 -21 v-19h-6l-3 -160h6l-5 -23l2 -70l9 -6l-9 -2v-15l-6 -2q10 -11 6 -40h6l-6 -2v-20l2 1l4 -9l-4 -4q1 -3 4 -5l-6 -23h6v-41l-9 -3v-4l12 -8v-4l-6 -26q-34 -7 -40 -7q-11 0 -17 7v-6h-28v-6h-19v6l-17 -6l-5 6v89l5 7l-11 5v17h6v34l-6 5l8 3l-5 3q0 23 5 67l-5 6h5v10l-5 1 v10l5 1v10l-5 1l-1 34l6 20h4l-6 3v10l-6 4l8 20l-8 27l7 8l-7 12v14l11 11l-11 3l6 9q-7 21 -6 84l-2 3l5 2v23l-5 3l5 2q-8 30 0 59l-5 8q51 -5 100 -5l3 9l25 -6l6 -6q0 -28 -12 -48q19 6 23 32h5v10h12v6h11v6h22v6l38 2l19 -2v-6h11l9 -9h13l12 -17h5v-11l11 -5v-23 l14 6l-8 -17l3 1q3 0 3 -5t-3 -14t-3 -10q0 -21 1 -61q2 -43 2 -62h5v-20l-8 -3v-22l6 -3h-8l-4 -3l6 -6v-16h6q2 -14 0 -55q-2 -35 5 -55l-13 -8v-5l5 -7q0 -9 5 -44l-5 -12h5v-33h6l-6 -18h6zM259 558v9l-5 3v-12h5zM312 148q-2 7 -6 7v-7h6z" />
<glyph unicode="o" horiz-adv-x="460" d="M131 641l2 -2l-5 -3zM382 236l-6 -1v-113h-5v-28l-17 -11l1 -11l-7 -6q-5 -16 -40 -34v-6h-10v-6h-18v-4q-14 0 -42.5 -4.5t-42.5 -4.5l-22 2v7l-34 4v6l-10 -1l-7 1l-5 12l-18 6v4h-11v6l-11 6v12l-11 5l1 10l-7 7v17h-5q-6 22 -6 51h-6v10l6 7l-6 5v56l6 6h-6v46h-5 l-1 18l1 10l5 3l-5 8v5l5 6l-5 29q5 13 3 13q-1 0 -3 -2v28l3 -2q5 0 -3 19q9 22 5 33h-5v35l2 -1q5 0 3 34h6l6 28h5v12l17 11l6 22h11v12h12l5 11h17v6h11v6h17v5h51l3 6l2 -6h40v-5l15 1l8 -1v-6h11v-6h12l5 -11h11v-5l22 -17v-6l12 -6v-16h6v-12h5v-28h6v-46h6v-101 l6 -5l-6 -7l5 -8l-5 -2q0 -19 2.5 -57t2.5 -57zM298 551q-3 3 -7 5v-5h7zM286 528l15 3l-15 3v-6zM275 540l-1 3l-5 2v-5h6zM303 500v9l-5 3v-12h5zM308 489q-1 4 -5 6v-6h5zM247 528l12 1l2 2l-14 3v-6zM298 483v6l-12 6l5 -12h7zM291 467h-16l8 -16zM320 421q-5 6 -12 6 l1 -3zM269 467l-1 3l-5 2v-5h6zM326 348q-4 6 -12 6l2 -3zM314 320v16h-6l-5 23h-28v-5q15 -2 28 -6v-17h5l-3 -6h-2v-5h11zM106 489q-5 6 -12 6l1 -3zM269 297q4 0 33 4l-33 7v-11zM111 432v5l-5 1v-6h5zM314 235l-6 20l-22 3q-1 12 -2 19l-15 3l2 -23l-8 -22h5l1 -5l-5 -4 l5 -2l6 6v-6h11v16h-11v6q19 -1 39 -11zM308 116v12l-5 6l-3 1q-4 0 -10 -3.5t-10 -3.5l-11 6l-6 -6v6l-11 6l1 6l5 4v6l-6 16h6v12h11v6l-12 4l6 2v11h12l5 -6l6 11h-28l-6 6l6 12h-6l1 29q0 10 -6 21h5v17h6l-3 11h-3v17h-12v11h18v-11h5v11h-5v18h-11l5 17h-5v33h11v-11 l5 6h17v4l-10 5l-1 2l29 -6v12q-7 0 -21.5 -1t-21.5 -1l-8 2q0 6 -1.5 17t-1.5 17l3 17h11l-1 4l-5 1v34l-17 6v11h-5v11l-18 11v6h-22v-17h-11l-6 -17h-6v-17h-2q-6 0 2 -17l-5 -16l-3 -1l-3 -6h6v-11h5q0 -3 -2.5 -9.5t-2.5 -10.5l5 -13l-5 -12h-11l-6 6v11h-10l-1 -5 l11 -6v-11h22v-12l-8 -6l-8 6l5 -11l-10 -1l-7 1v11h-28l-5 6l11 -17l10 1l7 -1v-12l18 6l10 -11h5q5 -13 0 -56l5 -2l-5 -9h6v-12l-11 -5h11v-7h-11l5 -10l-16 -6v-6h11l3 6h2v-6h6l-2 -5l-4 -1q6 -14 6 -22h-6q-2 -18 -2 -27l2 -12l12 -7v-10l-12 -34l6 -6h17l5 -11h40v-6 h5l5 -11l6 2l7 -2l5 -6v17h-11q-4 11 -9 17l15 6v-6l17 4l16 -4v-6h17zM122 404l-5 17q-8 -1 -23 0q-1 -10 -1 -9v-5l7 -6q4 0 17 9zM151 342q-4 6 -12 6v-3zM320 168l-6 4v-4h6zM320 144l-9 6h-3l1 -3zM154 311l-3 9h-12l1 -4l-4 -3l-2 1v11h-23l6 -11l-6 -3l6 -3l5 6v-6 h23v-5h1zM286 156l-11 6v-12l11 3v3zM151 286v6l-12 5v-5l-11 -6v-6h17q-2 -12 -6 -22l-12 -1l18 -5q3 13 3 19q0 7 -3 15h6zM291 105l-11 6l-4 -2zM145 235l-1 3l-5 2v-5h6zM128 240v12l-11 6v5l5 5h-5v18l-6 -6l-17 6l12 -6v-12h-12l1 2l-18 5v-7h17v-5h17l6 -11h-6v-6 h-12v-11l12 -2q-5 -4 -23 -9v-6h23l6 22h11zM151 184l-1 4l-5 2v-6h6zM91 246l-14 6v-12h4l11 1zM134 168q5 1 15 2l-15 2v-4zM240 72h-10l5 -12h2l3 3v9zM139 156v5l-5 1v-6h5zM99 162h4q12 0 18 3q-9 0 -22 3v-6zM190 72l-1 3l-5 2v-5h6zM156 94q-1 2 -1 3l-4 3v-6h5z M167 72v3l-5 2v-5h5z" />
<glyph unicode="p" horiz-adv-x="472" d="M392 71h-6v-23h-5v-11l-17 -11l-1 -5l-23 -18v-5h-12v-6h-12v-6l-22 1l-8 -5l-10 5v-5l-10 2l-1 3l-22 1l5 12h-12q-7 17 -15 28l-11 -6l-18 24q-5 -8 -1 -45l-6 -6l7 -14l-8 -32h6q0 -13 2.5 -38.5t2.5 -38.5l-7 -26l-6 -5q4 1 -57 1v-6l-57 1l-5 34h-5v23h5l1 15l-5 8 l5 6l3 165h-5l5 12l-5 6l1 393l-3 -1q-3 0 -1 5q1 3 3 7q-3 1 -5 1l-1 43q0 42 9 71q72 0 86 4v-6h34l-1 -28h11l1 11h6l6 10h11v6q16 6 40 6l3 6l20 -1v-6h29v-6l11 -1v-6h17v-5q11 -7 27 -23v-12h7v-11l5 -1v-17h6q0 -11 2 -34t2 -34l4 3q3 0 0 -10q-5 -13 -5 -15 q0 -6 4 -8t4 -3q0 -3 -7 -13h5l-2 -103h6l-7 -28h6zM278 119v5l-11 6l1 12h-5l-2 17q0 6 1 17t1 17h5l2 17l-1 29h-5l-2 12l8 20l-5 2l1 74l-6 1v4l6 1l1 46l-6 1v5q7 5 7 24v4h-6q0 26 -5 63h-12l7 12q-18 6 -29 6v-6h-17v-12l-6 1l-7 -22h-5l1 -10l-1 -8h-6q-4 -20 -4 -48 q0 -12 1 -36t1 -36h6v-22h-6q-2 -10 -2 -24l1 -10h6l-6 -12h3l3 -5h-6l-1 -29h6q2 -19 -1 -58h5v-5q0 -2 -2.5 -5.5t-2.5 -4.5v-7h5l5 -23h6l6 -24h11v-5h11v-7h18q9 18 22 28v-2zM307 95l11 9l-11 3v-12zM302 102l-1 3l-5 2v-5h6zM296 84l-1 4l-5 2v-6h6zM152 41 q-5 6 -11 6v-3zM237 148l4 -3l-8 -9v8z" />
<glyph unicode="q" horiz-adv-x="456" d="M236 644q-7 2 -11 3l2 3zM397 198h-12l-6 6v-190h6l-6 -24h6v-107l6 -6l-2 -10l-10 -2v-6l-29 6v-6l-65 -2l-37 2v35h7l1 18l-1 90l-3 -2q-5 0 -4 7q2 6 7 1v42l-6 -1l-6 1v-12h-12l-12 -18h-12v-6q-24 -8 -59 -8l-18 2v6h-12v6l-7 -1l-5 1l-6 11l-18 7v12l-18 12l1 10 l-7 7v24h-6l1 42l-1 11h-5q0 2 1 36q1 22 -1 36q-1 20 -7 35h7q0 1 -4 7.5t-1 6.5q2 -1 5 -2l-7 6v15l7 9l-7 6v42q2 -1 5 -1q7 0 -5 36l7 6h-7v48h7q-1 31 -1 93l1 19h5v24h6v18h6v12l12 6v12h12l12 18l30 6l2 6l19 1l32 -1v-6q8 1 30 -6l6 -12h12l5 -18h7v24l-7 6l60 -2 l30 2v6h41l1 6l11 -6q-6 -65 -6 -143q3 3 5 3q6 0 -5 -32l6 -2l-6 -10l6 -2l-6 -10h6v-244l18 -6v-6zM248 168v268h-5q1 33 1 34l-1 13h-7v18h-5v18h-6l-6 12q-20 3 -30 6l-6 -12h-6l1 -7l-1 -5h-6q1 -9 1 -33q0 -11 -7 -21h6v-23h-6v-24h6v-18h-6v-30h6v-23h-6q8 -8 7 -27 l-1 -9h-6l1 -14l-1 -10h6q1 -8 1 -18q0 -1 -1 -35h-6v-5l6 -1q0 -8 -1 -24t-1 -24q0 -4 1 -12t1 -12h6v-24q12 -6 42 -12l6 19l11 5v12h7l-1 11l1 7h5zM236 459l-9 3v4q6 0 9 -7z" />
<glyph unicode="r" horiz-adv-x="392" d="M324 520l-12 -23h-16v6l-12 -2v-4q-17 6 -33 6v-6h-28v-4h-11v-7l-17 -5q-5 -24 -11 -78h5v-12h-5v-17l-6 -4l6 -1v-184h5q2 -11 0 -28h-5l5 -17l-5 -17l5 -6h6l-5 -9l5 -3v-10h-11v-12h11q-6 -18 -6 -38l4 -4q2 -2 2 -3q-1 -1 -6 0v-16h-5l1 -10l-1 -7q-10 4 -29 4 t-27 2v-11h-11v16l-6 -11h-28v-5l-6 5h-5v-5h-17q-4 38 0 61l-5 1v5q7 5 0 28h5v39l-5 6h5q0 6 1 28q1 18 1 29q-2 15 -7 27q5 -2 6 7q1 7 0 18q0 7 -1 13l-11 7v5l4 3l2 8h10q-5 19 -5 47v26h5q-7 16 -5 23h5q2 18 0 27h-5v22h5l-3 15q6 11 -2 25h5v78h6v17h-6v28l5 3l-5 2 l1 11h5l-3 14l12 14q10 2 30 0v-5q18 8 35 8q30 0 49 -8v-39l11 5l12 17l7 -1l4 7h11v11h22v5h62l6 -5v-67h-6l-1 -13l1 -27z" />
<glyph unicode="s" d="M378 176q0 -12 -3 -36.5t-3 -36.5h-6v-17h-5v-11l-12 -6v-11h-5l-18 -23l-22 -5l-6 -12l-10 1l-6 -7h-28v-5q-10 0 -30.5 -1.5t-30.5 -1.5q-16 0 -30 3v5h-11v6h-17v6h-17l-5 11h-11q-3 7 -28 28v12l-12 5v11h-6q-2 8 -5 35h-6q-1 31 0 61h6q-8 15 -6 62l6 6h11l5 6l7 -6 v6q24 -7 84 -6l5 -6v-10h7l-7 -7v-56h-5v-7l5 -21h7l4 -22l12 -6v-6q21 -6 44 -6v6h18l6 6v23h5v16l7 12l-1 5l-11 6q-3 10 0 33q-24 12 -24 40h-22v12h-10v5h10v5h-22l-12 23h-11q-8 7 -22 23v11q-9 8 -28 23v5h-11v11l-12 6l-6 23l-10 5l-7 23h-5l1 18l-1 10h-6l-2 53 l2 25h6v18h5l7 28l10 5v6l18 11v6h11l5 11h12v6h11v5q20 7 67 7l3 5h15v-5h28v-7h28v-5l22 -6l6 -11h11l5 -11l18 -12v-11h5v-11l12 -6v-7v-26h5v-18l6 -4l-6 -1v-62l-5 -6l-19 -2l-44 2l1 2q-3 3 -5 3q-1 -2 -1 -5h-39v17h5v23l-5 -1q2 22 0 46q-14 12 -24 16v7l-14 2 q-14 0 -42 -14v-45h-4l4 -11l12 -6v-11q14 -14 44 -40v-16h12l6 -23l10 1l7 -1l5 -12l6 1l6 -1v-10h11l5 -12h12l-6 -11h12l10 -17h7v-11l11 -6v-11h11v-17h6v-11h5v-18h6q-1 -13 -2 -39l2 -28h6zM287 498q-1 3 -5 5v-5h5zM174 447l-7 5h-4l-1 -2q6 -1 12 -3zM254 339v12 l-12 -6v12h-12l7 -18h17zM282 295l-1 3l-5 2v-5h6zM304 272l-1 3l-5 2v-5h6zM226 345l-6 6v-6h6zM220 323h4h3l14 2l-21 3v-5zM298 267h-28v-6q16 0 31 3zM220 306l4 10l-4 1l-3 -8zM242 283v5l-5 1v-6h5zM186 345v12h-28v-12h28zM287 232q-1 5 -5 7v-7h5zM198 311 q-2 4 -6 6v-6h6zM220 300h-12v-17l16 2zM237 267v5h-11v-11h15zM285 215l-15 6v-11l16 1zM254 249h-12l6 -10h5zM282 187l-1 4l-5 2v-6h6zM135 171h-11l-6 -12h-11l7 -5h4v5h12zM146 148h-28v-5q14 0 31 3z" />
<glyph unicode="t" horiz-adv-x="300" d="M249 9q-27 -9 -76 -9v6l-12 -6v6q-21 -2 -47 0l-5 11h-12v11h-11l-5 17h-6v11h-6q-5 22 0 92l-5 3l3 27l6 4v36h-6l6 12l-6 2l6 9l-6 2h6q0 12 -4 118l6 2l-6 7v10l6 3v26l-6 2l7 24q0 44 -3 74h-23v5l-17 6v87l6 6l36 -6q0 16 -6 64l-5 3h5l6 17l-11 23h5l6 19h-6v37 l6 5h14l3 6l13 -4l9 1v5l39 6v5h23l8 6v-28l11 -6l4 -27q0 -20 -12 -40h6l5 -33h-5l-6 -28h6v-12h5v-16l22 5l23 -11l2 -8l-8 -3l3 -45l5 -2v-17h-5v-11h-6l-5 -12l-10 1l-7 -1l-8 12q-1 -3 -8 -9t-7 -11h6l-3 -8l3 -4v-16l-4 -2l4 -21h6l-6 -19l9 -3q-4 -12 -4 -33 q0 -25 -2 -34l6 -8l-6 -8l6 -9l-6 -3v-39h-5l11 -5q3 -27 -3 -51h5l-5 -10l5 -10l-5 -2v-11l-6 -6h11q-5 -31 -5 -50l-6 -6l11 -6l-5 -11l14 -11l14 1l8 -1l6 -11h6l3 -29q0 -19 -3 -63zM131 677l-1 3l-5 2v-5h6zM120 677l-1 3l-5 2v-5h6zM184 604q-1 2 -1 3l-5 3v-6h6z M123 554q-2 3 -6 5v-5h6zM173 509l-10 5l-5 -1q6 -1 15 -4zM125 375v8l-3 3h-2v-11h5zM114 381h-11l6 -11h4zM137 375h-6v-17h-22l-6 6v-11h22l6 -7zM137 330l-12 6v-6l-11 -11h6l5 11h12z" />
<glyph unicode="u" horiz-adv-x="472" d="M376 66q0 -6 2 -19t2 -20q0 -21 -26 -20l-45 2v6h-1l-10 -6v6q-23 0 -46 6v6h-11v14l7 8l-7 6v-6h-11l-6 -22h-8q-7 -10 -17 -10q-7 0 -25 7q-11 -23 -39 -23v6l-18 -6v6h-11l-6 11h-11l-11 17h-6v11l-11 7v22h-5l-1 21l1 9h5l6 23l-6 3l-7 11l-10 3l-3 14l8 6l-8 5v20h6 v23h5v19h-5l-1 16l6 9q-9 7 -5 35l5 5l-8 51l-5 5h5v12h5v33l-5 7h12v5l-9 8l2 20l-5 6h5v17h7q0 13 -6 38t-6 38q0 25 3 98h20l5 6v-6l45 3v-5l38 1l19 -1q0 -98 -3 -124h6v-11l-6 -1l3 -96h-6v-9l6 -2v-50l-6 -6h6v-22h-6l5 -9l-4 -6q2 -4 4 -9q-3 1 -5 1v-12h6 q6 -20 4 -51q-3 -55 -3 -51l2 -22h5v-16h14l4 -6l24 3l12 22l-3 3l8 2l-3 15h6v17h6v8l-6 3h6v31h-6l-1 25q-1 7 7 37h-6l7 16q0 6 -1.5 17.5t-1.5 17.5h-7v31h7v17l6 3l-13 11q3 10 4 28l-4 6l7 14l-6 5l2 1q6 13 0 56h6v9h-6q0 -1 2 46q1 28 -2 46l-6 6l6 6h45 q12 -1 34.5 0.5t32.5 1.5v6l4 -6l11 -6q-5 -21 -3 -54l3 -54q0 -7 -4 -19t-4 -19h5l2 -33l-2 -15l-5 -5q1 -10 9 -16l-6 -7l5 -9l-5 -2v-36h5q-5 -35 -5 -40h5q0 -9 1.5 -28.5t1.5 -30.5h-6v-31q0 -19 6 -29q-6 -14 -6 -21q0 -3 2 -3t4 2v-20l-6 -3l-1 -6q0 -10 7 -22l-6 -8 q3 -43 3 -54h5zM289 619l-3 -6l8 3zM306 590v11h-6v-4h-16v-12h12v5h10zM328 539l1 9l-3 3h-2v-12h4zM318 501l-1 3l-5 2v-5h6zM289 511q-1 2 -1 3l-4 3v-6h5zM337 427q-1 2 -1 3l-4 3v-6h5zM300 461l-7 5h-1l-1 -2zM281 444l3 9l-3 2l-5 -10zM326 405v28h-11v5l-17 6v-6 q-8 -1 -20 -7l14 -4v-6l5 -4l-16 -1v-6h23l5 11h11v-8l-5 -3v-5h11zM337 325q-1 4 -5 6v-6h5zM298 353l4 10l-4 2l-3 -8zM315 337l-1 3l-5 2v-5h6zM281 348l4 10l-4 2l-5 -10zM315 314v9l-4 2h-2v-11h6zM292 337l-1 3l-5 2v-5h6zM298 320l-12 5l6 -11l6 1l2 2zM318 286l-1 4 l-5 2v-6h6zM328 269l-8 5h-2v-2q5 -1 10 -3zM312 252l4 10l-4 2l-3 -8z" />
<glyph unicode="v" horiz-adv-x="468" d="M231 576l5 -3l-9 -8v7zM386 611h-6v1l1 -2v-7v-27l-1 -11h-5q0 -18 -6 -53t-6 -53l-2 1q-9 0 -4 -48h-6q0 -20 -6 -59t-6 -59h-6q-1 -27 -6 -81h-5q0 -13 -3 -38.5t-3 -38.5h-6q1 -9 1 -31l-1 -10h-6q0 -13 -3 -41t-3 -41l-17 -6v-5h-24v5q-19 3 -65 0v-5q-11 5 -29 5 q-23 -1 -29 0l-6 6l6 6l-6 6v47h-6l1 27l-1 8h-6v41l-2 -1q-8 0 -3 54h-6q0 11 -3 34.5t-3 35.5l-2 -1q-10 0 -4 48h-6q0 12 -3 38t-3 38h-6v2l1 7v34l-1 10h-5v29h-7l1 31l-1 11h-5v23h-7l1 28l-1 13h-5v24l-6 6q0 4 3 29h126l6 -6v-12h12v6l5 -6q13 2 24 -3q22 -9 23 -9 l-5 -11q-13 5 -17 11l-15 -2l2 -9h12l-5 -24h-19v35l-9 3q2 -19 0 -48q-2 -41 -2 -48l6 12h12v-12l-12 -7q-2 -12 -2 -33q0 -34 2 -48h5q0 -28 9.5 -82.5t9.5 -82.5h5q0 32 9 97t9 97h5q-1 13 -2 38l2 26h7l2 32l-2 15l-12 6v6l17 6l-4 23q0 11 10 30h129v-30z" />
<glyph unicode="w" horiz-adv-x="632" d="M40 621l-2 -5v1zM556 594h-6l-5 -55l-3 2q-8 0 -2 -53h-6v-32h-6v-33h-5v-27l-6 -6q9 -4 11 -23h-10q-3 -18 -7 -55h-5q1 8 1 -44l-1 -11h-5v-28h-6q1 8 1 -44l-1 -10h-5v-28h-6v-39h-5q0 -19 -6 -58t-6 -58l-5 -5q-46 11 -143 5l-6 6l1 42l-1 19q-1 -1 -2 -1q-4 0 -4 17 v22h-5l-1 23l1 10l11 6v11l33 21l-5 28l49 17v11h-10v-5q-16 -6 -39 -6v11l-10 -1l-7 1v-17h-17l-10 17l5 4l-5 8l-6 -12h-5l3 -17l-3 -22l-6 -5h-11v-5h11l6 -12q-4 -14 -5 -38q0 -32 -1 -39h-6q0 -13 -2.5 -41.5t-2.5 -41.5q-11 -4 -26 -5q-10 0 -29 1.5t-26 1.5 q-58 0 -71 -10l-8 7l1 42l-1 19h-6v33l-4 -1q-4 0 4 17h-5q0 34 -8 102t-8 102h-6q0 39 -6 116h-5q0 12 -2.5 36t-2.5 36h-6v2l1 9v38l-1 11h-6v23h-5v10l-5 7v4l8 12l57 -12l6 6v-6h33l11 6v-6h22v-104h6q-1 -15 -1 -45l1 -32h5v-34l6 -6l-6 -10v-6h5q0 -15 3.5 -46.5 t3.5 -46.5l10 6v27l17 11v10h11l-6 7l3 10l-10 -5l-9 5l11 11l-5 6q0 21 8 63t8 63h6l-2 26l7 25h-5v17h5v44l5 4q10 0 29.5 1.5t29.5 1.5l30 -3v-4h17v4h27l5 -4v-12h-39v-22h-5v-22h5v-28h7l-7 -21h7q0 -26 5 -77.5t5 -77.5q1 2 4 2q6 0 -4 -24h6v-28h-6l-1 -24l1 -9h6 l6 -11h5v38h5v8v31h6v17h6l-6 22q5 -4 5 14q1 12 1 24h5v12h5l-1 66l1 10h6q0 18 2.5 56t2.5 56h100v4l11 -4v4h16zM150 -13l4 -1q-3 -4 -7 -5z" />
<glyph unicode="x" horiz-adv-x="484" d="M416 622l-6 -23l-11 -7l1 -7l-7 -5v-11h-7v-18h-5l-6 -23h-6v-12h-5l1 -10l-8 -7v-12h-6v-18h-6v-11h-5l1 -11l-7 -7v-12h-5v-18h-7v-17h-6v-12h-6l-5 -35h-6v-12h-6l-1 -11l1 -12h6v-12h6l5 -30h6v-17h6l7 -24h5v-17h6v-18h5v-11h6q1 -12 6 -35h7v-12h5l-1 -14l1 -10h6 v-11h6l5 -36h7l6 -29h6q5 -16 5 -41q-60 6 -135 6q-3 12 -6 35h-5l1 14l-1 9h-6v18h-6v24h-7v17h-5l1 14l-1 9h-6q0 18 -5 36h-6v-12h-6l1 -10l-8 -7v-12h-5l-6 -47h-6v-18h-5v-23h-7l-6 -42l-6 -5q-16 2 -46 0v5q-52 4 -82 -5l-8 28l1 7l12 5v18h7l11 35h5q1 12 7 35h5v12 h7l5 24h6l-1 11l7 7l6 23h6l6 35h6v12h5v12h6v12h6v17h7v11h5v19h6l-6 23h-5q-1 15 -7 42h-6l-6 22h-5l1 11l-7 7q-1 11 -6 30h-6v11h-6q-1 12 -6 35h-6v12h-5l1 11l-8 7v17h-5v18h-7q-8 37 -17 42l3 23h79v-6l24 -2l11 2l6 6v-6h13v-12h5v-17l6 -6v-24h6v-18h5v-29h7v-23 l6 -6v-24l11 6v24h6v17l5 6l-5 6l12 6l6 41h6v24h5l-1 14l1 9l6 6h135z" />
<glyph unicode="y" horiz-adv-x="436" d="M381 611q-3 -60 -62 -368q-60 -314 -74 -325q-3 -59 -53 -76q-12 -5 -100 -14q-11 9 -18 59q-5 37 -5 66l6 17q38 -1 68 5q-46 404 -97 636q3 20 36 20q57 0 78 -9q30 -12 30 -48q0 -18 -7 -43q9 -29 14 -141q5 -101 19 -125q0 70 17 177q28 167 29 175q40 -3 119 -6z " />
<glyph unicode="z" horiz-adv-x="420" d="M77 628q-7 -9 -13 -13l-8 3l-6 -1v-10l-13 11l6 15q15 -5 34 -5zM333 208q0 -31 -8 -57q-19 43 -19 69q0 14 3 42t3 42h8q0 -16 6.5 -48t6.5 -48zM167 115q24 -3 87 -4q56 0 87 -7v-106q-58 8 -127 8q-22 0 -64.5 -6.5t-64.5 -6.5t-40 5q-6 23 -6 94q0 27 81 185 q73 142 105 192q-98 6 -101 6q-35 0 -63 -6q-6 22 -6 59q0 46 9 68q85 -24 203 -17l17 1v11l16 5q16 -5 48 -11q5 -21 5 -60q0 -51 -21 -88l-43 -74zM98 310l-10 -10q-6 42 -22 126q5 6 6 11l-5 3l2 2q30 0 30 -90q0 -5 -1 -42z" />
<glyph unicode="|" horiz-adv-x="232" d="M186 701q-12 -48 -6 -137h-6v-12l2 1l4 -14h-4l-2 -12l6 -6h-6q3 -67 0 -86q-5 -1 -5 -11q0 -4 4 -9.5t7 -2.5l-3 -15l-3 1q0 -38 2 -114.5t2 -114.5h-6l6 -18h-6v-31h6l-5 -16q3 -3 4 -9q2 -6 -1 -6q-2 0 -4 2v-54h6q1 -6 -2.5 -13.5t-3.5 -11.5l8 -9l-6 -4v-29l-5 -7 q-15 0 -47 -1.5t-47 -1.5v6h-11l-6 13h-5l-3 24l8 3l-1 12l-7 6v3h6v121h6v19l-12 6l12 18v5q0 9 -3.5 34t-2.5 40q-7 -1 -7 4q0 4 7 2v60h3l3 13q-6 1 -9 6l9 5l-3 14l2 4q-3 5 -5 1l-4 16l6 8q0 5 -5 9v21h5q2 32 -5 79l6 12q2 9 -1 12q7 27 -5 50h5v48q11 2 0 6 q6 21 6 36h-6v12l6 7l-8 8l8 7q-3 10 -5 19q-2 13 -2 20q0 8 5 6v73l5 5q13 0 40 3.5t41 3.5l18 -2l6 -14h6v-17h4q0 -14 -2 -42.5t-2 -42.5l8 -3l-8 -7z" />
<glyph unicode="~" horiz-adv-x="428" d="M383 832v-65l-5 -4l-7 1q-15 -8 -45 -26l-2 -5q-21 -9 -60 -32q-34 3 -48 12q-9 6 -34 35l-7 -3l-4 1l-4 4l-5 -7l-6 1q-17 0 -46.5 -15t-46.5 -15l-3 71q9 0 29 13.5t22 13.5h37q19 0 52 -16t52 -16q37 0 69 24q39 30 58 36q2 -3 4 -8zM233 730h1l3 3v2l-4 3v-8z M174 756l-3 5v12h-9l-3 -6l8 -2l-5 -2v-5l5 -4zM146 780l-1 5h-9l2 -7zM142 761l-4 6l3 5l-5 3v-9h-10v-5l3 2z" />
<glyph unicode="&#xa3;" horiz-adv-x="464" d="M138 162l1 3l-5 2h-1q2 -3 5 -5zM413 700l-1 4l-5 2v-6h6zM385 723l-1 3l-5 2v-5h6zM374 728l-1 4l-5 2v-6h6zM379 712q-1 3 -5 5v-5h5zM407 689h-10l5 -11h2l3 3v8zM390 695l-11 5v-11l11 3v3zM351 712q-6 7 -17 16v-5l-5 -3v-8l6 3l-1 2h12v-5h5zM413 633l-1 4l-5 2v-6 h6zM385 650q-1 2 -1 3l-5 3v-6h6zM385 628l-1 3l-5 2v-5h6zM222 560q-1 3 -5 5v-5h5zM244 208l-61 5q0 -48 -5 -88l11 -9q16 -2 42 0q33 3 41 3h125l8 -8q-5 -21 -4 -44l1 -21l16 -4l4 -16l-20 -9l3 -17l-5 -5l-347 3l-5 8q7 48 2 54q7 44 7 52q0 34 -4.5 102t-4.5 102v-1v5 l1 17q2 115 0 155l-1 -16l8 60q7 45 14 53h-6l-2 57l2 27h6v28h6v17h6l-1 6l1 5l10 6v11l12 6v11l17 11v6h11v5l22 7v4h17q-1 2 -1 3q0 6 57 3l3 6l8 -6h23v-6l45 -4v-7h11l12 -16h10v-6l17 -11l6 -23l12 -5l-1 -6q0 -6 3.5 -25t1.5 -31h6q0 -48 6 -67l-12 -11q-17 4 -84 0 v5h-22v6l-11 19q5 0 5 9q0 1 -3 2.5t-2 2.5l17 17l-23 11v-1l1 4v15q-1 4 -6 5v11l-17 11q1 6 0 6t-4.5 -3t-6.5 -3v6h-17l-6 -11h-5v-12h-6v-44h-6q3 -13 6 -40h-6q6 -6 6 -33h-6l2 -5l4 -1v-12h-6q2 -4 6 -5l-6 -21l-4 1l3 -1q0 -29 -3 -87t-3 -87l6 -22q34 0 72 12 q0 -35 -1 -70q-1 -58 -8 -62v1z" />
<glyph unicode="&#xa4;" horiz-adv-x="240" d="M207 818l-3 1l2 3zM218 718l-4 -2q2 -19 2 -28q0 -29 -14 -32q-3 -7 -45 -19l6 -9h-7v5h-5l1 -2h-7l3 2q-12 4 -37 3l-2 -2q-50 1 -68 24l-5 1v5h-4q-6 50 -2 69l-11 1q9 0 11 3v23q-1 12 2 28h4v6l1 9h4l8 10l9 3l4 6h6q8 8 77 8q6 0 17.5 -3t17.5 -3q9 -3 32 -21l2 -12 h4v-21h-4l4 -8l-4 -1h4v-19h-4v-18zM199 723q-5 2 -16 3q10 0 16 -3zM183 718l-3 3v-4h8zM193 713q-2 2 -5 2zM183 736v7h-3q-3 0 -9.5 1.5t-10.5 0.5l-4 2v33h-4q-5 10 -19 10q-2 0 -22 -1h1q-1 0 -15 -1l1 -5l-3 -12l-4 -1h4l-4 -1h4l-4 -2v-22h4l-8 -2l4 -4h-4v-28h-2 l2 -1v-24l4 -4l45 -5q7 3 14 5l-1 8q0 9 3 36h4l-4 3h4v6h4l-4 1v9h10q2 -1 7 -3l-11 -7h11z" />
<glyph unicode="&#xa7;" horiz-adv-x="456" d="M405 350q-16 -33 -58 -91l18 -28h5q14 -15 14 -42q3 0 3.5 -7t3.5 -9q0 -31 -10 -59l-18 -57q-10 -5 -23 -28q-58 -28 -91 -28q-179 0 -179 138v4l1 13l3 61q60 -12 94 -12q0 -59 4.5 -70t42.5 -45h6q71 0 71 54q0 35 -64 85q-45 35 -96 61l-8 12l-20 8q-2 9 -28 29v5 q-16 8 -27 43q-9 31 -9 60q0 10 1 16q7 8 16 38h5q13 29 50 59l-3 9q-13 6 -25 42q-11 31 -11 50q0 14 8 38.5t9 36.5l10 7l2 10h5q7 23 68 39l2 5q33 4 49 4q49 0 83 -20h7q14 -19 31 -19v-8l11 -6l2 -10l12 -12l-2 -4q0 -1 3.5 -2.5t3.5 -2.5l-2 -4q12 -15 12 -52 q0 -12 -2.5 -36.5t-2.5 -36.5q-51 7 -90 7l1 39q0 55 -50 79l-14 -3q-34 0 -46.5 -15t-12.5 -51q12 -7 72 -55.5t76 -63.5q11 3 59 -45q3 -12 18 -37q12 -20 11 -41zM180 722l6 1q-3 2 -6 3v-4zM172 706v5l-4 2v-7h4zM161 686l-5 8v-5zM175 616v5l-10 7l-5 -6l12 -1z M152 633q-1 3 -5 5v-5h5zM276 480l-2 5zM340 412l-3 -7l8 4zM292 458v5h-4l-2 -1q2 -3 6 -4zM149 595l5 -1l-10 8zM260 475l4 1v1l-4 3v7h-15v-5l10 3zM262 466l-1 3l-4 1v-4h5zM165 543l3 1l-4 4zM161 525l-2 -7h2l7 4l-4 4zM144 522q-3 8 -7 8v-5zM232 468l-15 2l-14 15 l-9 2l-2 4q-10 7 -27 15q-32 -35 -32 -56q0 -2 2 -15l5 -5l-3 -11l17 -7l5 -12h6l27 -17l4 -9q13 -10 43 -24l6 -11l12 -2l7 -12q9 -2 21 -7l3 -5h4l22 24q10 14 10 31q0 27 -39 56q-47 34 -53 44zM132 501l-8 -8l6 -1l9 8zM109 492l11 1l-13 3zM248 320v7h-5v-12l12 4z M95 454q-1 3 -3 4zM243 306l-3 7h-18v-5zM164 374l1 2l-4 3zM154 386q-1 4 -7 4zM215 320v4l-3 1zM124 407l1 7l-1 3l-3 -6zM199 332l-1 4l-2 1zM149 377v2l-5 3l-1 -3zM152 362h2l4 4l-5 4h-1v-8zM119 388l7 2l-7 3v-5zM220 285v8l-4 4h-1l2 -7l-4 -2zM161 344l2 3l-4 1z M154 353h-7v-14l5 3v2zM140 350l-10 3v-5l6 -1l1 -1l2 1zM144 330l2 5l-2 2l-3 -6zM203 269l2 5l-5 1h-1l-3 -4zM126 322l10 1l2 2l-12 2v-5z" />
<glyph unicode="&#xa8;" d="M319 788l-8 -15h-26q-26 0 -50 5l-3 4v91l3 5q19 2 31 2q13 0 24 -2l6 4l17 -2q-1 -43 -1 -44q0 -9 1 -16l4 -2zM174 784q-8 -7 -19 -7q-6 0 -19.5 -2t-20.5 -2q-15 0 -26 4l2 43h1q1 18 -5 54l14 8q9 0 32 -1q20 -2 32 -1l9 -5q-1 -12 -1 -27v-32q1 -20 1 -32z" />
<glyph unicode="&#xaa;" horiz-adv-x="300" d="M253 292l-6 -5q0 -6 4 -49l-6 -11q-17 0 -24 -7q-4 -3 -14 -22q-21 8 -28 8h-4l-8 -6q-7 2 -16 11l-14 -3l-16 11l-6 -8l-24 -3l-5 6l-11 -14l-11 6l-3 -6l4 -2l-6 -6l-6 14l-8 -3q-1 2 -2 5q0 8 2 23.5t2 22.5l-4 3v29q0 12 18 63q56 4 54 4q8 0 40 -2l9 -8q24 8 26 8 q12 -8 55 -5q3 -11 2 -38h6v-16zM228 422q-4 -3 -11 -3h-4v7h-6l-2 -4q-14 2 -19 -3l-23 3l-3 4v10h-5l-7 -3v-7h-6l-4 -7q-14 -2 -40 -3l-2 -3q-12 0 -33 21v6l-7 5q-4 25 -9 60h-4l4 1v26h-4v6l-3 1h7v33l4 3v11l4 1v9l6 5l4 19l10 3l6 10h7l4 7h6l4 7l17 2l3 7h6v7h7 l13 13v10l7 -3q0 9 -3 27h6l4 3l-4 3l-6 -3l-4 17l-13 3l-3 -3h-17q-5 -10 -4 -14l4 -6h-4v-20l4 -7h-4v-13l-3 -4h-16l-2 -7l-9 2l-1 7h-35l-3 3q0 7 -1 20.5t-1 20.5q0 6 4 18.5t4 18.5l5 6l-2 5l5 1v5l10 10h5l2 8q7 -1 18.5 3.5t15.5 5.5l1 4l15 -4v4h45v-4q15 3 27 -6 l5 -9h9l3 -12l7 -5v-8l3 -2v-23h6q-3 -23 -3 -32q0 -3 2 -60l4 -1l-1 -12l-3 -2l1 -5l2 -2q3 -13 3 -38q0 -40 -6 -61l3 -7h1q2 0 3 -16q0 -19 3 -49l-2 1zM165 733q-2 1 -3 3zM185 707q0 3 -3 3zM175 703q-1 4 -4 4v-4h4zM162 599l-24 7l5 -5l-6 -15l-11 -3l-3 3v-23l-3 -3 l4 -15q-5 -14 -4 -19v-3l6 -3l-3 -4q0 -16 7 -30l7 -3v7h10l6 16h4v14l-4 3l3 1l1 5l-4 3v7h3l1 7h-4v24l-3 2l7 4v7l-4 3l2 10z" />
<glyph unicode="&#xab;" horiz-adv-x="756" d="M645 467q-23 -11 -28.5 -17.5t-18.5 -31.5l-24 -14l-5 -19l-23 -9q-7 -15 -24 -42q-9 -4 -19 -19v-2q0 -28 7 -36l31 -18q5 -13 19 -34q10 -4 23 -15q0 -23 53 -56l-10 -28q14 -13 14 -24l-14 -19q-8 0 -24.5 -3t-24.5 -3l-12 2v9q-18 6 -30 8q-9 1 -23 0q-20 -1 -30 -1 q-25 0 -45 22l-19 4l1 12l-1 7l-14 5q-2 16 -10 46l-9 7q0 1 5 12q-19 7 -23 30h-15l-1 5l6 14h-15l-13 14l4 13h-14q-4 11 -14 33q7 3 19 5q6 22 28 44l-1 -4l1 -2l9 -1q4 16 15 49h23q-2 -13 -5 -17.5t-14 -7.5v-9l19 -15q3 26 10 49h23v13h-42q18 33 19 34q12 15 33 18 l1 2l-11 9l5 12h10q5 16 20 16q10 0 30.5 -5t30.5 -5q14 0 40 5t40 5q29 0 37 -47zM238 523l-8 -6v8l3 3zM399 509q0 -11 -5 -30q-10 -5 -27 -19v-12l-18 -7l-11 -18h-9q-4 -19 -6.5 -24t-17.5 -19h-14q-4 -6 -10 -38l-19 2l-9 -2l9 -12l-1 -22q-1 -17 19 -30q26 -18 30 -24 l-1 -15q-1 -9 14.5 -19t18.5 -14v-23q9 1 24 -19q19 -25 24 -29l-1 -10l1 -18q-10 0 -28.5 -7.5t-28.5 -7.5l-14 10l-5 -10l-82 -1q-16 0 -26 26q-5 4 -24 13q-10 19 -33 57l-14 4q-2 12 -10 30q-40 27 -65 81l-4 -1l-11 4l10 10v23l14 4q-1 4 -5 7v8l19 4l-6 15l2 4h23v24 h19q2 11 5 22.5t14 11.5l3 -2l6 20l19 -4v27h14q10 22 29 44q34 -13 46 -13q3 0 15.5 1.5t27.5 1.5q13 0 49 -3q31 -2 50 -1zM456 361v8l-5 3zM493 315v9q-10 1 -16 -6l-7 16q14 4 21 8l-16 7l5 19h-14v-19h-29l5 36l33 -5l-5 19h-33q-8 0 -13.5 -12.5t-5.5 -21.5l5 -4 q1 -6 5 -19l23 -8l-4 -10l-19 6v-11l23 -8q0 9 5 23q10 -10 14 -19h23zM324 441h5l8 3l-13 8v-11zM456 292l1 4l-6 9zM466 267l4 2l-9 9zM456 278l-38 3v11l4 4l-9 7l-9 -3v-14l-14 -5v8l4 3q-4 11 -14 32q11 -2 12 -2q4 0 11 1t10 1v6q-8 0 -23 4v15l-10 -15h-19l-4 23 l-5 -23l-5 -3v2q0 -4 1 -18l14 4l11 -8l-6 -11q30 -25 57 -25q12 0 32 3zM220 441l8 7l-8 8v-15zM428 248v6q-14 4 -24 5l5 -11h19zM243 423q-3 2 -23 6l20 -3zM442 198l6 3q-4 8 -11 9zM385 240q-3 14 -5 28q-5 15 -19 18v14h-9v-14l-4 3q4 -10 10 -14q10 -5 13 -8l-4 -23z M399 206l8 3l-8 8v-11zM262 380l-65 5v-9h-1q2 0 43 -4l-5 -15l24 -8v4l-5 4l-4 15l6 -2l5 3zM220 361q-17 -13 -17 -30l2 -2q16 5 16 20v6zM201 361q-7 6 -19 24l-4 -13l-20 -8l39 -15zM230 342q-8 -20 -15 -56q13 18 15 20q9 13 9 23zM281 240l-19 4l10 18q-10 6 -24 6 h-12q-19 0 -22 -9l-8 -19h24v-15l-15 -4l-9 14l-4 -3l-1 -7h-4l9 -19l28 7l9 -3q-2 7 -4 22l7 8q11 0 31 -11zM249 244l-18 3l3 1l5 11h2q3 -1 7 -2z" />
<glyph unicode="&#xad;" horiz-adv-x="352" d="M297 296l-6 -5q0 -6 4 -49l-6 -11q-17 0 -24 -7q-4 -3 -14 -22q-21 8 -28 8h-4l-8 -6q-7 2 -16 11l-14 -3l-16 11l-6 -8l-24 -3l-5 6l-11 -14l-11 6l-3 -6l4 -2l-6 -6l-6 14l-8 -3q-1 2 -2 5q0 8 2 23.5t2 22.5l-4 3v29q0 12 18 63q56 4 54 4q8 0 40 -2l9 -8q24 8 26 8 q12 -8 55 -5q3 -11 2 -38h6v-16z" />
<glyph unicode="&#xb0;" horiz-adv-x="300" d="M226 781h3l-2 -3zM238 571h-3q0 -9 1 -28t1 -28q0 -39 -10 -60l-5 -2l-3 -11q-12 -10 -39 -26q4 -8 5 -19h-8l1 5l-1 1l3 5l-5 -5h-8l3 2v8l-12 -3l-4 3h-6q-2 0 -6 -1t-7 -1l-2 -3l-3 5q-12 2 -34 8l-3 5q-18 -4 -26 29l-5 3q0 18 -5 54t-5 55q0 20 4 38l-10 2l8 3l2 3 q0 145 27 157v5l5 6h5l3 5q3 0 14.5 4t14.5 4l1 3q22 1 24 1q21 0 37 -8q1 0 32 -20v-5l5 -3v-5q14 -19 14 -79l-3 -2l3 -13l-3 -3q0 -5 2 -14t2 -14q0 -3 -2.5 -25.5t-1.5 -24.5q3 -10 3 -11zM136 408q-1 -1 -1 -3zM217 584h3q-5 5 -16 8l10 -3zM204 576l-3 5v-8l8 2z M214 565q-1 3 -5 3q2 -2 5 -3zM196 613l-1 8l1 8q-7 3 -19 7l-2 3v84q0 22 -30 22l-18 -6q1 -16 1 -19q0 5 -3 -21q-1 -2 -3 -3q1 -3 3 -5l-3 -2v-53l3 -2l-5 -3v-142l2 -10l6 -3v-5l21 -7l10 2q9 11 11 65l2 53l3 3l-3 7q2 9 3 34v6h7l6 -8l-3 -3v-5l-5 -8h8v5z" />
<glyph unicode="&#xb1;" horiz-adv-x="496" d="M443 332l2 -17q0 -9 -2 -26t-2 -26q-69 9 -124 9q-32 0 -48 -4q0 -139 9 -150q-1 -12 -5 -16l-65 3l-2 15q0 14 2.5 42t2.5 40.5t4 22.5l-4 23l4 6v9l23 -2v7h-16l-2 8h-3q-18 0 -57.5 -4t-60.5 -3l-51 1q-4 24 -2 56l-3 2l18 8q12 0 35.5 -1t35.5 -1q8 0 27 -1.5 t29 -0.5l3 -4h24l5 24q-14 6 -14 78v68q9 0 28 2t28 2l11 -4l-2 -166l101 -2q12 0 33.5 4t30.5 5zM233 420l-5 2q0 -2 -1 -6v-3zM231 399q-1 3 -5 5v-5h5zM324 297l7 2l-7 2v-4zM238 379l4 3l-4 6v-9zM327 290l-3 4zM309 314h-11v-2l9 -2zM311 299l1 2q-4 1 -21 7l2 -9 l-11 2v-7h16l2 7zM251 364l1 2l-6 6q-8 -1 -15 -24h4l-4 -9l2 -2h11l-6 4v7l-2 1l4 8l9 -2v6l-9 -2v7zM251 344l-2 -12l12 6zM282 306v13h-4l2 -7h-11v5l-3 -3l1 -4zM262 312l-9 12l-6 -12h2v-6h-3q4 6 16 6zM235 326q-4 4 -9 4l1 -2zM235 312v5l-2 2l-11 2l6 -11zM264 292 h-15l6 -11l2 -1l1 6zM243 297h-15l-2 -3q11 1 11 -3q-1 -2 -2 -3q6 3 8 9zM253 268l-2 4zM208 308l-2 6h-18l7 -8zM173 324l-3 4zM231 243l1 9l-4 2v-4h-3l-3 -3l5 -5zM240 230l2 1l-2 3v-4zM173 281l4 1q-1 3 -4 4v-5zM240 216v4l-2 1zM142 317l-10 4v-7zM195 288l-7 6h-8 l2 7l-12 7l3 9q-11 3 -19 3l-6 -1v-11l-8 -1l-2 -2q9 -2 37 -4v-4h-13q-37 0 -58 6l9 -9l19 3l5 -11l11 -3l2 9h3v-6l4 -3v7h23l2 -7h9zM128 306l-4 6h-18v-6h22zM119 279l8 5l-8 4v-9zM77 312l7 2l-7 3v-5zM112 290h-11l-2 -11h7v7zM77 299l7 2l-7 2v-4zM63 281l2 5l-3 2 h-1zM164 314l4 -2l-6 -4zM144 288l-4 1v2l4 3v-6zM431 65l-2 -58l-5 -5h-22q-12 0 -48 2l-4 4q-21 -2 -62 -4q-7 6 -30 4q-42 -3 -34 -3q-19 0 -26 6l-12 -3l-4 5l-5 -6q-22 4 -53 3q-27 -2 -54 -3l-2 65l13 2q21 0 173 -4q104 -2 172 2zM347 13l3 1l-5 3zM247 27l4 3l-3 4 h-1v-7zM188 17q-3 5 -2 17h-12l-2 -5l8 -4l-6 -1v-4l8 -4zM158 40l-1 5h-10l3 -7zM154 22l-4 7l3 4l-5 3h-1v-9h-11v-5l5 2z" />
<glyph unicode="&#xb2;" horiz-adv-x="518" d="M378 435h-5q-20 -17 -65 -87l-16 -5q-11 -24 -35 -57q-35 -47 -40 -55l1 -7q0 -10 -7 -5v-10q-19 -19 -27 -81q34 0 103 3t102 3l26 -16q0 9 0 -48q0 -78 -35 -78q-19 0 -57.5 6.5t-57.5 6.5h-97q-19 0 -56.5 -5.5t-56.5 -5.5l-4 11h4q-2 14 -2 39q0 102 24 122 q1 21 16.5 61.5t15.5 62.5l17 10q7 17 34 51q24 31 30 52q43 27 77.5 87t34.5 110q0 80 -49 80q-51 0 -64 -60q-1 -4 -5 -100q-40 -4 -75 -4q-30 0 -48 4v43q0 74 18 116q10 24 36 51q23 23 27 43q41 19 116 19q74 0 121.5 -43t47.5 -116q0 -18 -6 -64l2 -4q-5 -62 -45 -130 zM389 241h-8l-8 3l8 8l9 -10z" />
<glyph unicode="&#xb3;" horiz-adv-x="495" d="M37 814l4 -3l-6 -8zM450 152l-6 -2q0 -73 -50 -111q-45 -34 -120 -34q-109 0 -151 52q-38 46 -38 158q0 53 9 77q35 -13 114 -13v-65q-1 -38 4 -70l8 -1q-1 -23 7 -31.5t30 -8.5q50 0 65 37q8 21 8 80q0 99 -15 119q-20 28 -114 32v97q10 0 30 -1.5t30 -1.5q63 0 63 160 q0 26 -10 39l-16 5l-10 16l-15 2q-43 0 -55 -40q-4 -16 -4 -75l-2 -21q-17 0 -51 -1.5t-50 -1.5l-21 3q0 231 171 231q49 0 88 -13l4 -10q17 -11 42 -7l-1 -7q0 -11 13 -21t15 -15l6 -40q14 -9 14 -45q0 -80 -8 -113q-15 -65 -62 -89q58 -32 73 -100q8 -33 8 -130 q0 -30 -3 -40zM40 439l-10 15l7 6l4 -6v-7zM45 403l-14 5l4 27zM480 -22h-15v6l6 7l9 -5v-8zM35 376l-3 9l3 12l5 -8zM40 355l-7 8l2 8l9 -12zM374 707l-18 4l7 -7zM330 728l3 16l-1 6h-2l-6 -1v-18h-10zM364 695h-15l-8 12l-9 -8l17 -5h13z" />
<glyph unicode="&#xb4;" d="M330 787q-20 -31 -36 -40q-4 -11 -20 -24q-3 -14 -16 -28q-17 -19 -20 -25q-8 -13 -32 -15q14 1 -38 1l-21 1l-3 6l46 127q70 0 132 9z" />
<glyph unicode="&#xb6;" horiz-adv-x="744" d="M87 815l-5 3l3 3zM428 572.5q-4 -50.5 -4 -76.5q0 -24 2 -45l-2 -3q0 -17 -3 -189l-9 -2v-6l12 -5q2 -13 -1 -36q-5 -27 -5 -36l6 -10q0 -2 -6 -31l6 -18l-3 -14l3 -2q0 -25 2 -75q-6 1 -6 -1q0 -1 2 -3.5t2 -3.5l2 -6q-15 4 -48 2t-50 4l-11 -8l-15 -1l-13 1l-2 32 q-2 39 1 105q4 80 4 105q0 2 4 10q3 6 -1 8l1 9l2 2v49h10q-10 18 -10 37v15l13 3l4 5h-20q-5 5 0 9l-9 5l-2 -11l-8 -6l2 -10q-79 -12 -95 -12q-20 0 -38 6q0 4 -36 22l-35 80q-6 20 -6 86q0 3 -6 6t-6 6v5l9 12l-5 10l3 11l-3 1q0 59 11 78q0 61 52 91v10l16 -1l24 7l-3 8 l8 1h69q68 0 56 -1l7 -5q6 4 134 5l3 -8q0 -23 -2.5 -71t-2.5 -73.5t-4 -76zM257 235l-8 -2v7l-9 9l-1 10q0 1 1 15zM475 -11l7 -2q-4 -3 -12 -6v6zM27 394h-1l-4 2l5 3v-5zM90 322l-3 5l3 1l3 -3v-1l-2 -2h-1zM46 317l-5 -11l-7 8h-10l-1 36v28l1 13h6q1 0 3 -1l-1 -8 q0 -5 2 -29l7 3l2 -1v-9l-11 5q0 -24 14 -34zM56 298l-5 2l3 9l4 -4zM35 306l4 -3l-7 -11h-8l2 4l-5 8zM226 2l-18 -2v10l3 3l10 -8h7zM339 766l-2 9l-8 -5l8 -4h2zM358 738l-3 6h-8l-3 -6h14zM358 716h-9v8l3 1v6h-11l-2 5l-9 -9l14 -3l3 -12l5 -5zM404 668h-11l7 -9z M355 700v5l-16 -2zM344 697l-5 -5h-1l-8 5l-11 -4l1 -3h21zM374 577v6q-3 -2 -5 -5zM383 564v5h-5l-7 -12h-8l2 -3q7 3 18 10zM163 719v5l-3 -3zM339 531l-2 7h-9l-3 -13h5v2zM156 700v7h-2l-6 -4v-2q2 0 5 -1h3zM306 615q-6 20 -6 30v4l6 8q0 10 -3 40l-17 -2q-1 0 -6 2.5 t-6 2.5q-10 0 -29.5 -4t-29.5 -4l-7 -17h-6q-2 -12 -8 -35l-5 -3q0 -5 2.5 -15t2.5 -15q0 -8 -2.5 -25.5t-2.5 -26.5v-17l8 -5l-6 -17l8 -5v-10q34 -21 35.5 -21.5t30.5 -0.5q17 0 28 -3l7 5q0 9 -1 27t-1 27v50q0 8 8 30zM341 497h-1l-3 -3v-2zM380 460h-6v2l-8 -8h12z M404 421l-2 8q-2 0 -4 -1q-1 0 -5 1v11l-13 -2v-4h-11l2 14h-8v-5l-7 -6l7 -6l-8 -13l25 6v10l11 -3l2 -7zM134 675l-3 11l-4 1l-2 -3zM156 651l-4 -5l6 2zM341 472h-9l-2 -15l9 3zM355 443v19l-8 -7v-7l-6 -5h14zM332 448h-4l2 -5l5 2zM339 438l-11 -4l-3 -5h7zM349 421v5 l-21 -1v-4l11 -5v5h10zM308 440l-2 8l-7 -9l4 -8zM284 460q-3 -1 -6 -6zM383 372v5h-25q1 4 5 11h-24l-2 17q-6 -2 -9 -8l4 -3q-3 -8 -12 -19l2 -16l6 2l-3 14l5 8h14q-5 -7 -11 -19l6 -5l2 4l11 7l6 -4l-3 -5l8 -2l8 13h12zM315 424q-7 0 -7 -6zM402 325h-22v9h-2l-4 5l7 2 l-12 10l-8 -5l-3 -15l16 -6l-18 -3q5 -3 12 -3h6q4 1 6 1l8 -3zM128 588l-9 -5l2 -8l5 2zM274 424h-3l-1 -6l6 3zM197 501q-3 -5 -3 -9zM235 454l-3 14l-2 1l-3 -6zM276 407v7l-4 -2l-2 -5h6zM249 443h-6v-12zM235 440l-3 6h-13l-2 15l4 4l-2 7l-8 -2l-1 -8v-9q0 -13 20 -13 h5zM182 503l-9 -6l2 -3h2zM199 479l-5 -5l3 -2zM182 481v8h-2l-6 -5zM167 489q-9 -4 -9 -11l5 -2zM221 418v11l-6 2q-1 -3 -2 -5v-8h8zM388 243l-6 -4l3 -2zM174 454l-9 -1l7 -7l2 7v1zM215 394v13l-5 -2zM385 227v8q-7 -2 -10 -6zM126 481v6q-4 0 -7 -6h7zM152 446q1 6 1 8 v2q0 3 -1 6l-3 -6zM167 440h-11l4 -9zM141 448q-3 4 -10 22l-5 -5l-1 -8zM366 237l-3 6l-31 -3v-4q6 -2 9 -7l11 8h14zM148 421l1 6l-4 11l-2 -6zM361 213l-3 12l-4 -6zM366 189h-11l6 -6zM371 166l11 3l-16 9l-16 -3q6 -9 21 -9zM341 199l-4 6h-1l-4 -2l-2 -7zM380 148v10 h-9v-3l2 -6q2 -5 1 -10zM369 139l-5 -3l2 -3zM352 142l-4 -2l1 -4l6 3zM363 126l-16 -3zM385 95v16h-7v-10l-26 3l-3 -9h36zM380 79v8l-25 -8q2 0 5 -1zM341 111l-9 -5v-5l5 -6l9 3l-7 3zM352 73h-8l-3 6l-7 -2l-2 -9h17zM681 571l-5 -2q3 -112 3 -223l-6 -9l3 -58h4 q0 -23 -3 -70.5t-3 -71.5q0 -38 5 -69q-1 -30 -3 -69l-26 -3l-6 6q-8 0 -35 -2q-21 -1 -34 0q-18 2 -34 9q3 13 7 38l-7 4l-1 23l1 14l7 2q-1 10 0 26q2 20 2 26v-1v2l-1 9q2 83 -6 250l7 15l-7 6l7 5l1 10q0 20 -8 82l7 9q0 20 -8 80.5t-8 89.5q0 44 14 64l-9 37l16 6h96 l28 -2l2 -19l-5 -7q-1 -105 3 -138l-3 -5q0 -39 5 -64zM630 681q-5 5 -12 5q11 -5 12 -5zM570 657l10 6l-10 14v-20zM593 638l-1 3l-5 2v-5h6zM575 638v3l-5 2v-5h5zM601 609l-9 5l-4 -1q4 -2 13 -4zM625 588h-12l-9 12l14 -17zM587 592l5 1l-5 4v-5zM608 569l1 5h-5z M599 518q-2 2 -3 4zM584 454l3 5l-5 1zM625 385l-5 9h-2l-14 -9h21zM599 385q-2 7 -6 7v-7h6zM610 356l10 4l-12 3zM635 294v4l-2 2l-3 -2zM610 288l8 5l1 2l-11 1zM582 274q-2 4 -3 8zM604 240v8l-3 3h-2v-11h5zM575 151l1 3l-3 5z" />
<glyph unicode="&#xb7;" horiz-adv-x="268" d="M186 324q-8 -7 -19 -7q-6 0 -19.5 -2t-20.5 -2q-15 0 -26 4l2 43h1q1 18 -5 54l14 8q9 0 32 -1q20 -2 32 -1l9 -5q-1 -12 -1 -27v-32q1 -20 1 -32z" />
<glyph unicode="&#x2219;" horiz-adv-x="268" d="M186 324q-8 -7 -19 -7q-6 0 -19.5 -2t-20.5 -2q-15 0 -26 4l2 43h1q1 18 -5 54l14 8q9 0 32 -1q20 -2 32 -1l9 -5q-1 -12 -1 -27v-32q1 -20 1 -32z" />
<glyph unicode="&#xb8;" horiz-adv-x="453" d="M418 816l-9 -4l-11 23l-19 -3l-6 6l7 6q13 2 22 2h6h10v-30zM421 803l-2 -2h-6l-3 6l3 3zM413 16l-23 -20q-15 0 -43.5 7.5t-43.5 7.5l-2 -6l-13 -1l-24 1v11l9 2q-3 20 -6 60l6 2q0 18 -2.5 56t-2.5 57q0 31 5 56l-6 8q5 32 0 67l-6 3v14l-12 8q-5 23 -47 23 q-12 0 -36 -3l-3 26q-4 0 -5 6q-1 5 2 7l-19 3l-4 -11h12l-1 -9l1 -11h-14v-5l17 -4l-3 -4l-12 -4l4 -5h16l-3 -11l6 -3l-6 -9q3 -11 3 -75h3l-6 -14l9 -11l-6 -25l3 -4q0 -34 1 -98q2 -69 2 -97q-77 4 -106 -4l-4 6h-24q0 42 5 139q5 93 5 140q0 29 -1 55l-2 39l-5 5 q2 3 5 9q4 39 2 111q-4 104 -4 113q0 42 -9 82l4 8q-4 7 -3 37q0 36 -1 42q69 6 71 6h188q21 0 48 -13t38 -30v-11q28 -42 28 -121l6 -5l-2 -84q-5 -54 -26 -76h-8l-17 -23l-16 1l-4 -1l-6 -8l62 -45v-16l9 -15l-3 -25q0 -272 20 -311zM157 380l-4 2l4 4v-6zM295 663l-3 17 l-14 4l3 -12zM334 624l-4 6l-4 -1q3 -4 8 -5zM334 616l-5 6l-15 -15l-13 -2v-11l16 -6l6 8h-11l2 9h9v8zM199 746l-2 8q-6 -3 -9 -14l-10 1l-7 -1l1 -5l-3 -7l2 -8h12l-6 9v5h14zM351 566l-11 6v-3l2 -15zM191 714l-1 4l-5 2v-6h6zM146 723q-1 3 -5 5v-5h5zM338 539l-4 5v13 h-17l3 -8l-8 -5l-11 2v-6q8 -5 24 -13l-5 2v11zM124 728l-4 12l2 -1l2 1v2l-11 3l-12 -8v-9h23zM314 501q-7 9 -5 15h-6v-12zM312 487l-6 8h-11v-13zM275 619q0 2 -7 27q-9 29 -22.5 39t-44.5 10q-4 0 -44 5q-6 -11 -6 -21q0 -12 3.5 -34.5t3.5 -34.5q0 -28 -6 -36l5 -6 q2 -16 2 -18q0 -9 -4 -28.5t-3 -28.5l-9 -9v-5q3 2 7 3h4l-2 -12l11 -3l-3 -14l6 3v11q72 8 91 23.5t19 57.5v32q-1 23 -1 39zM341 447l-4 1l3 -6zM120 654l-5 4v-6zM284 470l-3 3h-3q-6 -5 -6 -10l9 -1zM286 408v15h-8l-11 -6l-3 -10l9 2v2zM238 457l-1 6l-4 4v-8h-8l-6 6 q-9 -8 -11 -26h11l-2 7l2 7h17zM259 405l-9 6l-9 -11v-5q9 3 18 10zM306 335v6h-11l-6 14h-5l2 -17zM314 327l-28 3l6 -17h8l1 2l-9 7l20 -3zM320 302l-8 3v-6zM132 482l-4 21l-19 7v-6l-5 -4l9 -5l5 4l2 -9l-13 -2l-3 -15l22 -3l-2 9h-9l9 8zM340 268v5l-3 1l-3 -3z M312 286q0 5 -6 5l6 -6v1zM233 395l-11 13l-3 -5l-8 3l-9 -15h-6l-13 4v1l11 7h-20q0 -8 -3 -25h9l-3 8q15 -2 24 -2l10 2v11q5 0 22 -2zM340 257q-6 6 -15 6zM365 240l-28 3v-8l8 3l6 -11h11l-1 4zM87 499v5l-19 -3l-4 15h-7l4 -6l-4 -6l2 -5h28zM133 443q-4 5 -7 8l-2 -4 l5 -5zM289 287l-4 4h-1q2 -3 5 -6v2zM320 263q-21 0 -23 4l-8 10l-5 -6l7 -2v-3l-7 -6l25 -5l3 5l7 1zM117 450l-4 3l-4 -5zM331 232v3l-6 11h-8zM165 420l-2 3v5l-15 4q-1 0 -5 -1l-2 -8h-6v8l-9 5v-11h-11l5 -17h-5v-5l9 -6h-9l3 -11l-4 -1l1 -7h11l-2 8h5l3 22l-4 1l-2 5 l20 3l6 11v-11l11 -3zM303 246l-11 3l-8 -11v-6h8zM90 434v3l-3 -1v5l-2 1l3 8l-3 3l-6 -5l2 -12l-13 -2l-4 -11l12 -4l-3 12zM96 417l-4 8h-11l-2 -6zM109 406l-2 17h-6v-12q-23 3 -30 3l-3 -3l11 -5v-6l-3 -3l5 -6v12q22 4 28 3zM153 348l-12 4l-6 -8zM327 176q-3 2 -4 17 l-37 2l3 -8h28l3 -11h7zM109 380l-5 6l3 14h-6q-6 -11 -9 -19q2 0 4 -1h13zM151 337l-5 4v-6zM129 363l-5 6h-9l3 -17l6 -2v-1l-4 -8l-11 3v-5l11 -4q6 13 9 28zM286 178l-4 4h-1l5 -6v2zM73 389l-5 2l-4 -8zM107 369l-5 4l-4 -1l-19 3q-2 -1 -11 -3v-9q14 2 21 2l15 -7z M107 355h-9l3 -11q-13 -9 -20 -9h-2l-3 9h-12v-11l9 6v-9q20 -5 24 -5q10 0 10 30zM68 355q-1 4 -4 6zM150 246q0 4 -7 9l-6 -9h13zM83 306q-2 3 -7 5v-6zM109 277v2l-13 4l2 -9zM113 288l-4 6h-45l-2 -15l25 -2v6l-2 5h28zM99 251l-3 6l2 -8zM101 262v8l-5 1l-10 -6l-12 4 l-4 -1v-5l3 -6l-7 -6l7 -5v-6h-3l9 -2l-3 11l9 2v9l2 3zM120 215l-11 6l-2 -14l2 -12l9 -2l-3 17zM97 206l-7 4v-6zM146 137l-5 16h-17v-11h8l-6 -11l11 -2zM102 169l-1 4h-5v9h-11l2 -12zM108 156q-1 4 -10 6l3 -6h7zM142 110l-1 9h-9l5 -11h1zM112 138l-14 1h-2l2 -5z M116 734l-7 -3l6 6z" />
<glyph unicode="&#xb9;" horiz-adv-x="352" d="M264 61q0 -31 -6 -60q-12 -1 -33 1q-24 3 -33 3q-8 0 -57 -9q-17 9 -17 41q0 41 2.5 123.5t2.5 123.5q0 28 5 84t5 84q0 53 -3 188q-12 0 -36.5 4t-36.5 4v19q-5 1 -5 11q0 47 28 71l68 47q16 0 110 -8q8 -27 8 -37q0 -32 -5 -96.5t-5 -96.5q0 -83 4 -249t4 -248z" />
<glyph unicode="&#xba;" horiz-adv-x="300" d="M226 781h3l-2 -3zM238 571h-3q0 -9 1 -28t1 -28q0 -39 -10 -60l-5 -2l-3 -11q-12 -10 -39 -26q4 -8 5 -19h-8l1 5l-1 1l3 5l-5 -5h-8l3 2v8l-12 -3l-4 3h-6q-2 0 -6 -1t-7 -1l-2 -3l-3 5q-12 2 -34 8l-3 5q-18 -4 -26 29l-5 3q0 18 -5 54t-5 55q0 20 4 38l-10 2l8 3l2 3 q0 145 27 157v5l5 6h5l3 5q3 0 14.5 4t14.5 4l1 3q22 1 24 1q21 0 37 -8q1 0 32 -20v-5l5 -3v-5q14 -19 14 -79l-3 -2l3 -13l-3 -3q0 -5 2 -14t2 -14q0 -3 -2.5 -25.5t-1.5 -24.5q3 -10 3 -11zM136 408q-1 -1 -1 -3zM217 584h3q-5 5 -16 8l10 -3zM204 576l-3 5v-8l8 2z M214 565q-1 3 -5 3q2 -2 5 -3zM196 613l-1 8l1 8q-7 3 -19 7l-2 3v84q0 22 -30 22l-18 -6q1 -16 1 -19q0 5 -3 -21q-1 -2 -3 -3q1 -3 3 -5l-3 -2v-53l3 -2l-5 -3v-142l2 -10l6 -3v-5l21 -7l10 2q9 11 11 65l2 53l3 3l-3 7q2 9 3 34v6h7l6 -8l-3 -3v-5l-5 -8h8v5zM253 292 l-6 -5q0 -6 4 -49l-6 -11q-17 0 -24 -7q-4 -3 -14 -22q-21 8 -28 8h-4l-8 -6q-7 2 -16 11l-14 -3l-16 11l-6 -8l-24 -3l-5 6l-11 -14l-11 6l-3 -6l4 -2l-6 -6l-6 14l-8 -3q-1 2 -2 5q0 8 2 23.5t2 22.5l-4 3v29q0 12 18 63q56 4 54 4q8 0 40 -2l9 -8q24 8 26 8q12 -8 55 -5 q3 -11 2 -38h6v-16z" />
<glyph unicode="&#xbb;" horiz-adv-x="732" d="M635 329l6 -2l-11 -6v6zM644 307q-1 -5 -1 -29.5t-12 -34.5q-7 -5 -35 -14v-18h-9q-6 -13 -5 -18l-8 1l-5 -1q-5 -3 -9 -17h-8q-3 -5 4 -22q-16 -12 -48 -44q-17 5 -26 5q-8 0 -24.5 -2.5t-24.5 -2.5q-16 0 -48.5 2t-48.5 2l-13 9q3 16 17 40l14 4q14 22 39 48h18 q-3 7 -5 18q19 21 49 66q-88 84 -110 132q-15 9 -31 30q4 6 5 18q29 0 86.5 5t86.5 5l11 -1l5 -5l48 -70q7 -3 18 -9q10 -21 48 -57l-4 -12q0 -22 26 -28zM192 490l-5 -7v8l3 1zM411 299q-5 -4 -13 -31q-28 -18 -57 -73q-31 -59 -53 -76v-5q-16 -5 -39 -3l-40 3 q-14 0 -40.5 -4t-40.5 -4q-31 0 -31 15q0 14 28 50h13l5 14l22 13q12 33 22.5 45t43.5 34l-1 16l1 10q-145 132 -145 167t29 35l37 -13v-9h22l4 -8h3q9 0 23 8v5h2q2 -14 16 -13v8l53 5l4 -9q8 -6 42 -56q37 -54 50 -67v-5q11 -5 21 -20l19 -28v-4z" />
<glyph unicode="&#xc0;" horiz-adv-x="552" d="M498 15l-2 -30q-94 15 -135 11q-9 25 -4 49l-5 3v58l-6 3l1 23q1 12 -6 18v25l-5 2l-3 36l-8 -3l-14 12q-8 1 -21 0q-16 -2 -21 -2l-11 2l-8 8q-1 0 -2.5 -2.5t-2.5 -2.5l-6 -2l-19 7l-3 -8l3 -11l-6 -3l3 -16l-8 -6v-24l-3 -40l-9 -2l3 -9q-4 -2 -2 -7t5 -3 q-3 -31 -8 -48q2 1 2 -2q1 -3 -2 -3q0 -14 -6 -50h-30l-2 9h-2q-7 -6 -16 -6l-30 8q1 -8 -8 -8h-5v14q0 5 -6 5q-6 -1 -5 -5l-14 1l-9 -1l5 16l-7 9l11 27l-3 11l9 11q-2 7 8 25l-6 8l6 15l8 2l-6 17q12 39 11 52l8 -3q-11 16 0 44h-2v6l5 6l-3 13l15 11l-6 15l8 7l-8 11 q2 14 11 34l-5 13l10 6l-2 27q3 0 5 4q1 4 0 7q13 13 13 31q0 7 -3 22.5t-3 23.5l1 11l9 6l-3 14l9 28l-4 5v14l8 5l-5 19l14 17q-3 20 -3 42q0 25 3 41l11 5l-11 9q7 12 6.5 28.5t1.5 21.5h6l-3 21h28l4 6q37 -6 51 -2l17 -6l2 8q35 -8 42 3q37 -6 41 -5l8 8q0 -63 23 -160 q-4 -13 2 -48l-6 -5q15 -12 16 -31q2 -26 7 -35l-3 -30l5 -3l11 -56l-3 -16q-8 1 -8 -9v-5l6 9h5l6 -25q-7 -14 -25 -19v-9l27 3q4 -12 8 -37q-16 -10 -16 -21l3 -6l19 -2l-2 -11q0 -8 6 -24.5t5 -27.5l5 -6q-1 -13 3 -44l-6 -6l-23 1l-10 -1v-8l8 -8q2 -1 9 5h25 q0 -9 5.5 -30.5t5.5 -28.5q0 -4 -1 -7q14 -18 9 -42l6 -5l-3 -20zM344 -2q-13 0 -40 3.5t-40 3.5q-10 0 -30.5 -3.5t-30.5 -3.5l3 6h11v5l14 6l2 8h12l11 9l10 -6q12 6 20 6h3l11 -11q5 2 12 3l7 -1q5 -14 25 -19v-6zM341 752q-1 3 -5 5v-5h5zM283 713v8h-8v-5zM222 746 l3 12l-3 5l-2 -1l-3 -5h-3v-11h8zM197 707q0 2 -2 9h-9v-9l10 -4q1 2 1 4zM214 697h-3v-9l-5 -3l3 -5l6 11q-2 4 -1 6zM237 636l1 6l-4 2l-3 -3zM197 542l3 1l-5 4zM313 321q1 42 1 44q0 6 -1 12h-5l-8 80l-6 2q-4 13 0 35q-13 19 -8 51l-5 5q0 8 1 25t1 25q-3 6 -6 13h-5 v-10l-6 -6v-5l6 -8q2 -8 -6 -17q0 -19 -5 -58t-5 -58l-6 -9v-33l-9 -13l1 -24q0 -1 -3 -18l-6 -2q5 -28 8 -29.5t31 -1.5l9 -8zM361 352l4 2l-8 6zM424 197v3l-3 2l-3 -2zM441 172l2 3l-2 2l2 8l-2 4q-8 -3 -25 -17h25zM424 183q-1 2 -1 3l-5 3v-6h6zM206 412q-5 -6 -17 -14 l3 -5q5 4 14 19zM214 341q-1 3 -3 5zM311 227v3l-3 3zM272 230l6 1l-9 5zM140 247l10 3l-16 11zM170 192v5h-9zM134 164h2l1 2q0 5 -6 6zM157 125l-1 4l-5 2v-6h6zM104 169q-2 3 -3 6zM112 78l3 -5l7 1zM170 9v4l-4 4h-1v-4zM153 12v6l-3 3h-2l-3 -4v-5h8zM109 34q0 4 -3 6z M336 839l-3 -6l-59 -1q-16 -1 -26 4q-18 20 -42 63q-17 9 -20 24q-19 10 -36 40l8 12q62 -9 132 -9z" />
<glyph unicode="&#xc1;" horiz-adv-x="552" d="M498 15l-2 -30q-94 15 -135 11q-9 25 -4 49l-5 3v58l-6 3l1 23q1 12 -6 18v25l-5 2l-3 36l-8 -3l-14 12q-8 1 -21 0q-16 -2 -21 -2l-11 2l-8 8q-1 0 -2.5 -2.5t-2.5 -2.5l-6 -2l-19 7l-3 -8l3 -11l-6 -3l3 -16l-8 -6v-24l-3 -40l-9 -2l3 -9q-4 -2 -2 -7t5 -3 q-3 -31 -8 -48q2 1 2 -2q1 -3 -2 -3q0 -14 -6 -50h-30l-2 9h-2q-7 -6 -16 -6l-30 8q1 -8 -8 -8h-5v14q0 5 -6 5q-6 -1 -5 -5l-14 1l-9 -1l5 16l-7 9l11 27l-3 11l9 11q-2 7 8 25l-6 8l6 15l8 2l-6 17q12 39 11 52l8 -3q-11 16 0 44h-2v6l5 6l-3 13l15 11l-6 15l8 7l-8 11 q2 14 11 34l-5 13l10 6l-2 27q3 0 5 4q1 4 0 7q13 13 13 31q0 7 -3 22.5t-3 23.5l1 11l9 6l-3 14l9 28l-4 5v14l8 5l-5 19l14 17q-3 20 -3 42q0 25 3 41l11 5l-11 9q7 12 6.5 28.5t1.5 21.5h6l-3 21h28l4 6q37 -6 51 -2l17 -6l2 8q35 -8 42 3q37 -6 41 -5l8 8q0 -63 23 -160 q-4 -13 2 -48l-6 -5q15 -12 16 -31q2 -26 7 -35l-3 -30l5 -3l11 -56l-3 -16q-8 1 -8 -9v-5l6 9h5l6 -25q-7 -14 -25 -19v-9l27 3q4 -12 8 -37q-16 -10 -16 -21l3 -6l19 -2l-2 -11q0 -8 6 -24.5t5 -27.5l5 -6q-1 -13 3 -44l-6 -6l-23 1l-10 -1v-8l8 -8q2 -1 9 5h25 q0 -9 5.5 -30.5t5.5 -28.5q0 -4 -1 -7q14 -18 9 -42l6 -5l-3 -20zM344 -2q-13 0 -40 3.5t-40 3.5q-10 0 -30.5 -3.5t-30.5 -3.5l3 6h11v5l14 6l2 8h12l11 9l10 -6q12 6 20 6h3l11 -11q5 2 12 3l7 -1q5 -14 25 -19v-6zM341 752q-1 3 -5 5v-5h5zM283 713v8h-8v-5zM222 746 l3 12l-3 5l-2 -1l-3 -5h-3v-11h8zM197 707q0 2 -2 9h-9v-9l10 -4q1 2 1 4zM214 697h-3v-9l-5 -3l3 -5l6 11q-2 4 -1 6zM237 636l1 6l-4 2l-3 -3zM197 542l3 1l-5 4zM313 321q1 42 1 44q0 6 -1 12h-5l-8 80l-6 2q-4 13 0 35q-13 19 -8 51l-5 5q0 8 1 25t1 25q-3 6 -6 13h-5 v-10l-6 -6v-5l6 -8q2 -8 -6 -17q0 -19 -5 -58t-5 -58l-6 -9v-33l-9 -13l1 -24q0 -1 -3 -18l-6 -2q5 -28 8 -29.5t31 -1.5l9 -8zM361 352l4 2l-8 6zM424 197v3l-3 2l-3 -2zM441 172l2 3l-2 2l2 8l-2 4q-8 -3 -25 -17h25zM424 183q-1 2 -1 3l-5 3v-6h6zM206 412q-5 -6 -17 -14 l3 -5q5 4 14 19zM214 341q-1 3 -3 5zM311 227v3l-3 3zM272 230l6 1l-9 5zM140 247l10 3l-16 11zM170 192v5h-9zM134 164h2l1 2q0 5 -6 6zM157 125l-1 4l-5 2v-6h6zM104 169q-2 3 -3 6zM112 78l3 -5l7 1zM170 9v4l-4 4h-1v-4zM153 12v6l-3 3h-2l-3 -4v-5h8zM109 34q0 4 -3 6z M425 968q-1 -9 -5 -22q-8 -5 -26 -37q-8 -2 -17 -8l-2 -15l-56 -58l-22 -1q-22 3 -67 4q14 56 36 100l-3 9l9 11v14l8 5q28 -6 64 -6q13 0 81 4z" />
<glyph unicode="&#xc2;" horiz-adv-x="552" d="M498 15l-2 -30q-94 15 -135 11q-9 25 -4 49l-5 3v58l-6 3l1 23q1 12 -6 18v25l-5 2l-3 36l-8 -3l-14 12q-8 1 -21 0q-16 -2 -21 -2l-11 2l-8 8q-1 0 -2.5 -2.5t-2.5 -2.5l-6 -2l-19 7l-3 -8l3 -11l-6 -3l3 -16l-8 -6v-24l-3 -40l-9 -2l3 -9q-4 -2 -2 -7t5 -3 q-3 -31 -8 -48q2 1 2 -2q1 -3 -2 -3q0 -14 -6 -50h-30l-2 9h-2q-7 -6 -16 -6l-30 8q1 -8 -8 -8h-5v14q0 5 -6 5q-6 -1 -5 -5l-14 1l-9 -1l5 16l-7 9l11 27l-3 11l9 11q-2 7 8 25l-6 8l6 15l8 2l-6 17q12 39 11 52l8 -3q-11 16 0 44h-2v6l5 6l-3 13l15 11l-6 15l8 7l-8 11 q2 14 11 34l-5 13l10 6l-2 27q3 0 5 4q1 4 0 7q13 13 13 31q0 7 -3 22.5t-3 23.5l1 11l9 6l-3 14l9 28l-4 5v14l8 5l-5 19l14 17q-3 20 -3 42q0 25 3 41l11 5l-11 9q7 12 6.5 28.5t1.5 21.5h6l-3 21h28l4 6q37 -6 51 -2l17 -6l2 8q35 -8 42 3q37 -6 41 -5l8 8q0 -63 23 -160 q-4 -13 2 -48l-6 -5q15 -12 16 -31q2 -26 7 -35l-3 -30l5 -3l11 -56l-3 -16q-8 1 -8 -9v-5l6 9h5l6 -25q-7 -14 -25 -19v-9l27 3q4 -12 8 -37q-16 -10 -16 -21l3 -6l19 -2l-2 -11q0 -8 6 -24.5t5 -27.5l5 -6q-1 -13 3 -44l-6 -6l-23 1l-10 -1v-8l8 -8q2 -1 9 5h25 q0 -9 5.5 -30.5t5.5 -28.5q0 -4 -1 -7q14 -18 9 -42l6 -5l-3 -20zM344 -2q-13 0 -40 3.5t-40 3.5q-10 0 -30.5 -3.5t-30.5 -3.5l3 6h11v5l14 6l2 8h12l11 9l10 -6q12 6 20 6h3l11 -11q5 2 12 3l7 -1q5 -14 25 -19v-6zM341 752q-1 3 -5 5v-5h5zM283 713v8h-8v-5zM222 746 l3 12l-3 5l-2 -1l-3 -5h-3v-11h8zM197 707q0 2 -2 9h-9v-9l10 -4q1 2 1 4zM214 697h-3v-9l-5 -3l3 -5l6 11q-2 4 -1 6zM237 636l1 6l-4 2l-3 -3zM197 542l3 1l-5 4zM313 321q1 42 1 44q0 6 -1 12h-5l-8 80l-6 2q-4 13 0 35q-13 19 -8 51l-5 5q0 8 1 25t1 25q-3 6 -6 13h-5 v-10l-6 -6v-5l6 -8q2 -8 -6 -17q0 -19 -5 -58t-5 -58l-6 -9v-33l-9 -13l1 -24q0 -1 -3 -18l-6 -2q5 -28 8 -29.5t31 -1.5l9 -8zM361 352l4 2l-8 6zM424 197v3l-3 2l-3 -2zM441 172l2 3l-2 2l2 8l-2 4q-8 -3 -25 -17h25zM424 183q-1 2 -1 3l-5 3v-6h6zM206 412q-5 -6 -17 -14 l3 -5q5 4 14 19zM214 341q-1 3 -3 5zM311 227v3l-3 3zM272 230l6 1l-9 5zM140 247l10 3l-16 11zM170 192v5h-9zM134 164h2l1 2q0 5 -6 6zM157 125l-1 4l-5 2v-6h6zM104 169q-2 3 -3 6zM112 78l3 -5l7 1zM170 9v4l-4 4h-1v-4zM153 12v6l-3 3h-2l-3 -4v-5h8zM109 34q0 4 -3 6z M401 839h-113l-26 40h-8q-9 -16 -17 -40q-14 0 -41.5 -3t-41.5 -3v15q6 7 15 20v8l8 5q3 14 17 29q6 19 13 37q11 30 33 30q5 0 41 -2q25 -1 41 1q5 -18 20 -38l-12 -3q-6 0 -11 6l-9 -14l-8 -3v-8h11v-12l-8 -3v-17h5v12l9 5l3 15l14 -6l6 22q33 -25 36 -53l12 -6zM302 952 l3 -8l11 2q-5 5 -14 6zM296 938l-6 18h-11l-4 -12l2 -13l-3 -4l11 -3l3 -5l6 3v2l-4 8zM327 890l1 3l-6 3q2 -2 5 -6zM290 896l3 6l-5 2l-3 -4zM257 919l1 6l-4 2q1 -4 3 -8zM305 868l1 6l-4 3l-3 -1l-3 -8h9zM234 907q-1 3 -3 12h-6l-6 -6l9 -13l-2 -5l-4 6v-5h9zM234 859 l-1 6l-5 3v-9h6zM285 936l2 -3l-5 -3v3z" />
<glyph unicode="&#xc3;" horiz-adv-x="548" d="M431 960v-65l-5 -4l-7 1q-15 -8 -45 -26l-2 -5q-21 -9 -60 -32q-34 3 -48 12q-9 6 -34 35l-7 -3l-4 1l-4 4l-5 -7l-6 1q-17 0 -46.5 -15t-46.5 -15l-3 71q9 0 29 13.5t22 13.5h37q19 0 52 -16t52 -16q37 0 69 24q39 30 58 36q2 -3 4 -8zM281 858h1l3 3v2l-4 3v-8z M222 884l-3 5v12h-9l-3 -6l8 -2l-5 -2v-5l5 -4zM194 908l-1 5h-9l2 -7zM190 889l-4 6l3 5l-5 3v-9h-10v-5l3 2zM498 15l-2 -30q-94 15 -135 11q-9 25 -4 49l-5 3v58l-6 3l1 23q1 12 -6 18v25l-5 2l-3 36l-8 -3l-14 12q-8 1 -21 0q-16 -2 -21 -2l-11 2l-8 8q-1 0 -2.5 -2.5 t-2.5 -2.5l-6 -2l-19 7l-3 -8l3 -11l-6 -3l3 -16l-8 -6v-24l-3 -40l-9 -2l3 -9q-4 -2 -2 -7t5 -3q-3 -31 -8 -48q2 1 2 -2q1 -3 -2 -3q0 -14 -6 -50h-30l-2 9h-2q-7 -6 -16 -6l-30 8q1 -8 -8 -8h-5v14q0 5 -6 5q-6 -1 -5 -5l-14 1l-9 -1l5 16l-7 9l11 27l-3 11l9 11 q-2 7 8 25l-6 8l6 15l8 2l-6 17q12 39 11 52l8 -3q-11 16 0 44h-2v6l5 6l-3 13l15 11l-6 15l8 7l-8 11q2 14 11 34l-5 13l10 6l-2 27q3 0 5 4q1 4 0 7q13 13 13 31q0 7 -3 22.5t-3 23.5l1 11l9 6l-3 14l9 28l-4 5v14l8 5l-5 19l14 17q-3 20 -3 42q0 25 3 41l11 5l-11 9 q7 12 6.5 28.5t1.5 21.5h6l-3 21h28l4 6q37 -6 51 -2l17 -6l2 8q35 -8 42 3q37 -6 41 -5l8 8q0 -63 23 -160q-4 -13 2 -48l-6 -5q15 -12 16 -31q2 -26 7 -35l-3 -30l5 -3l11 -56l-3 -16q-8 1 -8 -9v-5l6 9h5l6 -25q-7 -14 -25 -19v-9l27 3q4 -12 8 -37q-16 -10 -16 -21l3 -6 l19 -2l-2 -11q0 -8 6 -24.5t5 -27.5l5 -6q-1 -13 3 -44l-6 -6l-23 1l-10 -1v-8l8 -8q2 -1 9 5h25q0 -9 5.5 -30.5t5.5 -28.5q0 -4 -1 -7q14 -18 9 -42l6 -5l-3 -20zM344 -2q-13 0 -40 3.5t-40 3.5q-10 0 -30.5 -3.5t-30.5 -3.5l3 6h11v5l14 6l2 8h12l11 9l10 -6q12 6 20 6h3 l11 -11q5 2 12 3l7 -1q5 -14 25 -19v-6zM341 752q-1 3 -5 5v-5h5zM283 713v8h-8v-5zM222 746l3 12l-3 5l-2 -1l-3 -5h-3v-11h8zM197 707q0 2 -2 9h-9v-9l10 -4q1 2 1 4zM214 697h-3v-9l-5 -3l3 -5l6 11q-2 4 -1 6zM237 636l1 6l-4 2l-3 -3zM197 542l3 1l-5 4zM313 321 q1 42 1 44q0 6 -1 12h-5l-8 80l-6 2q-4 13 0 35q-13 19 -8 51l-5 5q0 8 1 25t1 25q-3 6 -6 13h-5v-10l-6 -6v-5l6 -8q2 -8 -6 -17q0 -19 -5 -58t-5 -58l-6 -9v-33l-9 -13l1 -24q0 -1 -3 -18l-6 -2q5 -28 8 -29.5t31 -1.5l9 -8zM361 352l4 2l-8 6zM424 197v3l-3 2l-3 -2z M441 172l2 3l-2 2l2 8l-2 4q-8 -3 -25 -17h25zM424 183q-1 2 -1 3l-5 3v-6h6zM206 412q-5 -6 -17 -14l3 -5q5 4 14 19zM214 341q-1 3 -3 5zM311 227v3l-3 3zM272 230l6 1l-9 5zM140 247l10 3l-16 11zM170 192v5h-9zM134 164h2l1 2q0 5 -6 6zM157 125l-1 4l-5 2v-6h6z M104 169q-2 3 -3 6zM112 78l3 -5l7 1zM170 9v4l-4 4h-1v-4zM153 12v6l-3 3h-2l-3 -4v-5h8zM109 34q0 4 -3 6z" />
<glyph unicode="&#xc4;" horiz-adv-x="552" d="M534 779l2 -4l-5 -4q1 3 3 8zM498 15l-2 -30q-94 15 -135 11q-9 25 -4 49l-5 3v58l-6 3l1 23q1 12 -6 18v25l-5 2l-3 36l-8 -3l-14 12q-8 1 -21 0q-16 -2 -21 -2l-11 2l-8 8q-1 0 -2.5 -2.5t-2.5 -2.5l-6 -2l-19 7l-3 -8l3 -11l-6 -3l3 -16l-8 -6v-24l-3 -40l-9 -2l3 -9 q-4 -2 -2 -7t5 -3q-3 -31 -8 -48q2 1 2 -2q1 -3 -2 -3q0 -14 -6 -50h-30l-2 9h-2q-7 -6 -16 -6l-30 8q1 -8 -8 -8h-5v14q0 5 -6 5q-6 -1 -5 -5l-14 1l-9 -1l5 16l-7 9l11 27l-3 11l9 11q-2 7 8 25l-6 8l6 15l8 2l-6 17q12 39 11 52l8 -3q-11 16 0 44h-2v6l5 6l-3 13l15 11 l-6 15l8 7l-8 11q2 14 11 34l-5 13l10 6l-2 27q3 0 5 4q1 4 0 7q13 13 13 31q0 7 -3 22.5t-3 23.5l1 11l9 6l-3 14l9 28l-4 5v14l8 5l-5 19l14 17q-3 20 -3 42q0 25 3 41l11 5l-11 9q7 12 6.5 28.5t1.5 21.5h6l-3 21h28l4 6q37 -6 51 -2l17 -6l2 8q35 -8 42 3q37 -6 41 -5 l8 8q0 -63 23 -160q-4 -13 2 -48l-6 -5q15 -12 16 -31q2 -26 7 -35l-3 -30l5 -3l11 -56l-3 -16q-8 1 -8 -9v-5l6 9h5l6 -25q-7 -14 -25 -19v-9l27 3q4 -12 8 -37q-16 -10 -16 -21l3 -6l19 -2l-2 -11q0 -8 6 -24.5t5 -27.5l5 -6q-1 -13 3 -44l-6 -6l-23 1l-10 -1v-8l8 -8 q2 -1 9 5h25q0 -9 5.5 -30.5t5.5 -28.5q0 -4 -1 -7q14 -18 9 -42l6 -5l-3 -20zM344 -2q-13 0 -40 3.5t-40 3.5q-10 0 -30.5 -3.5t-30.5 -3.5l3 6h11v5l14 6l2 8h12l11 9l10 -6q12 6 20 6h3l11 -11q5 2 12 3l7 -1q5 -14 25 -19v-6zM341 752q-1 3 -5 5v-5h5zM283 713v8h-8v-5z M222 746l3 12l-3 5l-2 -1l-3 -5h-3v-11h8zM197 707q0 2 -2 9h-9v-9l10 -4q1 2 1 4zM214 697h-3v-9l-5 -3l3 -5l6 11q-2 4 -1 6zM237 636l1 6l-4 2l-3 -3zM197 542l3 1l-5 4zM313 321q1 42 1 44q0 6 -1 12h-5l-8 80l-6 2q-4 13 0 35q-13 19 -8 51l-5 5q0 8 1 25t1 25 q-3 6 -6 13h-5v-10l-6 -6v-5l6 -8q2 -8 -6 -17q0 -19 -5 -58t-5 -58l-6 -9v-33l-9 -13l1 -24q0 -1 -3 -18l-6 -2q5 -28 8 -29.5t31 -1.5l9 -8zM361 352l4 2l-8 6zM424 197v3l-3 2l-3 -2zM441 172l2 3l-2 2l2 8l-2 4q-8 -3 -25 -17h25zM424 183q-1 2 -1 3l-5 3v-6h6zM206 412 q-5 -6 -17 -14l3 -5q5 4 14 19zM214 341q-1 3 -3 5zM311 227v3l-3 3zM272 230l6 1l-9 5zM140 247l10 3l-16 11zM170 192v5h-9zM134 164h2l1 2q0 5 -6 6zM157 125l-1 4l-5 2v-6h6zM104 169q-2 3 -3 6zM112 78l3 -5l7 1zM170 9v4l-4 4h-1v-4zM153 12v6l-3 3h-2l-3 -4v-5h8z M109 34q0 4 -3 6zM345 825q-34 0 -63 9q0 10 3 29t3 29q0 13 -2 40t-2 40q10 -2 32 -2h23q40 -1 52 -9q9 -70 9 -78q0 -32 -11.5 -45t-43.5 -13zM258 964q0 -15 1 -46t1 -46q0 -28 -4 -44q-22 0 -107 3q2 60 2 66v22q0 13 -4 22l-3 2q0 11 8 31q29 1 32 1q15 0 37 -4 q32 -6 37 -7zM81 990q-15 0 -15 10l13 6h8l14 -7q0 -9 -20 -9z" />
<glyph unicode="&#xc5;" horiz-adv-x="540" d="M349 968l-3 1l2 3zM357 888l-3 -1q2 -15 2 -23l-7 -24l-4 -1l-3 -4l-33 -11l4 -8h-5v4l-9 -1l2 1q-9 4 -19 4l-10 -1l-2 -2l-3 2q-62 0 -62 53q0 11 2 24l-9 1q8 0 9 5q0 -3 0 13q0 39 22 48l4 5q9 0 33 3q20 3 33 3q34 0 54 -22q1 -9 4 -26l-3 -1l3 -5l-3 -1l4 -11 l-4 -19zM329 888l-2 3zM337 884q-1 2 -4 2zM329 903v5q-10 1 -21 4v26l-5 5q-7 2 -18 2h-17l-7 -1v-3q0 -1 -2 -10l-3 -1v-20l-3 -2l3 -3q-3 -22 -3 -42l3 -3q27 -4 36 -4q5 2 11 4l-1 7q0 4 1.5 14.5t1.5 15.5l3 5l3 1l-3 7h8q1 0 5 -2l-8 -6h8zM534 779l2 -4l-5 -4 q1 3 3 8zM498 15l-2 -30q-94 15 -135 11q-9 25 -4 49l-5 3v58l-6 3l1 23q1 12 -6 18v25l-5 2l-3 36l-8 -3l-14 12q-8 1 -21 0q-16 -2 -21 -2l-11 2l-8 8q-1 0 -2.5 -2.5t-2.5 -2.5l-6 -2l-19 7l-3 -8l3 -11l-6 -3l3 -16l-8 -6v-24l-3 -40l-9 -2l3 -9q-4 -2 -2 -7t5 -3 q-3 -31 -8 -48q2 1 2 -2q1 -3 -2 -3q0 -14 -6 -50h-30l-2 9h-2q-7 -6 -16 -6l-30 8q1 -8 -8 -8h-5v14q0 5 -6 5q-6 -1 -5 -5l-14 1l-9 -1l5 16l-7 9l11 27l-3 11l9 11q-2 7 8 25l-6 8l6 15l8 2l-6 17q12 39 11 52l8 -3q-11 16 0 44h-2v6l5 6l-3 13l15 11l-6 15l8 7l-8 11 q2 14 11 34l-5 13l10 6l-2 27q3 0 5 4q1 4 0 7q13 13 13 31q0 7 -3 22.5t-3 23.5l1 11l9 6l-3 14l9 28l-4 5v14l8 5l-5 19l14 17q-3 20 -3 42q0 25 3 41l11 5l-11 9q7 12 6.5 28.5t1.5 21.5h6l-3 21h28l4 6q37 -6 51 -2l17 -6l2 8q35 -8 42 3q37 -6 41 -5l8 8q0 -63 23 -160 q-4 -13 2 -48l-6 -5q15 -12 16 -31q2 -26 7 -35l-3 -30l5 -3l11 -56l-3 -16q-8 1 -8 -9v-5l6 9h5l6 -25q-7 -14 -25 -19v-9l27 3q4 -12 8 -37q-16 -10 -16 -21l3 -6l19 -2l-2 -11q0 -8 6 -24.5t5 -27.5l5 -6q-1 -13 3 -44l-6 -6l-23 1l-10 -1v-8l8 -8q2 -1 9 5h25 q0 -9 5.5 -30.5t5.5 -28.5q0 -4 -1 -7q14 -18 9 -42l6 -5l-3 -20zM344 -2q-13 0 -40 3.5t-40 3.5q-10 0 -30.5 -3.5t-30.5 -3.5l3 6h11v5l14 6l2 8h12l11 9l10 -6q12 6 20 6h3l11 -11q5 2 12 3l7 -1q5 -14 25 -19v-6zM341 752q-1 3 -5 5v-5h5zM283 713v8h-8v-5zM222 746 l3 12l-3 5l-2 -1l-3 -5h-3v-11h8zM197 707q0 2 -2 9h-9v-9l10 -4q1 2 1 4zM214 697h-3v-9l-5 -3l3 -5l6 11q-2 4 -1 6zM237 636l1 6l-4 2l-3 -3zM197 542l3 1l-5 4zM313 321q1 42 1 44q0 6 -1 12h-5l-8 80l-6 2q-4 13 0 35q-13 19 -8 51l-5 5q0 8 1 25t1 25q-3 6 -6 13h-5 v-10l-6 -6v-5l6 -8q2 -8 -6 -17q0 -19 -5 -58t-5 -58l-6 -9v-33l-9 -13l1 -24q0 -1 -3 -18l-6 -2q5 -28 8 -29.5t31 -1.5l9 -8zM361 352l4 2l-8 6zM424 197v3l-3 2l-3 -2zM441 172l2 3l-2 2l2 8l-2 4q-8 -3 -25 -17h25zM424 183q-1 2 -1 3l-5 3v-6h6zM206 412q-5 -6 -17 -14 l3 -5q5 4 14 19zM214 341q-1 3 -3 5zM311 227v3l-3 3zM272 230l6 1l-9 5zM140 247l10 3l-16 11zM170 192v5h-9zM134 164h2l1 2q0 5 -6 6zM157 125l-1 4l-5 2v-6h6zM104 169q-2 3 -3 6zM112 78l3 -5l7 1zM170 9v4l-4 4h-1v-4zM153 12v6l-3 3h-2l-3 -4v-5h8zM109 34q0 4 -3 6z " />
<glyph unicode="&#xc7;" horiz-adv-x="496" d="M453 816h-11v9h-9l-5 8q-14 -2 -20 -2q-3 0 -28 2v6q8 0 22.5 4t22.5 4h20l8 -14v-17zM472 416l-8 -2l-4 30l7 3l5 -9v-22zM58 822l-4 2l4 7v-9zM472 400l-11 3l3 2zM41 831v-6h-4l-4 -6l-27 -3l-5 10l5 7q24 -2 35 -2zM394 369l-14 8l2 9l5 3h-9l-5 8l-9 -3l-3 11l-13 3 l-7 8h-16v8q10 2 30 0l6 14l8 -2l11 6v8l-7 -3l-4 11l18 11h4q4 -11 4 -24v-22zM421 197q1 -62 -27 -119h-5l-7 -16q-10 -4 -52 -35q-28 -20 -81 -20q-109 0 -118 32l-12 -3q-10 0 -33.5 33t-23.5 44q-9 9 -11 46l-1 28q-8 3 -7 23q1 21 1 44q0 33 -3.5 100t-3.5 99 q0 80 16 235v14l9 3q-3 15 18 34q-2 3 1 7t5 1l11 17l22 5q5 10 47 21q38 10 56 10q42 0 84 -12q50 -15 72 -41l2 -12l9 -5q6 -22 16 -36l-2 -8q11 -29 8 -78l-3 -2q8 -40 3 -67q-38 5 -114 5l-5 6l2 20l-6 10q3 20 3 36q0 75 -70 75q-56 0 -56 -140q0 7 5 -104q5 5 5 -5 q0 -12 -4.5 -36.5t-4.5 -36.5q0 -206 34 -244h8l6 -8l18 -3q35 0 56.5 20.5t17.5 56.5q-7 7 -6 30l2 71q21 -4 54 -2q49 3 54 3t9 -7zM477 -16v8l5 -4zM320 672v-6l6 -2q-2 7 -6 8zM261 705l6 2l-7 4h-2zM330 649h-19l2 -13h12zM221 741v2l-4 1l-7 -6v-2l4 -1zM225 723 q-1 3 -3 4zM156 656v4l-3 1zM373 416q-3 6 -7 6v-6h7zM117 599l5 3l-5 6v-9zM131 528l-6 4v-4h6zM364 253l2 1l-5 4zM341 242v3l-7 11l-4 -12zM117 450v11l-11 2l5 -5v-5h-3l5 -3h4zM141 405l5 4l-7 2zM84 469l-6 6l-6 -3l4 -11zM114 403l6 3l-9 5zM72 444l3 1q-1 4 -6 5z M150 366v2l-8 5h-1zM316 189l1 2l-4 6zM92 391l-1 4l-5 2v-6h6zM348 122l7 11l-7 3v-14zM127 359l-3 -5l1 -4l4 5zM320 150l9 1q-4 4 -9 5v-6zM339 131v3l-3 2l-5 -3zM325 144h-12v-4l7 -4l5 3v5zM131 325l-8 9l3 7l-1 6q-10 -1 -14 -20zM348 103l7 1q-3 4 -7 5v-6zM92 364 l-1 3l-5 2v-5h6zM156 281q0 5 -6 5zM158 260v2l-8 7q0 -2 -1 -5v-2q0 -1 1 -4h6l-3 1zM311 117l-11 5l-16 -10l4 -3l12 4l2 -8l-26 -4q6 -4 19 -6l-7 -4l9 -8v12l12 -3l5 17zM153 228l9 10l-9 4v-14zM139 191l1 5l-4 1zM258 100h-11l-1 -3l2 -7l-4 -4l-16 3l-3 -6l16 -3 q10 0 17 20zM86 233l2 5l-4 1l-3 -3zM141 183l-8 6l-2 -11l4 -3zM235 95v5h-7l-3 9h-8q-3 -12 -12 -20l2 -5l7 -1l5 17zM164 139l10 4l-13 13zM114 180l-3 17h-5l2 -17h6zM147 148h3l-4 4h-1zM192 92q3 4 6 17l-6 -4v-13zM178 117l-12 5l-10 -5l14 -25h5v13l-3 6l5 3z M233 56v6h-25q0 -10 3 -20h8l6 11zM153 113l-6 7l6 11l-14 3l-6 -3l8 -11l-2 -9zM175 75l5 7l-5 1l-3 -4zM114 131l2 1l-5 4zM252 -2h-20l-20 -8q-11 2 -33 5q0 -12 -1 -36.5t-1 -36.5q0 -17 2 -26l53 5v-8l-56 -24l-3 -38l9 -6l26 4q0 5 29.5 20t29.5 20q26 5 26 18t-6 38 t-6 38q0 12 4 23l-2 5l1 1q-11 3 -32 6z" />
<glyph unicode="&#xc8;" horiz-adv-x="480" d="M284 827l-3 -6l-59 -1q-16 -1 -26 4q-18 20 -42 63q-17 9 -20 24q-19 10 -36 40l8 12q62 -9 132 -9zM393 465h-7l-2 10l2 3l6 -3zM388 336l-2 -6q0 2 2 6zM404 717q-11 -5 -5 -59l-17 -13h-2q-31 0 -98.5 6.5t-100.5 6.5q-1 -7 1 -19.5t2 -17.5q0 -17 -5 -55.5t-5 -58.5 l1 -61l9 -2l-3 -9h16l-3 -11l8 3l3 11l8 -8l3 5l-27 6l-2 7h-9l9 9q28 0 85 3t84 3l5 -1l7 -8q-6 -78 0 -109l-7 -7q-18 7 -77 7q-36 0 -95 9l2 9h7l10 3v8l12 2l-15 5l-21 -15q0 -1 1.5 -6.5t1.5 -7.5q0 1 -8 1l-6 -1l2 -49h-5q8 -12 8 -23l-3 -4q3 -12 0 -39l-22 3 q3 -8 10 -16l12 7v-51l3 -5v-20q0 -21 3 -34q38 1 98 0q79 -2 98 -2l3 5l10 -3l5 5q6 -28 6 -95q0 -28 -21 -28q-15 0 -57 5l-5 -3q-34 7 -82 7q-23 0 -67 -2t-64 -2h-53q0 46 3 195q3 122 1 196l-2 2l6 21q-8 16 -3 46q-5 7 -5 90l4 7q-4 11 -4 199l11 7q38 -4 84 -5 q31 0 84 1q62 1 84 1l6 -4q27 10 65 2l15 -16q-6 -23 3 -33zM194 684l-7 6v-11h7v5zM170 706h-13v-5h10zM157 679l-13 2l4 -7h2q1 0 4 1zM133 681l-3 9h-8v-13l10 2zM113 647v5l-13 4l-3 -6zM95 639v8l-3 3h-2v-11h5zM138 580l-8 2l3 -19zM148 543v1l-2 4v-1zM82 625h-9 l-3 -11l9 -10zM157 524l8 2q-1 3 -8 5v-7zM157 508h4v3l-4 5v-8zM144 540l-20 3q5 -12 16 -14zM140 516l7 2l-7 4v-6zM124 451h2l3 3l-7 5zM170 401l4 13l-7 3l-2 -14zM205 397v6l-8 2l-3 12h-10l-4 -13l11 -9l-4 -5q-3 -1 -7 -1q-2 0 -20 3v-5l10 -13l4 -1l26 14v5h-3l-3 5 h11zM133 432l-3 -10l15 4zM140 408l8 3l-8 3v-6zM175 360v3l-5 3l-3 -2zM119 410l-6 -7l-8 2v9h-5q3 -14 7 -21zM140 282l-2 -8h2l5 4zM144 255l5 1q-3 3 -9 4zM113 282v10l-4 1l-6 -9zM305 89l-14 5l-9 -4l-4 -14l10 -4l2 14zM251 99l1 5l-5 1zM82 267l3 1l-9 3l3 -11z M113 231l1 6l-3 3l-1 -5zM259 83l1 2l-4 4zM97 231h3l4 1q-5 2 -9 5zM232 103l-6 7h-2v-5zM229 92l-3 -9v-5l12 8zM103 220v6l-9 -2v-1l-6 3l2 7l-14 4q1 -9 6 -27v8zM160 159l-9 2l2 -13l9 -1v3zM144 156l-1 4l-5 1l-4 -2q3 -2 10 -3zM90 193l6 2l-6 4v-6zM200 85l-6 7h-10 l-3 -7h19zM191 99l-7 11l-9 2v-5l-5 -2v5h2l-5 2l-7 -2l-7 -11l4 -5l24 3l3 6zM208 56h1l4 1q-2 4 -8 5zM87 185q-13 0 -13 -12l9 -7q16 0 16 14zM144 124l-10 13h-1l2 -11l-13 3v4l-5 1l5 -15zM146 94l-2 16l-14 2l5 -5v-8zM92 146v10l-8 3l-2 -10l5 -5zM197 46l-10 5 l-3 -5h-14l3 -8l-3 -1v-5h24zM173 54q-5 5 -11 5q3 -4 11 -5zM82 137l-3 -13l12 5zM124 94l-2 9l-9 -4v8l-8 3l-10 -7l2 -11zM79 92q5 1 11 4l-11 3v-7zM84 78l4 4l-4 3l-3 -5zM79 64l4 3l-10 5z" />
<glyph unicode="&#xc9;" horiz-adv-x="473" d="M442 802l-9 -17l-9 4l1 8q0 1 -1 5l-12 12l8 6l18 -6zM359 565l-8 1q2 5 8 6v-7zM446 475v-20q0 -4 -1 -12.5t-1 -12.5l-11 2v6l5 37h8zM393 465h-7l-2 10l2 3l6 -3zM444 422l1 -13l-5 -6l-6 6l4 15zM444 327h-8q2 17 2 20v5l-5 2v22l5 5h6q0 -5 -1 -16v-17v-6 q0 -7 1 -15zM388 336l-2 -6q0 2 2 6zM404 717q-11 -5 -5 -59l-17 -13h-2q-31 0 -98.5 6.5t-100.5 6.5q-1 -7 1 -19.5t2 -17.5q0 -17 -5 -55.5t-5 -58.5l1 -61l9 -2l-3 -9h16l-3 -11l8 3l3 11l8 -8l3 5l-27 6l-2 7h-9l9 9q28 0 85 3t84 3l5 -1l7 -8q-6 -78 0 -109l-7 -7 q-18 7 -77 7q-36 0 -95 9l2 9h7l10 3v8l12 2l-15 5l-21 -15q0 -1 1.5 -6.5t1.5 -7.5q0 1 -8 1l-6 -1l2 -49h-5q8 -12 8 -23l-3 -4q3 -12 0 -39l-22 3q3 -8 10 -16l12 7v-51l3 -5v-20q0 -21 3 -34q38 1 98 0q79 -2 98 -2l3 5l10 -3l5 5q6 -28 6 -95q0 -28 -21 -28 q-15 0 -57 5l-5 -3q-34 7 -82 7q-23 0 -67 -2t-64 -2h-53q0 46 3 195q3 122 1 196l-2 2l6 21q-8 16 -3 46q-5 7 -5 90l4 7q-4 11 -4 199l11 7q38 -4 84 -5q31 0 84 1q62 1 84 1l6 -4q27 10 65 2l15 -16q-6 -23 3 -33zM194 684l-7 6v-11h7v5zM170 706h-13v-5h10zM157 679 l-13 2l4 -7h2q1 0 4 1zM133 681l-3 9h-8v-13l10 2zM113 647v5l-13 4l-3 -6zM95 639v8l-3 3h-2v-11h5zM138 580l-8 2l3 -19zM148 543v1l-2 4v-1zM82 625h-9l-3 -11l9 -10zM157 524l8 2q-1 3 -8 5v-7zM157 508h4v3l-4 5v-8zM144 540l-20 3q5 -12 16 -14zM140 516l7 2l-7 4v-6z M124 451h2l3 3l-7 5zM170 401l4 13l-7 3l-2 -14zM205 397v6l-8 2l-3 12h-10l-4 -13l11 -9l-4 -5q-3 -1 -7 -1q-2 0 -20 3v-5l10 -13l4 -1l26 14v5h-3l-3 5h11zM133 432l-3 -10l15 4zM140 408l8 3l-8 3v-6zM175 360v3l-5 3l-3 -2zM119 410l-6 -7l-8 2v9h-5q3 -14 7 -21z M140 282l-2 -8h2l5 4zM144 255l5 1q-3 3 -9 4zM113 282v10l-4 1l-6 -9zM305 89l-14 5l-9 -4l-4 -14l10 -4l2 14zM251 99l1 5l-5 1zM82 267l3 1l-9 3l3 -11zM113 231l1 6l-3 3l-1 -5zM259 83l1 2l-4 4zM97 231h3l4 1q-5 2 -9 5zM232 103l-6 7h-2v-5zM229 92l-3 -9v-5l12 8z M103 220v6l-9 -2v-1l-6 3l2 7l-14 4q1 -9 6 -27v8zM160 159l-9 2l2 -13l9 -1v3zM144 156l-1 4l-5 1l-4 -2q3 -2 10 -3zM90 193l6 2l-6 4v-6zM200 85l-6 7h-10l-3 -7h19zM191 99l-7 11l-9 2v-5l-5 -2v5h2l-5 2l-7 -2l-7 -11l4 -5l24 3l3 6zM208 56h1l4 1q-2 4 -8 5zM87 185 q-13 0 -13 -12l9 -7q16 0 16 14zM144 124l-10 13h-1l2 -11l-13 3v4l-5 1l5 -15zM146 94l-2 16l-14 2l5 -5v-8zM92 146v10l-8 3l-2 -10l5 -5zM197 46l-10 5l-3 -5h-14l3 -8l-3 -1v-5h24zM173 54q-5 5 -11 5q3 -4 11 -5zM82 137l-3 -13l12 5zM124 94l-2 9l-9 -4v8l-8 3l-10 -7 l2 -11zM79 92q5 1 11 4l-11 3v-7zM84 78l4 4l-4 3l-3 -5zM79 64l4 3l-10 5zM377 955q-47 -24 -53 -57l-36 -35q-33 -31 -34 -31q-4 0 -12 1t-12 1q-22 0 -58 -6l-4 10l1 4l6 3q17 28 50 132h57q55 -1 91 9q7 -3 10 -14z" />
<glyph unicode="&#xca;" horiz-adv-x="444" d="M349 827h-113l-26 40h-8q-9 -16 -17 -40q-14 0 -41.5 -3t-41.5 -3v15q6 7 15 20v8l8 5q3 14 17 29q6 19 13 37q11 30 33 30q5 0 41 -2q25 -1 41 1q5 -18 20 -38l-12 -3q-6 0 -11 6l-9 -14l-8 -3v-8h11v-12l-8 -3v-17h5v12l9 5l3 15l14 -6l6 22q33 -25 36 -53l12 -6z M250 940l3 -8l11 2q-5 5 -14 6zM244 926l-6 18h-11l-4 -12l2 -13l-3 -4l11 -3l3 -5l6 3v2l-4 8zM275 878l1 3l-6 3q2 -2 5 -6zM238 884l3 6l-5 2l-3 -4zM205 907l1 6l-4 2q1 -4 3 -8zM253 856l1 6l-4 3l-3 -1l-3 -8h9zM182 895q-1 3 -3 12h-6l-6 -6l9 -13l-2 -5l-4 6v-5h9z M182 847l-1 6l-5 3v-9h6zM233 924l2 -3l-5 -3v3zM393 465h-7l-2 10l2 3l6 -3zM388 336l-2 -6q0 2 2 6zM404 717q-11 -5 -5 -59l-17 -13h-2q-31 0 -98.5 6.5t-100.5 6.5q-1 -7 1 -19.5t2 -17.5q0 -17 -5 -55.5t-5 -58.5l1 -61l9 -2l-3 -9h16l-3 -11l8 3l3 11l8 -8l3 5l-27 6 l-2 7h-9l9 9q28 0 85 3t84 3l5 -1l7 -8q-6 -78 0 -109l-7 -7q-18 7 -77 7q-36 0 -95 9l2 9h7l10 3v8l12 2l-15 5l-21 -15q0 -1 1.5 -6.5t1.5 -7.5q0 1 -8 1l-6 -1l2 -49h-5q8 -12 8 -23l-3 -4q3 -12 0 -39l-22 3q3 -8 10 -16l12 7v-51l3 -5v-20q0 -21 3 -34q38 1 98 0 q79 -2 98 -2l3 5l10 -3l5 5q6 -28 6 -95q0 -28 -21 -28q-15 0 -57 5l-5 -3q-34 7 -82 7q-23 0 -67 -2t-64 -2h-53q0 46 3 195q3 122 1 196l-2 2l6 21q-8 16 -3 46q-5 7 -5 90l4 7q-4 11 -4 199l11 7q38 -4 84 -5q31 0 84 1q62 1 84 1l6 -4q27 10 65 2l15 -16q-6 -23 3 -33z M194 684l-7 6v-11h7v5zM170 706h-13v-5h10zM157 679l-13 2l4 -7h2q1 0 4 1zM133 681l-3 9h-8v-13l10 2zM113 647v5l-13 4l-3 -6zM95 639v8l-3 3h-2v-11h5zM138 580l-8 2l3 -19zM148 543v1l-2 4v-1zM82 625h-9l-3 -11l9 -10zM157 524l8 2q-1 3 -8 5v-7zM157 508h4v3l-4 5v-8z M144 540l-20 3q5 -12 16 -14zM140 516l7 2l-7 4v-6zM124 451h2l3 3l-7 5zM170 401l4 13l-7 3l-2 -14zM205 397v6l-8 2l-3 12h-10l-4 -13l11 -9l-4 -5q-3 -1 -7 -1q-2 0 -20 3v-5l10 -13l4 -1l26 14v5h-3l-3 5h11zM133 432l-3 -10l15 4zM140 408l8 3l-8 3v-6zM175 360v3l-5 3 l-3 -2zM119 410l-6 -7l-8 2v9h-5q3 -14 7 -21zM140 282l-2 -8h2l5 4zM144 255l5 1q-3 3 -9 4zM113 282v10l-4 1l-6 -9zM305 89l-14 5l-9 -4l-4 -14l10 -4l2 14zM251 99l1 5l-5 1zM82 267l3 1l-9 3l3 -11zM113 231l1 6l-3 3l-1 -5zM259 83l1 2l-4 4zM97 231h3l4 1q-5 2 -9 5z M232 103l-6 7h-2v-5zM229 92l-3 -9v-5l12 8zM103 220v6l-9 -2v-1l-6 3l2 7l-14 4q1 -9 6 -27v8zM160 159l-9 2l2 -13l9 -1v3zM144 156l-1 4l-5 1l-4 -2q3 -2 10 -3zM90 193l6 2l-6 4v-6zM200 85l-6 7h-10l-3 -7h19zM191 99l-7 11l-9 2v-5l-5 -2v5h2l-5 2l-7 -2l-7 -11l4 -5 l24 3l3 6zM208 56h1l4 1q-2 4 -8 5zM87 185q-13 0 -13 -12l9 -7q16 0 16 14zM144 124l-10 13h-1l2 -11l-13 3v4l-5 1l5 -15zM146 94l-2 16l-14 2l5 -5v-8zM92 146v10l-8 3l-2 -10l5 -5zM197 46l-10 5l-3 -5h-14l3 -8l-3 -1v-5h24zM173 54q-5 5 -11 5q3 -4 11 -5zM82 137 l-3 -13l12 5zM124 94l-2 9l-9 -4v8l-8 3l-10 -7l2 -11zM79 92q5 1 11 4l-11 3v-7zM84 78l4 4l-4 3l-3 -5zM79 64l4 3l-10 5z" />
<glyph unicode="&#xcb;" horiz-adv-x="473" d="M393 465h-7l-2 10l2 3l6 -3zM388 336l-2 -6q0 2 2 6zM404 717q-11 -5 -5 -59l-17 -13h-2q-31 0 -98.5 6.5t-100.5 6.5q-1 -7 1 -19.5t2 -17.5q0 -17 -5 -55.5t-5 -58.5l1 -61l9 -2l-3 -9h16l-3 -11l8 3l3 11l8 -8l3 5l-27 6l-2 7h-9l9 9q28 0 85 3t84 3l5 -1l7 -8 q-6 -78 0 -109l-7 -7q-18 7 -77 7q-36 0 -95 9l2 9h7l10 3v8l12 2l-15 5l-21 -15q0 -1 1.5 -6.5t1.5 -7.5q0 1 -8 1l-6 -1l2 -49h-5q8 -12 8 -23l-3 -4q3 -12 0 -39l-22 3q3 -8 10 -16l12 7v-51l3 -5v-20q0 -21 3 -34q38 1 98 0q79 -2 98 -2l3 5l10 -3l5 5q6 -28 6 -95 q0 -28 -21 -28q-15 0 -57 5l-5 -3q-34 7 -82 7q-23 0 -67 -2t-64 -2h-53q0 46 3 195q3 122 1 196l-2 2l6 21q-8 16 -3 46q-5 7 -5 90l4 7q-4 11 -4 199l11 7q38 -4 84 -5q31 0 84 1q62 1 84 1l6 -4q27 10 65 2l15 -16q-6 -23 3 -33zM194 684l-7 6v-11h7v5zM170 706h-13v-5 h10zM157 679l-13 2l4 -7h2q1 0 4 1zM133 681l-3 9h-8v-13l10 2zM113 647v5l-13 4l-3 -6zM95 639v8l-3 3h-2v-11h5zM138 580l-8 2l3 -19zM148 543v1l-2 4v-1zM82 625h-9l-3 -11l9 -10zM157 524l8 2q-1 3 -8 5v-7zM157 508h4v3l-4 5v-8zM144 540l-20 3q5 -12 16 -14zM140 516 l7 2l-7 4v-6zM124 451h2l3 3l-7 5zM170 401l4 13l-7 3l-2 -14zM205 397v6l-8 2l-3 12h-10l-4 -13l11 -9l-4 -5q-3 -1 -7 -1q-2 0 -20 3v-5l10 -13l4 -1l26 14v5h-3l-3 5h11zM133 432l-3 -10l15 4zM140 408l8 3l-8 3v-6zM175 360v3l-5 3l-3 -2zM119 410l-6 -7l-8 2v9h-5 q3 -14 7 -21zM140 282l-2 -8h2l5 4zM144 255l5 1q-3 3 -9 4zM113 282v10l-4 1l-6 -9zM305 89l-14 5l-9 -4l-4 -14l10 -4l2 14zM251 99l1 5l-5 1zM82 267l3 1l-9 3l3 -11zM113 231l1 6l-3 3l-1 -5zM259 83l1 2l-4 4zM97 231h3l4 1q-5 2 -9 5zM232 103l-6 7h-2v-5zM229 92 l-3 -9v-5l12 8zM103 220v6l-9 -2v-1l-6 3l2 7l-14 4q1 -9 6 -27v8zM160 159l-9 2l2 -13l9 -1v3zM144 156l-1 4l-5 1l-4 -2q3 -2 10 -3zM90 193l6 2l-6 4v-6zM200 85l-6 7h-10l-3 -7h19zM191 99l-7 11l-9 2v-5l-5 -2v5h2l-5 2l-7 -2l-7 -11l4 -5l24 3l3 6zM208 56h1l4 1 q-2 4 -8 5zM87 185q-13 0 -13 -12l9 -7q16 0 16 14zM144 124l-10 13h-1l2 -11l-13 3v4l-5 1l5 -15zM146 94l-2 16l-14 2l5 -5v-8zM92 146v10l-8 3l-2 -10l5 -5zM197 46l-10 5l-3 -5h-14l3 -8l-3 -1v-5h24zM173 54q-5 5 -11 5q3 -4 11 -5zM82 137l-3 -13l12 5zM124 94l-2 9 l-9 -4v8l-8 3l-10 -7l2 -11zM79 92q5 1 11 4l-11 3v-7zM84 78l4 4l-4 3l-3 -5zM79 64l4 3l-10 5z" />
<glyph unicode="&#xcc;" horiz-adv-x="264" d="M189 571l-5 -2q3 -112 3 -223l-6 -9l3 -58h4q0 -23 -3 -70.5t-3 -71.5q0 -38 5 -69q-1 -30 -3 -69l-26 -3l-6 6q-8 0 -35 -2q-21 -1 -34 0q-18 2 -34 9q3 13 7 38l-7 4l-1 23l1 14l7 2q-1 10 0 26q2 20 2 26v-1v2l-1 9q2 83 -6 250l7 15l-7 6l7 5l1 10q0 20 -8 82l7 9 q0 20 -8 80.5t-8 89.5q0 44 14 64l-9 37l16 6h96l28 -2l2 -19l-5 -7q-1 -105 3 -138l-3 -5q0 -39 5 -64zM138 681q-5 5 -12 5q11 -5 12 -5zM78 657l10 6l-10 14v-20zM101 638l-1 3l-5 2v-5h6zM83 638v3l-5 2v-5h5zM109 609l-9 5l-4 -1q4 -2 13 -4zM133 588h-12l-9 12l14 -17 zM95 592l5 1l-5 4v-5zM116 569l1 5h-5zM107 518q-2 2 -3 4zM92 454l3 5l-5 1zM133 385l-5 9h-2l-14 -9h21zM107 385q-2 7 -6 7v-7h6zM118 356l10 4l-12 3zM143 294v4l-2 2l-3 -2zM118 288l8 5l1 2l-11 1zM90 274q-2 4 -3 8zM112 240v8l-3 3h-2v-11h5zM83 151l1 3l-3 5z" />
<glyph unicode="&#xcd;" horiz-adv-x="252" d="M245 960q-1 -9 -5 -22q-8 -5 -26 -37q-8 -2 -17 -8l-2 -15l-56 -58l-22 -1q-22 3 -67 4q14 56 36 100l-3 9l9 11v14l8 5q28 -6 64 -6q13 0 81 4zM189 571l-5 -2q3 -112 3 -223l-6 -9l3 -58h4q0 -23 -3 -70.5t-3 -71.5q0 -38 5 -69q-1 -30 -3 -69l-26 -3l-6 6q-8 0 -35 -2 q-21 -1 -34 0q-18 2 -34 9q3 13 7 38l-7 4l-1 23l1 14l7 2q-1 10 0 26q2 20 2 26v-1v2l-1 9q2 83 -6 250l7 15l-7 6l7 5l1 10q0 20 -8 82l7 9q0 20 -8 80.5t-8 89.5q0 44 14 64l-9 37l16 6h96l28 -2l2 -19l-5 -7q-1 -105 3 -138l-3 -5q0 -39 5 -64zM138 681q-5 5 -12 5 q11 -5 12 -5zM78 657l10 6l-10 14v-20zM101 638l-1 3l-5 2v-5h6zM83 638v3l-5 2v-5h5zM109 609l-9 5l-4 -1q4 -2 13 -4zM133 588h-12l-9 12l14 -17zM95 592l5 1l-5 4v-5zM116 569l1 5h-5zM107 518q-2 2 -3 4zM92 454l3 5l-5 1zM133 385l-5 9h-2l-14 -9h21zM107 385 q-2 7 -6 7v-7h6zM118 356l10 4l-12 3zM143 294v4l-2 2l-3 -2zM118 288l8 5l1 2l-11 1zM90 274q-2 4 -3 8zM112 240v8l-3 3h-2v-11h5zM83 151l1 3l-3 5z" />
<glyph unicode="&#xce;" horiz-adv-x="272" d="M219 834q-9 0 -26.5 -1.5t-26.5 -1.5q-2 0 -40 3l-20 47q-12 -4 -22.5 -26.5t-33.5 -22.5q-5 0 -14.5 1t-14.5 1q1 8 15 64l6 6l2 23l9 12q0 10 3 26q3 2 6 3h68q24 0 46 -3zM189 571l-5 -2q3 -112 3 -223l-6 -9l3 -58h4q0 -23 -3 -70.5t-3 -71.5q0 -38 5 -69 q-1 -30 -3 -69l-26 -3l-6 6q-8 0 -35 -2q-21 -1 -34 0q-18 2 -34 9q3 13 7 38l-7 4l-1 23l1 14l7 2q-1 10 0 26q2 20 2 26v-1v2l-1 9q2 83 -6 250l7 15l-7 6l7 5l1 10q0 20 -8 82l7 9q0 20 -8 80.5t-8 89.5q0 44 14 64l-9 37l16 6h96l28 -2l2 -19l-5 -7q-1 -105 3 -138 l-3 -5q0 -39 5 -64zM138 681q-5 5 -12 5q11 -5 12 -5zM78 657l10 6l-10 14v-20zM101 638l-1 3l-5 2v-5h6zM83 638v3l-5 2v-5h5zM109 609l-9 5l-4 -1q4 -2 13 -4zM133 588h-12l-9 12l14 -17zM95 592l5 1l-5 4v-5zM116 569l1 5h-5zM107 518q-2 2 -3 4zM92 454l3 5l-5 1z M133 385l-5 9h-2l-14 -9h21zM107 385q-2 7 -6 7v-7h6zM118 356l10 4l-12 3zM143 294v4l-2 2l-3 -2zM118 288l8 5l1 2l-11 1zM90 274q-2 4 -3 8zM112 240v8l-3 3h-2v-11h5zM83 151l1 3l-3 5z" />
<glyph unicode="&#xcf;" horiz-adv-x="356" d="M189 571l-5 -2q3 -112 3 -223l-6 -9l3 -58h4q0 -23 -3 -70.5t-3 -71.5q0 -38 5 -69q-1 -30 -3 -69l-26 -3l-6 6q-8 0 -35 -2q-21 -1 -34 0q-18 2 -34 9q3 13 7 38l-7 4l-1 23l1 14l7 2q-1 10 0 26q2 20 2 26v-1v2l-1 9q2 83 -6 250l7 15l-7 6l7 5l1 10q0 20 -8 82l7 9 q0 20 -8 80.5t-8 89.5q0 44 14 64l-9 37l16 6h96l28 -2l2 -19l-5 -7q-1 -105 3 -138l-3 -5q0 -39 5 -64zM138 681q-5 5 -12 5q11 -5 12 -5zM78 657l10 6l-10 14v-20zM101 638l-1 3l-5 2v-5h6zM83 638v3l-5 2v-5h5zM109 609l-9 5l-4 -1q4 -2 13 -4zM133 588h-12l-9 12l14 -17 zM95 592l5 1l-5 4v-5zM116 569l1 5h-5zM107 518q-2 2 -3 4zM92 454l3 5l-5 1zM133 385l-5 9h-2l-14 -9h21zM107 385q-2 7 -6 7v-7h6zM118 356l10 4l-12 3zM143 294v4l-2 2l-3 -2zM118 288l8 5l1 2l-11 1zM90 274q-2 4 -3 8zM112 240v8l-3 3h-2v-11h5zM83 151l1 3l-3 5z" />
<glyph unicode="&#xd1;" horiz-adv-x="501" d="M412 1019v-65l-5 -4l-7 1q-15 -8 -45 -26l-2 -5q-21 -9 -60 -32q-34 3 -48 12q-9 6 -34 35l-7 -3l-4 1l-4 4l-5 -7l-6 1q-17 0 -46.5 -15t-46.5 -15l-3 71q9 0 29 13.5t22 13.5h37q19 0 52 -16t52 -16q37 0 69 24q39 30 58 36q2 -3 4 -8zM262 917h1l3 3v2l-4 3v-8z M203 943l-3 5v12h-9l-3 -6l8 -2l-5 -2v-5l5 -4zM175 967l-1 5h-9l2 -7zM171 948l-4 6l3 5l-5 3v-9h-10v-5l3 2zM154 713q-1 3 -3 5zM234 608h5v1l-5 5v-6zM369 475q-2 3 -8 6zM176 646v3l-3 3zM394 431l3 5h-5zM203 607l5 1q-2 3 -7 5zM209 583v6l-5 2v-8h5zM181 605l-5 36 q-21 0 -28 2l-3 -8h26l-2 -6l-7 -2v-5l11 -4v-16zM140 641l-9 8v-14q6 1 9 6zM378 406v11h-11l-3 -14zM154 610l-1 4l-5 2v-6h6zM140 627l-9 3l-5 -14l11 -6zM198 558l-3 -8h2l5 4v1zM372 384q-2 3 -8 6zM278 483h-8l6 -8zM342 411l-3 -5l7 3zM137 586v9l-4 4h-2v-8l-6 -2z M281 439l2 7v2l-4 3h-1l-2 -9h3zM223 511h-11l-6 -11h14zM267 470l-8 2l2 -10l-11 -6l11 -3zM137 571v9h-14l-5 -6q13 -1 19 -3zM151 544l2 4l-5 7q0 -4 3 -11zM135 561l-1 5l-5 3l-3 -6zM250 447l6 -8h2q1 0 5 1zM356 345q-1 2 -1 3l-5 3v-6h6zM151 533h12l-12 5v-5z M270 431l-14 3l7 -16zM101 594h-14l3 -17l10 3l-1 2zM131 546l3 6l-3 3l-4 -7zM151 516h1l6 4l-7 5v-9zM380 298v2l-5 3zM231 442v1l-5 4h-1zM245 423v8l-4 3l-10 -11h14zM328 339v9l-11 6l-5 -6q3 -12 15 -12l6 1zM162 483h-6q-3 12 -2 27l-6 4q-2 -15 -2 -24l5 -12l-6 -9 l11 -3v12zM135 508l-4 17h-11l-2 -11l5 -6h12zM217 423l4 1l-4 7v-8zM292 348l4 1q-2 3 -7 5zM286 370l-8 3q-5 0 -8 -3l-6 11h-8v-11h-8l2 -6q24 0 31 -2zM131 497q-4 5 -11 5v-2zM123 480h8l2 2q-3 4 -10 7v-9zM102 518l-3 4l-8 -11l5 -3l6 5v5zM151 458l-6 -5l3 -6l13 6z M259 351l-3 -14l18 12l-21 7l1 -4zM331 282l-7 5l-4 -1q4 -2 11 -4zM93 483h2l6 4l-7 4h-1v-8zM131 433v24l-8 17l-4 -4l7 -9l-13 -13l10 -6v-9h8zM295 290v5l-23 6v-6l4 -11h3l5 3v3l-6 2zM159 414q-4 5 -11 5v-2zM151 391l1 3l-4 6zM95 444l2 1l-4 8zM328 226l-11 3v-6 l8 -3l3 2v4zM295 237v9q-3 -4 -5 -8zM151 378l-11 3v-11l13 2zM261 265v6l-13 2l-3 -6l5 -5zM281 235q-1 5 -9 5l2 -3zM129 370l5 5l-11 8v-5l2 -7zM145 342l4 11l-4 2l-3 -8zM253 237l12 1q-4 3 -15 5zM276 210l2 1q-3 3 -6 4zM317 171v5h-3l-2 -3zM272 207l-2 -8h2l7 5z M126 342v10l-3 4l-3 -1l-2 -8v-8zM350 118l6 2l-8 3zM276 187h8q-4 6 -12 8zM264 201l-11 6l3 -8h7zM336 115l4 3l-7 5zM259 187l1 5l-4 1zM312 138l-1 3l-5 2v-5h6zM120 298v3l-4 2h-1v-3zM286 138v4l-5 4h-3l-8 -8h16zM303 112l-8 3v12l-3 -6l-8 -3l-3 9l-11 2v-14 q20 0 33 -3zM93 300l2 8l-8 6v-14h6zM118 264l-5 6l-5 -1zM148 222v9l-8 3l-7 -7zM303 63v2l-5 3h-1v-3zM143 209l3 6l-4 2h-2zM123 242l-11 5l-3 -19l6 -2l8 11v5zM278 63l3 1l-5 4zM135 148l-4 -6h2l11 1zM162 114l-6 9l-8 -5l-5 8l-3 -12l5 -5h9l5 -3zM154 84h4 q-3 3 -7 6zM145 73v5l-2 -1l-3 3v7l5 3l-14 17h-8l-8 -1l-3 -5l7 -1l-10 -5v-5h14v8h8v-16l-5 -6q12 -1 19 -3zM87 118q13 -2 17 -2q5 0 8 1q-13 3 -21 3h-7l3 -3v1zM95 90l1 3l-5 2h-1v-3zM120 67l2 9l-4 2l-3 -8h-11l-3 -11l6 -2l5 10h8zM101 67v9l5 3l-7 5l-8 -14l6 -4z M84 78l-8 6l-2 -1q5 -4 10 -5zM76 54v2l-5 3zM95 42q-6 2 -24 6l-6 -2l3 -6zM82 31l1 5l-4 1zM450 788l-111 -2l-3 -33q0 -10 4 -31.5t3 -35.5l-6 -3q0 -18 4 -52t4 -51q0 -5 -2 -17t-1 -19l-3 9q-4 -8 -4 -18q-1 -6 0 -16q1 -13 1 -18q0 -26 -8 -39q4 -5 3 -10t-8 -2l10 -5 l-2 -9h-5l2 -2l25 -6q3 -8 3 -13l-4 -6h1l-3 6h-11v6l-10 7l-9 -58l-28 -3v8l11 -2l9 6l2 31q2 24 -12 77t-14 77q0 8 1 16q-7 12 -7 31q0 28 -1 31l-9 13l1 11q0 60 -17 125h-11q-10 0 -27.5 -6t-27.5 -6q-16 0 -47.5 4t-47.5 4q-43 0 -43 -33q0 -7 2.5 -25t2.5 -27l-3 -3 q0 -12 2 -51q2 -31 2 -50l-1 -32q-6 0 -6 -11q0 -8 3 -23.5t3 -17.5q0 -50 -4 -131q-4 -100 -5 -130l3 -3q-5 -75 6 -94l-6 -6q-3 -21 -1.5 -67.5t-1.5 -70.5q11 -6 53 -6l25 -2l11 -9h6h36l2 15q0 9 -4 32q-3 19 -1 34l-9 8v3l6 8q1 1 -6 19q5 17 6 117q2 100 -2 119 q-2 7 2 8v69h-6v17h6q-8 49 3 58l-5 36l5 6q-1 40 3 53l8 -11v-48q5 0 5 -11t11 -61l-5 -3l5 -10l-2 -11l8 -6l-3 -30l8 -6l3 9l17 2v-11q-4 -2 -8 2l-3 4v-6l-11 -5l-1 -4l3 -29l6 -6h11v-5h-14v-12q0 -10 8 -11q-3 -6 -3 -18q0 -18 10 -61t10 -54l3 -24q3 2 4 -3 q0 -5 -4 -5q9 -51 22 -153q37 -4 75 -4l93 1q0 13 -7 39t-7 39q0 9 7 8q-3 11 -3 36q0 86 13 158l-6 14l16 155l-3 26q-10 2 -26 1q-25 -2 -27 -2v6h42l20 19l-7 14q1 3 8 27t7 26z" />
<glyph unicode="&#xd2;" horiz-adv-x="272" d="M284 835l-3 -6l-59 -1q-16 -1 -26 4q-18 20 -42 63q-17 9 -20 24q-19 10 -36 40l8 12q62 -9 132 -9zM405 111q0 -29 -19 -44l-3 -16l-11 -6q-2 -6 -15.5 -16.5t-13.5 -18.5q-11 -2 -37 -16q-14 1 -36 -2.5t-32 -3.5l-19 3l-2 4q-4 0 -7 -1q-18 -3 -43 3.5t-37 17.5h-8 q-20 12 -27 30h-9l-11 12v13l-7 2v2q-9 13 -15 35q-10 35 -11 37l6 14l-6 16l4 12l-4 5q7 9 1.5 59.5t2.5 65.5l-6 8q-6 31 6 43q-8 72 -8 168q0 36 8 114l5 3l-1 11q0 10 6 13l5 33l7 2q-1 14 21.5 34.5t37.5 20.5l3 6q20 0 66 7q43 7 68 6h10l3 -5q13 -6 44 -6l5 -8 q23 -12 40 -31l34 -40l3 -19q10 -2 8 -49q7 -11 7 -40q0 -13 -1.5 -41t-1.5 -41q0 -26 5 -39l-4 -2q0 -37 4 -112t4 -113q0 -97 -19 -130zM346 689l-9 6l-2 -1q5 -3 11 -5zM313 713l4 1q0 7 -6 7zM299 706l5 -1h2l-10 6zM318 691q-5 6 -12 6zM343 656v-5h15zM383 597l10 2 q-6 4 -10 6v-8zM332 654v2l-4 4l-2 -3zM383 588l-13 9l-5 -3l5 -14h8v8h5zM361 597v4l-2 1zM344 605l-2 -1q-8 2 -14 12v-9l-4 -5zM346 585q-1 3 -3 5zM210 711l4 4q-4 5 -17 15l-3 -14zM188 727v5l-4 3zM184 713h5v1l-5 5v-6zM356 536l4 4l-4 5v-9zM168 727v4l-2 2l-8 -1 l-1 -2zM190 699v3v1l-6 3q3 -4 6 -7zM372 509l2 5h-4zM340 542l-2 2l-6 1l2 24l-19 3l-6 -14l12 -3v-13l5 -2v-12q6 12 14 14zM135 733l-2 -6l7 4zM168 691l-2 -9q8 4 8 10h-2q-1 0 -4 -1zM332 509l8 -3h2q-9 9 -16 14zM359 481v15h-16v-15h16zM372 457v1l-2 5l-2 -3z M135 689l3 6l-3 2l-9 -7v-1h9zM152 669l-3 -5h3l11 2zM359 457v11l-16 2l-6 -10l3 -6q6 2 19 3zM138 664l15 44l-20 -39v-5h5zM356 441l-1 3l-5 2v-5h6zM119 662h7l-15 5zM359 419l-1 4l-4 1l-3 -1q2 -2 8 -4zM97 669h-19l8 -5zM140 610l-8 6l6 2l-3 6h-5v-17zM100 654l7 2 l-6 4q-11 0 -15 -18l9 3l2 -3zM348 391l4 2l-6 4zM144 594v5l-11 3l-6 -3l3 -5h14zM111 607h4q-3 3 -7 5zM95 610v19l-9 -8h-5v-9zM130 563l5 4l-7 5h-1zM103 590l2 7l-3 2h-2zM311 384l-1 4l-4 1zM328 345l-2 17q-7 -5 -8 -17h10zM86 572v5l-3 3l-2 -4zM152 518h-12v13 l-7 2l11 25h-14v-11l-8 -2v13l-6 5l-8 -5l-3 -18l-5 5h-19l-3 8l22 2v6l-14 -3l-3 5l-13 4l-11 -9l2 -16l9 3l3 -5h13l6 5l3 -12l-10 1l-17 -1l-1 -5l4 -4l2 1l2 8l8 -2v-11l14 -6l-2 -5h-12l-2 -6h11l3 -7h13l-3 5l-2 -3h-6v8l16 -3l3 11l14 1l8 -1l-8 -5l-5 -13h-14v-6 l-6 -2l3 -7l8 7h11l3 -18l10 -2l-5 6l3 11l-7 4l7 3v14zM291 345q5 14 5 40q0 4 -2.5 42t-2.5 59q0 30 5 34l-3 3v10q2 3 2 14q0 15 -5 53.5t-5 44.5q0 10 -38 44l2 10h-4l-9 -8q-21 -3 -36 -11q-27 -15 -30 -16q2 -19 -8 -26l4 -20q0 -25 -2 -74.5t-2 -73.5h4v-7l-4 -15 q-5 1 -5 -3q0 -3 2 -7.5t3 -6.5q-1 -3 -7 -31q10 -8 9 -19l-7 -19l5 -3q2 -9 2 -58q-1 -51 -4 -56l6 -6q-1 -13 -4 -38q6 -11 6 -55q0 -17 11 -24q15 -32 48 -32q42 0 58 29q11 20 11 66q0 145 -5 160zM92 481l3 1q-1 5 -6 6zM73 498l-3 7q-1 4 -6 4l-3 -11h12zM359 242h-19 l3 -6l-9 -1l-2 -2l-5 2l7 7l-2 3h-8v-6q-4 -2 -5 -8l9 -3l4 -13l2 13l18 3h-6v5l8 -3q4 2 5 9zM75 481v3l-5 4q2 -4 5 -7zM144 422l-9 4l-10 -10l15 -3zM73 470q-2 4 -3 9zM95 460l-4 6l-16 -20h8v11zM356 184v2l-4 4h-2zM343 171l1 5h-4zM127 400q-18 6 -35 5l-3 9l-8 5 l2 12h9v-7h8l5 -8v10l-10 5v4l7 6l-7 3q-5 -4 -14 -13h-11l6 -8l-17 -7l22 -3v-4h-11l2 -6l-2 -9l-8 -2l8 -3l13 5l-2 6h11v-6l-5 -3l4 -3l4 1v8l16 3v-9l-8 3l7 -5q7 4 17 11zM125 362l4 7l-2 6l-2 1v-14zM350 149h-13v-13h11q-1 8 2 13zM315 162l5 2l-5 4v-6zM130 345 q-1 5 -5 7v-7h5zM321 151l-8 -7v-4l17 7zM147 318l-7 6l-5 -9zM127 332q-1 3 -5 5v-5h5zM113 373l-2 8h-52v-5q8 1 13 1h5q5 0 12 -1v-11h8l3 8h13zM324 114l-11 4v-7h12zM127 324l-19 2l-5 -14l8 -4l2 10h9l3 -8l4 1l-4 4zM59 356l-3 -4l12 -4h4l10 5zM326 89v5l-2 2z M147 269v4l-3 2l-3 -3zM348 61l-4 6l-4 -1q3 -3 8 -5zM81 321l6 1q-4 3 -12 4zM135 286h-10l-7 6l15 5q-17 1 -33 5l-6 -2l17 -3v-9l-8 -2l1 -4q23 -2 29 -2zM89 308l-3 7l-11 -13l3 -3zM324 59v12l-3 5l-3 -13l3 -4h3zM130 272q-25 5 -52 5l5 -13l-5 -6l7 -1q1 0 14 2 l-10 1v9h16l-2 -9l5 -5h14v12zM138 228l6 1q-5 3 -11 4zM296 70q-2 3 -3 6q2 -3 3 -6zM111 247h-6l5 -12zM140 206l-10 3v-6h10v3zM135 190l8 2l-8 3v-5zM100 245v5l-17 -3l-8 6l-2 -6l10 -2l-8 -9l6 -3q6 5 19 12zM122 193q1 2 1 5q0 8 -4 22h-8l-3 -8l-3 -2v-4h6l2 -16h11 l7 1zM155 176v5l-11 -2l-9 5l-18 -4q7 -7 23 -7zM61 245l5 2l-10 3zM239 67l1 4l-8 5l4 -11l4 -1zM149 166l-9 5q-11 0 -15 -20h10l-2 5l-3 2l3 4h14zM64 233v5l-5 1v-6h5zM83 212l-9 -5l7 -4l8 5zM190 79l2 4h-2l-3 -5zM201 70v2l-4 4l-2 -3zM75 193l1 3l-5 2h-1q2 -3 5 -5 zM116 149l1 3l-5 2h-1q2 -3 5 -5zM166 96l4 6l-4 3l-10 -6zM78 166h3l14 1l-17 4v-5zM195 54l2 2l-5 5zM95 151l-3 7l-19 2l2 -9h20zM177 74l-11 5l-10 -4l10 -8zM127 109l2 3l-4 2zM130 105h-19l-3 -5l17 -4zM92 131v9h-19l5 -16l5 9l10 -3zM170 39v5l-4 1v-6h4zM81 109v1 l-5 4h-1zM81 100l-1 3l-5 2v-5h6zM130 525l-3 -5l-16 3l-1 3l3 2l6 -3l6 6zM100 523v8h2l5 -4l-5 -4h-2zM108 520l4 -2l-7 -9l-4 2v2z" />
</font>
</defs>
</svg>
